<?xml version="1.0" encoding="UTF-8" standalone="no"?>
<!-- Created with Inkscape (http://www.inkscape.org/) -->

<svg
   xmlns:dc="http://purl.org/dc/elements/1.1/"
   xmlns:cc="http://creativecommons.org/ns#"
   xmlns:rdf="http://www.w3.org/1999/02/22-rdf-syntax-ns#"
   xmlns:svg="http://www.w3.org/2000/svg"
   xmlns="http://www.w3.org/2000/svg"
   xmlns:sodipodi="http://sodipodi.sourceforge.net/DTD/sodipodi-0.dtd"
   xmlns:inkscape="http://www.inkscape.org/namespaces/inkscape"
   width="1205.36"
   height="410.09"
   id="svg2"
   version="1.1"
   inkscape:version="0.48.5 r10040"
   sodipodi:docname="idea.svg"
   inkscape:export-filename="/home/ionicabizau/Desktop/idea.png"
   inkscape:export-xdpi="67.199997"
   inkscape:export-ydpi="67.199997">
  <defs
     id="defs4" />
  <sodipodi:namedview
     id="base"
     pagecolor="#ffffff"
     bordercolor="#666666"
     borderopacity="1.0"
     inkscape:pageopacity="0.0"
     inkscape:pageshadow="2"
     inkscape:zoom="0.98994949"
     inkscape:cx="546.40037"
     inkscape:cy="216.38101"
     inkscape:document-units="px"
     inkscape:current-layer="layer1"
     showgrid="false"
     height="744.09px"
     inkscape:window-width="1920"
     inkscape:window-height="1056"
     inkscape:window-x="0"
     inkscape:window-y="24"
     inkscape:window-maximized="1" />
  <metadata
     id="metadata7">
    <rdf:RDF>
      <cc:Work
         rdf:about="">
        <dc:format>image/svg+xml</dc:format>
        <dc:type
           rdf:resource="http://purl.org/dc/dcmitype/StillImage" />
        <dc:title></dc:title>
      </cc:Work>
    </rdf:RDF>
  </metadata>
  <g
     inkscape:label="Layer 1"
     inkscape:groupmode="layer"
     id="layer1"
     transform="translate(0,-642.2784)">
    <g
       id="g3141"
       transform="matrix(1.7685437,0,0,1.7685437,-94.053017,-627.5314)">
      <path
         style="fill:#2c3e50"
         id="path3079"
         d="m 447.42126,854.59163 q 0,9.45716 -5.75313,14.93445 -5.7531,5.47727 -15.28908,5.47727 h -68.87972 q -9.53598,0 -15.28909,-5.47727 -5.75311,-5.47729 -5.75311,-14.93445 0,-4.17692 0.27583,-8.15682 0.27584,-3.97988 1.10334,-8.59026 0.8275,-4.61037 2.08846,-8.55085 1.26095,-3.94049 3.38882,-7.68396 2.12786,-3.74346 4.8862,-6.38358 2.75834,-2.64013 6.73823,-4.21633 3.9799,-1.57619 8.78729,-1.57619 0.70929,0 3.31001,1.69441 2.60072,1.69441 5.87133,3.78287 3.2706,2.08845 8.51145,3.78286 5.24085,1.69441 10.5211,1.69441 5.28026,0 10.5211,-1.69441 5.24085,-1.69441 8.51145,-3.78286 3.27061,-2.08846 5.87134,-3.78287 2.60072,-1.69441 3.30999,-1.69441 4.80741,0 8.78729,1.57619 3.9799,1.5762 6.73824,4.21633 2.75834,2.64012 4.88619,6.38358 2.12788,3.74347 3.38883,7.68396 1.26096,3.94048 2.08846,8.55085 0.8275,4.61038 1.10334,8.59026 0.27584,3.9799 0.27584,8.15682 z m -25.21912,-70.37711 q 0,12.53075 -8.86611,21.39685 -8.86609,8.86609 -21.39684,8.86609 -12.53075,0 -21.39684,-8.86609 -8.8661,-8.8661 -8.8661,-21.39685 0,-12.53075 8.8661,-21.39685 8.86609,-8.8661 21.39684,-8.8661 12.53075,0 21.39684,8.8661 8.86611,8.8661 8.86611,21.39685 z"
         inkscape:connector-curvature="0" />
      <path
         style="fill:#f1c40f"
         id="path3069"
         d="m 356.21941,755.11052 q 0,0.36816 -0.26903,0.6372 -0.26905,0.26904 -0.63721,0.26904 -0.36816,0 -0.6372,-0.26904 -0.26904,-0.26904 -0.26904,-0.6372 0,-1.30273 -1.52929,-2.01073 -1.52928,-0.708 -3.00192,-0.708 -0.36816,0 -0.6372,-0.26904 -0.26905,-0.26904 -0.26905,-0.6372 0,-0.36816 0.26905,-0.6372 0.26904,-0.26905 0.6372,-0.26905 1.416,0 2.81785,0.45313 1.40184,0.45312 2.46384,1.52928 1.062,1.07616 1.062,2.54881 z m 4.53121,0 q 0,-2.03905 -0.97704,-3.79489 -0.97704,-1.75585 -2.54881,-2.87449 -1.57175,-1.11864 -3.48336,-1.75584 -1.91161,-0.6372 -3.86569,-0.6372 -1.95408,0 -3.86569,0.6372 -1.91161,0.6372 -3.48336,1.75584 -1.57177,1.11864 -2.54881,2.87449 -0.97704,1.75584 -0.97704,3.79489 0,2.86032 1.92576,5.09761 0.2832,0.31152 0.86376,0.93455 0.58056,0.62305 0.86377,0.93457 3.62497,4.33296 3.99312,8.43938 h 6.45698 q 0.36815,-4.10642 3.99312,-8.43938 0.28321,-0.31152 0.86377,-0.93457 0.58056,-0.62303 0.86376,-0.93455 1.92576,-2.23729 1.92576,-5.09761 z m 3.62497,0 q 0,4.38961 -2.91696,7.58977 -1.27441,1.38768 -2.10985,2.46384 -0.83544,1.07616 -1.68504,2.70457 -0.84961,1.6284 -0.96289,3.04441 1.33105,0.79296 1.33105,2.32224 0,1.04785 -0.70801,1.81249 0.70801,0.76464 0.70801,1.81248 0,1.47264 -1.27441,2.29393 0.36817,0.65136 0.36817,1.33103 0,1.30273 -0.89209,2.01072 -0.89208,0.70801 -2.1948,0.70801 -0.56641,1.24608 -1.69921,1.98241 -1.1328,0.73632 -2.46384,0.73632 -1.33104,0 -2.46384,-0.73632 -1.1328,-0.73633 -1.69921,-1.98241 -1.30272,0 -2.1948,-0.70801 -0.89209,-0.70799 -0.89209,-2.01072 0,-0.67967 0.36817,-1.33103 -1.27441,-0.82129 -1.27441,-2.29393 0,-1.04784 0.70801,-1.81248 -0.70801,-0.76464 -0.70801,-1.81249 0,-1.52928 1.33105,-2.32224 -0.11328,-1.41601 -0.96289,-3.04441 -0.8496,-1.62841 -1.68504,-2.70457 -0.83544,-1.07616 -2.10985,-2.46384 -2.91696,-3.20016 -2.91696,-7.58977 0,-2.80369 1.26024,-5.22506 1.26025,-2.42136 3.31345,-4.02144 2.05321,-1.60009 4.64449,-2.52049 2.59128,-0.9204 5.28169,-0.9204 2.69041,0 5.28169,0.9204 2.59128,0.9204 4.64449,2.52049 2.0532,1.60008 3.31345,4.02144 1.26024,2.42137 1.26024,5.22506 z"
         inkscape:connector-curvature="0" />
      <path
         style="fill:#1abc9c"
         id="path3059"
         d="m 403.88329,783.32052 q -0.29284,-4.65897 -3.94633,-7.73868 -3.65331,-3.07971 -8.52365,-2.7734 -4.87028,0.30621 -8.10892,3.81948 -3.23866,3.51314 -2.94564,8.17213 0.29284,4.65897 3.9463,7.73863 3.65331,3.07972 8.52358,2.77341 4.87037,-0.30621 8.10899,-3.81948 3.23869,-3.51313 2.94567,-8.17209 z m 36.7021,20.28436 q -0.14347,-2.28555 -1.99476,-3.84595 -1.85097,-1.56036 -4.24021,-1.41011 -2.38922,0.15022 -4.03013,1.93027 -1.6409,1.78002 -1.49715,4.06556 0.14627,2.32946 1.97314,3.86931 1.82664,1.53982 4.26178,1.38666 2.43519,-0.15332 4.05452,-1.90971 1.61932,-1.75657 1.47281,-4.08603 z m -2.83068,-45.00733 q -0.14346,-2.28555 -1.99471,-3.8459 -1.85103,-1.56037 -4.24021,-1.41016 -2.38922,0.15021 -4.03018,1.93027 -1.64085,1.78 -1.49715,4.06552 0.14657,2.32951 1.97315,3.86935 1.82663,1.53991 4.26182,1.38671 2.43513,-0.15334 4.05451,-1.90972 1.61928,-1.75661 1.47277,-4.08607 z m -16.4796,19.6136 0.51147,8.13122 q 0.0267,0.43949 -0.26787,0.87727 -0.29552,0.43772 -0.70614,0.50773 l -7.05531,1.50281 q -0.40874,1.57008 -1.26021,3.43282 1.69488,2.01147 4.45309,4.7945 0.34944,0.41943 0.37707,0.85879 0.0312,0.52756 -0.26922,0.85534 -0.97381,1.38501 -3.54317,4.17214 -2.56931,2.78714 -3.44229,2.84205 -0.50533,0.0312 -0.98426,-0.24693 l -5.53259,-3.62341 q -1.6475,0.94201 -3.45221,1.58505 -0.2068,4.77864 -0.62829,6.87913 -0.25541,1.07501 -1.31203,1.14147 l -8.54602,0.53741 q -0.50532,0.0312 -0.93968,-0.27189 -0.43414,-0.30354 -0.50782,-0.74031 l -1.47973,-6.65827 q -1.58982,-0.34144 -3.53167,-1.1458 l -5.1756,4.25274 q -0.30221,0.32805 -0.89957,0.36549 -0.50537,0.0312 -0.98702,-0.29105 -6.98397,-5.42964 -7.05858,-6.61633 -0.0267,-0.39537 0.26922,-0.85536 0.42076,-0.64417 1.73736,-2.44793 1.31649,-1.80368 1.9908,-2.8169 -1.17838,-1.86742 -1.83481,-3.50298 l -7.05015,-0.61559 q -0.46225,-0.0133 -0.80739,-0.36861 -0.34498,-0.35346 -0.3753,-0.83686 l -0.51147,-8.13117 q -0.0267,-0.43949 0.26789,-0.87732 0.29552,-0.43771 0.70612,-0.50773 l 7.05532,-1.50277 q 0.40873,-1.57012 1.2602,-3.43286 -1.69482,-2.01143 -4.45307,-4.79441 -0.35214,-0.46329 -0.37709,-0.85883 -0.0312,-0.52756 0.26654,-0.8993 0.92788,-1.38216 3.52152,-4.14869 2.59372,-2.76663 3.46668,-2.82151 0.50537,-0.0312 0.98426,0.24694 l 5.53263,3.62341 q 1.5124,-0.88941 3.44943,-1.629 0.20682,-4.77865 0.63102,-6.83514 0.2554,-1.07509 1.31204,-1.14155 l 8.54606,-0.53737 q 0.50533,-0.0312 0.93969,0.27189 0.43413,0.30354 0.5078,0.74026 l 1.47969,6.65828 q 1.58981,0.34142 3.53172,1.14575 l 5.17565,-4.25274 q 0.3481,-0.33073 0.89956,-0.36549 0.50527,-0.0312 0.98697,0.29105 6.98392,5.42959 7.05853,6.61629 0.0267,0.39536 -0.26921,0.85536 -0.50714,0.7379 -1.78046,2.49478 -1.27335,1.75686 -1.90174,2.76715 1.18943,2.0433 1.78884,3.50592 l 7.04744,0.57163 q 0.46498,0.0588 0.8101,0.4123 0.345,0.35347 0.3753,0.83686 z m 30.87908,21.57729 0.38688,6.1533 q 0.0446,0.70335 -6.76034,1.79306 -0.47674,1.22139 -1.23465,2.37225 2.65564,4.81931 2.72472,5.91806 0.009,0.17606 -0.16447,0.31914 -5.40916,3.47316 -5.50107,3.4789 -0.36773,0.0223 -2.24349,-1.93276 -1.87583,-1.95599 -2.57715,-2.83848 -0.91338,0.14569 -1.37283,0.17472 -0.4595,0.0267 -1.38394,-10e-4 -0.5852,0.96348 -2.20122,3.13907 -1.61608,2.17551 -1.98362,2.19864 -0.0918,0.004 -5.89362,-2.76226 -0.19256,-0.12042 -0.20326,-0.29596 -0.0692,-1.09873 1.96174,-6.21276 -0.89609,-1.04685 -1.52208,-2.19887 -6.88749,-0.22865 -6.93171,-0.93192 l -0.38689,-6.15335 q -0.0446,-0.70337 6.76034,-1.79308 0.51708,-1.31222 1.23456,-2.37225 -2.65559,-4.81924 -2.72468,-5.9181 -0.009,-0.17561 0.16448,-0.31914 0.17829,-0.0994 1.55282,-0.98019 1.37457,-0.88076 2.61687,-1.66488 1.24224,-0.78417 1.33415,-0.78997 0.36772,-0.0223 2.24205,1.91088 1.87454,1.93396 2.57582,2.81656 0.91342,-0.14583 1.37283,-0.17474 0.4595,-0.0267 1.38394,10e-4 2.14701,-3.26799 3.91744,-5.18854 l 0.27012,-0.1052 q 0.18408,-0.0133 5.89085,2.71836 0.19257,0.12042 0.20327,0.29597 0.0691,1.09884 -1.96179,6.21285 0.84465,0.96179 1.52212,2.19882 6.88745,0.22866 6.93172,0.93197 z m -2.83068,-45.00733 0.38689,6.1533 q 0.0446,0.70336 -6.76034,1.79311 -0.47671,1.22143 -1.23463,2.37221 2.65561,4.81924 2.72474,5.91809 0.009,0.17562 -0.16447,0.31915 -5.40922,3.47314 -5.50112,3.47893 -0.36772,0.0223 -2.24344,-1.93279 -1.87588,-1.95599 -2.57719,-2.83858 -0.91339,0.14583 -1.37283,0.17473 -0.45951,0.0267 -1.3839,-10e-4 -0.58524,0.96343 -2.20127,3.13899 -1.61603,2.17559 -1.98362,2.19872 -0.0917,0.004 -5.89363,-2.7623 -0.19255,-0.12027 -0.20325,-0.29596 -0.0691,-1.09881 1.96178,-6.21282 -0.89614,-1.04679 -1.52211,-2.19882 -6.88747,-0.22866 -6.93172,-0.93201 l -0.3869,-6.15331 q -0.0446,-0.70339 6.76035,-1.79306 0.51709,-1.31222 1.23461,-2.37225 -2.65559,-4.81924 -2.72472,-5.91805 -0.009,-0.17562 0.16447,-0.31915 0.1783,-0.0994 1.55283,-0.98019 1.37457,-0.88072 2.61686,-1.66483 1.24223,-0.78418 1.33419,-0.78992 0.36773,-0.0223 2.24201,1.91083 1.87455,1.93401 2.5758,2.81649 0.91343,-0.14524 1.37289,-0.17471 0.45951,-0.0267 1.38394,10e-4 2.14698,-3.26797 3.91745,-5.18852 l 0.27012,-0.1052 q 0.18408,-0.0133 5.89081,2.71836 0.1921,0.12042 0.20326,0.29596 0.0691,1.09881 -1.96178,6.21286 0.84465,0.96174 1.5221,2.19881 6.88751,0.22866 6.93173,0.93198 z"
         inkscape:connector-curvature="0" />
    </g>
    <text
       xml:space="preserve"
       style="font-size:40px;font-style:normal;font-weight:normal;line-height:125%;letter-spacing:0px;word-spacing:0px;fill:#2c3e50;fill-opacity:1;stroke:none;font-family:monaco;-inkscape-font-specification:monaco"
       x="498.16998"
       y="974.84558"
       id="text2985"
       sodipodi:linespacing="125%"><tspan
         sodipodi:role="line"
         id="tspan2987"
         x="498.16998"
         y="974.84558"
         style="font-size:70px;fill:#2c3e50;font-family:Ubuntu Mono;-inkscape-font-specification:Ubuntu Mono">$ idea</tspan></text>
  </g>
</svg>
