<?xml version="1.0" encoding="UTF-8" standalone="no"?>
<!-- Created with Inkscape (http://www.inkscape.org/) -->

<svg
   xmlns:dc="http://purl.org/dc/elements/1.1/"
   xmlns:cc="http://creativecommons.org/ns#"
   xmlns:rdf="http://www.w3.org/1999/02/22-rdf-syntax-ns#"
   xmlns:svg="http://www.w3.org/2000/svg"
   xmlns="http://www.w3.org/2000/svg"
   xmlns:xlink="http://www.w3.org/1999/xlink"
   xmlns:sodipodi="http://sodipodi.sourceforge.net/DTD/sodipodi-0.dtd"
   xmlns:inkscape="http://www.inkscape.org/namespaces/inkscape"
   width="900"
   height="400"
   viewBox="0 0 900.00001 400.00001"
   id="svg2"
   version="1.1"
   inkscape:version="0.91 r13725"
   sodipodi:docname="h.svg"
   inkscape:export-filename="/home/ionicabizau/Documents/Resources/json2md/h.png"
   inkscape:export-xdpi="90"
   inkscape:export-ydpi="90">
  <defs
     id="defs4">
    <linearGradient
       inkscape:collect="always"
       id="linearGradient5468">
      <stop
         style="stop-color:#3498db;stop-opacity:1"
         offset="0"
         id="stop5470" />
      <stop
         style="stop-color:#2980b9;stop-opacity:1"
         offset="1"
         id="stop5472" />
    </linearGradient>
    <linearGradient
       inkscape:collect="always"
       xlink:href="#linearGradient5468"
       id="linearGradient5474"
       x1="15.094339"
       y1="664.31183"
       x2="827.04401"
       y2="910.22382"
       gradientUnits="userSpaceOnUse"
       gradientTransform="matrix(1.1819897,0,0,1.929293,-27.330218,-656.98023)" />
    <linearGradient
       inkscape:collect="always"
       xlink:href="#linearGradient5468"
       id="linearGradient5480"
       gradientUnits="userSpaceOnUse"
       gradientTransform="matrix(0.83230555,0,0,1.3585239,95.04545,-175.60692)"
       x1="15.094339"
       y1="664.31183"
       x2="827.04401"
       y2="910.22382" />
    <linearGradient
       inkscape:collect="always"
       xlink:href="#linearGradient5468"
       id="linearGradient5485"
       gradientUnits="userSpaceOnUse"
       gradientTransform="matrix(1,0,0,1.6322418,18.238994,-1069.9171)"
       x1="15.094339"
       y1="664.31183"
       x2="827.04401"
       y2="910.22382" />
    <linearGradient
       inkscape:collect="always"
       xlink:href="#linearGradient5468"
       id="linearGradient5510"
       gradientUnits="userSpaceOnUse"
       gradientTransform="matrix(1,0,0,1.6322418,18.238994,-413.55494)"
       x1="15.094339"
       y1="664.31183"
       x2="827.04401"
       y2="910.22382" />
  </defs>
  <sodipodi:namedview
     id="base"
     pagecolor="#ffffff"
     bordercolor="#666666"
     borderopacity="1.0"
     inkscape:pageopacity="0.0"
     inkscape:pageshadow="2"
     inkscape:zoom="1.1242998"
     inkscape:cx="461.86962"
     inkscape:cy="229.88465"
     inkscape:document-units="px"
     inkscape:current-layer="layer1"
     showgrid="false"
     units="px"
     inkscape:window-width="1920"
     inkscape:window-height="1060"
     inkscape:window-x="0"
     inkscape:window-y="0"
     inkscape:window-maximized="1" />
  <metadata
     id="metadata7">
    <rdf:RDF>
      <cc:Work
         rdf:about="">
        <dc:format>image/svg+xml</dc:format>
        <dc:type
           rdf:resource="http://purl.org/dc/dcmitype/StillImage" />
        <dc:title></dc:title>
      </cc:Work>
    </rdf:RDF>
  </metadata>
  <g
     inkscape:label="Layer 1"
     inkscape:groupmode="layer"
     id="layer1"
     transform="translate(0,-652.36216)">
    <g
       id="g5528"
       transform="matrix(1.12508,0,0,1.12508,-56.285997,-140.58999)">
      <path
         inkscape:connector-curvature="0"
         id="rect5476"
         d="m 464.75977,898.79966 0,29.88281 0.81835,0 0,-6.91797 5.77149,-5.24023 9.04687,12.1582 0.98243,0 -9.41602,-12.73047 9.21094,-8.43359 -1.10547,0 -14.49024,13.14063 0,-21.85938 -0.81835,0 z m 36.73437,0 0,13.58984 c -0.43662,-0.70951 -0.95433,-1.37821 -1.55469,-2.00586 -0.57307,-0.65493 -1.22803,-1.21382 -1.96484,-1.67773 -0.7368,-0.4912 -1.54277,-0.87359 -2.41602,-1.14648 -0.84596,-0.30018 -1.75978,-0.44922 -2.74218,-0.44922 -1.41903,0 -2.72897,0.30003 -3.92969,0.90039 -1.20072,0.60036 -2.2518,1.40437 -3.15234,2.41406 -0.87325,1.0097 -1.55568,2.18432 -2.04688,3.52148 -0.4912,1.30988 -0.73633,2.70022 -0.73633,4.17383 0,1.36446 0.24513,2.70185 0.73633,4.01172 0.51849,1.30988 1.22837,2.4845 2.12891,3.52149 0.92783,1.03698 2.02009,1.86844 3.27539,2.49609 1.25529,0.62765 2.61819,0.94141 4.09179,0.94141 0.81868,0 1.62464,-0.12159 2.41602,-0.36719 0.79138,-0.21831 1.54244,-0.5458 2.25195,-0.98242 0.73681,-0.43663 1.4055,-0.94256 2.00586,-1.51563 0.62765,-0.60036 1.17281,-1.25533 1.63672,-1.96484 l 0,2.7832 c 0,0.32747 0.0824,0.64123 0.24609,0.94141 0.16373,0.27289 0.39514,0.47879 0.69532,0.61523 0.10915,0.0546 0.28565,0.082 0.53125,0.082 l 0,-0.82031 c -0.43663,0 -0.6543,-0.27258 -0.6543,-0.81836 l 0,-28.24414 -0.81836,0 z m -242.34375,0.61523 c -1.55547,0 -2.9615,0.1765 -4.2168,0.53125 -1.228,0.32747 -2.29283,0.8334 -3.19336,1.51563 -0.87325,0.65494 -1.55567,1.47267 -2.04687,2.45508 -0.46391,0.95512 -0.69531,2.06111 -0.69531,3.3164 0,1.20072 0.21962,2.20868 0.65625,3.02735 0.43662,0.79138 1.07786,1.46008 1.92382,2.00586 0.87326,0.51849 1.92239,0.95579 3.1504,1.31054 1.25529,0.32747 2.68876,0.64123 4.29882,0.94141 1.66463,0.32747 3.10988,0.68241 4.33789,1.06445 1.228,0.38205 2.23792,0.8468 3.0293,1.39258 0.79139,0.54578 1.37967,1.20075 1.76172,1.96484 0.38205,0.73681 0.57227,1.65063 0.57227,2.74219 0,2.18313 -0.84519,3.82055 -2.53711,4.91211 -1.66463,1.06428 -3.9433,1.5957 -6.83594,1.5957 -2.21041,0 -4.18905,-0.34121 -5.93555,-1.02343 -1.71921,-0.68223 -3.31545,-1.78628 -4.78906,-3.31446 l -0.61524,0.53125 c 1.55548,1.55548 3.23408,2.7007 5.03516,3.4375 1.82837,0.70952 3.91682,1.06446 6.26367,1.06446 3.19282,0 5.68916,-0.62753 7.49024,-1.88282 1.82837,-1.2553 2.74219,-3.06921 2.74219,-5.44335 0,-1.28259 -0.24513,-2.3474 -0.73633,-3.19336 -0.4912,-0.84596 -1.20108,-1.55584 -2.12891,-2.12891 -0.90054,-0.57307 -2.00654,-1.04959 -3.31641,-1.43164 -1.30988,-0.38205 -2.76885,-0.73698 -4.3789,-1.06445 -1.61005,-0.32747 -3.00235,-0.65496 -4.17578,-0.98243 -1.14614,-0.35475 -2.08742,-0.7646 -2.82422,-1.22851 -0.73681,-0.4912 -1.28196,-1.07754 -1.63672,-1.75977 -0.35476,-0.70951 -0.5332,-1.58215 -0.5332,-2.61914 0,-1.06427 0.17844,-2.01927 0.5332,-2.86523 0.35476,-0.84596 0.91363,-1.56956 1.67773,-2.16992 0.76409,-0.62765 1.73283,-1.10613 2.90625,-1.4336 1.20072,-0.32747 2.6342,-0.49023 4.29883,-0.49023 1.71921,0 3.19191,0.2314 4.41992,0.69531 1.25529,0.46392 2.45543,1.32283 3.60157,2.57813 l 0.5332,-0.57227 c -1.14614,-1.2553 -2.4149,-2.14166 -3.80664,-2.66016 -1.36445,-0.54578 -2.97442,-0.81836 -4.83008,-0.81836 z m 27.40625,0 c -1.91023,0 -3.69669,0.4079 -5.36133,1.22657 -1.63734,0.79138 -3.07083,1.86992 -4.29883,3.23437 -1.20072,1.36446 -2.15571,2.93325 -2.86523,4.70703 -0.68223,1.77379 -1.02344,3.62889 -1.02344,5.56641 0,1.85566 0.32748,3.67152 0.98242,5.44531 0.65493,1.77379 1.58249,3.34258 2.78321,4.70703 1.20072,1.36446 2.62047,2.47045 4.25781,3.31641 1.66463,0.84596 3.506,1.26758 5.52539,1.26758 1.91024,0 3.68492,-0.39417 5.32227,-1.18555 1.63734,-0.81867 3.05709,-1.89721 4.25781,-3.23437 1.22801,-1.36446 2.18301,-2.93325 2.86523,-4.70704 0.70952,-1.77378 1.06446,-3.64456 1.06446,-5.60937 0,-1.80108 -0.3275,-3.57381 -0.98243,-5.32031 -0.65494,-1.77379 -1.58443,-3.35631 -2.78515,-4.74805 -1.17343,-1.39174 -2.59123,-2.51146 -4.25586,-3.35742 -1.66463,-0.87325 -3.49423,-1.3086 -5.48633,-1.3086 z m -81.95508,0.20313 -12.68945,29.06445 0.90039,0 4.54297,-10.39843 15.1875,0 4.54297,10.39843 0.90039,0 -12.64844,-29.06445 -0.73633,0 z m 37.33008,0 0,14.77734 c 0,2.18313 -0.0824,4.13431 -0.24609,5.85352 -0.16374,1.71921 -0.51867,3.18014 -1.06446,4.38086 -0.51849,1.17343 -1.297,2.08725 -2.33398,2.74219 -1.00969,0.62764 -2.38631,0.9414 -4.13281,0.9414 -2.31957,0 -4.27075,-0.54515 -5.85352,-1.63672 l -0.45117,0.6543 c 1.7465,1.20072 3.84867,1.80078 6.30469,1.80078 1.91023,0 3.42412,-0.35494 4.54297,-1.06445 1.14614,-0.70952 2.01878,-1.7057 2.61914,-2.98828 0.60036,-1.28259 0.98275,-2.82392 1.14648,-4.625 0.19103,-1.82837 0.28711,-3.84818 0.28711,-6.0586 l 0,-14.77734 -0.81836,0 z m 64.18359,0 0,29.06445 0.82032,0 0,-27.46679 21.89843,27.46679 0.94141,0 0,-29.06445 -0.81836,0 0,27.87695 -22.22656,-27.87695 -0.61524,0 z m 88.66407,0 0,29.06445 0.81836,0 0,-27.26172 12.89453,21.5293 0.65429,0 12.89454,-21.5293 0,27.26172 0.81836,0 0,-29.06445 -0.6543,0 -13.38672,22.34961 -13.38477,-22.34961 -0.65429,0 z m -46.12891,0.41016 0,7.4082 -3.07031,0 0,0.82031 3.07031,0 0,17.35547 c 0,0.98241 0.36867,1.77269 1.10547,2.37305 0.73681,0.60036 1.59571,0.90039 2.57812,0.90039 0.57307,0 1.09272,-0.0667 1.55664,-0.20313 0.46391,-0.10915 0.85808,-0.23269 1.18555,-0.36914 0.35476,-0.13644 0.62928,-0.27371 0.82031,-0.41015 l 0.32618,-0.20313 -0.44922,-0.65625 c -0.0273,0.0273 -0.1371,0.0959 -0.32813,0.20508 -0.16373,0.10916 -0.40887,0.23269 -0.73633,0.36914 -0.30018,0.10916 -0.65511,0.21702 -1.06445,0.32617 -0.40933,0.0819 -0.84664,0.12305 -1.31055,0.12305 -0.70952,0 -1.35075,-0.20395 -1.92382,-0.61328 -0.57307,-0.43663 -0.88683,-1.05042 -0.94141,-1.8418 l 0,-17.35547 5.11719,0 0,-0.82031 -5.11719,0 0,-7.4082 -0.81836,0 z m 376.47656,0 0,7.4082 -3.07031,0 0,0.82031 3.07031,0 0,17.35547 c 0,0.98241 0.36867,1.77269 1.10547,2.37305 0.73681,0.60036 1.59768,0.90039 2.58008,0.90039 0.57307,0 1.09077,-0.0667 1.55469,-0.20313 0.46391,-0.10915 0.86003,-0.23269 1.1875,-0.36914 0.35476,-0.13644 0.62733,-0.27371 0.81836,-0.41015 l 0.32812,-0.20313 -0.45117,-0.65625 c -0.0273,0.0273 -0.13711,0.0959 -0.32812,0.20508 -0.16374,0.10916 -0.40886,0.23269 -0.73633,0.36914 -0.30018,0.10916 -0.65512,0.21702 -1.06446,0.32617 -0.40933,0.0819 -0.84467,0.12305 -1.30859,0.12305 -0.70951,0 -1.35076,-0.20395 -1.92383,-0.61328 -0.57307,-0.43663 -0.88878,-1.05042 -0.94336,-1.8418 l 0,-17.35547 5.11719,0 0,-0.82031 -5.11719,0 0,-7.4082 -0.81836,0 z m -438.57031,0.20507 c 1.80108,0 3.46596,0.3824 4.99414,1.14649 1.55548,0.76409 2.9066,1.7995 4.05274,3.10937 1.14614,1.28259 2.0325,2.77097 2.66015,4.46289 0.65494,1.66464 0.98242,3.39619 0.98242,5.19727 0,1.71921 -0.31375,3.41154 -0.9414,5.07617 -0.60036,1.66463 -1.45928,3.15302 -2.57813,4.46289 -1.09156,1.30988 -2.42896,2.37274 -4.01172,3.19141 -1.55548,0.79138 -3.27525,1.1875 -5.1582,1.1875 -1.85565,0 -3.55976,-0.38239 -5.11523,-1.14649 -1.55548,-0.76409 -2.89287,-1.78578 -4.01172,-3.06836 -1.11885,-1.30988 -2.00522,-2.79825 -2.66016,-4.46289 -0.62765,-1.69192 -0.9414,-3.43915 -0.94141,-5.24023 0,-1.71921 0.30004,-3.40959 0.9004,-5.07422 0.62765,-1.66463 1.50029,-3.15301 2.61914,-4.46289 1.11885,-1.30987 2.45624,-2.35901 4.01172,-3.15039 1.58276,-0.81867 3.31432,-1.22852 5.19726,-1.22852 z m -81.58594,0.57227 7.20313,16.66016 -14.49024,0 7.28711,-16.66016 z m 163.05078,6.30469 c -1.36446,0 -2.66066,0.30003 -3.88867,0.90039 -1.228,0.57307 -2.30459,1.36335 -3.23242,2.37304 -0.92783,1.0097 -1.66515,2.18433 -2.21094,3.52149 -0.51849,1.30987 -0.77734,2.71395 -0.77734,4.21484 0,1.47361 0.25885,2.87964 0.77734,4.2168 0.54579,1.33716 1.26938,2.50984 2.16993,3.51953 0.92781,0.98241 2.00441,1.77464 3.23242,2.375 1.22801,0.57307 2.53793,0.85938 3.92968,0.85938 1.39174,0 2.70169,-0.28631 3.92969,-0.85938 1.22801,-0.60036 2.29282,-1.39259 3.19336,-2.375 0.92783,-1.00969 1.65143,-2.18237 2.16992,-3.51953 0.54579,-1.33716 0.81836,-2.74319 0.81836,-4.2168 0,-1.50089 -0.27257,-2.90497 -0.81836,-4.21484 -0.54578,-1.33716 -1.28311,-2.51179 -2.21093,-3.52149 -0.90054,-1.00969 -1.96536,-1.79997 -3.19336,-2.37304 -1.22801,-0.60036 -2.52423,-0.90039 -3.88868,-0.90039 z m 69.20118,0 c -2.18313,0 -4.63828,0.92754 -7.36719,2.7832 l 0.49023,0.6543 c 1.20072,-0.84596 2.38908,-1.48721 3.5625,-1.92383 1.17343,-0.46391 2.27747,-0.69531 3.31446,-0.69531 1.03698,0 1.97825,0.17649 2.82422,0.53125 0.87324,0.35475 1.61057,0.86068 2.21093,1.51562 0.62765,0.62765 1.10613,1.40421 1.4336,2.33203 0.32747,0.90054 0.49023,1.89672 0.49023,2.98828 l 0,2.41602 c -1.00969,-0.38205 -2.14119,-0.66836 -3.39648,-0.85938 -1.2553,-0.21832 -2.49856,-0.32812 -3.72657,-0.32812 -1.28258,0 -2.46898,0.15099 -3.56054,0.45117 -1.06428,0.30018 -1.99183,0.7218 -2.78321,1.26758 -0.7641,0.51849 -1.36415,1.14601 -1.80078,1.88281 -0.40933,0.73681 -0.61523,1.55649 -0.61523,2.45703 0,0.90054 0.17844,1.74573 0.5332,2.53711 0.35476,0.79139 0.83128,1.48753 1.43164,2.08789 0.62765,0.57307 1.36498,1.03782 2.21094,1.39258 0.84596,0.32747 1.74606,0.49024 2.70117,0.49024 1.85566,0 3.57543,-0.34121 5.1582,-1.02344 1.58276,-0.70952 2.86526,-1.7057 3.84766,-2.98828 l 0,1.96484 c 0,0.35476 0.0824,0.68224 0.24609,0.98242 0.16373,0.27289 0.38141,0.46507 0.6543,0.57422 0.0819,0.0546 0.27404,0.082 0.57422,0.082 l 0,-0.82031 c -0.43662,0 -0.65625,-0.27258 -0.65625,-0.81836 l 0,-11.74805 c 0,-1.25529 -0.19023,-2.38678 -0.57227,-3.39648 -0.35476,-1.0097 -0.87441,-1.87056 -1.55664,-2.58008 -0.65493,-0.70951 -1.47267,-1.25467 -2.45507,-1.63672 -0.95512,-0.38204 -2.01993,-0.57226 -3.19336,-0.57226 z m 80.54296,0 c -1.36446,0 -2.66066,0.30003 -3.88867,0.90039 -1.228,0.57307 -2.30654,1.36335 -3.23437,2.37304 -0.92783,1.0097 -1.6632,2.18433 -2.20899,3.52149 -0.51849,1.30987 -0.77929,2.71395 -0.77929,4.21484 0,1.47361 0.2608,2.87964 0.77929,4.2168 0.54579,1.33716 1.26743,2.50984 2.16797,3.51953 0.92783,0.98241 2.00637,1.77464 3.23438,2.375 1.22801,0.57307 2.53794,0.85938 3.92968,0.85938 1.39175,0 2.70169,-0.28631 3.92969,-0.85938 1.22801,-0.60036 2.29282,-1.39259 3.19336,-2.375 0.92783,-1.00969 1.65143,-2.18237 2.16992,-3.51953 0.54579,-1.33716 0.81836,-2.74319 0.81836,-4.2168 0,-1.50089 -0.27257,-2.90497 -0.81836,-4.21484 -0.54578,-1.33716 -1.2831,-2.51179 -2.21093,-3.52149 -0.90054,-1.00969 -1.96535,-1.79997 -3.19336,-2.37304 -1.22801,-0.60036 -2.52422,-0.90039 -3.88868,-0.90039 z m 57.36133,0 c -0.95511,0 -1.8964,0.14904 -2.82422,0.44922 -0.92783,0.27289 -1.80046,0.669 -2.61914,1.1875 -0.81867,0.4912 -1.56972,1.10499 -2.25195,1.84179 -0.68222,0.70952 -1.24111,1.48803 -1.67773,2.33399 l 0,-5.48633 -0.81836,0 0,21.24609 0.81836,0 0,-13.42773 c 0.30018,-1.03699 0.76297,-2.00571 1.39062,-2.90625 0.62765,-0.90054 1.36498,-1.6771 2.21094,-2.33203 0.84596,-0.65494 1.75978,-1.16087 2.74219,-1.51563 1.00969,-0.38204 2.03333,-0.57226 3.07031,-0.57226 1.91023,0 3.28879,0.70987 4.13476,2.1289 0.87325,1.41903 1.3086,3.68396 1.3086,6.79492 l 0,11.83008 0.82031,0 0,-11.83008 c 0,-3.35656 -0.50593,-5.81366 -1.51562,-7.36914 -1.0097,-1.58276 -2.60594,-2.37304 -4.78907,-2.37304 z m 32.30469,0 c -1.44632,0 -2.79744,0.2863 -4.05273,0.85937 -1.22801,0.54578 -2.30655,1.30861 -3.23438,2.29102 -0.92783,0.95512 -1.65143,2.10229 -2.16992,3.43945 -0.51849,1.30988 -0.77734,2.72963 -0.77734,4.25781 0,1.52819 0.27257,2.97344 0.81835,4.33789 0.54579,1.33717 1.28312,2.51179 2.21094,3.52149 0.92783,1.00969 2.0201,1.8137 3.27539,2.41406 1.2553,0.57307 2.57701,0.85938 3.96875,0.85938 0.92783,0 1.82988,-0.13532 2.70313,-0.40821 0.90054,-0.2456 1.71827,-0.58682 2.45508,-1.02343 0.7368,-0.46393 1.36432,-0.9973 1.88281,-1.59766 0.54578,-0.62765 0.9419,-1.29634 1.1875,-2.00586 l -0.81836,-0.24414 c -0.16373,0.57307 -0.49122,1.13195 -0.98242,1.67773 -0.4912,0.54578 -1.09127,1.02231 -1.80078,1.43164 -0.68223,0.40934 -1.44701,0.73682 -2.29297,0.98243 -0.81867,0.2456 -1.63641,0.36914 -2.45508,0.36914 -1.28258,0 -2.48466,-0.27258 -3.60352,-0.81836 -1.11885,-0.54578 -2.11503,-1.28311 -2.98828,-2.21094 -0.84596,-0.95512 -1.51465,-2.05916 -2.00586,-3.31445 -0.4912,-1.2553 -0.73633,-2.57896 -0.73633,-3.97071 0,-1.39174 0.2314,-2.70168 0.69532,-3.92968 0.4912,-1.22801 1.1599,-2.29282 2.00586,-3.19336 0.84596,-0.90054 1.82841,-1.61042 2.94726,-2.12891 1.11885,-0.51849 2.33466,-0.77734 3.64453,-0.77734 1.55548,0 2.97328,0.38239 4.25586,1.14648 1.30988,0.73681 2.31979,1.76044 3.0293,3.07031 l 0.81836,-0.28711 c -0.70951,-1.50089 -1.77237,-2.6618 -3.19141,-3.48047 -1.39174,-0.84596 -2.98798,-1.26757 -4.78906,-1.26757 z m 21.62305,0 c -1.36445,0 -2.66067,0.30003 -3.88867,0.90039 -1.22801,0.57307 -2.30655,1.36335 -3.23438,2.37304 -0.92783,1.0097 -1.66515,2.18433 -2.21094,3.52149 -0.51849,1.30987 -0.77734,2.71395 -0.77734,4.21484 0,1.47361 0.25885,2.87964 0.77734,4.2168 0.54579,1.33716 1.26939,2.50984 2.16992,3.51953 0.92782,0.98241 2.00637,1.77464 3.23438,2.375 1.22801,0.57307 2.53795,0.85938 3.92969,0.85938 1.39174,0 2.70168,-0.28631 3.92969,-0.85938 1.22799,-0.60036 2.29086,-1.39259 3.1914,-2.375 0.92783,-1.00969 1.65143,-2.18237 2.16992,-3.51953 0.54579,-1.33716 0.81836,-2.74319 0.81836,-4.2168 0,-1.50089 -0.27257,-2.90497 -0.81836,-4.21484 -0.54578,-1.33716 -1.28311,-2.51179 -2.21093,-3.52149 -0.90054,-1.00969 -1.9634,-1.79997 -3.19141,-2.37304 -1.22801,-0.60036 -2.52422,-0.90039 -3.88867,-0.90039 z m 25.62109,0 c -0.95511,0 -1.89639,0.14904 -2.82422,0.44922 -0.92782,0.27289 -1.80047,0.669 -2.61914,1.1875 -0.81867,0.4912 -1.56972,1.10499 -2.25195,1.84179 -0.68223,0.70952 -1.24112,1.48803 -1.67774,2.33399 l 0,-5.48633 -0.82031,0 0,21.24609 0.82031,0 0,-13.42773 c 0.30018,-1.03699 0.76298,-2.00571 1.39063,-2.90625 0.62765,-0.90054 1.36498,-1.6771 2.21094,-2.33203 0.84596,-0.65494 1.75977,-1.16087 2.74218,-1.51563 1.00969,-0.38204 2.03333,-0.57226 3.07032,-0.57226 1.91023,0 3.2888,0.70987 4.13476,2.1289 0.87325,1.41903 1.3086,3.68396 1.3086,6.79492 l 0,11.83008 0.82031,0 0,-11.83008 c 0,-3.35656 -0.50594,-5.81366 -1.51563,-7.36914 -1.0097,-1.58276 -2.60593,-2.37304 -4.78906,-2.37304 z m 41.45313,0 c -1.39174,0 -2.70168,0.2863 -3.92969,0.85937 -1.20072,0.54578 -2.26553,1.30861 -3.19336,2.29102 -0.90054,0.9824 -1.61041,2.12958 -2.12891,3.43945 -0.51849,1.30988 -0.77734,2.7159 -0.77734,4.2168 0,1.52819 0.27258,2.97344 0.81836,4.33789 0.54578,1.33716 1.28311,2.52551 2.21094,3.5625 0.92783,1.00969 2.00637,1.8137 3.23437,2.41406 1.2553,0.57307 2.57895,0.85938 3.9707,0.85938 0.92782,0 1.82793,-0.13532 2.70118,-0.40821 0.90054,-0.2456 1.71826,-0.58682 2.45507,-1.02343 0.76409,-0.46393 1.41907,-0.9973 1.96485,-1.59766 0.57307,-0.62765 1.01036,-1.31007 1.31054,-2.04688 l -0.77734,-0.20312 c -0.30018,0.65494 -0.71002,1.255 -1.22851,1.80078 -0.5185,0.54578 -1.11857,1.02231 -1.80079,1.43164 -0.68223,0.38205 -1.41955,0.68208 -2.21093,0.90039 -0.7641,0.21831 -1.55438,0.32813 -2.37305,0.32813 -1.22801,0 -2.40263,-0.24513 -3.52148,-0.73633 -1.09157,-0.51849 -2.06029,-1.21464 -2.90625,-2.08789 -0.84596,-0.87325 -1.54211,-1.8969 -2.08789,-3.07032 -0.51851,-1.20072 -0.83225,-2.4832 -0.94141,-3.84765 l 19.44336,0 0,-0.45117 c 0,-1.52819 -0.27258,-2.95971 -0.81836,-4.29688 -0.54578,-1.33716 -1.28117,-2.49806 -2.20899,-3.48047 -0.90054,-0.9824 -1.97907,-1.75896 -3.23437,-2.33203 -1.22801,-0.57307 -2.55167,-0.85937 -3.9707,-0.85937 z m 48.28906,0 c -1.39174,0 -2.70168,0.2863 -3.92969,0.85937 -1.20072,0.54578 -2.26553,1.30861 -3.19336,2.29102 -0.90054,0.9824 -1.61041,2.12958 -2.1289,3.43945 -0.5185,1.30988 -0.77735,2.7159 -0.77735,4.2168 0,1.52819 0.27258,2.97344 0.81836,4.33789 0.54578,1.33716 1.28311,2.52551 2.21094,3.5625 0.92783,1.00969 2.00636,1.8137 3.23437,2.41406 1.25529,0.57307 2.57897,0.85938 3.97071,0.85938 0.92783,0 1.82792,-0.13532 2.70117,-0.40821 0.90054,-0.2456 1.71827,-0.58682 2.45508,-1.02343 0.76409,-0.46393 1.41906,-0.9973 1.96484,-1.59766 0.57307,-0.62765 1.01037,-1.31007 1.31055,-2.04688 l -0.77735,-0.20312 c -0.30018,0.65494 -0.71002,1.255 -1.22851,1.80078 -0.51849,0.54578 -1.11856,1.02231 -1.80078,1.43164 -0.68223,0.38205 -1.41956,0.68208 -2.21094,0.90039 -0.76409,0.21831 -1.55437,0.32813 -2.37305,0.32813 -1.228,0 -2.40263,-0.24513 -3.52148,-0.73633 -1.09156,-0.51849 -2.06029,-1.21464 -2.90625,-2.08789 -0.84596,-0.87325 -1.54211,-1.8969 -2.08789,-3.07032 -0.51849,-1.20072 -0.83225,-2.4832 -0.94141,-3.84765 l 19.44336,0 0,-0.45117 c 0,-1.52819 -0.27258,-2.95971 -0.81836,-4.29688 -0.54578,-1.33716 -1.28311,-2.49806 -2.21094,-3.48047 -0.90053,-0.9824 -1.97712,-1.75896 -3.23242,-2.33203 -1.228,-0.57307 -2.55167,-0.85937 -3.9707,-0.85937 z m -292.84961,0.32617 0,21.24609 0.81836,0 0,-13.42773 c 0.57307,-2.12855 1.58298,-3.80521 3.0293,-5.0332 1.47361,-1.22802 3.21889,-1.88298 5.23828,-1.96485 l 0,-0.82031 c -0.16374,0 -0.36768,0.0137 -0.61328,0.041 -0.21832,0 -0.46344,0.0137 -0.73633,0.041 -1.39174,0.16373 -2.71542,0.7383 -3.97071,1.7207 -1.22801,0.95512 -2.21046,2.1827 -2.94726,3.6836 l 0,-5.48633 -0.81836,0 z m 78.41211,0 9.29297,21.24609 0.73633,0 5.19726,-11.91211 5.19922,11.91211 0.73633,0 9.29297,-21.24609 -0.90039,0 -8.75977,20.05859 -5.11719,-11.74804 3.56055,-8.26954 -0.85937,0 -3.15235,7.20508 -3.15039,-7.20508 -0.85937,0 3.56054,8.26954 -5.11719,11.74804 -8.75976,-20.05859 -0.90039,0 z m 134.71289,0 9.25195,21.24609 0.73633,0 9.25,-21.24609 -0.90039,0 -8.71875,20.05859 -8.71875,-20.05859 -0.90039,0 z m 46.54687,0 0,21.24609 0.81836,0 0,-13.42773 c 0.57308,-2.12855 1.58298,-3.80521 3.0293,-5.0332 1.47361,-1.22802 3.22084,-1.88298 5.24023,-1.96485 l 0,-0.82031 c -0.16373,0 -0.36963,0.0137 -0.61523,0.041 -0.21831,0 -0.46344,0.0137 -0.73633,0.041 -1.39174,0.16373 -2.7154,0.7383 -3.9707,1.7207 -1.22801,0.95512 -2.21046,2.1827 -2.94727,3.6836 l 0,-5.48633 -0.81836,0 z m 48.28907,0 0,21.24609 0.81836,0 0,-13.42773 c 0.57307,-2.12855 1.58297,-3.80521 3.02929,-5.0332 1.47361,-1.22802 3.22085,-1.88298 5.24024,-1.96485 l 0,-0.82031 c -0.16374,0 -0.36963,0.0137 -0.61524,0.041 -0.21831,0 -0.46344,0.0137 -0.73633,0.041 -1.39175,0.16373 -2.7154,0.7383 -3.9707,1.7207 -1.228,0.95512 -2.21046,2.1827 -2.94726,3.6836 l 0,-5.48633 -0.81836,0 z m -391.50782,0.49219 c 1.25529,0 2.44364,0.27258 3.5625,0.81836 1.14614,0.54578 2.14233,1.28311 2.98829,2.21093 0.84596,0.92783 1.51464,2.00441 2.00585,3.23242 0.4912,1.228 0.73633,2.52422 0.73633,3.88868 0,1.39174 -0.24513,2.70168 -0.73633,3.92968 -0.49121,1.22801 -1.17362,2.30655 -2.04687,3.23438 -0.84596,0.92783 -1.84214,1.66516 -2.98828,2.21094 -1.11885,0.54578 -2.3072,0.81836 -3.5625,0.81836 -1.28259,0 -2.48271,-0.25885 -3.60156,-0.77735 -1.11885,-0.54578 -2.10131,-1.26938 -2.94727,-2.16992 -0.81867,-0.92783 -1.47364,-2.00637 -1.96484,-3.23437 -0.4912,-1.22801 -0.73633,-2.52422 -0.73633,-3.88868 0,-1.39174 0.24513,-2.70168 0.73633,-3.92968 0.4912,-1.2553 1.1599,-2.34561 2.00586,-3.27344 0.84596,-0.95512 1.82841,-1.70617 2.94726,-2.25195 1.14614,-0.54578 2.34626,-0.81836 3.60156,-0.81836 z m 124.79493,0 c 0.84596,0 1.7186,0.16276 2.61914,0.49023 0.90054,0.32747 1.74768,0.77849 2.53906,1.35156 0.79138,0.54578 1.49931,1.20075 2.12695,1.96485 0.62765,0.7368 1.0924,1.52904 1.39258,2.375 l 0,7.65429 c -0.0546,0.87325 -0.36834,1.70472 -0.94141,2.4961 -0.54579,0.79138 -1.2282,1.48753 -2.04687,2.08789 -0.81867,0.57307 -1.70504,1.03782 -2.66016,1.39258 -0.95511,0.35475 -1.84343,0.53125 -2.66211,0.53125 -1.30987,0 -2.53745,-0.27258 -3.68359,-0.81836 -1.14614,-0.57307 -2.14232,-1.32413 -2.98828,-2.25196 -0.84596,-0.95511 -1.51466,-2.03365 -2.00586,-3.23437 -0.4912,-1.22801 -0.73633,-2.51049 -0.73633,-3.84766 0,-1.25529 0.20395,-2.4966 0.61328,-3.72461 0.43663,-1.228 1.05237,-2.31832 1.84375,-3.27343 0.79139,-0.95512 1.73266,-1.7199 2.82422,-2.29297 1.11885,-0.60036 2.37389,-0.90039 3.76563,-0.90039 z m 24.94921,0 c 1.25529,0 2.4417,0.27258 3.56055,0.81836 1.14614,0.54578 2.14232,1.28311 2.98828,2.21093 0.84597,0.92783 1.51466,2.00441 2.00586,3.23242 0.49121,1.228 0.73828,2.52422 0.73828,3.88868 10e-6,1.39174 -0.24707,2.70168 -0.73828,3.92968 -0.4912,1.22801 -1.17362,2.30655 -2.04687,3.23438 -0.84596,0.92783 -1.84214,1.66516 -2.98828,2.21094 -1.11885,0.54578 -2.30525,0.81836 -3.56055,0.81836 -1.28258,0 -2.48271,-0.25885 -3.60156,-0.77735 -1.11885,-0.54578 -2.10131,-1.26938 -2.94727,-2.16992 -0.81867,-0.92783 -1.47364,-2.00637 -1.96484,-3.23437 -0.4912,-1.22801 -0.73633,-2.52422 -0.73633,-3.88868 0,-1.39174 0.24513,-2.70168 0.73633,-3.92968 0.4912,-1.2553 1.1599,-2.34561 2.00586,-3.27344 0.84596,-0.95512 1.82841,-1.70617 2.94726,-2.25195 1.14614,-0.54578 2.34626,-0.81836 3.60156,-0.81836 z m 111.28907,0 c 1.2553,0 2.44168,0.27258 3.56054,0.81836 1.14614,0.54578 2.14233,1.28311 2.98829,2.21093 0.84596,0.92783 1.51464,2.00441 2.00586,3.23242 0.4912,1.228 0.73632,2.52422 0.73632,3.88868 0,1.39174 -0.24513,2.70168 -0.73632,3.92968 -0.49122,1.22801 -1.17363,2.30655 -2.04688,3.23438 -0.84596,0.92783 -1.84214,1.66516 -2.98828,2.21094 -1.11885,0.54578 -2.30525,0.81836 -3.56055,0.81836 -1.28258,0 -2.48466,-0.25885 -3.60351,-0.77735 -1.11885,-0.54578 -2.10131,-1.26938 -2.94727,-2.16992 -0.81867,-0.92783 -1.47364,-2.00637 -1.96484,-3.23437 -0.4912,-1.22801 -0.73633,-2.52422 -0.73633,-3.88868 0,-1.39174 0.24513,-2.70168 0.73633,-3.92968 0.4912,-1.2553 1.1599,-2.34561 2.00586,-3.27344 0.84596,-0.95512 1.82841,-1.70617 2.94726,-2.25195 1.14614,-0.54578 2.34822,-0.81836 3.60352,-0.81836 z m 67.11523,0 c 1.2553,0 2.42797,0.24511 3.51953,0.73632 1.09157,0.4912 2.04657,1.17363 2.86524,2.04688 0.84596,0.84596 1.52838,1.86959 2.04687,3.07031 0.5185,1.20072 0.81853,2.51066 0.90039,3.92969 l -18.58398,0 c 0.0819,-1.39174 0.36816,-2.68795 0.85937,-3.88867 0.4912,-1.20072 1.14618,-2.23808 1.96485,-3.11133 0.84596,-0.87325 1.81469,-1.55568 2.90625,-2.04688 1.09156,-0.49121 2.26619,-0.73632 3.52148,-0.73632 z m 48.28906,0 c 1.25529,0 2.42797,0.24511 3.51954,0.73632 1.09156,0.4912 2.04656,1.17363 2.86523,2.04688 0.84596,0.84596 1.52837,1.86959 2.04687,3.07031 0.5185,1.20072 0.81853,2.51066 0.9004,3.92969 l -18.58399,0 c 0.0819,-1.39174 0.36817,-2.68795 0.85938,-3.88867 0.4912,-1.20072 1.14617,-2.23808 1.96484,-3.11133 0.84596,-0.87325 1.81469,-1.55568 2.90625,-2.04688 1.09156,-0.49121 2.26618,-0.73632 3.52148,-0.73632 z m -307.40039,9.41406 c 2.56518,0 4.93993,0.42357 7.12305,1.26953 l 0,4.2168 c 0,0.54578 -0.20394,1.10466 -0.61328,1.67773 -0.7368,1.14614 -1.87025,2.05996 -3.39844,2.74219 -1.50089,0.68223 -3.16577,1.02344 -4.99414,1.02344 -0.84596,0 -1.63625,-0.13727 -2.37305,-0.41016 -0.73681,-0.30018 -1.37804,-0.70807 -1.92382,-1.22656 -0.54578,-0.51849 -0.98308,-1.11856 -1.31055,-1.80078 -0.30018,-0.70952 -0.44922,-1.46057 -0.44922,-2.25196 0,-0.79138 0.19022,-1.50125 0.57227,-2.1289 0.38204,-0.65494 0.91347,-1.21382 1.5957,-1.67774 0.70952,-0.46391 1.54293,-0.81885 2.49805,-1.06445 0.9824,-0.2456 2.07272,-0.36914 3.27343,-0.36914 z m 333.12891,8.71875 0,2.62109 0.81836,0 0,-2.62109 -0.81836,0 z"
         style="opacity:1;fill:url(#linearGradient5510);fill-opacity:1;stroke:none;stroke-width:1.10000002;stroke-miterlimit:4;stroke-dasharray:none;stroke-dashoffset:0;stroke-opacity:1" />
      <path
         id="rect5478"
         transform="translate(0,652.36216)"
         d="m 152.82031,127.23047 0,23.87891 28.35547,0 0,-23.87891 -28.35547,0 z m 585.25586,0 0,42.08789 c -2.28842,-4.17886 -5.57125,-7.41275 -9.84961,-9.70117 -4.17886,-2.28843 -8.80457,-3.43164 -13.8789,-3.43164 -5.07433,0 -9.702,1.04338 -13.88086,3.13281 -4.17886,1.98993 -7.81013,4.82643 -10.89453,8.50781 -2.9849,3.58188 -5.32223,7.85915 -7.01368,12.83399 -1.69144,4.97483 -2.53711,10.34833 -2.53711,16.11914 0,5.9698 0.89461,11.49207 2.68555,16.5664 1.89044,4.97484 4.47638,9.303 7.75977,12.98438 3.28339,3.58188 7.16521,6.36749 11.64258,8.35742 4.57685,1.98993 9.551,2.98438 14.92382,2.98438 5.17383,0 10.05011,-1.09428 14.62696,-3.28321 4.57685,-2.18893 8.20812,-5.67142 10.89453,-10.44726 l 0.5957,2.83593 c 1.49245,7.26326 7.06562,10.89454 16.7168,10.89454 3.0844,0 7.06411,-0.49722 11.93945,-1.49219 l 0,-23.87891 c -1.98993,-0.19899 -3.38371,-0.79605 -4.17969,-1.79101 -0.79597,-1.09447 -1.19336,-2.98547 -1.19336,-5.67188 l 0,-77.60742 -28.35742,0 z m -244.02344,22.23828 c -4.27836,0 -8.45774,0.34845 -12.53711,1.04492 -4.07936,0.69648 -7.95924,1.69092 -11.64062,2.98438 -3.58188,1.19396 -6.86666,2.68562 -9.85156,4.47656 -2.9849,1.69144 -5.42206,3.58244 -7.3125,5.67187 l 17.91015,21.04297 c 3.1839,-3.78087 6.21812,-6.51558 9.10352,-8.20703 2.9849,-1.69144 6.11895,-2.53711 9.40234,-2.53711 2.78591,0 4.97446,0.59706 6.56641,1.79102 1.59195,1.19396 2.38867,3.03407 2.38867,5.52148 0,0.89547 -0.24861,1.74114 -0.74609,2.53711 -0.39799,0.69648 -1.39438,1.59109 -2.98633,2.68555 -1.59195,1.09446 -3.97821,2.53718 -7.16211,4.32812 -3.0844,1.69145 -7.31468,3.97983 -12.6875,6.86524 -4.17886,2.28842 -7.7103,4.6277 -10.5957,7.01562 -2.78591,2.38792 -5.0743,5.12459 -6.86524,8.20899 -1.79094,2.9849 -3.08488,6.36755 -3.88086,10.14844 -0.79597,3.78087 -1.19336,8.15797 -1.19336,13.13281 l 78.65235,0 0,-25.3711 -32.83399,0 c 2.68642,-1.89043 5.37219,-3.58177 8.0586,-5.07421 2.78591,-1.59195 5.42274,-3.23434 7.91015,-4.92579 2.08944,-1.39295 4.08027,-2.88461 5.97071,-4.47656 1.89044,-1.59195 3.48193,-3.33417 4.77539,-5.22461 1.39295,-1.98993 2.48723,-4.17848 3.2832,-6.5664 0.79597,-2.38792 1.19336,-5.12459 1.19336,-8.20899 0,-8.45722 -2.98333,-15.02287 -8.95313,-19.69922 -5.87031,-4.77584 -14.52663,-7.16406 -25.96875,-7.16406 z m -269.73632,6.56641 c -4.67635,0 -9.00451,0.69689 -12.98438,2.08984 -3.88037,1.29346 -7.26303,3.18445 -10.14844,5.67188 -2.7859,2.4874 -4.97445,5.42179 -6.5664,8.80468 -1.59195,3.38289 -2.38867,7.06506 -2.38867,11.04492 0,2.98491 0.49917,5.57084 1.49414,7.75977 0.99496,2.18893 2.63539,4.17976 4.92382,5.9707 2.38792,1.79094 5.42214,3.48228 9.10352,5.07422 3.78088,1.49245 8.45748,3.03501 14.0293,4.62695 4.47735,1.29346 7.46262,2.43668 8.95508,3.43165 1.59193,0.99496 2.38867,2.18907 2.38867,3.58203 0,2.48742 -1.99085,3.73047 -5.97071,3.73047 -3.78088,0 -7.96027,-0.89461 -12.53711,-2.68555 -4.47736,-1.79094 -9.152,-4.32794 -14.02734,-7.61133 l -9.70117,17.01367 c 4.57685,4.27836 10.14806,7.56119 16.71484,9.84961 6.56679,2.18893 13.28317,3.28321 20.14844,3.28321 5.07433,0 9.60021,-0.59706 13.58008,-1.79102 4.07936,-1.19396 7.51292,-2.93423 10.29883,-5.22266 2.8854,-2.28842 5.07395,-5.02509 6.5664,-8.20898 1.49245,-3.1839 2.23828,-6.81517 2.23828,-10.89453 1e-5,-3.1839 -0.49722,-5.9695 -1.49218,-8.35742 -0.99497,-2.48742 -2.6863,-4.67597 -5.07422,-6.56641 -2.28843,-1.98993 -5.37159,-3.7811 -9.25196,-5.37305 -3.88038,-1.69144 -8.65681,-3.28489 -14.32812,-4.77734 -4.67634,-1.19396 -7.8104,-2.23734 -9.40234,-3.13281 -1.59195,-0.99497 -2.38868,-2.23998 -2.38868,-3.73243 0,-1.39296 0.54812,-2.38739 1.64258,-2.98437 1.09447,-0.69648 2.48629,-1.04492 4.17774,-1.04492 2.8854,0 5.97051,0.69689 9.2539,2.08984 3.2834,1.29346 7.36295,3.5329 12.23828,6.7168 l 10.7461,-17.01367 c -5.27333,-4.57685 -10.547,-7.61302 -15.82031,-9.10547 -5.17384,-1.49245 -10.64716,-2.23828 -16.41797,-2.23828 z m 84.61523,0.15039 c -7.06426,0 -13.28148,1.14321 -18.6543,3.43164 -5.27333,2.18893 -9.75221,5.1742 -13.43359,8.95508 -3.58188,3.68137 -6.31659,8.00954 -8.20703,12.98437 -1.79094,4.87534 -2.6875,9.99826 -2.6875,15.37109 0,5.37282 0.89656,10.54665 2.6875,15.52149 1.89044,4.87534 4.62515,9.2035 8.20703,12.98437 3.68138,3.68138 8.16026,6.66666 13.43359,8.95508 5.37282,2.18893 11.59004,3.28321 18.6543,3.28321 6.96477,0 13.13304,-1.09428 18.50586,-3.28321 5.37282,-2.28842 9.85171,-5.2737 13.43359,-8.95508 3.68138,-3.78087 6.41609,-8.10903 8.20703,-12.98437 1.89043,-4.97484 2.83594,-10.14867 2.83594,-15.52149 0,-5.37283 -0.94551,-10.49575 -2.83594,-15.37109 -1.79093,-4.97483 -4.52565,-9.303 -8.20703,-12.98437 -3.58188,-3.78088 -8.06077,-6.76615 -13.43359,-8.95508 -5.37282,-2.28843 -11.54109,-3.43164 -18.50586,-3.43164 z m 107.94727,0 c -6.86528,0 -12.83583,1.14321 -17.91016,3.43164 -4.97483,2.18893 -8.85472,5.42281 -11.64063,9.70117 l 0,-11.64063 -25.52148,0 0,78.50196 28.35742,0 0,-44.02735 c 1.29346,-3.28339 3.28234,-5.96916 5.96875,-8.05859 2.68642,-2.08943 5.22341,-3.13477 7.61133,-3.13477 2.28843,0 4.27925,0.89656 5.9707,2.6875 1.79094,1.69145 2.68555,4.47706 2.68555,8.35743 l 0,44.17578 28.35742,0 0,-51.63867 c 0,-2.68642 -0.24861,-5.67169 -0.74609,-8.95508 -0.49748,-3.28339 -1.59176,-6.36655 -3.2832,-9.25196 -1.59195,-2.8854 -3.98017,-5.27362 -7.16407,-7.16406 -3.08439,-1.98993 -7.31272,-2.98437 -12.68554,-2.98437 z m 181.4375,0 c -6.66628,0 -12.43716,1.14321 -17.3125,3.43164 -4.87534,2.18893 -8.70628,5.42281 -11.49219,9.70117 l 0,-11.64063 -25.52149,0 0,78.50196 28.35743,0 0,-44.02735 c 1.19396,-3.28339 3.03406,-5.96916 5.52148,-8.05859 2.58692,-2.08943 5.02408,-3.13477 7.3125,-3.13477 2.18893,0 4.03099,0.89656 5.52344,2.6875 1.59195,1.69145 2.38672,4.47706 2.38672,8.35743 l 0,44.17578 28.35742,0 0,-44.02735 c 1.19396,-3.28339 3.03407,-5.96916 5.52148,-8.05859 2.58692,-2.08943 5.02408,-3.13477 7.3125,-3.13477 2.18893,0 4.03099,0.89656 5.52344,2.6875 1.59195,1.69145 2.38672,4.47706 2.38672,8.35743 l 0,44.17578 28.35742,0 0,-51.63867 c 0,-2.68642 -0.24861,-5.67169 -0.74609,-8.95508 -0.49748,-3.28339 -1.54282,-6.36655 -3.13477,-9.25196 -1.59194,-2.8854 -3.92927,-5.27362 -7.01367,-7.16406 -2.9849,-1.98993 -7.06445,-2.98437 -12.23828,-2.98437 -6.1688,0 -11.69107,1.19215 -16.56641,3.58007 -4.77584,2.38793 -8.55784,5.72164 -11.34375,10 -0.59698,-1.79094 -1.44264,-3.48227 -2.53711,-5.07421 -0.99496,-1.59195 -2.38679,-3.03467 -4.17773,-4.32813 -1.69144,-1.29346 -3.73122,-2.2879 -6.11914,-2.98437 -2.38792,-0.79598 -5.17353,-1.19336 -8.35742,-1.19336 z m -445.4961,1.49218 0,78.94922 c 0,4.27836 -1.99083,6.41797 -5.9707,6.41797 -2.88541,0 -5.22273,-0.99444 -7.01367,-2.98437 l -11.64258,19.25195 c 3.0844,2.58692 6.51795,4.57775 10.29883,5.9707 3.78087,1.39296 7.76059,2.08985 11.93945,2.08985 4.47735,0 8.60585,-0.79673 12.38672,-2.38867 3.78088,-1.59195 7.01476,-3.88034 9.70117,-6.86524 2.78591,-2.8854 4.92552,-6.3679 6.41797,-10.44726 1.49245,-3.97988 2.23828,-8.40787 2.23828,-13.28321 l 0,-76.71094 -28.35547,0 z m 156.11133,22.38672 c 4.07937,0 7.41309,1.49166 10,4.47657 2.58692,2.9849 3.88086,7.11338 3.88086,12.38671 0,5.27332 -1.29394,9.40378 -3.88086,12.38868 -2.58691,2.9849 -5.92063,4.47656 -10,4.47656 -4.07936,0 -7.41113,-1.49166 -9.99805,-4.47656 -2.58691,-2.9849 -3.88086,-7.11536 -3.88086,-12.38868 0,-5.27333 1.29395,-9.40181 3.88086,-12.38671 2.58692,-2.98491 5.91869,-4.47657 9.99805,-4.47657 z m 414.66797,0 c 2.9849,0 5.8214,1.09428 8.50781,3.28321 2.68641,2.08943 4.72619,4.87503 6.11914,8.35742 l 0,14.0293 c -3.78087,5.37282 -8.25781,8.05859 -13.43164,8.05859 -4.67634,0 -8.45834,-1.49166 -11.34375,-4.47656 -2.7859,-2.9849 -4.17773,-6.96462 -4.17773,-11.93946 0,-2.38792 0.34649,-4.62736 1.04297,-6.71679 0.79597,-2.08943 1.79236,-3.92954 2.98632,-5.52149 1.29345,-1.59194 2.78512,-2.83695 4.47657,-3.73242 1.79094,-0.89547 3.73088,-1.3418 5.82031,-1.3418 z"
         style="opacity:1;fill:url(#linearGradient5485);fill-opacity:1;stroke:none;stroke-width:1.10000002;stroke-miterlimit:4;stroke-dasharray:none;stroke-dashoffset:0;stroke-opacity:1"
         inkscape:connector-curvature="0" />
      <g
         id="g5524">
        <path
           style="opacity:1;fill:url(#linearGradient5474);fill-opacity:1;stroke:none;stroke-width:1.10000002;stroke-miterlimit:4;stroke-dasharray:none;stroke-dashoffset:0;stroke-opacity:1"
           d="m 238.26803,942.56712 c -2.83677,0 -4.80676,0.61296 -5.90995,1.84223 -1.07167,1.22927 -1.60907,3.01189 -1.60907,5.34436 l 0,6.99728 c 0,1.29231 -0.20432,2.28462 -0.61408,2.97806 -0.40976,0.66192 -1.10292,0.99268 -2.08003,0.99268 l -2.55328,0 0,4.53867 2.55328,0 c 0.97711,0 1.67027,0.34773 2.08003,1.04116 0.40976,0.66192 0.61408,1.65423 0.61408,2.97806 l 0,6.9488 c 0,2.33247 0.5374,4.11509 1.60907,5.34436 1.10319,1.22927 3.07318,1.84223 5.90995,1.84223 l 4.91727,0 0,-4.53865 -4.39784,0 c -1.00863,0 -1.70178,-0.29916 -2.08002,-0.89804 -0.37824,-0.59886 -0.56791,-1.55957 -0.56791,-2.8834 l 0,-5.34204 c 0,-2.01727 -0.37704,-3.56164 -1.13352,-4.63331 -0.72495,-1.07167 -1.93854,-1.76713 -3.64061,-2.08233 1.70207,-0.37824 2.91566,-1.10301 3.64061,-2.17468 0.75648,-1.07167 1.13352,-2.61604 1.13352,-4.63331 l 0,-5.34204 c 0,-1.35534 0.18967,-2.31605 0.56791,-2.8834 0.37824,-0.59888 1.07139,-0.89804 2.08002,-0.89804 l 4.39784,0 0,-4.53865 -4.91727,0 z m 81.79277,0 0,4.53865 4.34936,0 c 1.00862,0 1.70178,0.29916 2.08001,0.89804 0.37824,0.59888 0.56791,1.55957 0.56791,2.8834 l 0,5.34204 c 0,2.01727 0.37935,3.56164 1.13583,4.63331 0.75647,1.07167 1.98472,1.76714 3.68679,2.08233 -1.70207,0.37824 -2.93032,1.10301 -3.68679,2.17468 -0.75648,1.07167 -1.13583,2.61604 -1.13583,4.63331 l 0,5.34204 c 0,1.35535 -0.18967,2.31605 -0.56791,2.8834 -0.37823,0.59888 -1.07139,0.89804 -2.08001,0.89804 l -4.34936,0 0,4.53865 4.86878,0 c 1.41839,0 2.60038,-0.15575 3.54597,-0.47094 0.97712,-0.3152 1.75046,-0.77241 2.31781,-1.37129 0.59887,-0.59888 1.02448,-1.35526 1.27663,-2.26933 0.25217,-0.88256 0.37862,-1.90879 0.37862,-3.07503 l 0,-6.99728 c 0,-1.29231 0.20432,-2.26766 0.61408,-2.92958 0.40975,-0.69343 1.10291,-1.04116 2.08002,-1.04116 l 2.60177,0 0,-4.53867 -2.60177,0 c -0.97711,0 -1.67027,-0.33076 -2.08002,-0.99268 -0.40976,-0.69344 -0.61408,-1.70271 -0.61408,-3.02654 l 0,-6.9488 c 0,-1.16624 -0.12645,-2.19247 -0.37862,-3.07503 -0.25215,-0.91407 -0.67776,-1.67045 -1.27663,-2.26933 -0.56735,-0.59886 -1.34069,-1.05609 -2.31781,-1.37128 -0.94559,-0.3152 -2.12758,-0.47095 -3.54597,-0.47095 l -4.86878,0 z m -62.03138,25.15191 c -0.56735,0 -1.10245,0.0948 -1.60677,0.28395 -0.50431,0.18912 -0.96154,0.45666 -1.37128,0.80339 -0.37824,0.34671 -0.69436,0.78698 -0.94652,1.32281 -0.22064,0.50432 -0.33013,1.08798 -0.33013,1.7499 0,0.69342 0.10945,1.30871 0.33013,1.84454 0.25216,0.50432 0.56828,0.94459 0.94652,1.32281 0.40974,0.34673 0.86697,0.61659 1.37128,0.80571 0.50432,0.18911 1.03942,0.28164 1.60677,0.28164 1.10319,0 2.08086,-0.36239 2.93189,-1.08735 0.85104,-0.72495 1.27665,-1.78049 1.27665,-3.16735 0,-1.32383 -0.42561,-2.34776 -1.27665,-3.07271 -0.85103,-0.72497 -1.8287,-1.08734 -2.93189,-1.08734 z m 23.6398,0 c -0.56736,0 -1.10246,0.0948 -1.60677,0.28395 -0.50431,0.18912 -0.96154,0.45666 -1.37129,0.80339 -0.37824,0.34671 -0.69436,0.78698 -0.94651,1.32281 -0.22065,0.50432 -0.33013,1.08798 -0.33013,1.7499 0,0.69342 0.10945,1.30871 0.33013,1.84454 0.25215,0.50432 0.56827,0.94459 0.94651,1.32281 0.40975,0.34673 0.86698,0.61659 1.37129,0.80571 0.50431,0.18911 1.03941,0.28164 1.60677,0.28164 1.10318,0 2.08086,-0.36239 2.93189,-1.08735 0.85103,-0.72495 1.27664,-1.78049 1.27664,-3.16735 0,-1.32383 -0.42561,-2.34776 -1.27664,-3.07271 -0.85103,-0.72497 -1.82871,-1.08734 -2.93189,-1.08734 z m 23.63979,0 c -0.56735,0 -1.10245,0.0948 -1.60677,0.28395 -0.50431,0.18912 -0.96154,0.45666 -1.37129,0.80339 -0.37823,0.34671 -0.69436,0.78698 -0.94651,1.32281 -0.22064,0.50432 -0.33013,1.08798 -0.33013,1.7499 0,0.69342 0.10945,1.30871 0.33013,1.84454 0.25215,0.50432 0.56828,0.94459 0.94651,1.32281 0.40975,0.34673 0.86698,0.61659 1.37129,0.80571 0.50432,0.18911 1.03942,0.28164 1.60677,0.28164 1.10319,0 2.08086,-0.36239 2.93189,-1.08735 0.85104,-0.72495 1.27665,-1.78049 1.27665,-3.16735 0,-1.32383 -0.42561,-2.34776 -1.27665,-3.07271 -0.85103,-0.72497 -1.8287,-1.08734 -2.93189,-1.08734 z"
           id="rect5508"
           inkscape:connector-curvature="0" />
        <path
           inkscape:connector-curvature="0"
           style="opacity:1;fill:url(#linearGradient5480);fill-opacity:1;stroke:none;stroke-width:1.10000002;stroke-miterlimit:4;stroke-dasharray:none;stroke-dashoffset:0;stroke-opacity:1"
           d="m 461.113,944.68213 c -2.5989,0 -4.71261,2.11534 -4.71261,4.71424 l 0,31.42115 c 0,2.59902 2.11371,4.71261 4.71261,4.71261 l 55.9319,0 c 2.59903,0 4.71261,-2.11359 4.71261,-4.71261 l 0,-31.42115 c 0,-2.5989 -2.11358,-4.71424 -4.71261,-4.71424 l -55.9319,0 z m 32.05026,8.16212 0,24.50913 -8.16862,0.008 0,-12.25537 -6.1285,7.85488 -6.12688,-7.85488 0,12.25537 -8.16862,0 0,-24.50913 8.16862,0 6.12688,8.16863 6.1285,-8.16863 8.16862,-0.008 z m 8.17025,0.008 8.17025,0 0,12.25376 6.12687,0 -10.27052,14.28899 -10.15347,-14.28899 6.12687,0 0,-12.25376 z"
           id="rect5466" />
      </g>
    </g>
  </g>
</svg>
