<?xml version="1.0" encoding="UTF-8" standalone="no"?>
<!-- Created with Inkscape (http://www.inkscape.org/) -->

<svg
   xmlns:dc="http://purl.org/dc/elements/1.1/"
   xmlns:cc="http://creativecommons.org/ns#"
   xmlns:rdf="http://www.w3.org/1999/02/22-rdf-syntax-ns#"
   xmlns:svg="http://www.w3.org/2000/svg"
   xmlns="http://www.w3.org/2000/svg"
   xmlns:xlink="http://www.w3.org/1999/xlink"
   xmlns:sodipodi="http://sodipodi.sourceforge.net/DTD/sodipodi-0.dtd"
   xmlns:inkscape="http://www.inkscape.org/namespaces/inkscape"
   width="900"
   height="400"
   viewBox="0 0 900.00001 400.00001"
   id="svg2"
   version="1.1"
   inkscape:version="0.91 r13725"
   sodipodi:docname="h.svg"
   inkscape:export-filename="/home/ionicabizau/Documents/Resources/octimatch/h.png"
   inkscape:export-xdpi="90"
   inkscape:export-ydpi="90">
  <defs
     id="defs4">
    <linearGradient
       inkscape:collect="always"
       id="linearGradient4138">
      <stop
         style="stop-color:#3498db;stop-opacity:1;"
         offset="0"
         id="stop4140" />
      <stop
         style="stop-color:#2980b9;stop-opacity:1"
         offset="1"
         id="stop4142" />
    </linearGradient>
    <linearGradient
       inkscape:collect="always"
       xlink:href="#linearGradient4138"
       id="linearGradient4144"
       x1="11.949685"
       y1="662.42505"
       x2="116.98113"
       y2="764.9408"
       gradientUnits="userSpaceOnUse" />
    <linearGradient
       inkscape:collect="always"
       xlink:href="#linearGradient4138"
       id="linearGradient4150"
       gradientUnits="userSpaceOnUse"
       x1="11.949685"
       y1="662.42505"
       x2="116.98113"
       y2="764.9408" />
    <linearGradient
       inkscape:collect="always"
       xlink:href="#linearGradient4138"
       id="linearGradient4166"
       gradientUnits="userSpaceOnUse"
       x1="11.949685"
       y1="662.42505"
       x2="116.98113"
       y2="764.9408" />
    <linearGradient
       inkscape:collect="always"
       xlink:href="#linearGradient4138"
       id="linearGradient4170"
       gradientUnits="userSpaceOnUse"
       x1="11.949685"
       y1="662.42505"
       x2="116.98113"
       y2="764.9408" />
    <linearGradient
       inkscape:collect="always"
       xlink:href="#linearGradient4138"
       id="linearGradient4188"
       gradientUnits="userSpaceOnUse"
       x1="11.949685"
       y1="662.42505"
       x2="116.98113"
       y2="764.9408" />
    <linearGradient
       inkscape:collect="always"
       xlink:href="#linearGradient4138"
       id="linearGradient4190"
       gradientUnits="userSpaceOnUse"
       x1="11.949685"
       y1="662.42505"
       x2="116.98113"
       y2="764.9408" />
    <linearGradient
       inkscape:collect="always"
       xlink:href="#linearGradient4138"
       id="linearGradient4192"
       gradientUnits="userSpaceOnUse"
       x1="11.949685"
       y1="662.42505"
       x2="116.98113"
       y2="764.9408" />
    <linearGradient
       inkscape:collect="always"
       xlink:href="#linearGradient4138"
       id="linearGradient4202"
       gradientUnits="userSpaceOnUse"
       x1="11.949685"
       y1="662.42505"
       x2="116.98113"
       y2="764.9408" />
    <linearGradient
       inkscape:collect="always"
       xlink:href="#linearGradient4138"
       id="linearGradient4220"
       gradientUnits="userSpaceOnUse"
       x1="11.949685"
       y1="662.42505"
       x2="116.98113"
       y2="764.9408" />
    <linearGradient
       inkscape:collect="always"
       xlink:href="#linearGradient4138"
       id="linearGradient4222"
       gradientUnits="userSpaceOnUse"
       x1="11.949685"
       y1="662.42505"
       x2="116.98113"
       y2="764.9408" />
    <linearGradient
       inkscape:collect="always"
       xlink:href="#linearGradient4138"
       id="linearGradient4224"
       gradientUnits="userSpaceOnUse"
       x1="11.949685"
       y1="662.42505"
       x2="116.98113"
       y2="764.9408" />
    <linearGradient
       inkscape:collect="always"
       xlink:href="#linearGradient4138"
       id="linearGradient4226"
       gradientUnits="userSpaceOnUse"
       x1="11.949685"
       y1="662.42505"
       x2="116.98113"
       y2="764.9408" />
    <linearGradient
       inkscape:collect="always"
       xlink:href="#linearGradient4138"
       id="linearGradient4228"
       gradientUnits="userSpaceOnUse"
       x1="11.949685"
       y1="662.42505"
       x2="116.98113"
       y2="764.9408" />
    <linearGradient
       inkscape:collect="always"
       xlink:href="#linearGradient4138"
       id="linearGradient4230"
       gradientUnits="userSpaceOnUse"
       x1="11.949685"
       y1="662.42505"
       x2="116.98113"
       y2="764.9408" />
    <linearGradient
       inkscape:collect="always"
       xlink:href="#linearGradient4138"
       id="linearGradient4232"
       gradientUnits="userSpaceOnUse"
       x1="11.949685"
       y1="662.42505"
       x2="116.98113"
       y2="764.9408" />
    <linearGradient
       inkscape:collect="always"
       xlink:href="#linearGradient4138"
       id="linearGradient4234"
       gradientUnits="userSpaceOnUse"
       x1="11.949685"
       y1="662.42505"
       x2="116.98113"
       y2="764.9408" />
    <linearGradient
       inkscape:collect="always"
       xlink:href="#linearGradient4138"
       id="linearGradient4262"
       gradientUnits="userSpaceOnUse"
       x1="11.949685"
       y1="662.42505"
       x2="116.98113"
       y2="764.9408" />
    <linearGradient
       inkscape:collect="always"
       xlink:href="#linearGradient4138"
       id="linearGradient6236"
       gradientUnits="userSpaceOnUse"
       x1="11.949685"
       y1="662.42505"
       x2="116.98113"
       y2="764.9408"
       gradientTransform="translate(-3.3395756e-7,1.8889772e-6)" />
    <linearGradient
       inkscape:collect="always"
       xlink:href="#linearGradient4138"
       id="linearGradient6244"
       gradientUnits="userSpaceOnUse"
       x1="11.949685"
       y1="662.42505"
       x2="116.98113"
       y2="764.9408" />
  </defs>
  <sodipodi:namedview
     id="base"
     pagecolor="#ffffff"
     bordercolor="#666666"
     borderopacity="1.0"
     inkscape:pageopacity="0.0"
     inkscape:pageshadow="2"
     inkscape:zoom="1.1242998"
     inkscape:cx="479.70181"
     inkscape:cy="97.003777"
     inkscape:document-units="px"
     inkscape:current-layer="layer1"
     showgrid="false"
     units="px"
     inkscape:window-width="1920"
     inkscape:window-height="1060"
     inkscape:window-x="0"
     inkscape:window-y="0"
     inkscape:window-maximized="1" />
  <metadata
     id="metadata7">
    <rdf:RDF>
      <cc:Work
         rdf:about="">
        <dc:format>image/svg+xml</dc:format>
        <dc:type
           rdf:resource="http://purl.org/dc/dcmitype/StillImage" />
        <dc:title></dc:title>
      </cc:Work>
    </rdf:RDF>
  </metadata>
  <g
     inkscape:label="Layer 1"
     inkscape:groupmode="layer"
     id="layer1"
     transform="translate(0,-652.36216)">
    <rect
       style="opacity:1;fill:url(#linearGradient4262);fill-opacity:1;stroke:none;stroke-width:2.5;stroke-miterlimit:4;stroke-dasharray:7.5, 2.5;stroke-dashoffset:0;stroke-opacity:1"
       id="rect4136"
       width="103.14465"
       height="103.14465"
       x="38.427685"
       y="680.78986"
       rx="28.930799"
       ry="28.930799" />
    <rect
       ry="28.930799"
       rx="28.930799"
       y="680.78986"
       x="38.427685"
       height="103.14465"
       width="103.14465"
       id="rect4146"
       style="opacity:1;fill:url(#linearGradient4144);fill-opacity:1;stroke:none;stroke-width:2.5;stroke-miterlimit:4;stroke-dasharray:7.5, 2.5;stroke-dashoffset:0;stroke-opacity:1" />
    <rect
       style="opacity:1;fill:url(#linearGradient4150);fill-opacity:1;stroke:none;stroke-width:2.5;stroke-miterlimit:4;stroke-dasharray:7.5, 2.5;stroke-dashoffset:0;stroke-opacity:1"
       id="rect4148"
       width="103.14465"
       height="103.14465"
       x="158.42769"
       y="680.78986"
       rx="28.930799"
       ry="28.930799" />
    <rect
       style="opacity:1;fill:url(#linearGradient4166);fill-opacity:1;stroke:none;stroke-width:2.5;stroke-miterlimit:4;stroke-dasharray:7.5, 2.5;stroke-dashoffset:0;stroke-opacity:1"
       id="rect4164"
       width="103.14465"
       height="103.14465"
       x="638.42767"
       y="680.78986"
       rx="28.930799"
       ry="28.930799" />
    <rect
       ry="28.930799"
       rx="28.930799"
       y="680.78986"
       x="758.42767"
       height="103.14465"
       width="103.14465"
       id="rect4168"
       style="opacity:1;fill:url(#linearGradient4170);fill-opacity:1;stroke:none;stroke-width:2.5;stroke-miterlimit:4;stroke-dasharray:7.5, 2.5;stroke-dashoffset:0;stroke-opacity:1" />
    <rect
       ry="28.930799"
       rx="28.930799"
       y="800.78986"
       x="38.427685"
       height="103.14465"
       width="103.14465"
       id="rect4172"
       style="opacity:1;fill:url(#linearGradient4188);fill-opacity:1;stroke:none;stroke-width:2.5;stroke-miterlimit:4;stroke-dasharray:7.5, 2.5;stroke-dashoffset:0;stroke-opacity:1" />
    <rect
       style="opacity:1;fill:url(#linearGradient4190);fill-opacity:1;stroke:none;stroke-width:2.5;stroke-miterlimit:4;stroke-dasharray:7.5, 2.5;stroke-dashoffset:0;stroke-opacity:1"
       id="rect4174"
       width="103.14465"
       height="103.14465"
       x="38.427685"
       y="800.78986"
       rx="28.930799"
       ry="28.930799" />
    <rect
       ry="28.930799"
       rx="28.930799"
       y="800.78986"
       x="158.42769"
       height="103.14465"
       width="103.14465"
       id="rect4176"
       style="opacity:1;fill:url(#linearGradient4192);fill-opacity:1;stroke:none;stroke-width:2.5;stroke-miterlimit:4;stroke-dasharray:7.5, 2.5;stroke-dashoffset:0;stroke-opacity:1" />
    <rect
       style="opacity:1;fill:url(#linearGradient4202);fill-opacity:1;stroke:none;stroke-width:2.5;stroke-miterlimit:4;stroke-dasharray:7.5, 2.5;stroke-dashoffset:0;stroke-opacity:1"
       id="rect4186"
       width="103.14465"
       height="103.14465"
       x="758.42767"
       y="800.78986"
       rx="28.930799"
       ry="28.930799" />
    <rect
       style="opacity:1;fill:url(#linearGradient4220);fill-opacity:1;stroke:none;stroke-width:2.5;stroke-miterlimit:4;stroke-dasharray:7.5, 2.5;stroke-dashoffset:0;stroke-opacity:1"
       id="rect4204"
       width="103.14465"
       height="103.14465"
       x="38.427685"
       y="920.78986"
       rx="28.930799"
       ry="28.930799" />
    <rect
       ry="28.930799"
       rx="28.930799"
       y="920.78986"
       x="38.427685"
       height="103.14465"
       width="103.14465"
       id="rect4206"
       style="opacity:1;fill:url(#linearGradient4222);fill-opacity:1;stroke:none;stroke-width:2.5;stroke-miterlimit:4;stroke-dasharray:7.5, 2.5;stroke-dashoffset:0;stroke-opacity:1" />
    <rect
       style="opacity:1;fill:url(#linearGradient4224);fill-opacity:1;stroke:none;stroke-width:2.5;stroke-miterlimit:4;stroke-dasharray:7.5, 2.5;stroke-dashoffset:0;stroke-opacity:1"
       id="rect4208"
       width="103.14465"
       height="103.14465"
       x="158.42769"
       y="920.78986"
       rx="28.930799"
       ry="28.930799" />
    <rect
       ry="28.930799"
       rx="28.930799"
       y="920.78986"
       x="278.4277"
       height="103.14465"
       width="103.14465"
       id="rect4210"
       style="opacity:1;fill:url(#linearGradient4226);fill-opacity:1;stroke:none;stroke-width:2.5;stroke-miterlimit:4;stroke-dasharray:7.5, 2.5;stroke-dashoffset:0;stroke-opacity:1" />
    <rect
       style="opacity:1;fill:url(#linearGradient4228);fill-opacity:1;stroke:none;stroke-width:2.5;stroke-miterlimit:4;stroke-dasharray:7.5, 2.5;stroke-dashoffset:0;stroke-opacity:1"
       id="rect4212"
       width="103.14465"
       height="103.14465"
       x="398.4277"
       y="920.78986"
       rx="28.930799"
       ry="28.930799" />
    <rect
       ry="28.930799"
       rx="28.930799"
       y="920.78986"
       x="518.42767"
       height="103.14465"
       width="103.14465"
       id="rect4214"
       style="opacity:1;fill:url(#linearGradient4230);fill-opacity:1;stroke:none;stroke-width:2.5;stroke-miterlimit:4;stroke-dasharray:7.5, 2.5;stroke-dashoffset:0;stroke-opacity:1" />
    <rect
       style="opacity:1;fill:url(#linearGradient4232);fill-opacity:1;stroke:none;stroke-width:2.5;stroke-miterlimit:4;stroke-dasharray:7.5, 2.5;stroke-dashoffset:0;stroke-opacity:1"
       id="rect4216"
       width="103.14465"
       height="103.14465"
       x="638.42767"
       y="920.78986"
       rx="28.930799"
       ry="28.930799" />
    <rect
       ry="28.930799"
       rx="28.930799"
       y="920.78986"
       x="758.42767"
       height="103.14465"
       width="103.14465"
       id="rect4218"
       style="opacity:1;fill:url(#linearGradient4234);fill-opacity:1;stroke:none;stroke-width:2.5;stroke-miterlimit:4;stroke-dasharray:7.5, 2.5;stroke-dashoffset:0;stroke-opacity:1" />
    <g
       id="g4306"
       transform="matrix(0.79314347,0,0,0.79314347,93.085438,91.055194)">
      <text
         sodipodi:linespacing="125%"
         id="text4288"
         y="795.55383"
         x="268.90347"
         style="font-style:normal;font-weight:normal;font-size:71.25050354px;line-height:125%;font-family:sans-serif;letter-spacing:0px;word-spacing:0px;fill:#2c3e50;fill-opacity:1;stroke:none;stroke-width:1px;stroke-linecap:butt;stroke-linejoin:miter;stroke-opacity:1"
         xml:space="preserve"><tspan
           style="font-style:normal;font-variant:normal;font-weight:900;font-stretch:normal;font-family:Raleway;-inkscape-font-specification:'Raleway Heavy';fill:#2c3e50;fill-opacity:1"
           y="795.55383"
           x="268.90347"
           id="tspan4290"
           sodipodi:role="line">OctiMatch</tspan></text>
      <text
         sodipodi:linespacing="125%"
         id="text4292"
         y="840.54004"
         x="451.03223"
         style="font-style:normal;font-weight:normal;font-size:40px;line-height:125%;font-family:sans-serif;letter-spacing:0px;word-spacing:0px;fill:#2c3e50;fill-opacity:1;stroke:none;stroke-width:1px;stroke-linecap:butt;stroke-linejoin:miter;stroke-opacity:1"
         xml:space="preserve"><tspan
           style="font-style:normal;font-variant:normal;font-weight:normal;font-stretch:normal;font-size:35px;font-family:Raleway;-inkscape-font-specification:Raleway;text-align:center;text-anchor:middle;fill:#2c3e50;fill-opacity:1"
           y="840.54004"
           x="451.03223"
           id="tspan4294"
           sodipodi:role="line">A matching game with</tspan><tspan
           style="font-style:normal;font-variant:normal;font-weight:normal;font-stretch:normal;font-family:Raleway;-inkscape-font-specification:Raleway;text-align:center;text-anchor:middle;fill:#2c3e50;fill-opacity:1"
           id="tspan4296"
           y="889.29431"
           x="451.03223"
           sodipodi:role="line"><tspan
   id="tspan4298"
   style="font-style:normal;font-variant:normal;font-weight:900;font-stretch:normal;font-family:Raleway;-inkscape-font-specification:'Raleway Heavy';text-align:center;text-anchor:middle;fill:#2c3e50;fill-opacity:1">GitHub</tspan>'s <tspan
   id="tspan4304"
   style="font-style:normal;font-variant:normal;font-weight:900;font-stretch:normal;font-family:Raleway;-inkscape-font-specification:'Raleway Heavy';text-align:center;text-anchor:middle">Octicons</tspan>.</tspan></text>
    </g>
    <path
       inkscape:connector-curvature="0"
       d="m 210.00002,829.01119 c -12.73691,0 -27.59663,8.49128 -33.96508,25.47379 6.36845,12.73691 19.10536,21.22819 33.96508,21.22819 14.85972,0 27.59663,-8.49128 33.96508,-21.22819 -6.36845,-16.98251 -21.22817,-25.47379 -33.96508,-25.47379 z m 0,42.45634 c -12.73691,0 -23.35099,-8.49127 -25.47381,-16.98255 2.12282,-8.49124 12.7369,-16.98251 25.47381,-16.98251 12.73691,0 23.35099,8.49127 25.47381,16.98251 -2.12282,8.49128 -12.7369,16.98255 -25.47381,16.98255 z m 0,-29.71943 c -1.32676,0 -2.52085,0.26533 -3.71493,0.59704 2.18915,0.99505 3.71493,3.18421 3.71493,5.7714 0,3.51592 -2.85253,6.36844 -6.36845,6.36844 -2.58719,0 -4.77634,-1.52576 -5.77141,-3.71492 -0.33169,1.19408 -0.59705,2.38816 -0.59705,3.71492 0,7.03184 5.70508,12.73691 12.73691,12.73691 7.03183,0 12.73691,-5.70507 12.73691,-12.73691 0,-7.03184 -5.70508,-12.73688 -12.73691,-12.73688 z"
       id="path4376"
       style="fill:#ffffff" />
    <path
       style="opacity:1;fill:url(#linearGradient6236);fill-opacity:1;stroke:none;stroke-width:2.5;stroke-miterlimit:4;stroke-dasharray:7.5, 2.5;stroke-dashoffset:0;stroke-opacity:1"
       d="m 450,817.94841 c -19.4851,0 -35.28393,15.79879 -35.28393,35.28392 0,15.59162 10.10987,28.81422 24.13146,33.47884 1.76371,0.32292 2.406,-0.76736 2.406,-1.6978 0,-0.83984 -0.0307,-3.6209 -0.0477,-6.567 -8.86972,1.61669 -11.14526,-2.17415 -11.88689,-4.16101 -0.38075,-1.02053 -2.0947,-4.15101 -3.61018,-4.97889 -1.2396,-0.67735 -2.98234,-2.29062 -0.0643,-2.32493 2.78645,-0.033 4.77941,2.56991 5.40812,3.63403 3.16573,5.35783 8.26084,3.83288 10.26779,2.92821 0.32072,-2.27402 1.23539,-3.83354 2.24146,-4.71185 -7.83249,-0.89173 -16.07174,-3.91817 -16.07174,-17.43807 0,-3.85506 1.37409,-6.9989 3.62687,-9.46898 -0.35974,-0.89576 -1.57263,-4.48642 0.35052,-9.34259 0,0 2.95784,-0.94815 9.70267,3.61733 2.81243,-0.786 5.83013,-1.17204 8.82992,-1.18511 2.99766,0.0134 6.01793,0.40387 8.83469,1.18987 6.73207,-4.56974 9.69312,-3.61733 9.69312,-3.61733 1.92958,4.86069 0.71716,8.44646 0.3553,9.33783 2.26112,2.47008 3.62449,5.61429 3.62449,9.46898 0,13.55433 -8.25188,16.5377 -16.11229,17.41185 1.27069,1.09415 2.39408,3.24072 2.39408,6.53123 0,4.71614 -0.0453,8.51844 -0.0453,9.68121 0,0.93898 0.63997,2.03755 2.42745,1.69302 14.01118,-4.67305 24.11239,-17.89577 24.11239,-33.47884 0,-19.48513 -15.79881,-35.28392 -35.28392,-35.28392 z"
       id="rect6234"
       inkscape:connector-curvature="0" />
    <rect
       ry="28.930799"
       rx="28.930799"
       y="800.78986"
       x="638.42767"
       height="103.14465"
       width="103.14465"
       id="rect6242"
       style="opacity:1;fill:url(#linearGradient6244);fill-opacity:1;stroke:none;stroke-width:2.5;stroke-miterlimit:4;stroke-dasharray:7.5, 2.5;stroke-dashoffset:0;stroke-opacity:1" />
    <path
       inkscape:connector-curvature="0"
       d="m 703.242,825.87816 -7.9452,7.9452 18.5388,18.53882 -18.5388,18.53882 7.9452,7.9452 23.83561,-26.48402 -23.8356,-26.48402 z m -26.48401,0 -23.83561,26.48402 23.83561,26.48402 7.94521,-7.9452 -18.53881,-18.53882 18.53881,-18.53882 -7.94521,-7.9452 z"
       id="path6307"
       style="fill:#ffffff" />
  </g>
</svg>
