<?xml version="1.0" encoding="UTF-8" standalone="no"?>
<!-- Created with Inkscape (http://www.inkscape.org/) -->

<svg
   xmlns:dc="http://purl.org/dc/elements/1.1/"
   xmlns:cc="http://creativecommons.org/ns#"
   xmlns:rdf="http://www.w3.org/1999/02/22-rdf-syntax-ns#"
   xmlns:svg="http://www.w3.org/2000/svg"
   xmlns="http://www.w3.org/2000/svg"
   xmlns:sodipodi="http://sodipodi.sourceforge.net/DTD/sodipodi-0.dtd"
   xmlns:inkscape="http://www.inkscape.org/namespaces/inkscape"
   version="1.1"
   id="svg10"
   xml:space="preserve"
   width="740"
   height="740"
   viewBox="0 0 740 740"
   sodipodi:docname="SDG.svg"
   inkscape:export-filename="G:\sdg2\sdg-black.png"
   inkscape:export-xdpi="129.73"
   inkscape:export-ydpi="129.73"
   inkscape:version="0.92.4 (5da689c313, 2019-01-14)"><metadata
     id="metadata16"><rdf:RDF><cc:Work
         rdf:about=""><dc:format>image/svg+xml</dc:format><dc:type
           rdf:resource="http://purl.org/dc/dcmitype/StillImage" /><dc:title></dc:title></cc:Work></rdf:RDF></metadata><defs
     id="defs14"><clipPath
       clipPathUnits="userSpaceOnUse"
       id="clipPath26"><path
         d="M 0,545.123 H 555.055 V 0 H 0 Z"
         id="path24"
         inkscape:connector-curvature="0" /></clipPath></defs><sodipodi:namedview
     pagecolor="#ffffff"
     bordercolor="#666666"
     borderopacity="1"
     objecttolerance="10"
     gridtolerance="10"
     guidetolerance="10"
     inkscape:pageopacity="0"
     inkscape:pageshadow="2"
     inkscape:window-width="3840"
     inkscape:window-height="2035"
     id="namedview12"
     showgrid="false"
     inkscape:zoom="1.7102934"
     inkscape:cx="213.58581"
     inkscape:cy="362.78365"
     inkscape:window-x="-13"
     inkscape:window-y="-13"
     inkscape:window-maximized="1"
     inkscape:current-layer="g18" /><g
     id="g18"
     inkscape:groupmode="layer"
     inkscape:label="SDG work"
     transform="matrix(1.3333333,0,0,-1.3333333,0,739.99998)"><g
       transform="translate(569.36125,-42.142148)"
       id="g4157"
       style="fill:#000000"
       inkscape:export-xdpi="96"
       inkscape:export-ydpi="96"><g
         style="fill:#000000"
         transform="translate(-476.66824,400.58369)"
         id="g28"><path
           inkscape:connector-curvature="0"
           id="path30"
           style="fill:#000000;fill-opacity:1;fill-rule:nonzero;stroke:none"
           d="m 0,0 c 0.954,-0.591 2.324,-3.622 4.112,-9.095 l -0.409,-0.66 c -0.499,-0.369 -1.41,-0.227 -2.733,0.424 -2.685,1.29 -5.283,1.699 -7.794,1.224 -2.51,-0.475 -4.402,-1.739 -5.675,-3.794 -1.197,-1.932 -1.524,-4.03 -0.983,-6.294 0.541,-2.264 1.789,-4.001 3.743,-5.211 1.417,-0.878 3.211,-1.377 5.384,-1.498 2.172,-0.122 6.168,0.575 11.987,2.092 5.819,1.514 10.099,2.15 12.841,1.906 2.742,-0.244 5.056,-0.948 6.938,-2.115 4.353,-2.696 7.016,-6.96 7.989,-12.791 0.973,-5.831 -0.108,-11.277 -3.244,-16.339 -2.59,-4.182 -5.698,-7.027 -9.324,-8.538 -3.626,-1.51 -6.05,-1.886 -7.273,-1.129 -0.684,0.425 -1.812,2.155 -3.382,5.192 -1.571,3.036 -2.287,4.665 -2.151,4.885 0.485,0.783 1.056,1.199 1.713,1.249 0.657,0.05 1.634,-0.244 2.933,-0.878 4.042,-1.996 7.242,-2.703 9.602,-2.116 2.359,0.585 4.273,2.064 5.743,4.437 1.605,2.591 2.109,5.41 1.51,8.455 -0.6,3.043 -2.084,5.3 -4.453,6.768 -1.222,0.757 -2.755,1.187 -4.601,1.293 -1.844,0.105 -5.504,-0.556 -10.978,-1.981 -5.474,-1.425 -9.694,-1.963 -12.659,-1.615 -2.966,0.347 -5.536,1.196 -7.713,2.544 -3.79,2.348 -6.388,5.938 -7.795,10.768 -1.407,4.831 -0.641,9.617 2.298,14.362 2.227,3.595 4.904,6.073 8.032,7.435 C -3.214,0.342 -1.1,0.682 0,0" /></g><g
         style="fill:#000000"
         transform="translate(-446.34124,411.43929)"
         id="g32"><path
           inkscape:connector-curvature="0"
           id="path34"
           style="fill:#000000;fill-opacity:1;fill-rule:nonzero;stroke:none"
           d="m 0,0 c -0.374,-0.276 -0.773,-0.757 -1.197,-1.441 -1.97,-3.179 -1.848,-6.697 0.364,-10.555 2.213,-3.858 5.545,-7.165 9.995,-9.922 2.47,-1.53 4.632,-2.329 6.486,-2.394 1.854,-0.066 3.213,0.599 4.076,1.992 1.076,1.736 0.64,4.611 -1.305,8.626 -4.31,-0.511 -8.127,0.263 -11.454,2.324 C 3.053,-8.947 0.731,-5.157 0,0 m 28.003,-0.597 c 0.328,-1.929 0.355,-3.621 0.08,-5.075 -0.274,-1.454 -0.625,-2.524 -1.048,-3.208 -1.091,-1.761 -2.859,-3.085 -5.304,-3.973 3.15,-6.824 3.316,-12.51 0.498,-17.058 -1.758,-2.838 -4.245,-4.477 -7.463,-4.919 -3.218,-0.443 -6.588,0.426 -10.11,2.608 -5.575,3.453 -9.135,8.4 -10.679,14.838 -1.544,6.438 -0.612,12.409 2.796,17.911 1.288,2.078 2.457,3.46 3.508,4.146 1.051,0.686 1.95,0.949 2.698,0.791 0.748,-0.159 1.586,-0.526 2.515,-1.102 4.573,-2.833 9.413,-7.556 14.519,-14.171 1.922,0.535 3.307,1.487 4.155,2.857 1.015,1.638 0.888,4.628 -0.383,8.968 z" /></g><g
         style="fill:#000000"
         transform="translate(-426.36314,429.92409)"
         id="g36"><path
           inkscape:connector-curvature="0"
           id="path38"
           style="fill:#000000;fill-opacity:1;fill-rule:nonzero;stroke:none"
           d="m 0,0 c -1.529,5.244 -3.838,10.16 -6.927,14.747 -3.089,4.586 -6.176,7.836 -9.262,9.747 -0.905,0.561 -1.718,0.878 -2.435,0.951 -0.718,0.071 -1.206,-0.1 -1.463,-0.515 -0.561,-0.905 0.878,-3.615 4.316,-8.131 C -12.333,12.284 -7.076,6.684 0,0 m 23.045,5.164 c 0.997,-5.22 1.446,-9.533 1.349,-12.941 -0.099,-3.408 -0.851,-6.249 -2.26,-8.523 -1.622,-2.617 -3.943,-4.098 -6.965,-4.441 -3.021,-0.345 -6.244,0.543 -9.668,2.664 -5.135,3.181 -10.609,8.111 -16.419,14.791 -5.812,6.678 -10.765,13.486 -14.86,20.422 l 2.324,11.453 c 0.084,0.354 0.171,0.605 0.262,0.751 0.439,0.709 1.319,0.967 2.638,0.777 1.32,-0.192 2.86,-0.833 4.621,-1.923 4.988,-3.091 9.106,-7.233 12.353,-12.424 3.247,-5.193 6.008,-11.878 8.285,-20.055 2.422,-1.772 4.11,-2.952 5.064,-3.543 2.127,-1.318 4.057,-1.973 5.789,-1.962 1.732,0.01 2.999,0.662 3.802,1.959 0.818,1.32 1.212,3.022 1.183,5.104 -0.03,2.082 -0.602,5.584 -1.716,10.504 z" /></g><g
         style="fill:#000000"
         transform="translate(-429.93404,475.53389)"
         id="g40"><path
           inkscape:connector-curvature="0"
           id="path42"
           style="fill:#000000;fill-opacity:1;fill-rule:nonzero;stroke:none"
           d="m 0,0 c 5.869,-3.636 7.463,-7.618 4.782,-11.946 -1.304,-2.104 -3.053,-3.508 -5.248,-4.211 -1.274,2.751 -3.013,5.351 -5.218,7.801 2.395,1.188 3.956,2.371 4.683,3.545 C -0.183,-3.491 0.15,-1.888 0,0 m 37.796,-22.398 c 2.471,-9.449 2.828,-15.592 1.07,-18.429 -0.969,-1.565 -2.588,-2.39 -4.856,-2.473 -2.269,-0.085 -4.613,0.624 -7.034,2.124 -5.209,3.227 -11.332,9.456 -18.37,18.689 l 3.828,10.521 0.272,0.44 9.209,-10.78 c 3.805,-4.456 6.723,-7.312 8.752,-8.569 0.807,-0.5 1.571,-0.728 2.292,-0.684 0.721,0.044 1.248,0.335 1.581,0.873 0.591,0.954 0.837,2.129 0.739,3.528 -0.099,1.397 -0.666,3.854 -1.701,7.373 z" /></g><g
         style="fill:#000000"
         transform="translate(-186.13234,432.48189)"
         id="g44"><path
           inkscape:connector-curvature="0"
           id="path46"
           style="fill:#000000;fill-opacity:1;fill-rule:nonzero;stroke:none"
           d="m 0,0 1.551,-5.621 c 0.482,-1.83 0.96,-3.261 1.437,-4.294 0.476,-1.032 1.027,-1.943 1.651,-2.734 2.881,-3.648 7.58,-4.689 14.101,-3.125 6.52,1.563 12.515,4.504 17.983,8.822 5.776,4.56 9.321,9.632 10.635,15.216 1.314,5.583 0.185,10.637 -3.387,15.161 -2.862,3.624 -6.847,5.996 -11.955,7.114 -5.109,1.119 -9.112,0.533 -12.011,-1.756 -2.174,-1.717 -2.928,-3.81 -2.262,-6.279 0.251,-1.085 0.069,-1.871 -0.546,-2.356 -0.637,-0.503 -2.01,-0.187 -4.118,0.947 -2.108,1.135 -3.309,1.889 -3.604,2.262 -0.884,1.12 -1.011,2.624 -0.381,4.512 0.631,1.888 1.737,3.457 3.318,4.705 4.194,3.312 9.905,4.265 17.131,2.858 7.226,-1.408 13.613,-5.625 19.163,-12.653 5.306,-6.72 7.687,-13.54 7.143,-20.459 -0.545,-6.919 -3.924,-12.833 -10.14,-17.74 -4.743,-3.746 -10.221,-6.066 -16.433,-6.959 -6.211,-0.894 -12.22,-0.237 -18.028,1.97 -5.807,2.207 -10.557,5.649 -14.251,10.327 -3.105,3.932 -5.144,8.275 -6.118,13.032 -3.882,1.393 -6.62,3.099 -8.215,5.119 -0.902,1.143 -1.331,2.364 -1.287,3.663 0.043,1.301 0.536,2.323 1.481,3.069 1.537,1.213 3.466,1.435 5.786,0.664 2.32,-0.77 4.434,-2.363 6.342,-4.78 1.352,-1.713 2.369,-3.565 3.052,-5.558 2.234,-0.482 4.352,-0.342 6.355,0.418 2.001,0.761 5.233,2.493 9.696,5.196 4.461,2.703 8.281,4.435 11.459,5.197 3.177,0.763 6.379,0.715 9.606,-0.143 3.226,-0.857 5.801,-2.256 7.725,-4.195 L 42.148,8.936 C 39.69,9.204 37.482,9.109 35.527,8.651 33.57,8.193 30.023,6.375 24.885,3.197 19.747,0.018 15.395,-1.74 11.829,-2.078 8.262,-2.415 4.32,-1.723 0,0" /></g><g
         style="fill:#000000"
         transform="translate(-148.37334,401.69919)"
         id="g48"><path
           inkscape:connector-curvature="0"
           id="path50"
           style="fill:#000000;fill-opacity:1;fill-rule:nonzero;stroke:none"
           d="M 0,0 C 6.02,-4.373 11.161,-4.879 15.422,-1.514 17.53,0.151 17.977,1.752 16.764,3.289 15.619,4.738 13.423,5.251 10.175,4.826 6.928,4.4 3.536,2.792 0,0 m 7.536,-22.074 c -4.948,0.621 -8.951,1.525 -12.009,2.711 -3.058,1.188 -5.645,3.12 -7.761,5.799 -2.358,2.987 -3.306,6.152 -2.843,9.494 0.462,3.343 2.253,6.245 5.372,8.708 4.655,3.676 10.141,5.387 16.457,5.133 6.315,-0.255 11.025,-2.347 14.13,-6.279 1.612,-2.042 2.377,-4.094 2.294,-6.157 -0.083,-2.062 -0.981,-3.77 -2.694,-5.122 -4.546,-3.59 -12.051,-1.671 -22.514,5.755 -3.589,-4.26 -3.918,-8.246 -0.987,-11.958 1.144,-1.449 2.626,-2.525 4.447,-3.227 1.82,-0.702 5.118,-1.324 9.896,-1.866 z" /></g><g
         style="fill:#000000"
         transform="translate(-107.64754,375.45389)"
         id="g52"><path
           inkscape:connector-curvature="0"
           id="path54"
           style="fill:#000000;fill-opacity:1;fill-rule:nonzero;stroke:none"
           d="m 0,0 c -0.128,0.433 -0.436,0.958 -0.921,1.573 -2.255,2.855 -5.512,3.91 -9.774,3.166 -4.261,-0.745 -8.391,-2.695 -12.387,-5.851 -2.219,-1.751 -3.666,-3.463 -4.34,-5.138 -0.675,-1.673 -0.518,-3.137 0.47,-4.388 1.231,-1.559 4.005,-2.114 8.322,-1.666 0.961,4.111 2.935,7.345 5.922,9.704 C -9.194,0.174 -4.958,1.041 0,0 m -9.831,-25.412 c -1.873,0.34 -3.429,0.876 -4.667,1.61 -1.239,0.733 -2.102,1.408 -2.587,2.022 -1.248,1.581 -1.874,3.637 -1.875,6.168 -7.285,-0.618 -12.54,1.115 -15.765,5.2 -2.012,2.548 -2.686,5.367 -2.024,8.456 0.662,3.09 2.574,5.884 5.737,8.381 5.007,3.954 10.711,5.57 17.111,4.847 C -7.501,10.55 -2.35,7.718 1.552,2.776 3.025,0.91 3.901,-0.618 4.181,-1.806 4.459,-2.995 4.402,-3.905 4.009,-4.536 3.616,-5.167 3.002,-5.812 2.168,-6.471 c -4.107,-3.243 -10.032,-6.103 -17.774,-8.579 -0.148,-1.936 0.263,-3.517 1.235,-4.748 1.161,-1.471 3.938,-2.345 8.328,-2.623 z" /></g><g
         style="fill:#000000"
         transform="translate(-365.08704,118.67139)"
         id="g56"><path
           inkscape:connector-curvature="0"
           id="path58"
           style="fill:#000000;fill-opacity:1;fill-rule:nonzero;stroke:none"
           d="m 0,0 c -6.789,-3.394 -10.182,-6.736 -10.182,-10.026 0,-1.749 0.835,-2.623 2.506,-2.623 3.29,0 5.848,4.216 7.676,12.649 M 22.792,13.002 C 21.016,10.938 17.62,8.614 12.604,6.029 11.561,-0.916 9.25,-6.286 5.674,-10.085 c -3.575,-3.798 -7.595,-5.697 -12.059,-5.697 -2.14,0 -3.818,0.496 -5.032,1.488 -1.214,0.993 -1.82,2.364 -1.82,4.114 0,4.857 4.717,9.572 14.15,14.142 0.988,3.521 1.949,6.691 2.886,9.51 C 2.154,11.096 -0.235,8.994 -3.368,7.167 -6.501,5.339 -9.413,4.425 -12.101,4.425 c -4.386,0 -8.035,1.9 -10.946,5.698 -2.912,3.799 -4.367,8.609 -4.367,14.432 0,6.135 1.645,11.95 4.935,17.446 3.29,5.496 7.61,9.895 12.963,13.198 5.351,3.302 10.534,4.954 15.547,4.954 4.49,0 8.139,-1.28 10.946,-3.838 2.806,-2.559 4.21,-5.874 4.21,-9.947 0,-4.386 -1.581,-8.251 -4.739,-11.592 -3.159,-3.342 -6.789,-5.013 -10.887,-5.013 -2.403,0 -4.393,0.588 -5.972,1.763 -1.581,1.174 -2.37,2.623 -2.37,4.347 0,1.044 0.307,1.97 0.921,2.78 0.613,0.809 1.324,1.214 2.134,1.214 0.783,0 1.175,-0.457 1.175,-1.371 0,-0.809 0.299,-1.436 0.901,-1.879 0.6,-0.444 1.292,-0.666 2.075,-0.666 2.089,0 4.093,1.429 6.012,4.288 1.919,2.859 2.878,5.92 2.878,9.184 0,2.297 -0.744,4.17 -2.232,5.619 -1.488,1.449 -3.407,2.174 -5.757,2.174 -3.525,0 -6.939,-1.567 -10.241,-4.7 -3.303,-3.132 -5.992,-7.251 -8.067,-12.355 -2.076,-5.105 -3.114,-9.954 -3.114,-14.549 0,-4.229 0.914,-7.591 2.739,-10.084 1.827,-2.494 4.254,-3.74 7.281,-3.74 5.114,0 10.007,3.615 14.678,10.848 l 7.358,1.057 c 0.913,0.13 1.37,-0.09 1.37,-0.662 0,-0.26 -0.353,-1.382 -1.059,-3.366 -0.706,-1.984 -1.673,-5.299 -2.902,-9.946 4.057,2.347 7.198,4.943 9.423,7.786 z" /></g><g
         style="fill:#000000"
         transform="translate(-331.40754,146.98569)"
         id="g60"><path
           inkscape:connector-curvature="0"
           id="path62"
           style="fill:#000000;fill-opacity:1;fill-rule:nonzero;stroke:none"
           d="m 0,0 c 3.315,3.686 6.004,7.817 8.067,12.393 2.062,4.575 3.094,8.51 3.094,11.805 0,0.967 -0.144,1.745 -0.431,2.333 -0.288,0.588 -0.653,0.883 -1.096,0.883 -0.966,0 -2.369,-2.406 -4.21,-7.217 C 3.583,15.387 1.775,8.654 0,0 m 14.999,-15.312 c -3.551,-3.264 -6.664,-5.673 -9.34,-7.226 -2.677,-1.553 -5.228,-2.33 -7.656,-2.33 -2.795,0 -5.046,1.083 -6.756,3.25 -1.71,2.167 -2.565,5.078 -2.565,8.734 0,5.482 1.188,12.062 3.564,19.737 2.375,7.676 5.26,14.751 8.655,21.226 l 9.947,3.682 c 0.313,0.104 0.548,0.156 0.705,0.156 0.757,0 1.376,-0.555 1.86,-1.664 0.483,-1.11 0.725,-2.604 0.725,-4.484 C 14.138,20.443 12.91,15.286 10.456,10.3 8.002,5.313 4.164,-0.013 -1.057,-5.679 c -0.21,-2.715 -0.314,-4.581 -0.314,-5.6 0,-2.271 0.417,-4.073 1.254,-5.404 0.835,-1.332 1.944,-1.997 3.328,-1.997 1.41,0 2.911,0.509 4.504,1.527 1.592,1.018 4.02,3.133 7.284,6.344 z" /></g><g
         style="fill:#000000"
         transform="translate(-294.16424,153.56489)"
         id="g64"><path
           inkscape:connector-curvature="0"
           id="path66"
           style="fill:#000000;fill-opacity:1;fill-rule:nonzero;stroke:none"
           d="m 0,0 c -0.392,0.157 -0.954,0.235 -1.684,0.235 -3.394,0 -6.051,-1.776 -7.969,-5.326 -1.919,-3.551 -2.879,-7.702 -2.879,-12.454 0,-2.637 0.417,-4.686 1.253,-6.148 0.835,-1.462 1.998,-2.193 3.486,-2.193 1.853,0 3.863,1.71 6.031,5.13 -2.455,3.081 -3.682,6.396 -3.682,9.947 0,4.177 1.815,7.78 5.444,10.809 M 12.924,-21.892 C 11.592,-23.067 10.3,-23.896 9.046,-24.378 7.793,-24.862 6.8,-25.103 6.07,-25.103 c -1.88,0 -3.747,0.731 -5.6,2.193 -3.76,-5.692 -8.067,-8.537 -12.924,-8.537 -3.029,0 -5.482,1.135 -7.362,3.407 -1.88,2.271 -2.82,5.287 -2.82,9.046 0,5.953 2.115,11.064 6.345,15.332 4.229,4.269 9.281,6.403 15.155,6.403 2.219,0 3.844,-0.242 4.876,-0.724 1.031,-0.483 1.664,-1.051 1.899,-1.704 0.235,-0.653 0.353,-1.475 0.353,-2.467 0,-4.883 -1.332,-10.874 -3.995,-17.975 1.332,-1.228 2.728,-1.841 4.191,-1.841 1.748,0 3.994,1.527 6.736,4.582 z" /></g><g
         style="fill:#000000"
         transform="translate(-251.98664,131.67329)"
         id="g68"><path
           inkscape:connector-curvature="0"
           id="path70"
           style="fill:#000000;fill-opacity:1;fill-rule:nonzero;stroke:none"
           d="m 0,0 c -6.554,-6.423 -11.606,-9.634 -15.156,-9.634 -1.593,0 -2.937,0.673 -4.033,2.017 -1.097,1.344 -1.645,3.009 -1.645,4.993 0,3.681 1.971,8.616 5.913,14.803 -1.933,-0.992 -4.047,-1.684 -6.344,-2.075 C -22.963,6.971 -25.626,3.603 -29.254,0 h -0.901 v 3.525 c 2.037,2.114 3.877,4.386 5.522,6.814 -2.246,0.992 -3.368,2.467 -3.368,4.425 0,2.01 0.685,4.158 2.056,6.442 1.371,2.284 3.256,3.427 5.659,3.427 2.036,0 3.055,-1.045 3.055,-3.133 0,-1.645 -0.588,-3.995 -1.763,-7.049 4.334,0.47 8.12,3.785 11.357,9.947 l 3.564,0.157 -3.642,-10.026 C -9.23,10.3 -10.209,7.421 -10.652,5.894 c -0.445,-1.527 -0.666,-2.879 -0.666,-4.053 0,-1.097 0.255,-1.972 0.764,-2.624 0.509,-0.653 1.194,-0.979 2.056,-0.979 0.94,0 1.84,0.319 2.702,0.959 0.862,0.639 2.793,2.409 5.796,5.307 z" /></g><g
         style="fill:#000000"
         transform="translate(-233.50204,171.54039)"
         id="g72"><path
           inkscape:connector-curvature="0"
           id="path74"
           style="fill:#000000;fill-opacity:1;fill-rule:nonzero;stroke:none"
           d="m 0,0 c 0,-6.266 -2.311,-9.399 -6.932,-9.399 -2.246,0 -4.165,0.678 -5.757,2.037 1.514,2.297 2.689,4.882 3.525,7.754 2.062,-1.28 3.72,-1.919 4.974,-1.919 1.409,0 2.806,0.509 4.19,1.527 m 0.783,-39.867 c -6.109,-6.423 -10.678,-9.634 -13.707,-9.634 -1.671,0 -3.081,0.855 -4.229,2.565 -1.15,1.71 -1.723,3.858 -1.723,6.442 0,5.561 1.88,13.263 5.639,23.106 l 9.947,2.076 h 0.47 L -6.736,-27.57 c -1.619,-5.065 -2.428,-8.682 -2.428,-10.848 0,-0.862 0.189,-1.56 0.568,-2.095 0.378,-0.536 0.855,-0.803 1.429,-0.803 1.019,0 2.043,0.372 3.075,1.116 1.03,0.744 2.656,2.356 4.875,4.837 z" /></g><g
         style="fill:#000000"
         transform="translate(-219.56034,129.51929)"
         id="g76"><path
           inkscape:connector-curvature="0"
           id="path78"
           style="fill:#000000;fill-opacity:1;fill-rule:nonzero;stroke:none"
           d="m 0,0 c 2.61,0 5.072,2.225 7.382,6.677 2.311,4.451 3.466,8.557 3.466,12.317 0,1.461 -0.327,2.604 -0.979,3.426 -0.653,0.823 -1.527,1.234 -2.624,1.234 -2.611,0 -5.085,-2.22 -7.421,-6.658 -2.337,-4.438 -3.505,-8.524 -3.505,-12.257 0,-1.41 0.345,-2.553 1.038,-3.427 C -1.952,0.437 -1.071,0 0,0 M 28.667,2.154 C 24.489,-1.815 21.5,-4.399 19.699,-5.6 c -1.802,-1.201 -3.525,-1.802 -5.17,-1.802 -4.126,0 -6.07,3.642 -5.835,10.927 -2.611,-3.734 -5.02,-6.489 -7.225,-8.264 -2.207,-1.775 -4.484,-2.663 -6.834,-2.663 -2.298,0 -4.249,1.077 -5.855,3.231 -1.606,2.154 -2.408,4.798 -2.408,7.931 0,3.916 1.077,7.649 3.23,11.2 2.154,3.55 4.915,6.423 8.283,8.616 3.368,2.193 6.345,3.289 8.929,3.289 3.263,0 5.547,-1.501 6.854,-4.503 l 8.004,4.425 h 2.197 L 20.415,15.312 c -1.78,-5.77 -2.669,-9.727 -2.669,-11.867 0,-2.244 0.795,-3.367 2.388,-3.367 1.017,0 2.14,0.542 3.366,1.626 1.226,1.083 2.948,2.734 5.167,4.954 z" /></g><g
         style="fill:#000000"
         transform="translate(-383.83804,374.25119)"
         id="g80"><path
           inkscape:connector-curvature="0"
           id="path82"
           style="fill:#000000;fill-opacity:1;fill-rule:nonzero;stroke:none"
           d="M 0,0 C -0.592,5.245 -0.888,12.062 0,19.921 0.805,27.044 2.36,33.065 3.91,37.747 -0.018,36.728 -12.017,33.063 -21.505,20.943 -31.098,8.691 -32.101,-4.506 -32.258,-8.715 c 4.867,2.2 10.763,4.421 17.595,6.136 C -9.314,-1.235 -4.371,-0.448 0,0" /></g><g
         style="fill:#000000"
         transform="translate(-196.40014,365.78409)"
         id="g88"><path
           inkscape:connector-curvature="0"
           id="path90"
           style="fill:#000000;fill-opacity:1;fill-rule:nonzero;stroke:none"
           d="m 0,0 c 4.442,-0.701 9.951,-1.998 15.996,-4.465 7.577,-3.092 13.444,-6.981 17.595,-10.227 0.342,2.958 2.065,20.217 -9.75,34.921 C 14.374,32.012 2.067,34.869 -1.574,35.569 -0.127,30.398 1.273,23.362 1.333,14.966 1.374,9.191 0.771,4.131 0,0" /></g><g
         style="fill:#000000"
         transform="translate(-292.86124,211.24519)"
         id="g96"><path
           inkscape:connector-curvature="0"
           id="path98"
           style="fill:#000000;fill-opacity:1;fill-rule:nonzero;stroke:none"
           d="m 0,0 c -3.352,-3.32 -7.585,-7.015 -12.774,-10.583 -6.051,-4.16 -11.774,-7.027 -16.557,-9.02 3.951,-2.555 14.487,-8.611 29.037,-8.153 13.938,0.438 23.788,6.608 27.665,9.347 -4.673,2.071 -10.138,4.948 -15.889,8.972 C 6.944,-6.261 3.134,-3.007 0,0" /></g><g
         style="fill:#000000"
         transform="translate(-311.17984,296.81449)"
         id="g104"><path
           inkscape:connector-curvature="0"
           id="path106"
           style="fill:#000000;fill-opacity:1;fill-rule:nonzero;stroke:none"
           d="m 0,0 c 4.849,-6.651 11.538,-9.912 19.716,-10.548 0.616,0.035 1.312,0.008 1.983,0.123 12.444,2.131 20.272,9.728 22.932,22.133 0.908,4.234 -0.539,7.666 -4.285,9.944 -1.538,0.936 -3.158,1.81 -4.849,2.41 -9.211,3.269 -18.6,3.399 -28.065,1.297 -3.5,-0.778 -6.817,-2.044 -9.751,-4.181 -3.057,-2.226 -4.1,-5.192 -3.401,-8.875 C -4.848,7.712 -2.709,3.716 0,0" /></g><g
         style="fill:#000000"
         transform="translate(-219.33774,280.85389)"
         id="g108"><path
           inkscape:connector-curvature="0"
           id="path110"
           style="fill:#000000;fill-opacity:1;fill-rule:nonzero;stroke:none"
           d="m 0,0 c -8.564,-6.287 -17.81,-11.357 -27.748,-15.11 -8.566,-3.234 -17.414,-5.384 -26.512,-6.507 -6.974,-0.861 -13.967,-0.991 -20.97,-0.655 -11.3,0.542 -22.307,2.713 -33.055,6.209 -13.17,4.284 -25.475,10.309 -36.744,18.393 -1.242,0.891 -2.428,1.86 -3.473,3.061 0.594,-0.289 1.196,-0.564 1.781,-0.869 15.096,-7.883 30.934,-13.724 47.593,-17.307 11.663,-2.509 23.461,-3.655 35.386,-3.276 12.755,0.404 25.199,2.634 37.337,6.59 10.018,3.265 19.562,7.589 28.738,12.748 C 3.608,3.994 4.89,4.701 6.169,5.413 6.247,5.294 6.325,5.175 6.403,5.056 4.272,3.366 2.191,1.608 0,0 m -140.306,20.945 c 6.683,13.021 15.678,24.068 27.845,32.354 9.902,6.744 20.87,10.641 32.775,11.922 20.719,2.23 38.826,-4.294 55.067,-16.697 9.686,-7.398 17.032,-16.843 22.816,-27.53 0.177,-0.326 0.325,-0.667 0.393,-1.146 -1.979,0.823 -3.733,2.05 -5.601,3.058 -1.924,1.039 -3.819,2.135 -5.755,3.151 -1.936,1.017 -3.895,1.993 -5.868,2.935 -1.916,0.915 -3.85,1.798 -5.801,2.636 -2.009,0.861 -4.038,1.678 -6.078,2.463 -2.015,0.775 -4.055,1.486 -6.324,2.313 0.26,-1.463 0.521,-2.602 0.656,-3.756 0.437,-3.72 -0.024,-7.366 -1.149,-10.916 -4.843,-15.277 -15.216,-24.319 -30.976,-27.003 -5.942,-1.012 -11.695,0.369 -17.202,2.635 -8.67,3.567 -14.716,9.941 -19.015,18.112 -1.812,3.443 -3.239,7.027 -3.859,10.903 -0.449,2.808 -0.485,5.595 0.078,8.386 0.082,0.408 0.149,0.818 0.269,1.486 -11.691,-4.132 -22.31,-9.819 -32.655,-16.278 0.127,0.324 0.226,0.663 0.384,0.972 M 109.295,-32.86 C 91.167,-3.719 90.16,11.869 76.06,31.57 65.465,46.373 46.805,64.439 11.543,76.569 c 0.703,39.603 -9.607,64.314 -19.55,79.77 -11.959,18.591 -26.701,25.11 -40.079,52.158 -13.115,26.519 -19.527,47.044 -19.527,47.044 -4.025,-12.109 -11.045,-29.598 -23.483,-48.067 -17.69,-26.265 -31.356,-32.265 -43.989,-52.157 -9.228,-14.531 -18.679,-37.692 -17.595,-74.657 0,0 -45.944,7.863 -80.157,-60.498 0,0 -26.393,-69.385 -57.673,-94.952 53.779,-4.164 63.538,-5.114 63.538,-5.114 50.526,-4.915 49.164,-8.3 65.494,-8.181 20.754,0.151 50.88,5.822 87.977,32.726 35.004,-27.394 62.986,-32.308 82.112,-31.704 25.052,0.792 37.796,11.143 71.359,14.318 27.622,2.613 50.607,-1.406 65.493,-5.113 -9.732,9.507 -23.331,24.363 -36.168,44.998" /></g></g></g></svg>