<?xml version="1.0" encoding="UTF-8" standalone="no"?>
<!-- Created with Inkscape (http://www.inkscape.org/) -->

<svg
   xmlns:dc="http://purl.org/dc/elements/1.1/"
   xmlns:cc="http://creativecommons.org/ns#"
   xmlns:rdf="http://www.w3.org/1999/02/22-rdf-syntax-ns#"
   xmlns:svg="http://www.w3.org/2000/svg"
   xmlns="http://www.w3.org/2000/svg"
   xmlns:xlink="http://www.w3.org/1999/xlink"
   xmlns:sodipodi="http://sodipodi.sourceforge.net/DTD/sodipodi-0.dtd"
   xmlns:inkscape="http://www.inkscape.org/namespaces/inkscape"
   width="900"
   height="400"
   viewBox="0 0 238.12501 105.83333"
   id="svg2"
   version="1.1"
   inkscape:version="0.91+devel r"
   sodipodi:docname="h.svg"
   inkscape:export-filename="/home/ionicabizau/Documents/repository-downloader/downloads/github/IonicaBizau/Resources/tithe/h.png"
   inkscape:export-xdpi="96"
   inkscape:export-ydpi="96">
  <defs
     id="defs4">
    <linearGradient
       inkscape:collect="always"
       id="linearGradient4213">
      <stop
         style="stop-color:#f39c12;stop-opacity:1;"
         offset="0"
         id="stop4215" />
      <stop
         style="stop-color:#f39c12;stop-opacity:0;"
         offset="1"
         id="stop4217" />
    </linearGradient>
    <linearGradient
       inkscape:collect="always"
       id="linearGradient5122">
      <stop
         style="stop-color:#f9d423;stop-opacity:1"
         offset="0"
         id="stop5124" />
      <stop
         style="stop-color:#ff4e50;stop-opacity:1"
         offset="1"
         id="stop5126" />
    </linearGradient>
    <linearGradient
       inkscape:collect="always"
       xlink:href="#linearGradient4213"
       id="linearGradient5128"
       x1="-28.892174"
       y1="319.73483"
       x2="271.39697"
       y2="468.4585"
       gradientUnits="userSpaceOnUse"
       gradientTransform="translate(1.45e-5,-0.00153595)" />
    <linearGradient
       inkscape:collect="always"
       xlink:href="#linearGradient5122"
       id="linearGradient4225"
       x1="-28.892174"
       y1="318.3139"
       x2="273.7652"
       y2="468.45847"
       gradientUnits="userSpaceOnUse"
       gradientTransform="translate(1.45e-5,-0.00154929)" />
    <linearGradient
       inkscape:collect="always"
       xlink:href="#linearGradient5122"
       id="linearGradient4246"
       gradientUnits="userSpaceOnUse"
       x1="-28.892174"
       y1="318.3139"
       x2="273.7652"
       y2="468.45847"
       gradientTransform="translate(1.45e-5,-0.00153595)" />
  </defs>
  <sodipodi:namedview
     id="base"
     pagecolor="#ffffff"
     bordercolor="#666666"
     borderopacity="1.0"
     inkscape:pageopacity="0.0"
     inkscape:pageshadow="2"
     inkscape:zoom="2.2344574"
     inkscape:cx="527.8293"
     inkscape:cy="143.15632"
     inkscape:document-units="mm"
     inkscape:current-layer="layer1"
     showgrid="false"
     units="px"
     inkscape:window-width="1920"
     inkscape:window-height="1056"
     inkscape:window-x="0"
     inkscape:window-y="24"
     inkscape:window-maximized="1" />
  <metadata
     id="metadata7">
    <rdf:RDF>
      <cc:Work
         rdf:about="">
        <dc:format>image/svg+xml</dc:format>
        <dc:type
           rdf:resource="http://purl.org/dc/dcmitype/StillImage" />
        <dc:title />
      </cc:Work>
    </rdf:RDF>
  </metadata>
  <g
     inkscape:label="Layer 1"
     inkscape:groupmode="layer"
     id="layer1"
     transform="translate(0,-191.16667)">
    <g
       id="g4256"
       transform="translate(-1.45e-5,0.00153595)">
      <path
         id="rect4141"
         d="m 86.395761,203.28929 c -0.631946,0 -1.178922,0.23066 -1.640728,0.69246 -0.461807,0.46182 -0.692463,1.0088 -0.692463,1.64073 l 0,42.00002 c 0,0.63193 0.230656,1.17892 0.692463,1.64072 0.461806,0.46181 1.008782,0.69247 1.640728,0.69247 l 65.333479,0 c 0.63195,0 1.17892,-0.23066 1.64073,-0.69247 0.4618,-0.4618 0.69246,-1.00879 0.69246,-1.64072 l 0,-42.00002 c 0,-0.63193 -0.23066,-1.17891 -0.69246,-1.64073 -0.46181,-0.4618 -1.00878,-0.69246 -1.64073,-0.69246 l -65.333479,0 z m 11.666988,4.66638 41.999501,0 c 0,2.57639 0.9118,4.77617 2.73472,6.59908 1.82291,1.82291 4.02269,2.7342 6.59908,2.7342 l 0,18.66656 c -2.57639,0 -4.77617,0.91181 -6.59908,2.73472 -1.82292,1.82291 -2.73472,4.02269 -2.73472,6.59908 l -41.999501,0 c 0,-2.57639 -0.91181,-4.77617 -2.734718,-6.59908 -1.822926,-1.82291 -4.022693,-2.73472 -6.599078,-2.73472 l 0,-18.66656 c 2.576385,0 4.776152,-0.91129 6.599078,-2.7342 1.822908,-1.82291 2.734718,-4.02269 2.734718,-6.59908 z m 20.999751,3.50004 c -1.82291,0 -3.49997,0.47421 -5.03122,1.42214 -1.53126,0.94791 -2.76478,2.17499 -3.70055,3.68195 -0.93575,1.50694 -1.65895,3.13549 -2.16937,4.88548 -0.51042,1.75001 -0.76533,3.47557 -0.76533,5.17695 0,1.70139 0.25491,3.42746 0.76533,5.17746 0.51042,1.75 1.23362,3.37803 2.16937,4.88498 0.93577,1.50694 2.16929,2.73454 3.70055,3.68246 1.53125,0.94792 3.20831,1.42213 5.03122,1.42213 1.82291,0 3.49997,-0.47421 5.03122,-1.42213 1.53126,-0.94792 2.76478,-2.17552 3.70055,-3.68246 0.93574,-1.50695 1.65895,-3.13498 2.16937,-4.88498 0.51043,-1.75 0.76533,-3.47607 0.76533,-5.17746 0,-1.70138 -0.2549,-3.42694 -0.76533,-5.17695 -0.51042,-1.74999 -1.23363,-3.37854 -2.16937,-4.88548 -0.93577,-1.50696 -2.16929,-2.73404 -3.70055,-3.68195 -1.53125,-0.94793 -3.20831,-1.42214 -5.03122,-1.42214 z m -1.82314,4.6669 4.15633,0 0,16.33337 4.6669,0 0,3.49953 -14.00018,0 0,-3.49953 4.6669,0 0,-10.50013 -0.0729,0 c -0.31598,0.48611 -0.98473,1.17861 -2.00557,2.07791 l -2.80706,-2.91662 5.39554,-4.99453 z"
         style="opacity:1;fill:url(#linearGradient5128);fill-opacity:1;fill-rule:nonzero;stroke:none;stroke-width:2.84116006;stroke-linecap:butt;stroke-linejoin:miter;stroke-miterlimit:4;stroke-dasharray:none;stroke-opacity:1"
         inkscape:connector-curvature="0" />
      <text
         sodipodi:linespacing="125%"
         id="text5157"
         y="199.4532"
         x="84.065186"
         style="font-style:normal;font-weight:normal;font-size:7.05555534px;line-height:125%;font-family:sans-serif;letter-spacing:0px;word-spacing:0px;opacity:0.31400003;fill:#f39c12;fill-opacity:1;stroke:none;stroke-width:0.26458332px;stroke-linecap:butt;stroke-linejoin:miter;stroke-opacity:1"
         xml:space="preserve"><tspan
           style="font-style:normal;font-variant:normal;font-weight:normal;font-stretch:normal;font-family:Inconsolata;-inkscape-font-specification:Inconsolata;letter-spacing:0.9207499px;fill:#f39c12;stroke-width:0.26458332px"
           y="199.4532"
           x="84.065186"
           id="tspan5159"
           sodipodi:role="line">require(&quot;tithe&quot;)</tspan></text>
      <path
         inkscape:connector-curvature="0"
         id="rect4244"
         d="m 102.29373,255.03197 0,4.41262 5.2398,0 0,-4.41262 -5.2398,0 z m 19.5533,0 0,20.13303 5.23979,0 0,-8.13643 c 0.12871,-0.31257 0.29467,-0.59704 0.49692,-0.85445 0.20224,-0.2574 0.41363,-0.46879 0.63427,-0.63427 0.23902,-0.18386 0.46918,-0.32216 0.68982,-0.41409 0.23902,-0.11032 0.44051,-0.16564 0.60599,-0.16564 0.47804,0 0.87416,0.16596 1.18673,0.49691 0.33095,0.31257 0.4959,0.82721 0.4959,1.54427 l 0,8.1637 5.2398,0 0,-9.54233 c 0,-0.5332 -0.0454,-1.10316 -0.13736,-1.7099 -0.0919,-0.60675 -0.29443,-1.16782 -0.607,-1.68264 -0.31257,-0.5332 -0.77188,-0.97475 -1.37863,-1.32408 -0.60674,-0.34934 -1.41575,-0.52419 -2.42699,-0.52419 -1.02963,0 -1.95816,0.21139 -2.78554,0.63427 -0.82737,0.4045 -1.49909,1.00212 -2.01391,1.79272 l 0,-7.77688 -5.23979,0 z m -37.784531,0.55146 0,4.68834 5.653893,0 0,14.89323 5.378169,0 0,-14.89323 5.625609,0 0,-4.68834 -16.657671,0 z m 27.088791,0.52418 0,4.54998 -1.79272,0 0,3.94399 1.79272,0 0,6.64671 c 0,0.7906 0.10963,1.45242 0.33027,1.98562 0.23902,0.5332 0.55216,0.96587 0.93827,1.29682 0.4045,0.33095 0.87371,0.57 1.40691,0.71709 0.5332,0.14709 1.09327,0.22018 1.68162,0.22018 0.809,0 1.6279,-0.10075 2.45528,-0.303 0.84576,-0.22063 1.63599,-0.48734 2.37144,-0.7999 l -0.93828,-4.1369 c -0.33095,0.14709 -0.66186,0.26661 -0.99281,0.35854 -0.33095,0.0736 -0.62431,0.11009 -0.88172,0.11009 -0.34934,0 -0.62594,-0.0919 -0.82818,-0.27572 -0.20225,-0.20225 -0.303,-0.54205 -0.303,-1.02009 l 0,-4.79944 2.84109,0 0,-3.94399 -2.84109,0 0,-4.54998 -5.2398,0 z m 34.96768,4.27425 c -1.30542,0 -2.45422,0.21139 -3.44707,0.63427 -0.97447,0.4045 -1.80125,0.95669 -2.48154,1.65537 -0.6619,0.69867 -1.16766,1.51656 -1.517,2.45426 -0.33095,0.9377 -0.4969,1.93043 -0.4969,2.97844 0,0.97447 0.17484,1.903 0.52418,2.78554 0.34933,0.88254 0.85509,1.66388 1.51699,2.34417 0.68029,0.68029 1.51696,1.22259 2.50982,1.62709 0.99285,0.38611 2.12287,0.57973 3.39152,0.57973 1.78346,0 3.28195,-0.36847 4.49544,-1.10391 1.23188,-0.73545 2.14264,-1.68175 2.731,-2.84008 l -4.4409,-1.26854 c -0.16548,0.45966 -0.50527,0.81823 -1.02009,1.07563 -0.49643,0.25741 -1.02984,0.38582 -1.59981,0.38582 -0.60675,0 -1.16681,-0.16597 -1.68163,-0.49692 -0.51481,-0.34933 -0.80029,-0.9094 -0.85545,-1.68162 l 10.1766,0 c 0.0368,-0.22064 0.0644,-0.46957 0.0828,-0.74537 0.0368,-0.29417 0.0556,-0.57865 0.0556,-0.85444 0,-0.99286 -0.17485,-1.94017 -0.52418,-2.84109 -0.33095,-0.91931 -0.83671,-1.71843 -1.517,-2.39871 -0.6619,-0.69868 -1.48867,-1.25087 -2.48153,-1.65537 -0.99285,-0.42288 -2.13378,-0.63427 -3.42082,-0.63427 z m -43.82524,0.27573 0,14.50741 5.2398,0 0,-14.50741 -5.2398,0 z m 43.74343,3.44809 c 0.66191,0 1.2042,0.20149 1.62709,0.60598 0.42288,0.4045 0.67969,0.95669 0.77163,1.65537 l -4.79844,0 c 0.0919,-0.69868 0.34874,-1.25087 0.77163,-1.65537 0.42288,-0.40449 0.96619,-0.60598 1.62809,-0.60598 z"
         style="opacity:1;fill:url(#linearGradient4246);fill-opacity:1;fill-rule:nonzero;stroke:none;stroke-width:2.17529058;stroke-linecap:butt;stroke-linejoin:miter;stroke-miterlimit:4;stroke-dasharray:none;stroke-opacity:1" />
      <path
         inkscape:connector-curvature="0"
         id="rect4211"
         d="m 107.44756,276.24916 0,0.94891 0.86266,0 0,-0.94891 -0.86266,0 z m 24.40272,0 0,2.39976 c -0.14116,-0.24573 -0.33723,-0.44689 -0.58819,-0.60374 -0.25096,-0.16208 -0.54105,-0.24319 -0.87044,-0.24319 -0.26664,0 -0.51236,0.0575 -0.73718,0.17249 -0.21959,0.1098 -0.4131,0.26148 -0.58041,0.45493 -0.16208,0.19345 -0.29012,0.41825 -0.38423,0.67444 -0.0889,0.25096 -0.13326,0.52014 -0.13326,0.80769 0,0.29802 0.0469,0.57774 0.14104,0.83916 0.0993,0.25619 0.23538,0.48099 0.40791,0.67444 0.17254,0.19345 0.37642,0.34768 0.6117,0.4627 0.23527,0.1098 0.49136,0.16472 0.76846,0.16472 0.31893,0 0.6092,-0.0731 0.87062,-0.21951 0.26141,-0.14639 0.46784,-0.34773 0.61947,-0.60392 l 0.0157,0.30594 c 0.0105,0.14116 0.0707,0.25611 0.18045,0.34499 0.10979,0.0889 0.25093,0.13327 0.42346,0.13327 0.0366,0 0.081,-0.003 0.13326,-0.008 0.0575,-0.005 0.13081,-0.0156 0.21969,-0.0313 l 0,-0.73718 c -0.0889,-0.005 -0.15163,-0.0289 -0.18823,-0.0707 -0.0314,-0.0418 -0.0472,-0.11239 -0.0472,-0.21173 l 0,-4.7055 -0.86266,0 z m 18.44008,0 0,5.72511 0.86266,0 0,-1.24708 0.68221,-0.64297 1.30964,1.89005 0.91763,0 -1.67832,-2.37644 1.59207,-1.71737 -0.94114,0 -1.88209,1.9998 0,-3.6311 -0.86266,0 z m -63.073597,0.1177 c -0.386897,0 -0.745012,0.0784 -1.074397,0.23524 -0.324157,0.15163 -0.606431,0.35806 -0.846933,0.61947 -0.235276,0.26142 -0.420969,0.56206 -0.556906,0.9019 -0.135936,0.33985 -0.20378,0.69541 -0.20378,1.06663 0,0.35552 0.06275,0.70327 0.188227,1.04311 0.130709,0.33984 0.313677,0.64303 0.548952,0.90968 0.235275,0.26141 0.515001,0.47312 0.839157,0.6352 0.329386,0.15685 0.692773,0.23524 1.090127,0.23524 0.381669,0 0.734511,-0.0757 1.058667,-0.22729 0.329385,-0.15685 0.614384,-0.36346 0.854888,-0.61965 0.240502,-0.26142 0.42602,-0.56206 0.556728,-0.9019 0.135936,-0.33984 0.203957,-0.69541 0.203957,-1.06662 0,-0.3503 -0.0653,-0.69259 -0.196004,-1.02721 -0.125481,-0.33984 -0.3059,-0.6432 -0.541176,-0.90985 -0.230046,-0.26664 -0.509772,-0.4809 -0.839156,-0.64298 -0.324158,-0.1673 -0.684997,-0.25097 -1.082351,-0.25097 z m 48.733687,0.15677 0,1.34888 -0.541,0 0,0.66666 0.541,0 0,2.56448 c 0,0.16731 0.0262,0.31117 0.0785,0.43142 0.0523,0.11502 0.12285,0.20906 0.21173,0.28225 0.0941,0.0732 0.20124,0.12812 0.32149,0.16472 0.12025,0.0366 0.24847,0.055 0.38441,0.055 0.21959,0 0.42602,-0.0315 0.61947,-0.0942 0.19345,-0.068 0.34513,-0.12799 0.45493,-0.18028 l -0.18045,-0.68239 c -0.0523,0.0261 -0.13322,0.0602 -0.24302,0.10198 -0.10979,0.0418 -0.22492,0.0627 -0.34517,0.0627 -0.12025,0 -0.22211,-0.0315 -0.30576,-0.0942 -0.0784,-0.068 -0.12298,-0.17509 -0.13344,-0.32149 l 0,-2.29 0.89413,0 0,-0.66666 -0.89413,0 0,-1.34888 -0.86266,0 z m -48.741463,0.64316 c 0.266645,0 0.507087,0.0575 0.721449,0.17249 0.219589,0.1098 0.405283,0.25876 0.556904,0.44698 0.156851,0.18299 0.277072,0.39742 0.360725,0.64315 0.08365,0.2405 0.125485,0.49404 0.125485,0.76069 0,0.25096 -0.03928,0.49667 -0.117708,0.73717 -0.07843,0.24051 -0.193374,0.45749 -0.344995,0.65093 -0.151622,0.19345 -0.337315,0.35041 -0.556905,0.47066 -0.214362,0.11502 -0.462625,0.1725 -0.744955,0.1725 -0.271873,0 -0.517589,-0.0549 -0.737179,-0.16472 -0.21959,-0.11503 -0.407832,-0.26671 -0.564682,-0.45493 -0.151621,-0.18822 -0.269294,-0.4052 -0.352948,-0.65093 -0.08365,-0.24573 -0.125485,-0.49927 -0.125485,-0.76068 0,-0.25097 0.03928,-0.49668 0.117708,-0.73718 0.08365,-0.24574 0.201327,-0.46271 0.352948,-0.65093 0.151623,-0.18822 0.337139,-0.33991 0.556729,-0.45493 0.21959,-0.12025 0.470578,-0.18027 0.752909,-0.18027 z m 7.847216,0.6352 c -0.28233,0 -0.54114,0.0575 -0.776415,0.17249 -0.230047,0.1098 -0.428658,0.26148 -0.595964,0.45493 -0.167306,0.18822 -0.298074,0.41302 -0.392184,0.67444 -0.09411,0.25618 -0.141038,0.53064 -0.141038,0.82342 0,0.27711 0.04438,0.54119 0.133261,0.79215 0.09411,0.25096 0.222153,0.47321 0.384231,0.66666 0.167307,0.19345 0.366094,0.34768 0.596141,0.4627 0.230047,0.1098 0.483583,0.16455 0.760686,0.16455 0.28233,0 0.551509,-0.0679 0.807697,-0.20378 0.256189,-0.13594 0.457524,-0.32946 0.603918,-0.58042 l 0,0.62743 c 0,0.20913 -0.03656,0.38955 -0.109755,0.54117 -0.06797,0.15163 -0.162178,0.27712 -0.28243,0.37646 -0.120251,0.0993 -0.261388,0.17245 -0.423467,0.21951 -0.15685,0.0471 -0.324175,0.0705 -0.501938,0.0705 -0.282331,0 -0.548961,-0.0575 -0.799921,-0.1725 -0.245732,-0.11502 -0.447068,-0.28235 -0.603918,-0.50194 l -0.48621,0.45493 c 0.203905,0.2771 0.454894,0.49153 0.752909,0.64315 0.303243,0.15685 0.682274,0.23524 1.13714,0.23524 0.308471,0 0.596018,-0.0418 0.862663,-0.12548 0.266645,-0.0837 0.496718,-0.2066 0.690167,-0.36868 0.198676,-0.15685 0.352907,-0.35019 0.462703,-0.58024 0.109794,-0.23004 0.16472,-0.49413 0.16472,-0.79214 l 0,-3.98405 -0.760685,0 0,0.77641 c -0.162078,-0.25096 -0.368687,-0.45484 -0.619648,-0.61169 -0.245731,-0.15685 -0.533278,-0.23524 -0.862663,-0.23524 z m 4.869516,0 c -0.569889,0 -1.118793,0.17769 -1.646855,0.53322 l 0.266522,0.54913 c 0.224819,-0.15162 0.441797,-0.26675 0.650931,-0.34517 0.214361,-0.0837 0.43134,-0.12549 0.65093,-0.12549 0.324153,0 0.572593,0.0862 0.745133,0.25875 0.17253,0.1673 0.25874,0.40265 0.25874,0.70589 l 0,0.28226 c -0.15162,-0.0575 -0.32149,-0.1019 -0.50971,-0.13327 -0.18822,-0.0366 -0.379187,-0.0548 -0.572635,-0.0548 -0.256189,0 -0.491357,0.0313 -0.705719,0.094 -0.209134,0.0627 -0.392102,0.15168 -0.548952,0.2667 -0.151621,0.11502 -0.269295,0.25089 -0.352948,0.40774 -0.08365,0.15685 -0.125485,0.33199 -0.125485,0.52544 0,0.18299 0.03401,0.35287 0.101978,0.50972 0.0732,0.15685 0.169955,0.29289 0.290207,0.40791 0.125479,0.11502 0.271889,0.20651 0.439196,0.27448 0.172535,0.0627 0.358051,0.094 0.556729,0.094 0.308471,0 0.596019,-0.0627 0.862659,-0.18823 0.27188,-0.1307 0.4994,-0.31622 0.68239,-0.55672 l 0.0235,0.25874 c 0.0209,0.13071 0.0758,0.23784 0.16472,0.32149 0.0941,0.0836 0.2247,0.12549 0.39201,0.12549 0.0575,0 0.11499,-0.003 0.1725,-0.008 0.0627,-0.005 0.13603,-0.0156 0.21968,-0.0313 l 0,-0.73718 c -0.15162,-0.005 -0.22746,-0.0994 -0.22746,-0.28243 l 0,-1.48214 c 0,-0.53851 -0.15678,-0.95156 -0.47048,-1.23911 -0.3137,-0.28756 -0.75293,-0.43142 -1.317588,-0.43142 z m 5.289451,0 c -0.36076,0 -0.69014,0.0811 -0.98815,0.24319 -0.29802,0.15685 -0.52554,0.37383 -0.68239,0.65093 l 0,-0.8236 -0.78419,0 0,4.10176 0.86266,0 0,-2.43918 c 0.0471,-0.14116 0.11235,-0.26921 0.196,-0.38423 0.0889,-0.12025 0.18819,-0.22211 0.29799,-0.30576 0.10979,-0.0889 0.22746,-0.1569 0.35294,-0.20396 0.12549,-0.047 0.25098,-0.0705 0.37646,-0.0705 0.2405,0 0.42092,0.0888 0.54117,0.26653 0.12548,0.17253 0.18823,0.45226 0.18823,0.83915 l 0,2.29797 0.86267,0 0,-2.50175 c 0,-0.22481 -0.0184,-0.4367 -0.055,-0.63537 -0.0366,-0.20391 -0.1019,-0.3816 -0.19601,-0.53322 -0.0889,-0.15686 -0.21183,-0.2798 -0.36868,-0.36868 -0.15685,-0.0889 -0.358,-0.13326 -0.60374,-0.13326 z m 9.75105,0 c -0.32416,0 -0.61698,0.0575 -0.8784,0.17249 -0.26141,0.1098 -0.48621,0.26403 -0.67443,0.46271 -0.18299,0.19344 -0.32686,0.42097 -0.43142,0.68239 -0.0993,0.25618 -0.14899,0.52809 -0.14899,0.81565 0,0.28756 0.0496,0.55928 0.14899,0.81547 0.10456,0.25619 0.24843,0.48099 0.43142,0.67444 0.18822,0.19345 0.41302,0.34768 0.67443,0.4627 0.26142,0.1098 0.55152,0.16472 0.87044,0.16472 0.43396,0 0.81299,-0.0966 1.13714,-0.29003 0.32939,-0.19867 0.56473,-0.45239 0.7059,-0.76086 l -0.73718,-0.21173 c -0.0418,0.0941 -0.0993,0.1805 -0.1725,0.25892 -0.0732,0.0784 -0.15686,0.14627 -0.25097,0.20378 -0.0941,0.0523 -0.19868,0.0941 -0.31371,0.12548 -0.10979,0.0262 -0.22219,0.0392 -0.33722,0.0392 -0.15685,0 -0.30853,-0.0287 -0.45492,-0.0863 -0.14117,-0.0575 -0.26921,-0.13862 -0.38423,-0.24319 -0.1098,-0.1098 -0.20128,-0.23784 -0.27448,-0.38423 -0.068,-0.14639 -0.1098,-0.31099 -0.12548,-0.49399 l 3.28593,0 c 0.005,-0.0366 0.0105,-0.0812 0.0157,-0.13343 0.005,-0.0575 0.008,-0.11754 0.008,-0.18028 0,-0.2771 -0.0496,-0.54118 -0.14899,-0.79214 -0.0941,-0.25619 -0.2327,-0.47844 -0.41569,-0.66666 -0.183,-0.19345 -0.40507,-0.34768 -0.66649,-0.46271 -0.25618,-0.11502 -0.54373,-0.17249 -0.86266,-0.17249 z m 6.32726,0 c -0.56989,0 -1.1188,0.17769 -1.64686,0.53322 l 0.26653,0.54913 c 0.22481,-0.15162 0.44179,-0.26675 0.65093,-0.34517 0.21436,-0.0837 0.43134,-0.12549 0.65093,-0.12549 0.32415,0 0.57259,0.0862 0.74513,0.25875 0.17253,0.1673 0.25874,0.40265 0.25874,0.70589 l 0,0.28226 c -0.15162,-0.0575 -0.32149,-0.1019 -0.50971,-0.13327 -0.18822,-0.0366 -0.37919,-0.0548 -0.57264,-0.0548 -0.25619,0 -0.49135,0.0313 -0.70572,0.094 -0.20913,0.0627 -0.3921,0.15168 -0.54895,0.2667 -0.15162,0.11502 -0.26929,0.25089 -0.35295,0.40774 -0.0836,0.15685 -0.12548,0.33199 -0.12548,0.52544 0,0.18299 0.034,0.35287 0.10198,0.50972 0.0732,0.15685 0.16995,0.29289 0.2902,0.40791 0.12548,0.11502 0.27189,0.20651 0.4392,0.27448 0.17254,0.0627 0.35805,0.094 0.55673,0.094 0.30847,0 0.59602,-0.0627 0.86266,-0.18823 0.27188,-0.1307 0.4994,-0.31622 0.68239,-0.55672 l 0.0235,0.25874 c 0.0209,0.13071 0.0758,0.23784 0.16472,0.32149 0.0941,0.0836 0.2247,0.12549 0.39201,0.12549 0.0575,0 0.11499,-0.003 0.1725,-0.008 0.0627,-0.005 0.13603,-0.0156 0.21968,-0.0313 l 0,-0.73718 c -0.15162,-0.005 -0.22746,-0.0994 -0.22746,-0.28243 l 0,-1.48214 c 0,-0.53851 -0.15678,-0.95156 -0.47048,-1.23911 -0.3137,-0.28756 -0.75293,-0.43142 -1.31759,-0.43142 z m 5.28945,0 c -0.36076,0 -0.69014,0.0811 -0.98815,0.24319 -0.29802,0.15685 -0.52554,0.37383 -0.68239,0.65093 l 0,-0.8236 -0.78419,0 0,4.10176 0.86266,0 0,-2.43918 c 0.0471,-0.14116 0.11235,-0.26921 0.196,-0.38423 0.0889,-0.12025 0.18819,-0.22211 0.29799,-0.30576 0.10979,-0.0889 0.22746,-0.1569 0.35294,-0.20396 0.12548,-0.047 0.25098,-0.0705 0.37646,-0.0705 0.2405,0 0.42092,0.0888 0.54117,0.26653 0.12548,0.17253 0.18823,0.45226 0.18823,0.83915 l 0,2.29797 0.86266,0 0,-2.50175 c 0,-0.22481 -0.0184,-0.4367 -0.055,-0.63537 -0.0366,-0.20391 -0.10189,-0.3816 -0.196,-0.53322 -0.0889,-0.15686 -0.21183,-0.2798 -0.36868,-0.36868 -0.15685,-0.0889 -0.35801,-0.13326 -0.60374,-0.13326 z m 16.49188,0 c -0.56989,0 -1.1188,0.17769 -1.64686,0.53322 l 0.26652,0.54913 c 0.22482,-0.15162 0.4418,-0.26675 0.65093,-0.34517 0.21436,-0.0837 0.43134,-0.12549 0.65093,-0.12549 0.32416,0 0.5726,0.0862 0.74514,0.25875 0.17253,0.1673 0.25874,0.40265 0.25874,0.70589 l 0,0.28226 c -0.15162,-0.0575 -0.32149,-0.1019 -0.50971,-0.13327 -0.18822,-0.0366 -0.37919,-0.0548 -0.57264,-0.0548 -0.25619,0 -0.49136,0.0313 -0.70572,0.094 -0.20913,0.0627 -0.3921,0.15168 -0.54895,0.2667 -0.15162,0.11502 -0.26929,0.25089 -0.35295,0.40774 -0.0837,0.15685 -0.12548,0.33199 -0.12548,0.52544 0,0.18299 0.034,0.35287 0.10198,0.50972 0.0732,0.15685 0.16995,0.29289 0.2902,0.40791 0.12548,0.11502 0.27189,0.20651 0.4392,0.27448 0.17253,0.0627 0.35805,0.094 0.55673,0.094 0.30847,0 0.59601,-0.0627 0.86266,-0.18823 0.27187,-0.1307 0.4994,-0.31622 0.68239,-0.55672 l 0.0235,0.25874 c 0.0209,0.13071 0.0758,0.23784 0.16472,0.32149 0.0941,0.0836 0.2247,0.12549 0.39201,0.12549 0.0575,0 0.11498,-0.003 0.17249,-0.008 0.0627,-0.005 0.13604,-0.0156 0.21969,-0.0313 l 0,-0.73718 c -0.15162,-0.005 -0.22746,-0.0994 -0.22746,-0.28243 l 0,-1.48214 c 0,-0.53851 -0.15678,-0.95156 -0.47048,-1.23911 -0.3137,-0.28756 -0.75293,-0.43142 -1.31759,-0.43142 z m 4.6933,0 c -0.32415,0 -0.61697,0.0575 -0.87839,0.17249 -0.26142,0.1098 -0.48622,0.26148 -0.67444,0.45493 -0.18299,0.19345 -0.32413,0.41825 -0.42346,0.67444 -0.0993,0.25618 -0.149,0.52809 -0.149,0.81565 0,0.28756 0.0496,0.55946 0.149,0.81565 0.10456,0.25619 0.24842,0.48353 0.43142,0.68221 0.18822,0.19345 0.41302,0.34768 0.67443,0.4627 0.26142,0.11503 0.55151,0.1725 0.87044,0.1725 0.43395,0 0.81044,-0.0966 1.12937,-0.29003 0.31892,-0.19867 0.54645,-0.45239 0.68239,-0.76086 l -0.84712,-0.25097 c -0.0314,0.0784 -0.081,0.15172 -0.14899,0.21969 -0.0627,0.068 -0.13858,0.12799 -0.22746,0.18027 -0.0837,0.0523 -0.17769,0.0941 -0.28225,0.12549 -0.10457,0.0261 -0.20915,0.0392 -0.31371,0.0392 -0.16731,0 -0.32682,-0.034 -0.47844,-0.10198 -0.14639,-0.0732 -0.27716,-0.1725 -0.39218,-0.29798 -0.1098,-0.12548 -0.19855,-0.27189 -0.26652,-0.43919 -0.0627,-0.17254 -0.0942,-0.35806 -0.0942,-0.55673 0,-0.20391 0.0315,-0.3896 0.0942,-0.55691 0.0627,-0.1673 0.14895,-0.31099 0.25874,-0.43124 0.1098,-0.12548 0.23784,-0.22224 0.38423,-0.29021 0.15162,-0.068 0.31385,-0.10197 0.48639,-0.10197 0.2039,0 0.38942,0.0497 0.55673,0.14899 0.1673,0.0941 0.30062,0.22742 0.39996,0.39996 l 0.83916,-0.26653 c -0.15163,-0.30847 -0.3817,-0.55436 -0.69017,-0.73735 -0.30324,-0.18822 -0.66663,-0.28225 -1.09013,-0.28225 z m -55.007041,0.0313 c -0.261417,0.0157 -0.507132,0.10989 -0.737179,0.28243 -0.224818,0.1673 -0.407786,0.3921 -0.548951,0.67443 l 0,-0.91762 -0.799922,0 0,4.10176 0.862664,0 0,-2.5097 c 0.109795,-0.26664 0.292763,-0.47053 0.548951,-0.61169 0.261417,-0.1464 0.559511,-0.22479 0.894123,-0.23524 l 0,-0.77642 c -0.02614,-0.005 -0.0576,-0.008 -0.0942,-0.008 l -0.125485,0 z m 47.943491,0 c -0.26142,0.0157 -0.50713,0.10989 -0.73718,0.28243 -0.22482,0.1673 -0.40779,0.3921 -0.54895,0.67443 l 0,-0.91762 -0.8001,0 0,4.10176 0.86284,0 0,-2.5097 c 0.10979,-0.26664 0.29276,-0.47053 0.54895,-0.61169 0.26142,-0.1464 0.55933,-0.22479 0.89395,-0.23524 l 0,-0.77642 c -0.0261,-0.005 -0.0574,-0.008 -0.094,-0.008 l -0.12549,0 z m -33.257,0.0392 0,4.10176 0.86266,0 0,-4.10176 -0.86266,0 z m 1.6875,0 0,0.61169 2.37644,0 -2.46269,2.94889 0,0.54118 3.39587,0 0,-0.61187 -2.47046,0 2.44695,-2.94872 0,-0.54117 -3.28611,0 z m 5.8232,0.56468 c 0.16208,0 0.31631,0.0287 0.46271,0.0863 0.14639,0.0575 0.27461,0.13862 0.3844,0.24319 0.1098,0.0993 0.19856,0.22211 0.26653,0.3685 0.0732,0.14639 0.11775,0.3059 0.13344,0.47843 l -2.47824,0 c 0.0157,-0.17253 0.0575,-0.33204 0.12548,-0.47843 0.068,-0.14639 0.15673,-0.26916 0.26653,-0.3685 0.10979,-0.10457 0.23529,-0.18568 0.37645,-0.24319 0.14639,-0.0575 0.30063,-0.0863 0.4627,-0.0863 z m -19.71383,0.10198 c 0.120252,0 0.240473,0.0235 0.360725,0.0705 0.120252,0.0418 0.232651,0.10203 0.337218,0.18045 0.109795,0.0784 0.206553,0.17246 0.290206,0.28226 0.08365,0.10456 0.151673,0.22224 0.203957,0.35295 l 0,1.07439 c -0.03137,0.1098 -0.08357,0.21438 -0.156768,0.31371 -0.0732,0.0941 -0.162133,0.1805 -0.266699,0.25893 -0.09934,0.0732 -0.209191,0.13322 -0.329442,0.18027 -0.120252,0.0418 -0.245746,0.0627 -0.376454,0.0627 -0.182992,0 -0.352866,-0.0366 -0.509715,-0.10975 -0.151623,-0.0732 -0.284939,-0.16996 -0.399962,-0.29021 -0.115023,-0.12548 -0.206507,-0.26916 -0.274475,-0.43124 -0.06274,-0.16731 -0.0942,-0.34518 -0.0942,-0.5334 0,-0.17776 0.02874,-0.35018 0.08625,-0.51749 0.05751,-0.16731 0.138626,-0.31644 0.243193,-0.44715 0.104567,-0.13594 0.230061,-0.24307 0.376455,-0.32149 0.151621,-0.0837 0.321495,-0.12548 0.509715,-0.12548 z m 35.39024,0 c 0.12548,0 0.24843,0.0209 0.36868,0.0627 0.12548,0.0418 0.24315,0.10202 0.35295,0.18045 0.10979,0.0784 0.20655,0.17245 0.2902,0.28225 0.0889,0.1098 0.15673,0.23002 0.20378,0.36073 l 0,1.07439 c -0.0314,0.11502 -0.0863,0.22233 -0.16472,0.32167 -0.0732,0.0993 -0.16196,0.18555 -0.26652,0.25874 -0.10457,0.0732 -0.21969,0.13067 -0.34517,0.1725 -0.12548,0.0418 -0.25098,0.0627 -0.37646,0.0627 -0.17253,0 -0.33459,-0.0366 -0.48621,-0.10975 -0.14639,-0.0732 -0.27698,-0.1725 -0.392,-0.29798 -0.11503,-0.12548 -0.20651,-0.27189 -0.27448,-0.4392 -0.0627,-0.16731 -0.0942,-0.345 -0.0942,-0.53322 0,-0.17777 0.0287,-0.35036 0.0862,-0.51767 0.0627,-0.16731 0.1464,-0.31627 0.25097,-0.44697 0.10457,-0.13071 0.22751,-0.23529 0.36868,-0.31372 0.14639,-0.0784 0.30572,-0.1177 0.47825,-0.1177 z m -30.732458,1.42734 c 0.156848,0 0.316358,0.0156 0.478428,0.047 0.16731,0.0314 0.32409,0.0759 0.47048,0.13344 l 0,0.541 c 0,0.10457 -0.0549,0.20405 -0.16472,0.29816 -0.10456,0.13594 -0.25097,0.24306 -0.43919,0.32149 -0.18299,0.0732 -0.379056,0.10975 -0.588191,0.10975 -0.235275,0 -0.428612,-0.068 -0.580233,-0.20396 -0.151622,-0.14116 -0.227464,-0.31358 -0.227464,-0.51749 0,-0.21959 0.09676,-0.39473 0.290205,-0.52544 0.198677,-0.13594 0.452214,-0.20396 0.760685,-0.20396 z m 21.367758,0 c 0.15685,0 0.31636,0.0156 0.47843,0.047 0.16731,0.0314 0.32409,0.0759 0.47048,0.13344 l 0,0.541 c 0,0.10457 -0.0549,0.20405 -0.16472,0.29816 -0.10456,0.13594 -0.25097,0.24306 -0.43919,0.32149 -0.183,0.0732 -0.37906,0.10975 -0.58819,0.10975 -0.23528,0 -0.42862,-0.068 -0.58024,-0.20396 -0.15162,-0.14116 -0.22746,-0.31358 -0.22746,-0.51749 0,-0.21959 0.0968,-0.39473 0.29021,-0.52544 0.19867,-0.13594 0.45221,-0.20396 0.76068,-0.20396 z m 21.78133,0 c 0.15685,0 0.31635,0.0156 0.47843,0.047 0.16731,0.0314 0.32409,0.0759 0.47048,0.13344 l 0,0.541 c 0,0.10457 -0.0549,0.20405 -0.16472,0.29816 -0.10457,0.13594 -0.25098,0.24306 -0.4392,0.32149 -0.18299,0.0732 -0.37905,0.10975 -0.58818,0.10975 -0.23528,0 -0.42862,-0.068 -0.58024,-0.20396 -0.15162,-0.14116 -0.22746,-0.31358 -0.22746,-0.51749 0,-0.21959 0.0968,-0.39473 0.2902,-0.52544 0.19868,-0.13594 0.45222,-0.20396 0.76069,-0.20396 z m -55.829058,6.05314 0,5.63691 0.849408,0 0,-2.40153 c 0.04118,-0.13899 0.103033,-0.26514 0.185399,-0.37839 0.08237,-0.11841 0.175053,-0.2188 0.278011,-0.30117 0.108106,-0.0875 0.221291,-0.15444 0.339692,-0.20077 0.118403,-0.0463 0.236845,-0.0695 0.355246,-0.0695 0.247099,0 0.434924,0.0901 0.563621,0.27023 0.133846,0.17503 0.200776,0.44801 0.200776,0.81866 l 0,2.26243 0.849408,0 0,-2.46321 c 0,-0.22136 -0.0205,-0.42986 -0.06168,-0.62548 -0.03604,-0.20077 -0.102965,-0.3758 -0.200775,-0.52509 -0.09781,-0.14929 -0.229219,-0.26773 -0.393952,-0.35525 -0.159585,-0.0927 -0.365456,-0.13891 -0.617703,-0.13891 -0.314022,0 -0.604871,0.0771 -0.872561,0.23153 -0.262543,0.15443 -0.471043,0.37064 -0.62548,0.64863 l 0,-2.40913 -0.849408,0 z m 13.950548,0 0,0.93424 0.84941,0 0,-0.93424 -0.84941,0 z m 4.7055,0 0,5.63691 0.84941,0 0,-2.40153 c 0.0412,-0.13899 0.10303,-0.26514 0.1854,-0.37839 0.0824,-0.11841 0.17505,-0.2188 0.27801,-0.30117 0.10811,-0.0875 0.22129,-0.15444 0.33969,-0.20077 0.1184,-0.0463 0.23685,-0.0695 0.35525,-0.0695 0.2471,0 0.43492,0.0901 0.56362,0.27023 0.13384,0.17503 0.20078,0.44801 0.20078,0.81866 l 0,2.26243 0.8494,0 0,-2.46321 c 0,-0.22136 -0.0205,-0.42986 -0.0617,-0.62548 -0.036,-0.20077 -0.10296,-0.3758 -0.20077,-0.52509 -0.0978,-0.14929 -0.22904,-0.26773 -0.39378,-0.35525 -0.15958,-0.0927 -0.36563,-0.13891 -0.61788,-0.13891 -0.31402,0 -0.60487,0.0771 -0.87256,0.23153 -0.26254,0.15443 -0.47104,0.37064 -0.62548,0.64863 l 0,-2.40913 -0.84941,0 z m -21.282921,0.27023 0,1.3282 -0.532869,0 0,0.65641 0.532869,0 0,2.52489 c 0,0.16473 0.02576,0.3063 0.07724,0.4247 0.05148,0.11326 0.121037,0.20594 0.208552,0.27802 0.09266,0.0721 0.198137,0.1262 0.31654,0.16225 0.118401,0.036 0.244553,0.0541 0.378398,0.0541 0.216212,0 0.419454,-0.031 0.609926,-0.0928 0.190473,-0.0669 0.339751,-0.12614 0.447857,-0.17762 l -0.177446,-0.67178 c -0.05148,0.0257 -0.131375,0.0592 -0.239481,0.10039 -0.108106,0.0412 -0.221291,0.0618 -0.339693,0.0618 -0.118401,0 -0.218797,-0.0308 -0.301163,-0.0926 -0.07722,-0.0669 -0.121022,-0.17257 -0.131317,-0.31671 l 0,-2.25466 0.880337,0 0,-0.65641 -0.880337,0 0,-1.3282 -0.849408,0 z m 13.950548,0 0,1.3282 -0.532692,0 0,0.65641 0.532692,0 0,2.52489 c 0,0.16473 0.02576,0.3063 0.07723,0.4247 0.05148,0.11326 0.121038,0.20594 0.208552,0.27802 0.09266,0.0721 0.198138,0.1262 0.31654,0.16225 0.118402,0.036 0.244553,0.0541 0.378398,0.0541 0.216212,0 0.419631,-0.031 0.610103,-0.0928 0.19047,-0.0669 0.33975,-0.12614 0.44786,-0.17762 l -0.17763,-0.67178 c -0.0515,0.0257 -0.13137,0.0592 -0.23948,0.10039 -0.1081,0.0412 -0.221288,0.0618 -0.339689,0.0618 -0.118402,0 -0.218797,-0.0308 -0.301164,-0.0926 -0.07722,-0.0669 -0.121021,-0.17257 -0.131317,-0.31671 l 0,-2.25466 0.88034,0 0,-0.65641 -0.88034,0 0,-1.3282 -0.849408,0 z m 4.705503,0 0,1.3282 -0.53269,0 0,0.65641 0.53269,0 0,2.52489 c 0,0.16473 0.0258,0.3063 0.0772,0.4247 0.0515,0.11326 0.12104,0.20594 0.20855,0.27802 0.0927,0.0721 0.19814,0.1262 0.31654,0.16225 0.1184,0.036 0.24455,0.0541 0.3784,0.0541 0.21621,0 0.41963,-0.031 0.6101,-0.0928 0.19047,-0.0669 0.33975,-0.12614 0.44786,-0.17762 l -0.17762,-0.67178 c -0.0515,0.0257 -0.13138,0.0592 -0.23949,0.10039 -0.1081,0.0412 -0.22129,0.0618 -0.33969,0.0618 -0.1184,0 -0.21879,-0.0308 -0.30116,-0.0926 -0.0772,-0.0669 -0.12102,-0.17257 -0.13132,-0.31671 l 0,-2.25466 0.88034,0 0,-0.65641 -0.88034,0 0,-1.3282 -0.84941,0 z m 43.61638,0 0,1.3282 -0.53269,0 0,0.65641 0.53269,0 0,2.52489 c 0,0.16473 0.0258,0.3063 0.0772,0.4247 0.0515,0.11326 0.12104,0.20594 0.20856,0.27802 0.0927,0.0721 0.19813,0.1262 0.31654,0.16225 0.1184,0.036 0.24455,0.0541 0.37839,0.0541 0.21622,0 0.41963,-0.031 0.61011,-0.0928 0.19047,-0.0669 0.33975,-0.12614 0.44785,-0.17762 l -0.17762,-0.67178 c -0.0515,0.0257 -0.13137,0.0592 -0.23948,0.10039 -0.1081,0.0412 -0.22129,0.0618 -0.33969,0.0618 -0.1184,0 -0.2188,-0.0308 -0.30117,-0.0926 -0.0772,-0.0669 -0.12102,-0.17257 -0.13131,-0.31671 l 0,-2.25466 0.88033,0 0,-0.65641 -0.88033,0 0,-1.3282 -0.84941,0 z m -53.192813,1.25874 c -0.31917,0 -0.60739,0.0566 -0.864784,0.16984 -0.257396,0.10811 -0.478685,0.26002 -0.664009,0.45564 -0.180176,0.19047 -0.321746,0.41439 -0.424704,0.67178 -0.09781,0.25225 -0.146694,0.51979 -0.146694,0.80293 0,0.28313 0.04888,0.55085 0.146694,0.8031 0.102958,0.25225 0.244528,0.47371 0.424704,0.66419 0.185324,0.19047 0.406613,0.3422 0.664009,0.45546 0.257394,0.1081 0.543162,0.16224 0.857184,0.16224 0.427276,0 0.800473,-0.0953 1.119642,-0.28579 0.324318,-0.19562 0.555946,-0.44529 0.694939,-0.74902 L 94.7561,290.4906 c -0.04118,0.0927 -0.09777,0.17764 -0.169846,0.25485 -0.07207,0.0772 -0.154419,0.14398 -0.247082,0.2006 -0.09266,0.0515 -0.195686,0.0928 -0.308939,0.12372 -0.108107,0.0257 -0.218662,0.0385 -0.331917,0.0385 -0.154437,0 -0.303715,-0.0284 -0.447857,-0.085 -0.138993,-0.0566 -0.265144,-0.13635 -0.378398,-0.23931 -0.108106,-0.1081 -0.19834,-0.23425 -0.270411,-0.37839 -0.06692,-0.14415 -0.108097,-0.30621 -0.12354,-0.48639 l 3.235563,0 c 0.0051,-0.036 0.01023,-0.0798 0.01538,-0.13132 0.0051,-0.0566 0.0078,-0.11585 0.0078,-0.17762 0,-0.27284 -0.04888,-0.53285 -0.146693,-0.77995 -0.09266,-0.25225 -0.229152,-0.47091 -0.409328,-0.65623 -0.180176,-0.19047 -0.399014,-0.34238 -0.656409,-0.45564 -0.252247,-0.11325 -0.535386,-0.16984 -0.849408,-0.16984 z m 18.656223,0 c -0.31917,0 -0.60756,0.0566 -0.86496,0.16984 -0.25739,0.10811 -0.47868,0.26002 -0.66401,0.45564 -0.18017,0.19047 -0.32174,0.41439 -0.4247,0.67178 -0.0978,0.25225 -0.14669,0.51979 -0.14669,0.80293 0,0.28313 0.0489,0.55085 0.14669,0.8031 0.10296,0.25225 0.24453,0.47371 0.4247,0.66419 0.18533,0.19047 0.40662,0.3422 0.66401,0.45546 0.2574,0.1081 0.54317,0.16224 0.85719,0.16224 0.42727,0 0.80047,-0.0953 1.11964,-0.28579 0.32432,-0.19562 0.55594,-0.44529 0.69494,-0.74902 l -0.72569,-0.20837 c -0.0412,0.0927 -0.0979,0.17764 -0.17003,0.25485 -0.0721,0.0772 -0.15442,0.14398 -0.24708,0.2006 -0.0927,0.0515 -0.19551,0.0928 -0.30876,0.12372 -0.10811,0.0257 -0.21884,0.0385 -0.33209,0.0385 -0.15444,0 -0.30372,-0.0284 -0.44786,-0.085 -0.13899,-0.0566 -0.26515,-0.13635 -0.3784,-0.23931 -0.1081,-0.1081 -0.19816,-0.23425 -0.27023,-0.37839 -0.0669,-0.14415 -0.1081,-0.30621 -0.12354,-0.48639 l 3.23538,0 c 0.005,-0.036 0.0104,-0.0798 0.0156,-0.13132 0.005,-0.0566 0.008,-0.11585 0.008,-0.17762 0,-0.27284 -0.0489,-0.53285 -0.14669,-0.77995 -0.0927,-0.25225 -0.22898,-0.47091 -0.40915,-0.65623 -0.18018,-0.19047 -0.39902,-0.34238 -0.65641,-0.45564 -0.25225,-0.11325 -0.53539,-0.16984 -0.84941,-0.16984 z m 6.83998,0 c -0.30887,0 -0.58693,0.072 -0.83403,0.21615 -0.24195,0.14414 -0.44011,0.33722 -0.59455,0.57917 l 0,-0.72586 -0.74902,0 0,5.68322 0.84941,0 0,-2.40153 c 0.14414,0.2471 0.33985,0.44789 0.58695,0.60233 0.2471,0.15444 0.53269,0.2317 0.85701,0.2317 0.26254,0 0.50188,-0.0541 0.71809,-0.16224 0.22136,-0.11326 0.41199,-0.26254 0.57157,-0.44786 0.15959,-0.19048 0.28311,-0.41177 0.37063,-0.66401 0.0875,-0.2574 0.13114,-0.53283 0.13114,-0.82626 0,-0.27798 -0.0489,-0.54308 -0.1467,-0.79532 -0.0927,-0.25225 -0.22389,-0.47354 -0.39377,-0.66401 -0.16988,-0.19047 -0.37067,-0.34238 -0.60233,-0.45564 -0.23166,-0.11325 -0.48641,-0.16984 -0.7644,-0.16984 z m 4.24634,0 c -0.56112,0 -1.10165,0.17503 -1.62158,0.52509 l 0.26245,0.54047 c 0.22136,-0.14929 0.43494,-0.26248 0.64086,-0.33969 0.21106,-0.0824 0.42482,-0.12372 0.64103,-0.12372 0.31917,0 0.56359,0.085 0.73347,0.25486 0.16988,0.16473 0.25486,0.39636 0.25486,0.69493 l 0,0.27801 c -0.14929,-0.0566 -0.31662,-0.10025 -0.50194,-0.13114 -0.18532,-0.036 -0.37315,-0.0541 -0.56362,-0.0541 -0.25225,0 -0.48388,0.0308 -0.69494,0.0926 -0.20592,0.0618 -0.38621,0.14921 -0.54064,0.26246 -0.14929,0.11325 -0.26511,0.24712 -0.34747,0.40155 -0.0824,0.15444 -0.12354,0.32702 -0.12354,0.51749 0,0.18018 0.0335,0.34751 0.10038,0.50194 0.0721,0.15444 0.16739,0.28812 0.28579,0.40138 0.12355,0.11325 0.26757,0.20348 0.4323,0.27041 0.16989,0.0618 0.35263,0.0926 0.54825,0.0926 0.30373,0 0.58686,-0.0618 0.84941,-0.1854 0.26769,-0.1287 0.49178,-0.31144 0.67196,-0.54824 l 0.0232,0.25485 c 0.0206,0.1287 0.0746,0.23417 0.16207,0.31655 0.0927,0.0824 0.22144,0.12353 0.38617,0.12353 0.0566,0 0.11323,-0.002 0.16985,-0.008 0.0618,-0.005 0.13379,-0.0155 0.21615,-0.0309 l 0,-0.72586 c -0.14929,-0.005 -0.22392,-0.0978 -0.22392,-0.27801 l 0,-1.45934 c 0,-0.53023 -0.15436,-0.93689 -0.46324,-1.22003 -0.30887,-0.28313 -0.74129,-0.4247 -1.29726,-0.4247 z m 9.20174,0 c -0.33461,0 -0.63317,0.0771 -0.89571,0.23153 -0.2574,0.14929 -0.4659,0.36549 -0.62548,0.64863 l 0,-0.8107 -0.77217,0 0,4.03848 0.8494,0 0,-2.40153 c 0.0875,-0.28313 0.23154,-0.51213 0.43231,-0.68716 0.20077,-0.17503 0.42223,-0.26263 0.66418,-0.26263 0.23166,0 0.40915,0.0876 0.5327,0.26263 0.12355,0.16988 0.18539,0.44531 0.18539,0.82626 l 0,2.26243 0.84941,0 0,-2.39375 c 0.0875,-0.28313 0.22909,-0.51231 0.42471,-0.68734 0.20077,-0.18017 0.42205,-0.27023 0.66401,-0.27023 0.2368,0 0.41709,0.0876 0.54064,0.26263 0.12355,0.17503 0.18522,0.45046 0.18522,0.82626 l 0,2.26243 0.84941,0 0,-2.46321 c 0,-0.22136 -0.018,-0.42986 -0.0541,-0.62548 -0.036,-0.20077 -0.10033,-0.3758 -0.193,-0.52509 -0.0927,-0.14929 -0.21881,-0.26773 -0.3784,-0.35525 -0.15443,-0.0927 -0.34997,-0.13891 -0.58677,-0.13891 -0.32947,0 -0.62294,0.0797 -0.88034,0.2393 -0.25739,0.15444 -0.47097,0.38099 -0.64085,0.67956 -0.0463,-0.26254 -0.16741,-0.48138 -0.36303,-0.6564 -0.19047,-0.17503 -0.45293,-0.26246 -0.78754,-0.26246 z m 6.70814,0 c -0.31917,0 -0.60739,0.0566 -0.86479,0.16984 -0.25739,0.10811 -0.47868,0.26002 -0.66401,0.45564 -0.18017,0.19047 -0.32174,0.41439 -0.4247,0.67178 -0.0978,0.25225 -0.1467,0.51979 -0.1467,0.80293 0,0.28313 0.0489,0.55085 0.1467,0.8031 0.10296,0.25225 0.24453,0.47371 0.4247,0.66419 0.18533,0.19047 0.40662,0.3422 0.66401,0.45546 0.2574,0.1081 0.54316,0.16224 0.85719,0.16224 0.42727,0 0.80047,-0.0953 1.11964,-0.28579 0.32432,-0.19562 0.55594,-0.44529 0.69494,-0.74902 l -0.72587,-0.20837 c -0.0412,0.0927 -0.0978,0.17764 -0.16985,0.25485 -0.0721,0.0772 -0.15442,0.14398 -0.24708,0.2006 -0.0927,0.0515 -0.19568,0.0928 -0.30894,0.12372 -0.1081,0.0257 -0.21866,0.0385 -0.33191,0.0385 -0.15444,0 -0.3039,-0.0284 -0.44804,-0.085 -0.13899,-0.0566 -0.26497,-0.13635 -0.37822,-0.23931 -0.10811,-0.1081 -0.19834,-0.23425 -0.27041,-0.37839 -0.0669,-0.14415 -0.1081,-0.30621 -0.12354,-0.48639 l 3.23556,0 c 0.005,-0.036 0.0102,-0.0798 0.0154,-0.13132 0.005,-0.0566 0.008,-0.11585 0.008,-0.17762 0,-0.27284 -0.0489,-0.53285 -0.14669,-0.77995 -0.0927,-0.25225 -0.22915,-0.47091 -0.40933,-0.65623 -0.18018,-0.19047 -0.39901,-0.34238 -0.65641,-0.45564 -0.25224,-0.11325 -0.53538,-0.16984 -0.84941,-0.16984 z m 5.17916,0 c -0.35521,0 -0.67952,0.0797 -0.97295,0.2393 -0.29343,0.15444 -0.51735,0.36802 -0.67179,0.64086 l 0,-0.8107 -0.77217,0 0,4.03848 0.84941,0 0,-2.40153 c 0.0463,-0.13899 0.11063,-0.26514 0.193,-0.37839 0.0875,-0.11841 0.18528,-0.2188 0.29339,-0.30117 0.1081,-0.0875 0.22392,-0.15444 0.34746,-0.20077 0.12355,-0.0463 0.24725,-0.0695 0.3708,-0.0695 0.23681,0 0.41429,0.0876 0.5327,0.26263 0.12354,0.16988 0.18539,0.44531 0.18539,0.82626 l 0,2.26243 0.84941,0 0,-2.46321 c 0,-0.22136 -0.018,-0.42986 -0.0541,-0.62548 -0.036,-0.20077 -0.10033,-0.3758 -0.193,-0.52509 -0.0875,-0.15444 -0.20858,-0.27551 -0.36302,-0.36302 -0.15444,-0.0875 -0.3526,-0.13114 -0.59455,-0.13114 z m 6.39354,0 c -0.22136,0 -0.42723,0.0282 -0.61771,0.0848 -0.19047,0.0566 -0.35779,0.14161 -0.50194,0.25486 -0.13899,0.10811 -0.24972,0.24197 -0.33209,0.40155 -0.0772,0.15959 -0.11576,0.34233 -0.11576,0.54825 0,0.15443 0.0258,0.28567 0.0772,0.39377 0.0515,0.10811 0.13382,0.20342 0.24708,0.28579 0.11325,0.0824 0.2599,0.15438 0.44008,0.21615 0.18017,0.0618 0.39638,0.12608 0.64863,0.193 0.35006,0.0927 0.60744,0.17764 0.77217,0.25486 0.16474,0.0772 0.24726,0.20074 0.24726,0.37062 0,0.18018 -0.0748,0.31929 -0.2241,0.4171 -0.14415,0.0978 -0.34231,0.1467 -0.59455,0.1467 -0.2471,0 -0.48907,-0.0438 -0.72587,-0.13132 -0.2368,-0.0927 -0.47614,-0.22652 -0.71809,-0.40155 l -0.3397,0.54047 c 0.23166,0.19562 0.50709,0.34752 0.82626,0.45563 0.32432,0.10296 0.64863,0.15447 0.97295,0.15447 0.49935,0 0.89304,-0.11074 1.18132,-0.33209 0.29343,-0.22651 0.44026,-0.53278 0.44026,-0.91887 0,-0.16988 -0.031,-0.31408 -0.0928,-0.43248 -0.0618,-0.12355 -0.15691,-0.22903 -0.28561,-0.31654 -0.1287,-0.0927 -0.29339,-0.17238 -0.49416,-0.2393 -0.19562,-0.0669 -0.42988,-0.13386 -0.70272,-0.20078 -0.16473,-0.0412 -0.30367,-0.0773 -0.41692,-0.10816 -0.10811,-0.036 -0.19835,-0.0746 -0.27042,-0.11577 -0.0669,-0.0412 -0.1158,-0.0901 -0.14669,-0.14669 -0.0309,-0.0566 -0.0463,-0.12619 -0.0463,-0.20855 0,-0.19562 0.072,-0.33719 0.21615,-0.42471 0.14929,-0.0927 0.33204,-0.13909 0.54825,-0.13909 0.42213,0 0.82126,0.14945 1.19705,0.44803 l 0.36285,-0.50971 c -0.20592,-0.17503 -0.44017,-0.30889 -0.70272,-0.40156 -0.26254,-0.0927 -0.54568,-0.13891 -0.84941,-0.13891 z m -49.72732,0.0695 0,4.03848 0.84941,0 0,-4.03848 -0.84941,0 z m 24.49003,0 1.66029,4.03848 c -0.0721,0.20592 -0.13655,0.37325 -0.19318,0.50194 -0.0515,0.13385 -0.10299,0.23687 -0.15447,0.30895 -0.0515,0.0721 -0.10281,0.12095 -0.15429,0.14669 -0.0463,0.0309 -0.1031,0.0463 -0.17002,0.0463 -0.0463,0 -0.10801,-0.005 -0.18522,-0.0156 -0.0721,-0.0103 -0.14672,-0.0231 -0.22393,-0.0385 l 0,0.74124 c 0.0824,0.0257 0.157,0.0412 0.22393,0.0463 0.0669,0.0103 0.13122,0.0155 0.19299,0.0155 0.31917,0 0.57919,-0.0799 0.77995,-0.23948 0.20592,-0.15443 0.35012,-0.34734 0.43248,-0.57899 l 1.82996,-4.97291 -0.8031,0 -1.11187,3.28946 -1.25096,-3.28946 -0.87256,0 z m -31.995433,0.55602 c 0.159585,0 0.311492,0.0282 0.455634,0.0848 0.144141,0.0566 0.270115,0.13653 0.378222,0.23948 0.108105,0.0978 0.195711,0.21871 0.262634,0.36285 0.07207,0.14414 0.115873,0.30113 0.131317,0.47101 l -2.440237,0 c 0.01544,-0.16988 0.05662,-0.32687 0.12354,-0.47101 0.06692,-0.14414 0.154529,-0.26504 0.262634,-0.36285 0.108107,-0.10295 0.23163,-0.18285 0.370623,-0.23948 0.144141,-0.0566 0.296048,-0.0848 0.455633,-0.0848 z m 18.656053,0 c 0.15958,0 0.31149,0.0282 0.45563,0.0848 0.14414,0.0566 0.27029,0.13653 0.3784,0.23948 0.10811,0.0978 0.19553,0.21871 0.26246,0.36285 0.0721,0.14414 0.11587,0.30113 0.13131,0.47101 l -2.44006,0 c 0.0154,-0.16988 0.0566,-0.32687 0.12354,-0.47101 0.0669,-0.14414 0.15436,-0.26504 0.26246,-0.36285 0.10811,-0.10295 0.23163,-0.18285 0.37062,-0.23948 0.14414,-0.0566 0.29605,-0.0848 0.45564,-0.0848 z m 26.99637,0 c 0.15958,0 0.31149,0.0282 0.45563,0.0848 0.14414,0.0566 0.27012,0.13653 0.37822,0.23948 0.10811,0.0978 0.19571,0.21871 0.26264,0.36285 0.0721,0.14414 0.11587,0.30113 0.13131,0.47101 l -2.44023,0 c 0.0154,-0.16988 0.0566,-0.32687 0.12354,-0.47101 0.0669,-0.14414 0.15453,-0.26504 0.26263,-0.36285 0.10811,-0.10295 0.23163,-0.18285 0.37062,-0.23948 0.14414,-0.0566 0.29605,-0.0848 0.45564,-0.0848 z m -20.37254,0.10039 c 0.18017,0 0.3475,0.0359 0.50194,0.10798 0.15443,0.0721 0.28566,0.16984 0.39377,0.29339 0.11325,0.12355 0.20068,0.26775 0.26246,0.43248 0.0669,0.16473 0.10039,0.33977 0.10039,0.52509 0,0.17503 -0.0282,0.34499 -0.0848,0.50972 -0.0566,0.16473 -0.13898,0.31138 -0.24709,0.44008 -0.10295,0.1287 -0.2291,0.23172 -0.37839,0.30894 -0.14415,0.0772 -0.30639,0.11576 -0.48657,0.11576 -0.12355,0 -0.24444,-0.0231 -0.36284,-0.0695 -0.1184,-0.0463 -0.22914,-0.10818 -0.33209,-0.18539 -0.0978,-0.0772 -0.18787,-0.16991 -0.27024,-0.27802 -0.0824,-0.1081 -0.1493,-0.22392 -0.20077,-0.34746 l 0,-1.05779 c 0.0309,-0.11325 0.085,-0.21628 0.16224,-0.30894 0.0772,-0.0978 0.16728,-0.18279 0.27024,-0.25486 0.10295,-0.0721 0.21351,-0.12866 0.33191,-0.16984 0.1184,-0.0412 0.23177,-0.0617 0.33987,-0.0617 z m 4.44711,1.40525 c 0.15443,0 0.31142,0.0154 0.47101,0.0463 0.16473,0.0309 0.31909,0.0747 0.46323,0.13132 l 0,0.53287 c 0,0.10296 -0.054,0.20072 -0.16207,0.29339 -0.10296,0.13384 -0.24716,0.23932 -0.43248,0.31654 -0.18018,0.0721 -0.37326,0.10816 -0.57917,0.10816 -0.23166,0 -0.42211,-0.0669 -0.5714,-0.20078 -0.14929,-0.13899 -0.22393,-0.30894 -0.22393,-0.50971 0,-0.21621 0.0953,-0.38862 0.28579,-0.51732 0.19562,-0.13384 0.44529,-0.20077 0.74902,-0.20077 z m 29.89259,0.9885 0,0.98832 0.70271,0 0,-0.98832 -0.70271,0 z"
         style="opacity:1;fill:url(#linearGradient4225);fill-opacity:1;fill-rule:nonzero;stroke:none;stroke-width:0.3806583;stroke-linecap:butt;stroke-linejoin:miter;stroke-miterlimit:4;stroke-dasharray:none;stroke-opacity:1" />
    </g>
  </g>
</svg>
