<?xml version="1.0" encoding="UTF-8" standalone="no"?>
<!-- Created with Inkscape (http://www.inkscape.org/) -->

<svg
   xmlns:dc="http://purl.org/dc/elements/1.1/"
   xmlns:cc="http://creativecommons.org/ns#"
   xmlns:rdf="http://www.w3.org/1999/02/22-rdf-syntax-ns#"
   xmlns:svg="http://www.w3.org/2000/svg"
   xmlns="http://www.w3.org/2000/svg"
   xmlns:sodipodi="http://sodipodi.sourceforge.net/DTD/sodipodi-0.dtd"
   xmlns:inkscape="http://www.inkscape.org/namespaces/inkscape"
   width="590"
   height="300"
   viewBox="0 0 156.10416 79.375005"
   id="svg4342"
   version="1.1"
   inkscape:version="0.91+devel r"
   sodipodi:docname="l.svg"
   inkscape:export-filename="/home/ionicabizau/g5718.png"
   inkscape:export-xdpi="96"
   inkscape:export-ydpi="96">
  <defs
     id="defs4344" />
  <sodipodi:namedview
     id="base"
     pagecolor="#ffffff"
     bordercolor="#666666"
     borderopacity="1.0"
     inkscape:pageopacity="0.0"
     inkscape:pageshadow="2"
     inkscape:zoom="0.7"
     inkscape:cx="274.03261"
     inkscape:cy="279.63326"
     inkscape:document-units="mm"
     inkscape:current-layer="layer1"
     showgrid="false"
     units="px"
     inkscape:window-width="1920"
     inkscape:window-height="1056"
     inkscape:window-x="0"
     inkscape:window-y="24"
     inkscape:window-maximized="1" />
  <metadata
     id="metadata4347">
    <rdf:RDF>
      <cc:Work
         rdf:about="">
        <dc:format>image/svg+xml</dc:format>
        <dc:type
           rdf:resource="http://purl.org/dc/dcmitype/StillImage" />
        <dc:title></dc:title>
      </cc:Work>
    </rdf:RDF>
  </metadata>
  <g
     inkscape:label="Layer 1"
     inkscape:groupmode="layer"
     id="layer1"
     transform="translate(0,-217.62498)">
    <g
       id="g5718"
       transform="matrix(0.73229512,0,0,0.73229512,39.301467,71.440394)"
       style="stroke-width:1.36556971">
      <path
         style="fill:#c0392b;stroke-width:0.36130697"
         id="path4325"
         d="m 61.039457,258.00811 0,8.4429 q 0,2.68092 -1.560536,2.68092 -0.920317,0 -1.800618,-0.8803 l 0,-12.04414 q 0.880301,-0.8803 1.800618,-0.8803 1.560536,0 1.560536,2.68092 z m 13.524646,0.04 0,1.84064 -3.601238,0 0,-1.84064 q 0,-2.72094 1.800619,-2.72094 1.800619,0 1.800619,2.72094 z m -38.653278,-8.72303 4.28147,0 0,-3.76129 -12.484289,0 0,3.76129 4.201443,0 0,22.76782 4.001376,0 0,-22.76782 z m 11.523958,22.76782 3.561223,0 0,-19.76678 -3.561223,0 0,15.1252 q -1.200412,1.68057 -2.280784,1.68057 -0.720247,0 -0.840289,-0.84029 -0.04001,-0.12005 -0.04001,-1.40048 l 0,-14.565 -3.561224,0 0,15.64537 q 0,1.96068 0.320111,2.921 0.480165,1.48051 2.320797,1.48051 1.920659,0 4.081402,-2.44083 l 0,2.16073 z m 17.165896,-5.92203 0,-7.88271 q 0,-2.921 -0.360123,-3.96136 -0.680233,-2.24076 -2.840975,-2.24076 -2.000688,0 -3.721278,2.16073 l 0,-8.68298 -3.561224,0 0,26.52911 3.561224,0 0,-1.92065 q 1.800618,2.20075 3.721278,2.20075 2.160742,0 2.840975,-2.20075 0.360123,-1.08038 0.360123,-4.00138 z m 13.524647,-0.40014 0,-0.52018 -3.64125,0 q 0,2.0407 -0.08002,2.44084 -0.280096,1.4405 -1.60055,1.4405 -1.840632,0 -1.840632,-2.76096 l 0,-3.48119 7.16246,0 0,-4.12141 q 0,-3.16109 -1.080371,-4.6416 -1.560536,-2.04069 -4.241457,-2.04069 -2.720935,0 -4.281471,2.04069 -1.120384,1.48051 -1.120384,4.6416 l 0,6.92237 q 0,3.16109 1.160398,4.6416 1.560535,2.0407 4.321484,2.0407 2.88099,0 4.321484,-2.12073 0.720248,-1.08037 0.84029,-2.16074 0.08002,-0.36012 0.08002,-2.3208 z m -24.328358,-36.53254 0,-8.4029 q 0,-2.76094 -1.72059,-2.76094 -1.720591,0 -1.720591,2.76094 l 0,8.4029 q 0,2.80095 1.720591,2.80095 1.72059,0 1.72059,-2.80095 z m 28.769884,30.05031 q 0,9.36322 -1.040358,14.00482 -0.56019,2.36081 -2.320797,3.96137 -1.760606,1.60053 -4.081402,1.84062 -7.362529,0.84029 -22.207628,0.84029 -14.845101,0 -22.20763,-0.84029 -2.320797,-0.24009 -4.101408,-1.84062 -1.780612,-1.60056 -2.300791,-3.96137 -1.040357,-4.48154 -1.040357,-14.00482 0,-9.3632 1.040357,-14.0048 0.560192,-2.36082 2.320797,-3.96137 1.760605,-1.60055 4.121416,-1.88064 7.322515,-0.80028 22.167616,-0.80028 14.845099,0 22.207628,0.80028 2.320796,0.28009 4.10141,1.88064 1.780613,1.60055 2.300789,3.96137 1.040358,4.48153 1.040358,14.0048 z m -39.933719,-51.0575 4.081403,0 -4.841663,15.96549 0,10.84371 -4.001375,0 0,-10.84371 q -0.560193,-2.96102 -2.440839,-8.48292 -1.480508,-4.12142 -2.600893,-7.48257 l 4.241458,0 2.840975,10.52361 z m 14.805087,13.32458 0,7.0024 q 0,3.24111 -1.120386,4.72163 -1.480508,2.0407 -4.241456,2.0407 -2.680922,0 -4.201443,-2.0407 -1.120385,-1.52053 -1.120385,-4.72163 l 0,-7.0024 q 0,-3.2011 1.120385,-4.68161 1.520521,-2.04071 4.201443,-2.04071 2.760948,0 4.241456,2.04071 1.120386,1.48051 1.120386,4.68161 z m 13.404604,-6.48224 0,19.96686 -3.64125,0 0,-2.20075 q -2.12073,2.48086 -4.121416,2.48086 -1.840633,0 -2.360811,-1.48051 -0.320111,-0.96034 -0.320111,-3.00103 l 0,-15.76543 3.641252,0 0,14.68505 q 0,1.32046 0.04001,1.40049 0.120042,0.88029 0.84029,0.88029 1.080371,0 2.280783,-1.72058 l 0,-15.24525 3.641249,0 z"
         inkscape:connector-curvature="0" />
      <g
         style="stroke-width:2.92333984"
         transform="matrix(0.46712658,0,0,0.46712658,13.975534,211.04125)"
         id="g12821">
        <g
           style="stroke-width:2.92333984"
           id="g12784">
          <path
             inkscape:connector-curvature="0"
             id="path3066"
             d="m 35.095824,162.81767 -15.20626,8.77846 0,17.55694 0.03924,0.025 10.24095,-5.91414 -0.03924,-0.0214 0,-0.58142 -0.0071,0.004 0,-11.82471 4.890401,-2.82153 0.03924,0.025 0.0428,-0.025 4.97601,2.87147 0,12.40257 10.191012,5.8856 0.03924,-0.025 0,-17.55693 -15.20626,-8.77846 z m 4.965309,20.42482 -0.03924,0.0214 0.03924,0.0214 0,-0.0428 z"
             style="fill:#2ecc71;fill-opacity:1;stroke:none;stroke-width:0.77346694" />
          <path
             inkscape:connector-curvature="0"
             id="path2993"
             d="m 35.095824,156.19725 -15.20626,8.77847 0,17.55693 0.03924,0.025 10.201713,-5.89273 0,-0.0428 0,-0.34957 0,-5.38622 4.965309,-2.86789 4.965309,2.86789 0,5.02952 0,0.70627 0,0.0428 10.201713,5.89273 0.03924,-0.025 0,-17.55693 -15.20626,-8.77847 z"
             style="fill:#27ae60;fill-opacity:1;stroke:none;stroke-width:0.77346694" />
        </g>
        <g
           style="stroke-width:2.92333984"
           id="g12796">
          <g
             id="g12702"
             transform="matrix(0.08535635,0,0,0.08535635,27.906289,97.047069)"
             style="fill:#27ae60;stroke-width:9.06162071">
            <path
               inkscape:connector-curvature="0"
               id="path12704"
               transform="translate(0,652.36218)"
               d="m 450,104.1875 -133.21875,76.90625 0,153.8125 0.34375,0.21875 89.71875,-51.8125 -0.34375,-0.1875 0,-5.09375 -0.0625,0.0312 0,-103.59375 42.84375,-24.71875 0.34375,0.21875 0.375,-0.21875 43.59375,25.15625 0,108.65625 89.28125,51.5625 0.34375,-0.21875 0,-153.8125 L 450,104.1875 Z m 43.5,178.9375 -0.34375,0.1875 0.34375,0.1875 0,-0.375 z"
               style="fill:#27ae60;fill-opacity:1;stroke:none;stroke-width:9.06162071" />
            <path
               inkscape:connector-curvature="0"
               id="path12706"
               transform="translate(0,652.36218)"
               d="m 450,46.1875 -133.21875,76.90625 0,153.8125 0.34375,0.21875 89.375,-51.625 0,-0.375 0,-3.0625 0,-47.1875 43.5,-25.125 43.5,25.125 0,44.0625 0,6.1875 0,0.375 89.375,51.625 0.34375,-0.21875 0,-153.8125 L 450,46.1875 Z"
               style="fill:#27ae60;fill-opacity:1;stroke:none;stroke-width:9.06162071" />
          </g>
          <path
             inkscape:connector-curvature="0"
             id="path12710"
             d="m 66.316646,183.90313 -11.371066,-6.56444 0,-13.12888 0.02934,-0.0187 7.658066,4.42253 -0.02934,0.016 0,0.43479 -0.0053,-0.003 0,8.84239 3.656986,2.1099 0.02934,-0.0187 0.03201,0.0187 3.721004,-2.14724 0,-9.27451 7.620722,-4.40118 0.02934,0.0187 0,13.12887 -11.371067,6.56444 z m 3.713002,-15.27346 -0.02934,-0.016 0.02934,-0.016 0,0.032 z"
             style="fill:#2ecc71;fill-opacity:1;stroke:none;stroke-width:0.77346694" />
          <path
             inkscape:connector-curvature="0"
             id="path12712"
             d="m 66.316646,188.85379 -11.371066,-6.56443 0,-13.12888 0.02934,-0.0187 7.628724,4.40652 0,0.032 0,0.26141 0,4.02775 3.713001,2.14458 3.713002,-2.14458 0,-3.76102 0,-0.52814 0,-0.032 7.628724,-4.40652 0.02934,0.0187 0,13.12888 -11.371067,6.56443 z"
             style="fill:#27ae60;fill-opacity:1;stroke:none;stroke-width:0.77346694" />
        </g>
        <g
           style="stroke-width:2.92333984"
           id="g12816">
          <rect
             y="164.89732"
             x="85.065491"
             height="14.741072"
             width="6.4985518"
             id="rect12766"
             style="fill:#27ae60;fill-opacity:1;fill-rule:nonzero;stroke:none;stroke-width:1.46166992;stroke-miterlimit:4;stroke-dasharray:none;stroke-opacity:1" />
          <path
             style="fill:#2ecc71;fill-opacity:1;stroke:none;stroke-width:0.77346694"
             d="m 105.0646,172.68763 -8.577254,-14.85771 -17.154511,0 -0.0244,0.0383 5.778582,10.00621 0.02091,-0.0383 0.5681,0 -0.0035,-0.007 11.553678,0 2.756851,4.77831 -0.0244,0.0383 0.0244,0.0418 -2.805645,4.86196 -12.118292,0 -5.7507,9.95742 0.0244,0.0383 17.154511,0 8.57725,-14.85772 z m -19.956669,4.8515 -0.02091,-0.0383 -0.02091,0.0383 0.04182,0 z"
             id="path12750"
             inkscape:connector-curvature="0" />
          <path
             style="fill:#27ae60;fill-opacity:1;stroke:none;stroke-width:0.77346694"
             d="m 111.53327,172.68763 -8.57726,-14.85771 -17.15451,0 -0.0244,0.0383 5.757671,9.96787 0.04182,0 0.341557,0 5.262761,0 2.802159,4.8515 -2.802159,4.8515 -4.914234,0 -0.690084,0 -0.04182,0 -5.757671,9.96788 0.0244,0.0383 17.15451,0 8.57726,-14.85772 z"
             id="path12752"
             inkscape:connector-curvature="0" />
        </g>
        <g
           style="stroke-width:2.92333984"
           id="g12811">
          <rect
             y="170.56697"
             x="119.0625"
             height="3.5907736"
             width="21.922617"
             id="rect12780"
             style="fill:#2ecc71;fill-opacity:1;fill-rule:nonzero;stroke:none;stroke-width:1.46166992;stroke-miterlimit:4;stroke-dasharray:none;stroke-opacity:1" />
          <path
             style="fill:#2ecc71;fill-opacity:1;stroke:none;stroke-width:0.77346694"
             d="m 120.47585,172.68764 8.77846,15.20626 17.55694,0 0.025,-0.0392 -5.91414,-10.24095 -0.0214,0.0392 -0.58142,0 0.004,0.007 -11.82471,0 -2.82153,-4.89041 0.025,-0.0392 -0.025,-0.0428 2.87147,-4.97601 12.40257,0 5.8856,-10.19101 -0.025,-0.0392 -17.55693,0 -8.77846,15.20626 z m 20.42482,-4.96531 0.0214,0.0392 0.0214,-0.0392 -0.0428,0 z"
             id="path12776"
             inkscape:connector-curvature="0" />
          <path
             style="fill:#27ae60;fill-opacity:1;stroke:none;stroke-width:0.77346694"
             d="m 113.85543,172.68764 8.77847,15.20626 17.55693,0 0.025,-0.0392 -5.89273,-10.20171 -0.0428,0 -0.34957,0 -5.38622,0 -2.86789,-4.96531 2.86789,-4.96531 5.02952,0 0.70627,0 0.0428,0 5.89273,-10.20171 -0.025,-0.0392 -17.55693,0 -8.77847,15.20626 z"
             id="path12778"
             inkscape:connector-curvature="0" />
        </g>
      </g>
    </g>
  </g>
</svg>
