<?xml version="1.0" encoding="UTF-8" standalone="no"?>
<!-- Created with Inkscape (http://www.inkscape.org/) -->

<svg
   xmlns:dc="http://purl.org/dc/elements/1.1/"
   xmlns:cc="http://creativecommons.org/ns#"
   xmlns:rdf="http://www.w3.org/1999/02/22-rdf-syntax-ns#"
   xmlns:svg="http://www.w3.org/2000/svg"
   xmlns="http://www.w3.org/2000/svg"
   xmlns:xlink="http://www.w3.org/1999/xlink"
   xmlns:sodipodi="http://sodipodi.sourceforge.net/DTD/sodipodi-0.dtd"
   xmlns:inkscape="http://www.inkscape.org/namespaces/inkscape"
   width="900"
   height="400"
   viewBox="0 0 238.12501 105.83333"
   id="svg2"
   version="1.1"
   inkscape:version="0.91+devel r"
   sodipodi:docname="h.svg"
   inkscape:export-filename="/home/ionicabizau/Documents/repository-downloader/downloads/github/IonicaBizau/Resources/deffy/h.png"
   inkscape:export-xdpi="96"
   inkscape:export-ydpi="96">
  <defs
     id="defs4">
    <linearGradient
       inkscape:collect="always"
       id="linearGradient4147">
      <stop
         style="stop-color:#ffb88c;stop-opacity:1"
         offset="0"
         id="stop4149" />
      <stop
         style="stop-color:#de6262;stop-opacity:1"
         offset="1"
         id="stop4151" />
    </linearGradient>
    <linearGradient
       inkscape:collect="always"
       xlink:href="#linearGradient4147"
       id="linearGradient4153"
       x1="85.403481"
       y1="197.53008"
       x2="146.35812"
       y2="258.81964"
       gradientUnits="userSpaceOnUse"
       gradientTransform="translate(3.0142422,0.03348663)" />
    <linearGradient
       inkscape:collect="always"
       xlink:href="#linearGradient4147"
       id="linearGradient5973"
       gradientUnits="userSpaceOnUse"
       gradientTransform="matrix(3.3311213,0,0,1.3496683,-276.34271,-35.148036)"
       x1="85.403481"
       y1="197.53008"
       x2="146.35812"
       y2="258.81964" />
    <linearGradient
       inkscape:collect="always"
       xlink:href="#linearGradient4147"
       id="linearGradient5987"
       gradientUnits="userSpaceOnUse"
       gradientTransform="translate(3.0142422,0.03348663)"
       x1="85.403481"
       y1="197.53008"
       x2="146.35812"
       y2="258.81964" />
    <linearGradient
       inkscape:collect="always"
       xlink:href="#linearGradient4147"
       id="linearGradient6005"
       gradientUnits="userSpaceOnUse"
       gradientTransform="matrix(12.590065,0,0,5.1011085,-1044.4449,-875.36273)"
       x1="85.403481"
       y1="197.53008"
       x2="146.35812"
       y2="258.81964" />
  </defs>
  <sodipodi:namedview
     id="base"
     pagecolor="#ffffff"
     bordercolor="#666666"
     borderopacity="1.0"
     inkscape:pageopacity="0.0"
     inkscape:pageshadow="2"
     inkscape:zoom="1.1172287"
     inkscape:cx="394.76384"
     inkscape:cy="230.3635"
     inkscape:document-units="mm"
     inkscape:current-layer="layer1"
     showgrid="false"
     units="px"
     inkscape:window-width="1920"
     inkscape:window-height="1056"
     inkscape:window-x="0"
     inkscape:window-y="24"
     inkscape:window-maximized="1" />
  <metadata
     id="metadata7">
    <rdf:RDF>
      <cc:Work
         rdf:about="">
        <dc:format>image/svg+xml</dc:format>
        <dc:type
           rdf:resource="http://purl.org/dc/dcmitype/StillImage" />
        <dc:title></dc:title>
      </cc:Work>
    </rdf:RDF>
  </metadata>
  <g
     inkscape:label="Layer 1"
     inkscape:groupmode="layer"
     id="layer1"
     transform="translate(0,-191.16668)">
    <g
       id="g5975"
       transform="matrix(0.8290511,0,0,0.8290511,20.353602,35.541252)">
      <rect
         rx="16.562948"
         ry="16.562948"
         y="197.73103"
         x="88.585182"
         height="60.954639"
         width="60.954639"
         id="rect4145"
         style="opacity:1;fill:url(#linearGradient5987);fill-opacity:1;stroke:none;stroke-width:0.255;stroke-miterlimit:4;stroke-dasharray:none;stroke-opacity:1" />
      <path
         style="fill:#ecf0f1;stroke-width:0.04959399"
         inkscape:connector-curvature="0"
         id="path5396"
         d="m 119.16168,213.92589 c 1.6862,-0.0495 3.02524,-1.38864 3.07483,-3.07484 0.0496,-1.83497 -1.43822,-3.3228 -3.2732,-3.2732 -1.6862,0.0495 -3.02523,1.38864 -3.07483,3.07482 -0.0495,1.83499 1.43822,3.32281 3.2732,3.27322 z m 23.01162,19.04409 -0.8927,0 -6.29843,-12.20013 c 0.89269,-0.0992 1.78539,-0.44634 2.57888,-0.7935 1.19026,-0.54553 1.43823,-2.13255 0.54554,-3.07482 l -0.0495,-0.0495 c -0.54554,-0.54553 -1.38864,-0.7439 -2.13253,-0.39675 -0.69433,0.29756 -1.6862,0.64473 -2.62849,0.64473 -2.77727,0 -4.01712,-3.17403 -14.23347,-3.17403 -10.21636,0 -11.45622,3.17403 -14.23348,3.17403 -0.99188,0 -1.93417,-0.29758 -2.62848,-0.64473 -0.74392,-0.29756 -1.58702,-0.14878 -2.13254,0.39675 l -0.0496,0.0495 c -0.892704,0.94227 -0.644731,2.47969 0.54552,3.07482 0.79351,0.39675 1.6862,0.69432 2.5789,0.7935 l -6.298445,12.20013 -0.892692,0 c -0.396752,0 -0.694316,0.34715 -0.644722,0.7439 0.545534,3.17403 4.562642,5.60413 9.472459,5.60413 4.9098,0 8.92692,-2.4301 9.47245,-5.60413 0.0496,-0.39675 -0.24797,-0.7439 -0.64471,-0.7439 l -0.8927,0 -6.29843,-12.15054 c 4.11628,-0.34715 6.29843,-2.4301 9.47244,-2.4301 l 0,24.10268 c -1.73579,0 -3.17401,1.43823 -3.17401,3.17402 l -3.52118,0 c -1.38863,0 -2.82686,1.43823 -2.82686,3.17401 l 25.39213,0 c 0,-1.73578 -1.43823,-3.17401 -3.52118,-3.17401 l -2.82686,0 c 0,-1.73579 -1.43822,-3.17402 -3.17401,-3.17402 l 0,-24.10268 c 3.17401,0 5.35616,2.08295 9.47246,2.4301 l -6.29845,12.15054 -0.89268,0 c -0.39675,0 -0.69432,0.34715 -0.64472,0.7439 0.54552,3.17403 4.56265,5.60413 9.47246,5.60413 4.90979,0 8.9269,-2.4301 9.47244,-5.60413 0.0495,-0.39675 -0.24796,-0.7439 -0.64472,-0.7439 z m -32.63286,0 -9.52203,0 4.76102,-8.92692 4.76101,8.92692 z m 19.04411,0 4.76102,-8.92692 4.76102,8.92692 -9.52204,0 z" />
    </g>
    <path
       style="opacity:1;fill:url(#linearGradient5973);fill-opacity:1;stroke:none;stroke-width:0.54069066;stroke-miterlimit:4;stroke-dasharray:none;stroke-opacity:1"
       d="m 97.184248,278.81921 c -0.250343,0 -0.431614,0.049 -0.544152,0.14779 -0.112541,0.0988 -0.168984,0.24954 -0.168984,0.45166 0,0.39503 0.237712,0.59221 0.713136,0.59221 0.480015,0 0.720368,-0.19718 0.720368,-0.59221 0,-0.19752 -0.05776,-0.34698 -0.172598,-0.44804 -0.114837,-0.10105 -0.297426,-0.15141 -0.54777,-0.15141 z m -17.576704,0.0754 c -0.463942,0 -0.801561,0.11288 -1.012859,0.33796 -0.209003,0.22508 -0.313677,0.59451 -0.313677,1.10898 l 0,0.0656 -0.544153,0.33073 0,0.66145 0.516766,0 0,2.89388 1.347205,0 0,-2.89388 0.829921,0 0,-1.00924 -0.829921,0 0,-0.10335 c 0,-0.1424 0.02279,-0.24495 0.06873,-0.30696 0.04823,-0.0643 0.124024,-0.0961 0.227378,-0.0961 0.158472,0 0.320392,0.0228 0.485756,0.0687 l 0.289388,-0.87178 c -0.211298,-0.0689 -0.397332,-0.11713 -0.558104,-0.14469 -0.158475,-0.0276 -0.327284,-0.0413 -0.506428,-0.0413 z m 74.124676,0 c -0.46394,0 -0.80156,0.11288 -1.01286,0.33796 -0.209,0.22508 -0.31368,0.59451 -0.31368,1.10898 l 0,0.0656 -0.54415,0.33073 0,0.66145 0.51676,0 0,2.89388 1.34721,0 0,-2.89388 0.82992,0 0,-1.00924 -0.82992,0 0,-0.10335 c 0,-0.1424 0.0228,-0.24495 0.0687,-0.30696 0.0482,-0.0643 0.12402,-0.0961 0.22738,-0.0961 0.15847,0 0.32039,0.0228 0.48575,0.0687 l 0.28939,-0.87178 c -0.2113,-0.0689 -0.39733,-0.11713 -0.5581,-0.14469 -0.15848,-0.0276 -0.32729,-0.0413 -0.50643,-0.0413 z m -97.58216,0.0382 0,5.36039 1.346689,0 0,-5.36039 -1.346689,0 z m 2.287198,0 0,5.36039 1.347205,0 0,-5.36039 -1.347205,0 z m 15.492595,0 0,1.04386 c 0,0.30547 0.02199,0.61076 0.06563,0.91623 l -0.02739,0 c -0.135506,-0.20671 -0.286287,-0.35353 -0.451652,-0.44081 -0.163068,-0.0873 -0.353351,-0.13125 -0.571539,-0.13125 -0.445566,0 -0.796163,0.17914 -1.0511,0.53743 -0.254936,0.35829 -0.382405,0.85438 -0.382405,1.48828 0,0.41112 0.05644,0.77073 0.168982,1.07849 0.114837,0.30776 0.275434,0.54071 0.482139,0.69918 0.209003,0.15848 0.452803,0.23772 0.730705,0.23772 0.459346,0 0.804662,-0.18685 1.03663,-0.56121 l 0.05168,0 0.289388,0.49247 1.016476,0 0,-5.36039 -1.35754,0 z m 20.28145,0 0,5.36039 1.347205,0 0,-5.36039 -1.347205,0 z m 4.588867,0 0,5.36039 1.050581,0 0.213939,-0.3824 0.0827,0 c 0.11713,0.12862 0.21916,0.22031 0.30644,0.27543 0.0896,0.0551 0.1908,0.0978 0.30334,0.12764 0.11254,0.0322 0.24081,0.0481 0.3855,0.0481 0.44786,0 0.79714,-0.17915 1.04748,-0.53744 0.25264,-0.36059 0.37879,-0.85749 0.37879,-1.49138 0,-0.62931 -0.12483,-1.12196 -0.37517,-1.47795 -0.24805,-0.35599 -0.58486,-0.53433 -1.00976,-0.53433 -0.21819,0 -0.41323,0.0448 -0.58549,0.13436 -0.16996,0.0896 -0.32022,0.23558 -0.45113,0.4377 l -0.0486,0 c 0.0322,-0.3537 0.0486,-0.60307 0.0486,-0.74776 l 0,-1.21233 -1.34721,0 z m 46.71911,0 0,1.04386 c 0,0.30547 0.0215,0.61076 0.0651,0.91623 l -0.0274,0 c -0.13551,-0.20671 -0.28578,-0.35353 -0.45114,-0.44081 -0.16307,-0.0873 -0.35387,-0.13125 -0.57206,-0.13125 -0.44556,0 -0.79564,0.17914 -1.05058,0.53743 -0.25494,0.35829 -0.3824,0.85438 -0.3824,1.48828 0,0.41112 0.0559,0.77073 0.16846,1.07849 0.11484,0.30776 0.27595,0.54071 0.48266,0.69918 0.209,0.15848 0.45228,0.23772 0.73019,0.23772 0.45934,0 0.80517,-0.18685 1.03714,-0.56121 l 0.0517,0 0.28938,0.49247 1.01597,0 0,-5.36039 -1.35703,0 z m 18.69653,0 0,5.36039 1.34669,0 0,-5.36039 -1.34669,0 z m 16.08171,0 0,5.36039 1.34669,0 0,-5.36039 -1.34669,0 z m -137.900626,0.25114 c -0.590259,0 -1.054026,0.13012 -1.391645,0.38965 -0.337619,0.25953 -0.506429,0.62126 -0.506429,1.0852 0,0.24805 0.03922,0.46245 0.117306,0.64389 0.08039,0.18144 0.201766,0.34256 0.364834,0.48266 0.165365,0.1401 0.412607,0.28479 0.74104,0.43408 0.362884,0.16307 0.585494,0.27067 0.668176,0.32349 0.08498,0.0528 0.145672,0.10582 0.18242,0.15865 0.03904,0.0505 0.05891,0.11041 0.05891,0.17932 0,0.11024 -0.04743,0.20062 -0.141592,0.27181 -0.09417,0.0689 -0.242305,0.10336 -0.444418,0.10336 -0.234267,0 -0.491328,-0.0366 -0.77153,-0.11007 -0.280199,-0.0758 -0.550238,-0.18047 -0.809768,-0.31368 l 0,1.21285 c 0.24575,0.11713 0.482658,0.19981 0.710033,0.24804 0.227378,0.0459 0.508553,0.0687 0.843876,0.0687 0.401928,0 0.752006,-0.0663 1.050583,-0.19948 0.298575,-0.1355 0.527272,-0.32418 0.685745,-0.56534 0.158475,-0.24345 0.237712,-0.52118 0.237712,-0.83354 0,-0.33991 -0.08481,-0.62109 -0.254765,-0.84387 -0.167661,-0.22508 -0.468704,-0.43523 -0.902787,-0.63046 -0.452456,-0.2067 -0.730187,-0.34927 -0.833541,-0.42736 -0.101055,-0.0781 -0.151929,-0.16634 -0.151929,-0.2651 0,-0.0919 0.04054,-0.16898 0.120923,-0.23099 0.08038,-0.062 0.208658,-0.093 0.385506,-0.093 0.342214,0 0.748736,0.10812 1.219565,0.32401 l 0.417028,-1.0511 c -0.542028,-0.24116 -1.073894,-0.36174 -1.595252,-0.36174 z m 47.394523,0.42375 -0.3483,0.82011 -0.599445,0.42374 0,0.54777 0.472323,0 0,1.60869 c 0,0.45935 0.09991,0.80041 0.299723,1.0232 0.199816,0.22048 0.525777,0.33073 0.978233,0.33073 0.220488,0 0.412091,-0.0172 0.575159,-0.0517 0.165365,-0.0322 0.33894,-0.0873 0.520383,-0.16537 l 0,-0.98185 c -0.25264,0.0896 -0.46968,0.13436 -0.651124,0.13436 -0.243453,0 -0.365352,-0.12615 -0.365352,-0.37879 l 0,-1.51929 0.958082,0 0,-1.00924 -0.958082,0 0,-0.78238 -0.8816,0 z m 31.350023,0 -0.34778,0.82011 -0.59945,0.42374 0,0.54777 0.47181,0 0,1.60869 c 0,0.45935 0.0999,0.80041 0.29972,1.0232 0.19982,0.22048 0.5263,0.33073 0.97875,0.33073 0.22049,0 0.41209,-0.0172 0.57516,-0.0517 0.16537,-0.0322 0.33894,-0.0873 0.52038,-0.16537 l 0,-0.98185 c -0.25264,0.0896 -0.46968,0.13436 -0.65112,0.13436 -0.24345,0 -0.36535,-0.12615 -0.36535,-0.37879 l 0,-1.51929 0.95756,0 0,-1.00924 -0.95756,0 0,-0.78238 -0.88212,0 z m 17.70797,0 -0.34779,0.82011 -0.59944,0.42374 0,0.54777 0.4718,0 0,1.60869 c 0,0.45935 0.0999,0.80041 0.29972,1.0232 0.19982,0.22048 0.52578,0.33073 0.97824,0.33073 0.22048,0 0.41261,-0.0172 0.57567,-0.0517 0.16537,-0.0322 0.33843,-0.0873 0.51987,-0.16537 l 0,-0.98185 c -0.25264,0.0896 -0.46968,0.13436 -0.65112,0.13436 -0.24346,0 -0.36484,-0.12615 -0.36484,-0.37879 l 0,-1.51929 0.95756,0 0,-1.00924 -0.95756,0 0,-0.78238 -0.88211,0 z m 28.31868,0 -0.34778,0.82011 -0.59945,0.42374 0,0.54777 0.47181,0 0,1.60869 c 0,0.45935 0.0999,0.80041 0.29972,1.0232 0.19981,0.22048 0.52578,0.33073 0.97823,0.33073 0.22049,0 0.41261,-0.0172 0.57568,-0.0517 0.16536,-0.0322 0.33842,-0.0873 0.51986,-0.16537 l 0,-0.98185 c -0.25264,0.0896 -0.46968,0.13436 -0.65112,0.13436 -0.24345,0 -0.36483,-0.12615 -0.36483,-0.37879 l 0,-1.51929 0.95756,0 0,-1.00924 -0.95756,0 0,-0.78238 -0.88212,0 z m -120.085693,0.71314 c -0.250343,0 -0.474276,0.0474 -0.671793,0.14159 -0.195223,0.0942 -0.344683,0.23065 -0.448035,0.40979 l -0.07906,0 -0.168981,-0.48214 -1.015961,0 0,3.90312 1.34669,0 0,-1.70894 c 0,-0.42719 0.04823,-0.7346 0.144692,-0.92294 0.09647,-0.18833 0.250688,-0.28267 0.461989,-0.28267 0.153879,0 0.264928,0.0668 0.333828,0.19999 0.0689,0.13092 0.103354,0.32809 0.103354,0.59221 l 0,2.12235 1.350822,0 0,-1.81901 c 0,-0.37666 0.04823,-0.65359 0.144693,-0.83044 0.09646,-0.17685 0.248047,-0.2651 0.454753,-0.2651 0.156178,0 0.269867,0.0668 0.341066,0.19999 0.07349,0.13092 0.110069,0.32809 0.110069,0.59221 l 0,2.12235 1.347206,0 0,-2.53886 c 0,-0.48231 -0.110244,-0.84192 -0.33073,-1.07849 -0.220487,-0.23656 -0.561551,-0.35501 -1.023194,-0.35501 -0.236563,0 -0.453604,0.0461 -0.651123,0.13797 -0.19522,0.0896 -0.348126,0.21492 -0.45837,0.37569 l -0.106971,0 c -0.227375,-0.34221 -0.622241,-0.51366 -1.184939,-0.51366 z m 6.576859,0 c -0.693613,0 -1.26814,0.11713 -1.722892,0.3514 l 0.389641,0.88883 c 0.438674,-0.19292 0.800409,-0.28939 1.085204,-0.28939 0.31695,0 0.475425,0.16112 0.475425,0.48266 l 0,0.0548 -0.651124,0.0207 c -0.548918,0.0253 -0.968417,0.14027 -1.257805,0.34468 -0.289388,0.20211 -0.434081,0.51085 -0.434081,0.92656 0,0.39963 0.105992,0.70969 0.317294,0.93018 0.211299,0.22048 0.500687,0.33073 0.868164,0.33073 0.298574,0 0.541856,-0.0414 0.730186,-0.12403 0.188333,-0.0827 0.373047,-0.23639 0.554487,-0.46147 l 0.02791,0 0.258384,0.51676 0.933276,0 0,-2.55953 c 0,-0.44557 -0.137803,-0.79272 -0.413412,-1.04076 -0.273312,-0.24805 -0.659966,-0.37207 -1.160653,-0.37207 z m 10.803475,0 c -0.693614,0 -1.267622,0.11713 -1.722374,0.3514 l 0.389122,0.88883 c 0.438677,-0.19292 0.80041,-0.28939 1.085205,-0.28939 0.316949,0 0.475424,0.16112 0.475424,0.48266 l 0,0.0548 -0.651123,0.0207 c -0.548918,0.0253 -0.967899,0.14027 -1.257287,0.34468 -0.289388,0.20211 -0.434084,0.51085 -0.434084,0.92656 0,0.39963 0.105479,0.70969 0.316778,0.93018 0.211299,0.22048 0.500687,0.33073 0.868164,0.33073 0.298575,0 0.542372,-0.0414 0.730705,-0.12403 0.188331,-0.0827 0.373044,-0.23639 0.554488,-0.46147 l 0.02739,0 0.258384,0.51676 0.933791,0 0,-2.55953 c 0,-0.44557 -0.137803,-0.79272 -0.413411,-1.04076 -0.27331,-0.24805 -0.660482,-0.37207 -1.161169,-0.37207 z m 4.93355,0 c -0.264126,0 -0.49839,0.0461 -0.702799,0.13797 -0.202113,0.0919 -0.360588,0.22968 -0.475425,0.41341 l -0.07906,0 -0.168982,-0.48214 -1.016476,0 0,3.90312 1.347205,0 0,-1.70894 c 0,-0.44097 0.05036,-0.75183 0.151413,-0.93327 0.101055,-0.18144 0.265616,-0.27234 0.492993,-0.27234 0.165365,0 0.284623,0.0668 0.358116,0.19999 0.07579,0.13092 0.113689,0.32596 0.113689,0.58549 l 0,2.12907 1.347206,0 0,-2.53886 c 0,-0.45475 -0.120579,-0.80747 -0.361736,-1.05782 -0.238861,-0.25034 -0.574355,-0.37568 -1.006139,-0.37568 z m 13.477213,0 c -0.693613,0 -1.267624,0.11713 -1.722376,0.3514 l 0.389122,0.88883 c 0.438677,-0.19292 0.800413,-0.28939 1.085208,-0.28939 0.316947,0 0.475421,0.16112 0.475421,0.48266 l 0,0.0548 -0.651123,0.0207 c -0.548918,0.0253 -0.967899,0.14027 -1.257287,0.34468 -0.289388,0.20211 -0.434081,0.51085 -0.434081,0.92656 0,0.39963 0.105476,0.70969 0.316775,0.93018 0.211299,0.22048 0.500687,0.33073 0.868164,0.33073 0.298575,0 0.541856,-0.0414 0.730189,-0.12403 0.188331,-0.0827 0.373563,-0.23639 0.555004,-0.46147 l 0.02739,0 0.258382,0.51676 0.933794,0 0,-2.55953 c 0,-0.44557 -0.137806,-0.79272 -0.413412,-1.04076 -0.273312,-0.24805 -0.660482,-0.37207 -1.161169,-0.37207 z m 4.044715,0 c -0.512173,0 -0.908357,0.10122 -1.188559,0.30334 -0.280201,0.20211 -0.420648,0.48461 -0.420648,0.84749 0,0.28709 0.07154,0.5248 0.213943,0.71314 0.142396,0.18603 0.392567,0.35272 0.750858,0.49971 0.39274,0.15617 0.629131,0.26165 0.709517,0.31677 0.08268,0.0528 0.124024,0.11352 0.124024,0.18242 0,0.13321 -0.145497,0.19999 -0.437182,0.19999 -0.195223,0 -0.418351,-0.0297 -0.668695,-0.0894 -0.248047,-0.0597 -0.476226,-0.13551 -0.685228,-0.22738 l 0,1.07797 c 0.222782,0.0827 0.440626,0.13913 0.654222,0.16898 0.213598,0.0322 0.46509,0.0481 0.754478,0.0481 0.532841,0 0.942004,-0.1068 1.226799,-0.3204 0.284792,-0.21359 0.426847,-0.52922 0.426847,-0.94723 0,-0.209 -0.03181,-0.38602 -0.09612,-0.53072 -0.06201,-0.14699 -0.161118,-0.27446 -0.296625,-0.3824 -0.133209,-0.10795 -0.33647,-0.21819 -0.609782,-0.33073 -0.367475,-0.1447 -0.590087,-0.23984 -0.668176,-0.28577 -0.07579,-0.0482 -0.113687,-0.10548 -0.113687,-0.17208 0,-0.10795 0.110242,-0.16227 0.33073,-0.16227 0.12632,0 0.28956,0.0289 0.489376,0.0863 0.199813,0.0551 0.389294,0.12271 0.568438,0.20309 l 0.364837,-0.86816 c -0.243454,-0.10795 -0.478523,-0.18931 -0.7059,-0.24443 -0.225079,-0.0574 -0.466236,-0.0863 -0.723469,-0.0863 z m 18.771981,0 c -0.20441,0 -0.40767,0.0647 -0.60978,0.19327 -0.19982,0.12632 -0.35565,0.29249 -0.46819,0.49919 l -0.0656,0 -0.21032,-0.62322 -1.00253,0 0,3.90312 1.34721,0 0,-1.91874 c 0,-0.25264 0.0668,-0.44557 0.19999,-0.57878 0.1332,-0.13551 0.3468,-0.2036 0.64078,-0.2036 0.19522,0 0.34761,0.0138 0.45786,0.0413 l 0.12092,-1.27124 -0.076,-0.0134 c -0.10565,-0.0184 -0.21722,-0.0279 -0.33435,-0.0279 z m 2.85616,0 c -0.69362,0 -1.26763,0.11713 -1.72238,0.3514 l 0.38912,0.88883 c 0.43868,-0.19292 0.80041,-0.28939 1.08521,-0.28939 0.31695,0 0.47542,0.16112 0.47542,0.48266 l 0,0.0548 -0.65112,0.0207 c -0.54892,0.0253 -0.9679,0.14027 -1.25729,0.34468 -0.28939,0.20211 -0.43408,0.51085 -0.43408,0.92656 0,0.39963 0.10548,0.70969 0.31677,0.93018 0.2113,0.22048 0.50069,0.33073 0.86817,0.33073 0.29857,0 0.54185,-0.0414 0.73019,-0.12403 0.18833,-0.0827 0.37356,-0.23639 0.555,-0.46147 l 0.0274,0 0.25838,0.51676 0.9338,0 0,-2.55953 c 0,-0.44557 -0.13781,-0.79272 -0.41342,-1.04076 -0.27331,-0.24805 -0.66048,-0.37207 -1.16116,-0.37207 z m 4.84724,0 c -0.2044,0 -0.40767,0.0647 -0.60978,0.19327 -0.19981,0.12632 -0.35616,0.29249 -0.4687,0.49919 l -0.0651,0 -0.21032,-0.62322 -1.00252,0 0,3.90312 1.3472,0 0,-1.91874 c 0,-0.25264 0.0663,-0.44557 0.19947,-0.57878 0.13321,-0.13551 0.34681,-0.2036 0.64079,-0.2036 0.19522,0 0.34813,0.0138 0.45837,0.0413 l 0.12041,-1.27124 -0.0754,-0.0134 c -0.10565,-0.0184 -0.21721,-0.0279 -0.33435,-0.0279 z m 12.12691,0 c -0.62012,0 -1.10243,0.17702 -1.44694,0.53071 -0.34221,0.3514 -0.51366,0.84537 -0.51366,1.48157 0,0.62241 0.17489,1.11586 0.524,1.48104 0.3514,0.36518 0.82337,0.54778 1.41593,0.54778 0.61782,0 1.09749,-0.17783 1.43971,-0.53382 0.34451,-0.35829 0.51676,-0.85651 0.51676,-1.495 0,-0.40652 -0.08,-0.76137 -0.24081,-1.06454 -0.15848,-0.30546 -0.38505,-0.53973 -0.67903,-0.7028 -0.29398,-0.16306 -0.6324,-0.24494 -1.01596,-0.24494 z m 6.08749,0 c -0.51218,0 -0.90836,0.10122 -1.18856,0.30334 -0.2802,0.20211 -0.42065,0.48461 -0.42065,0.84749 0,0.28709 0.0715,0.5248 0.21394,0.71314 0.1424,0.18603 0.39257,0.35272 0.75086,0.49971 0.39274,0.15617 0.62913,0.26165 0.70952,0.31677 0.0827,0.0528 0.12402,0.11352 0.12402,0.18242 0,0.13321 -0.1455,0.19999 -0.43718,0.19999 -0.19522,0 -0.41835,-0.0297 -0.66869,-0.0894 -0.24805,-0.0597 -0.47623,-0.13551 -0.68523,-0.22738 l 0,1.07797 c 0.22278,0.0827 0.44062,0.13913 0.65422,0.16898 0.2136,0.0322 0.46509,0.0481 0.75448,0.0481 0.53284,0 0.942,-0.1068 1.2268,-0.3204 0.28479,-0.21359 0.42684,-0.52922 0.42684,-0.94723 0,-0.209 -0.0318,-0.38602 -0.0961,-0.53072 -0.062,-0.14699 -0.16111,-0.27446 -0.29662,-0.3824 -0.13321,-0.10795 -0.33647,-0.21819 -0.60978,-0.33073 -0.36748,-0.1447 -0.59009,-0.23984 -0.66818,-0.28577 -0.0758,-0.0482 -0.11368,-0.10548 -0.11368,-0.17208 0,-0.10795 0.11024,-0.16227 0.33072,-0.16227 0.12632,0 0.28956,0.0289 0.48938,0.0863 0.19981,0.0551 0.3893,0.12271 0.56844,0.20309 l 0.36484,-0.86816 c -0.24346,-0.10795 -0.47853,-0.18931 -0.7059,-0.24443 -0.22508,-0.0574 -0.46624,-0.0863 -0.72347,-0.0863 z m 3.96513,0 c -0.61782,0 -1.09325,0.17702 -1.42627,0.53071 -0.33303,0.3514 -0.49971,0.85651 -0.49971,1.51567 0,0.6385 0.17914,1.13114 0.53743,1.47795 0.36059,0.34451 0.86621,0.51677 1.51619,0.51677 0.31235,0 0.58107,-0.0207 0.80615,-0.062 0.22508,-0.0413 0.44293,-0.11581 0.65423,-0.22376 l 0,-0.9679 c -0.23197,0.10795 -0.44769,0.18455 -0.64751,0.23048 -0.19752,0.0436 -0.41456,0.0656 -0.65112,0.0656 -0.25953,0 -0.46492,-0.062 -0.6165,-0.18604 -0.14929,-0.12402 -0.22853,-0.29495 -0.23771,-0.51314 l 2.40812,0 0,-0.59945 c 0,-0.57648 -0.16112,-1.01745 -0.48266,-1.32292 -0.31925,-0.30776 -0.77268,-0.46198 -1.36064,-0.46198 z m 13.98726,0 c -0.61782,0 -1.09325,0.17702 -1.42627,0.53071 -0.33303,0.3514 -0.49971,0.85651 -0.49971,1.51567 0,0.6385 0.17914,1.13114 0.53743,1.47795 0.36059,0.34451 0.8657,0.51677 1.51567,0.51677 0.31236,0 0.58108,-0.0207 0.80615,-0.062 0.22509,-0.0413 0.44345,-0.11581 0.65474,-0.22376 l 0,-0.9679 c -0.23196,0.10795 -0.44769,0.18455 -0.6475,0.23048 -0.19752,0.0436 -0.41456,0.0656 -0.65112,0.0656 -0.25953,0 -0.46544,-0.062 -0.61702,-0.18604 -0.14929,-0.12402 -0.22853,-0.29495 -0.23771,-0.51314 l 2.40812,0 0,-0.59945 c 0,-0.57648 -0.1606,-1.01745 -0.48214,-1.32292 -0.31925,-0.30776 -0.77268,-0.46198 -1.36064,-0.46198 z m 7.43779,0 c -0.69362,0 -1.26763,0.11713 -1.72238,0.3514 l 0.38912,0.88883 c 0.43868,-0.19292 0.80042,-0.28939 1.08521,-0.28939 0.31695,0 0.47542,0.16112 0.47542,0.48266 l 0,0.0548 -0.65112,0.0207 c -0.54892,0.0253 -0.9679,0.14027 -1.25729,0.34468 -0.28939,0.20211 -0.43408,0.51085 -0.43408,0.92656 0,0.39963 0.10548,0.70969 0.31678,0.93018 0.2113,0.22048 0.50068,0.33073 0.86816,0.33073 0.29858,0 0.54186,-0.0414 0.73019,-0.12403 0.18833,-0.0827 0.37356,-0.23639 0.555,-0.46147 l 0.0274,0 0.25838,0.51676 0.9338,0 0,-2.55953 c 0,-0.44557 -0.13781,-0.79272 -0.41341,-1.04076 -0.27332,-0.24805 -0.66049,-0.37207 -1.16117,-0.37207 z m 20.80855,0 c -0.69362,0 -1.26814,0.11713 -1.7229,0.3514 l 0.38964,0.88883 c 0.43868,-0.19292 0.80041,-0.28939 1.08521,-0.28939 0.31695,0 0.47542,0.16112 0.47542,0.48266 l 0,0.0548 -0.65112,0.0207 c -0.54892,0.0253 -0.96842,0.14027 -1.25781,0.34468 -0.28938,0.20211 -0.43408,0.51085 -0.43408,0.92656 0,0.39963 0.106,0.70969 0.3173,0.93018 0.2113,0.22048 0.50068,0.33073 0.86816,0.33073 0.29858,0 0.54186,-0.0414 0.73019,-0.12403 0.18833,-0.0827 0.37304,-0.23639 0.55448,-0.46147 l 0.0279,0 0.25838,0.51676 0.93328,0 0,-2.55953 c 0,-0.44557 -0.1378,-0.79272 -0.41341,-1.04076 -0.27331,-0.24805 -0.65997,-0.37207 -1.16065,-0.37207 z m 11.26184,0 c -0.61782,0 -1.09324,0.17702 -1.42627,0.53071 -0.33302,0.3514 -0.49971,0.85651 -0.49971,1.51567 0,0.6385 0.17914,1.13114 0.53744,1.47795 0.36058,0.34451 0.86621,0.51677 1.51618,0.51677 0.31236,0 0.58108,-0.0207 0.80615,-0.062 0.22508,-0.0413 0.44293,-0.11581 0.65423,-0.22376 l 0,-0.9679 c -0.23197,0.10795 -0.44769,0.18455 -0.64751,0.23048 -0.19752,0.0436 -0.41456,0.0656 -0.65112,0.0656 -0.25953,0 -0.46492,-0.062 -0.6165,-0.18604 -0.14929,-0.12402 -0.22853,-0.29495 -0.23771,-0.51314 l 2.40812,0 0,-0.59945 c 0,-0.57648 -0.16112,-1.01745 -0.48266,-1.32292 -0.31925,-0.30776 -0.77268,-0.46198 -1.36064,-0.46198 z m 4.16512,0 c -0.51217,0 -0.90836,0.10122 -1.18856,0.30334 -0.2802,0.20211 -0.42013,0.48461 -0.42013,0.84749 0,0.28709 0.071,0.5248 0.21343,0.71314 0.14239,0.18603 0.39257,0.35272 0.75085,0.49971 0.39275,0.15617 0.62965,0.26165 0.71004,0.31677 0.0827,0.0528 0.12402,0.11352 0.12402,0.18242 0,0.13321 -0.14601,0.19999 -0.4377,0.19999 -0.19522,0 -0.41783,-0.0297 -0.66817,-0.0894 -0.24805,-0.0597 -0.47675,-0.13551 -0.68575,-0.22738 l 0,1.07797 c 0.22278,0.0827 0.44115,0.13913 0.65474,0.16898 0.2136,0.0322 0.46509,0.0481 0.75448,0.0481 0.53284,0 0.94148,-0.1068 1.22628,-0.3204 0.28479,-0.21359 0.42736,-0.52922 0.42736,-0.94723 0,-0.209 -0.0323,-0.38602 -0.0966,-0.53072 -0.062,-0.14699 -0.1606,-0.27446 -0.29611,-0.3824 -0.13321,-0.10795 -0.33647,-0.21819 -0.60978,-0.33073 -0.36748,-0.1447 -0.5906,-0.23984 -0.66869,-0.28577 -0.0758,-0.0482 -0.11369,-0.10548 -0.11369,-0.17208 0,-0.10795 0.11024,-0.16227 0.33073,-0.16227 0.12632,0 0.28956,0.0289 0.48937,0.0863 0.19982,0.0551 0.3893,0.12271 0.56845,0.20309 l 0.36535,-0.86816 c -0.24346,-0.10795 -0.47904,-0.18931 -0.70642,-0.24443 -0.22508,-0.0574 -0.46624,-0.0863 -0.72347,-0.0863 z m -96.727945,0.0692 0,3.90312 1.347205,0 0,-3.90312 -1.347205,0 z m 17.366905,0 1.53634,3.84783 c -0.0758,0.19063 -0.14682,0.32763 -0.21343,0.41031 -0.0666,0.085 -0.14504,0.15044 -0.23461,0.19637 -0.0896,0.0459 -0.19373,0.0687 -0.31316,0.0687 -0.15618,0 -0.2953,-0.0138 -0.41703,-0.0413 l 0,1.05782 c 0.18833,0.039 0.37224,0.0584 0.55139,0.0584 0.46394,0 0.83945,-0.10892 1.12655,-0.32711 0.28938,-0.21819 0.53267,-0.59158 0.73018,-1.11983 l 1.54358,-4.15117 -1.37459,0 -0.67903,2.24586 c -0.0367,0.11943 -0.0643,0.25856 -0.0827,0.41703 l -0.0274,0 c -0.0115,-0.16536 -0.0335,-0.30661 -0.0656,-0.42375 l -0.66146,-2.23914 -1.41903,0 z m 45.60961,0 0,2.54248 c 0,0.45476 0.11926,0.80696 0.35812,1.0573 0.23886,0.24805 0.57303,0.37208 1.00252,0.37208 0.27102,0 0.5066,-0.0469 0.70642,-0.14108 0.20211,-0.0965 0.35927,-0.23427 0.47181,-0.41341 l 0.0791,0 0.16898,0.48575 1.01648,0 0,-3.90312 -1.34721,0 0,1.70843 c 0,0.43408 -0.0496,0.74333 -0.14831,0.92707 -0.0988,0.18144 -0.26412,0.27182 -0.49609,0.27182 -0.16537,0 -0.28462,-0.0655 -0.35812,-0.19637 -0.0712,-0.13091 -0.10697,-0.32384 -0.10697,-0.57878 l 0,-2.13217 -1.34669,0 z m 11.64064,0 1.48828,3.90312 1.33325,0 1.48828,-3.90312 -1.40198,0 -0.69247,2.31511 c -0.0413,0.1401 -0.062,0.26969 -0.062,0.38912 l -0.0243,0 c 0,-0.0367 -0.003,-0.076 -0.0103,-0.1173 -0.005,-0.0436 -0.0102,-0.0837 -0.0171,-0.12041 -0.007,-0.0391 -0.0138,-0.0722 -0.0207,-0.0997 -0.007,-0.0276 -0.0117,-0.0474 -0.014,-0.0589 l -0.66146,-2.30787 -1.40559,0 z m 11.45511,0 0,2.54248 c 0,0.45476 0.11926,0.80696 0.35812,1.0573 0.23886,0.24805 0.57303,0.37208 1.00252,0.37208 0.27102,0 0.5066,-0.0469 0.70642,-0.14108 0.20211,-0.0965 0.35926,-0.23427 0.4718,-0.41341 l 0.0796,0 0.16846,0.48575 1.01648,0 0,-3.90312 -1.34721,0 0,1.70843 c 0,0.43408 -0.049,0.74333 -0.14779,0.92707 -0.0988,0.18144 -0.26413,0.27182 -0.4961,0.27182 -0.16536,0 -0.28514,-0.0655 -0.35863,-0.19637 -0.0712,-0.13091 -0.10645,-0.32384 -0.10645,-0.57878 l 0,-2.13217 -1.34721,0 z m -46.95682,0.8475 c 0.17225,0 0.30925,0.0559 0.41031,0.16846 0.10335,0.11254 0.15715,0.26332 0.16174,0.45165 l -1.15755,0 c 0.0184,-0.21359 0.0804,-0.36994 0.18604,-0.4687 0.10794,-0.10106 0.24098,-0.15141 0.39946,-0.15141 z m 13.98726,0 c 0.17225,0 0.30873,0.0559 0.40979,0.16846 0.10335,0.11254 0.15767,0.26332 0.16227,0.45165 l -1.15756,0 c 0.0184,-0.21359 0.0804,-0.36994 0.18604,-0.4687 0.10794,-0.10106 0.24098,-0.15141 0.39946,-0.15141 z m 39.50818,0 c 0.17226,0 0.30925,0.0559 0.41031,0.16846 0.10335,0.11254 0.15715,0.26332 0.16175,0.45165 l -1.15756,0 c 0.0184,-0.21359 0.0804,-0.36994 0.18604,-0.4687 0.10795,-0.10106 0.24099,-0.15141 0.39946,-0.15141 z m -63.61007,0.0858 c 0.2113,0 0.36076,0.0853 0.44803,0.25528 0.0873,0.16996 0.13075,0.42145 0.13075,0.75448 0,0.33532 -0.0435,0.59106 -0.13075,0.76791 -0.085,0.17455 -0.23231,0.262 -0.44131,0.262 -0.2113,0 -0.36157,-0.0874 -0.45114,-0.262 -0.0896,-0.17685 -0.13436,-0.43259 -0.13436,-0.76791 0,-0.33532 0.0448,-0.58682 0.13436,-0.75448 0.0896,-0.16996 0.23771,-0.25528 0.44442,-0.25528 z m -24.81502,0.0553 c 0.33762,0 0.50643,0.31351 0.50643,0.94051 0,0.31466 -0.0427,0.55369 -0.12764,0.71676 -0.085,0.16077 -0.20637,0.24081 -0.36484,0.24081 -0.19752,0 -0.34009,-0.0689 -0.42736,-0.20671 -0.0873,-0.1401 -0.13074,-0.3696 -0.13074,-0.68884 l 0,-0.18966 c 0,-0.2802 0.0435,-0.48558 0.13074,-0.6165 0.0873,-0.13091 0.22507,-0.19637 0.41341,-0.19637 z m -27.260872,0.0274 c 0.211299,0 0.366329,0.0737 0.46509,0.22066 0.09876,0.14469 0.147794,0.3893 0.147794,0.73381 l 0,0.10697 c -0.0069,0.28249 -0.05512,0.49132 -0.144696,0.62683 -0.08728,0.13551 -0.238858,0.20309 -0.454752,0.20309 -0.183737,0 -0.324985,-0.0792 -0.423746,-0.23771 -0.09876,-0.15848 -0.147794,-0.3893 -0.147794,-0.69247 0,-0.30776 0.04823,-0.54415 0.144693,-0.70951 0.09876,-0.16767 0.236564,-0.25167 0.413411,-0.25167 z m 71.588912,0 c 0.2113,0 0.36633,0.0737 0.46509,0.22066 0.0988,0.14469 0.14831,0.3893 0.14831,0.73381 l 0,0.10697 c -0.007,0.28249 -0.0551,0.49132 -0.1447,0.62683 -0.0873,0.13551 -0.23885,0.20309 -0.45475,0.20309 -0.18374,0 -0.32499,-0.0792 -0.42374,-0.23771 -0.0988,-0.15848 -0.14832,-0.3893 -0.14832,-0.69247 0,-0.30776 0.0482,-0.54415 0.1447,-0.70951 0.0988,-0.16767 0.23656,-0.25167 0.41341,-0.25167 z m -91.126218,1.14412 0,0.30282 c 0,0.16537 -0.05857,0.29972 -0.175702,0.40308 -0.114835,0.10335 -0.253961,0.15503 -0.417029,0.15503 -0.254936,0 -0.382405,-0.11926 -0.382405,-0.35812 0,-0.31006 0.221806,-0.4733 0.665076,-0.48938 l 0.31006,-0.0134 z m 10.80399,0 0,0.30282 c 0,0.16537 -0.05857,0.29972 -0.175699,0.40308 -0.114837,0.10335 -0.253961,0.15503 -0.417029,0.15503 -0.254939,0 -0.382407,-0.11926 -0.382407,-0.35812 0,-0.31006 0.221808,-0.4733 0.665078,-0.48938 l 0.310057,-0.0134 z m 18.410245,0 0,0.30282 c 0,0.16537 -0.05857,0.29972 -0.175699,0.40308 -0.114837,0.10335 -0.253444,0.15503 -0.416512,0.15503 -0.254937,0 -0.382405,-0.11926 -0.382405,-0.35812 0,-0.31006 0.221289,-0.4733 0.664559,-0.48938 l 0.310057,-0.0134 z m 25.672853,0 0,0.30282 c 0,0.16537 -0.0586,0.29972 -0.1757,0.40308 -0.11484,0.10335 -0.25345,0.15503 -0.41651,0.15503 -0.25494,0 -0.38241,-0.11926 -0.38241,-0.35812 0,-0.31006 0.22129,-0.4733 0.66456,-0.48938 l 0.31006,-0.0134 z m 48.45182,0 0,0.30282 c 0,0.16537 -0.0586,0.29972 -0.1757,0.40308 -0.11484,0.10335 -0.25344,0.15503 -0.41651,0.15503 -0.25494,0 -0.38241,-0.11926 -0.38241,-0.35812 0,-0.31006 0.22129,-0.4733 0.66456,-0.48938 l 0.31006,-0.0134 z m 20.80855,0 0,0.30282 c 0,0.16537 -0.0586,0.29972 -0.1757,0.40308 -0.11484,0.10335 -0.25396,0.15503 -0.41703,0.15503 -0.25494,0 -0.3824,-0.11926 -0.3824,-0.35812 0,-0.31006 0.2218,-0.4733 0.66507,-0.48938 l 0.31006,-0.0134 z m 17.96634,0.50953 c -0.23885,0 -0.42145,0.0578 -0.54777,0.1726 -0.12402,0.11483 -0.18603,0.27756 -0.18603,0.48886 0,0.209 0.0655,0.37092 0.19637,0.48576 0.13091,0.11483 0.31006,0.17259 0.53743,0.17259 0.22049,0 0.39275,-0.0578 0.51677,-0.17259 0.12632,-0.11714 0.18913,-0.27906 0.18913,-0.48576 0,-0.2113 -0.0607,-0.37403 -0.18241,-0.48886 -0.12173,-0.11484 -0.29611,-0.1726 -0.52349,-0.1726 z"
       id="rect5971"
       inkscape:connector-curvature="0" />
    <g
       id="g6009"
       transform="translate(0,5.2916667)">
      <path
         id="rect6003"
         transform="matrix(0.26458333,0,0,0.26458333,0,191.16668)"
         d="m 471.51953,225.57227 c -3.72308,0 -6.4108,1.0489 -8.06055,3.14453 -1.62745,2.07333 -2.43945,5.33809 -2.43945,9.79687 l 0,2.81055 -6.75586,1.23633 0,1.93945 6.75586,0 0,33.47461 3.31055,0 0,-33.47461 8.56054,0 0,-2.875 -8.56054,0 0,-3.37891 c 0,-3.43326 0.53341,-5.90784 1.60351,-7.42382 1.09241,-1.53828 2.93344,-2.30665 5.51953,-2.30665 1.76122,0 3.5329,0.27859 5.31641,0.83594 l 0.76953,-2.875 c -2.00645,-0.60193 -4.01308,-0.90429 -6.01953,-0.90429 z m 20.5332,0 c -3.72308,0 -6.41079,1.0489 -8.06054,3.14453 -1.62746,2.07333 -2.44141,5.33809 -2.44141,9.79687 l 0,2.81055 -6.7539,1.23633 0,1.93945 6.7539,0 0,33.47461 3.31055,0 0,-33.47461 8.5625,0 0,-2.875 -8.5625,0 0,-3.37891 c 0,-3.43326 0.53536,-5.90784 1.60547,-7.42382 1.0924,-1.53828 2.93148,-2.30665 5.51758,-2.30665 1.76121,0 3.53484,0.27859 5.31835,0.83594 l 0.76758,-2.875 c -2.00645,-0.60193 -4.01112,-0.90429 -6.01758,-0.90429 z m -117.8457,3.51171 0,48.89063 11.70313,0 c 8.33792,0 14.65821,-2.09586 18.96093,-6.28711 4.30273,-4.21355 6.45508,-10.42279 6.45508,-18.62695 0,-7.82517 -2.04131,-13.77764 -6.12109,-17.85743 -4.05749,-4.07978 -9.9862,-6.11914 -17.78906,-6.11914 l -13.20899,0 z m 3.41016,3.00977 8.99609,0 c 6.88882,0 12.10566,1.77167 15.65039,5.31641 3.56703,3.52243 5.34961,8.78487 5.34961,15.78515 0,14.51334 -7.30179,21.76953 -21.9043,21.76953 l -8.09179,0 0,-42.87109 z m 57.88672,8.82813 c -4.83778,0 -8.68349,1.74985 -11.53711,5.25 -2.85362,3.47784 -4.28125,8.11569 -4.28125,13.9121 0,5.8633 1.47126,10.42283 4.41406,13.67774 2.96509,3.25491 7.08939,4.88086 12.37305,4.88086 2.09562,0 4.01302,-0.16559 5.75195,-0.5 1.73892,-0.31212 3.63451,-0.91489 5.68555,-1.80664 l 0,-3.00977 c -2.40775,0.95864 -4.40346,1.58323 -5.98633,1.87305 -1.56058,0.28982 -3.37784,0.43359 -5.45117,0.43359 -4.25814,0 -7.53576,-1.31463 -9.83204,-3.94531 -2.27397,-2.63068 -3.43197,-6.44366 -3.47656,-11.4375 l 26.1836,0 0,-2.67383 c 0,-5.1276 -1.23632,-9.18644 -3.71094,-12.17383 -2.47463,-2.98738 -5.85238,-4.48046 -10.13281,-4.48046 z m 58.85547,0.70312 13.9121,36.34961 c -0.26752,0.7357 -0.87029,2.31801 -1.80664,4.74805 -0.91405,2.45233 -1.728,4.23686 -2.4414,5.35156 -0.69111,1.13699 -1.47038,1.97276 -2.33985,2.50781 -0.86946,0.53506 -1.87277,0.80274 -3.00976,0.80274 -1.49369,0 -2.8886,-0.17846 -4.18164,-0.53516 l 0,2.875 c 1.56057,0.46817 2.97729,0.70312 4.24804,0.70312 1.69434,0 3.13288,-0.3004 4.31446,-0.90234 1.20387,-0.60193 2.25082,-1.50511 3.14258,-2.70898 0.89175,-1.20387 1.9952,-3.52377 3.31054,-6.95703 l 16.28516,-42.23438 -3.41016,0 -7.6914,20.19727 c -2.11793,5.70724 -3.64569,9.99908 -4.58203,12.875 l -0.19922,0 c -0.62423,-2.18481 -2.10836,-6.40924 -4.44922,-12.67383 l -7.69141,-20.39844 -3.41015,0 z m -58.85547,2.24023 c 3.23261,0 5.76174,1.19268 7.58984,3.57813 1.8281,2.36315 2.74219,5.65168 2.74219,9.86523 l -22.47071,0 c 0.35671,-4.34731 1.59302,-7.67052 3.71094,-9.96679 2.11792,-2.31857 4.92759,-3.47657 8.42774,-3.47657 z"
         style="opacity:1;fill:url(#linearGradient6005);fill-opacity:1;stroke:none;stroke-width:2.04355526;stroke-miterlimit:4;stroke-dasharray:none;stroke-opacity:1"
         inkscape:connector-curvature="0" />
      <text
         xml:space="preserve"
         style="font-style:normal;font-weight:normal;font-size:5.90824699px;line-height:125%;font-family:sans-serif;letter-spacing:0px;word-spacing:0px;fill:#2c3e50;fill-opacity:1;stroke:none;stroke-width:0.22155926px;stroke-linecap:butt;stroke-linejoin:miter;stroke-opacity:1"
         x="22.52704"
         y="264.54187"
         id="text5989"
         sodipodi:linespacing="125%"><tspan
           sodipodi:role="line"
           id="tspan5991"
           x="22.52704"
           y="264.54187"
           style="font-style:normal;font-variant:normal;font-weight:300;font-stretch:normal;font-size:18.90639114px;font-family:'Open Sans';-inkscape-font-specification:'Open Sans Light';fill:#ecf0f1;stroke-width:0.22155926px">require(&quot;         &quot;)</tspan></text>
    </g>
    <g
       id="g6038"
       style="opacity:0.208">
      <text
         sodipodi:linespacing="125%"
         id="text6014"
         y="218.50615"
         x="14.870124"
         style="font-style:normal;font-weight:normal;font-size:4.7580204px;line-height:125%;font-family:sans-serif;letter-spacing:0px;word-spacing:0px;fill:#000000;fill-opacity:1;stroke:none;stroke-width:0.17842576px;stroke-linecap:butt;stroke-linejoin:miter;stroke-opacity:1"
         xml:space="preserve"><tspan
           style="font-style:normal;font-variant:normal;font-weight:normal;font-stretch:normal;font-family:Monaco;-inkscape-font-specification:Monaco;fill:#c0392b;stroke-width:0.17842576px"
           y="218.50615"
           x="14.870124"
           id="tspan6016"
           sodipodi:role="line">Deffy(null, &quot;Hello World&quot;)</tspan></text>
      <text
         xml:space="preserve"
         style="font-style:normal;font-weight:normal;font-size:5.74915838px;line-height:125%;font-family:sans-serif;letter-spacing:0px;word-spacing:0px;fill:#e67e22;fill-opacity:1;stroke:none;stroke-width:0.21559344px;stroke-linecap:butt;stroke-linejoin:miter;stroke-opacity:1"
         x="6.2615666"
         y="231.11414"
         id="text6018"
         sodipodi:linespacing="125%"><tspan
           sodipodi:role="line"
           id="tspan6020"
           x="6.2615666"
           y="231.11414"
           style="font-style:normal;font-variant:normal;font-weight:normal;font-stretch:normal;font-family:Monaco;-inkscape-font-specification:Monaco;fill:#e67e22;stroke-width:0.21559344px">Deffy(&quot;Hi!&quot;, &quot;Hello&quot;)</tspan></text>
      <text
         sodipodi:linespacing="125%"
         id="text6022"
         y="245.52704"
         x="39.604404"
         style="font-style:normal;font-weight:normal;font-size:6.7123456px;line-height:125%;font-family:sans-serif;letter-spacing:0px;word-spacing:0px;fill:#e74c3c;fill-opacity:1;stroke:none;stroke-width:0.25171295px;stroke-linecap:butt;stroke-linejoin:miter;stroke-opacity:1"
         xml:space="preserve"><tspan
           style="font-style:normal;font-variant:normal;font-weight:normal;font-stretch:normal;font-family:Monaco;-inkscape-font-specification:Monaco;fill:#e74c3c;stroke-width:0.25171295px"
           y="245.52704"
           x="39.604404"
           id="tspan6024"
           sodipodi:role="line">Deffy(7, 42)</tspan></text>
      <text
         xml:space="preserve"
         style="font-style:normal;font-weight:normal;font-size:4.7580204px;line-height:125%;font-family:sans-serif;letter-spacing:0px;word-spacing:0px;fill:#000000;fill-opacity:1;stroke:none;stroke-width:0.17842576px;stroke-linecap:butt;stroke-linejoin:miter;stroke-opacity:1"
         x="152.45348"
         y="213.21448"
         id="text6026"
         sodipodi:linespacing="125%"><tspan
           sodipodi:role="line"
           id="tspan6028"
           x="152.45348"
           y="213.21448"
           style="font-style:normal;font-variant:normal;font-weight:normal;font-stretch:normal;font-family:Monaco;-inkscape-font-specification:Monaco;fill:#c0392b;stroke-width:0.17842576px">&quot;Hello World&quot;</tspan></text>
      <text
         sodipodi:linespacing="125%"
         id="text6030"
         y="227.85164"
         x="146.63028"
         style="font-style:normal;font-weight:normal;font-size:10.9503336px;line-height:125%;font-family:sans-serif;letter-spacing:0px;word-spacing:0px;fill:#e67e22;fill-opacity:1;stroke:none;stroke-width:0.41063753px;stroke-linecap:butt;stroke-linejoin:miter;stroke-opacity:1"
         xml:space="preserve"><tspan
           style="font-style:normal;font-variant:normal;font-weight:normal;font-stretch:normal;font-family:Monaco;-inkscape-font-specification:Monaco;fill:#e67e22;stroke-width:0.41063753px"
           y="227.85164"
           x="146.63028"
           id="tspan6032"
           sodipodi:role="line">&quot;Hi!&quot;</tspan></text>
      <text
         xml:space="preserve"
         style="font-style:normal;font-weight:normal;font-size:21.08763123px;line-height:125%;font-family:sans-serif;letter-spacing:0px;word-spacing:0px;fill:#e74c3c;fill-opacity:1;stroke:none;stroke-width:0.79078609px;stroke-linecap:butt;stroke-linejoin:miter;stroke-opacity:1"
         x="177.87135"
         y="245.68225"
         id="text6034"
         sodipodi:linespacing="125%"><tspan
           sodipodi:role="line"
           id="tspan6036"
           x="177.87135"
           y="245.68225"
           style="font-style:normal;font-variant:normal;font-weight:normal;font-stretch:normal;font-family:Monaco;-inkscape-font-specification:Monaco;fill:#e74c3c;stroke-width:0.79078609px">7</tspan></text>
    </g>
  </g>
</svg>
