<?xml version="1.0" encoding="UTF-8" standalone="no"?>
<!-- Created with Inkscape (http://www.inkscape.org/) -->

<svg
   xmlns:dc="http://purl.org/dc/elements/1.1/"
   xmlns:cc="http://creativecommons.org/ns#"
   xmlns:rdf="http://www.w3.org/1999/02/22-rdf-syntax-ns#"
   xmlns:svg="http://www.w3.org/2000/svg"
   xmlns="http://www.w3.org/2000/svg"
   xmlns:xlink="http://www.w3.org/1999/xlink"
   xmlns:sodipodi="http://sodipodi.sourceforge.net/DTD/sodipodi-0.dtd"
   xmlns:inkscape="http://www.inkscape.org/namespaces/inkscape"
   width="200"
   height="200"
   viewBox="0 0 52.916666 52.916666"
   id="svg2"
   version="1.1"
   inkscape:version="0.91+devel r"
   sodipodi:docname="i.svg"
   inkscape:export-filename="/home/ionicabizau/Documents/github-old-header/icons/icon128.png"
   inkscape:export-xdpi="61.439999"
   inkscape:export-ydpi="61.439999">
  <defs
     id="defs4">
    <linearGradient
       inkscape:collect="always"
       id="linearGradient4813">
      <stop
         style="stop-color:#f39c12;stop-opacity:1"
         offset="0"
         id="stop4815" />
      <stop
         style="stop-color:#e74c3c;stop-opacity:1"
         offset="1"
         id="stop4817" />
    </linearGradient>
    <linearGradient
       inkscape:collect="always"
       xlink:href="#linearGradient4813"
       id="linearGradient4819"
       x1="2.8731475"
       y1="245.68425"
       x2="51.182114"
       y2="294.2605"
       gradientUnits="userSpaceOnUse"
       gradientTransform="matrix(2.5065108,0,0,2.5065108,33.681903,-559.79821)" />
    <linearGradient
       inkscape:collect="always"
       xlink:href="#linearGradient4813"
       id="linearGradient4823"
       gradientUnits="userSpaceOnUse"
       x1="2.8731475"
       y1="245.68425"
       x2="51.182114"
       y2="294.2605"
       gradientTransform="matrix(2.5065108,0,0,2.5065108,33.681903,-559.79821)" />
  </defs>
  <sodipodi:namedview
     id="base"
     pagecolor="#ffffff"
     bordercolor="#666666"
     borderopacity="1.0"
     inkscape:pageopacity="0.0"
     inkscape:pageshadow="2"
     inkscape:zoom="3.959798"
     inkscape:cx="133.81899"
     inkscape:cy="106.44615"
     inkscape:document-units="mm"
     inkscape:current-layer="layer1"
     showgrid="false"
     units="px"
     inkscape:window-width="1920"
     inkscape:window-height="1056"
     inkscape:window-x="0"
     inkscape:window-y="24"
     inkscape:window-maximized="1" />
  <metadata
     id="metadata7">
    <rdf:RDF>
      <cc:Work
         rdf:about="">
        <dc:format>image/svg+xml</dc:format>
        <dc:type
           rdf:resource="http://purl.org/dc/dcmitype/StillImage" />
        <dc:title></dc:title>
      </cc:Work>
    </rdf:RDF>
  </metadata>
  <g
     inkscape:label="Layer 1"
     inkscape:groupmode="layer"
     id="layer1"
     transform="translate(0,-244.08334)">
    <g
       id="g4827"
       transform="matrix(1.507884,0,0,1.507884,-13.437765,-144.71172)"
       style="stroke-width:0.66318095">
      <path
         id="rect4811"
         transform="matrix(0.26458333,0,0,0.26458333,0,244.08334)"
         d="m 67.71875,67.042969 c -0.688829,0.02921 -1.021484,0.134765 -1.021484,0.134765 -3.479237,8.733884 -1.331472,15.188836 -0.677735,16.791016 -4.09581,4.42749 -6.591797,10.078603 -6.591797,17.00977 0,26.08754 16.898806,31.98632 40.480469,31.98632 23.591487,0 40.664067,-5.89878 40.664067,-31.98632 0,-6.931167 -2.49599,-12.58228 -6.5918,-17.00977 0.65374,-1.60218 2.80193,-8.062121 -0.67969,-16.791016 0,0 -5.33956,-1.689984 -17.42383,6.56836 -5.06152,-1.391698 -10.49846,-1.59961 -15.87695,-1.59961 -5.380944,0 -10.812332,0.208707 -15.888672,1.605469 -9.061353,-6.197499 -14.32609,-6.796607 -16.392578,-6.708984 z m 17.820312,30.384765 c 4.29852,0.03558 9.224809,0.695313 14.460938,0.695313 10.47963,0 19.70148,-2.637087 25.1543,2.347653 3.2736,2.99373 5.18554,6.60156 5.18554,10.48438 -1.5e-4,16.23458 -13.59026,17.01758 -30.33984,17.01758 -16.752038,0 -30.332031,-0.78213 -30.332031,-17.01172 0,-3.87787 1.906504,-7.49564 5.177734,-10.48438 2.723911,-2.494864 6.39484,-3.08441 10.693359,-3.048826 z m 1.714844,5.142576 c -3.365287,0 -6.09375,4.04666 -6.09375,9.04883 0,5.00217 2.728542,9.05859 6.09375,9.05859 3.357838,0 6.087891,-4.05657 6.087891,-9.05859 0,-5.00202 -2.730053,-9.04883 -6.087891,-9.04883 z m 25.494144,0 c -3.35785,0 -6.0918,4.04674 -6.0918,9.04883 0,5.00209 2.73395,9.05859 6.0918,9.05859 3.35783,0 6.08593,-4.05657 6.08593,-9.05859 0.005,-5.00209 -2.72318,-9.04883 -6.08593,-9.04883 z"
         style="opacity:1;fill:url(#linearGradient4823);fill-opacity:1;stroke:none;stroke-width:3.64697337;stroke-miterlimit:4;stroke-dasharray:none;stroke-opacity:1"
         inkscape:connector-curvature="0" />
      <path
         id="rect4821"
         transform="matrix(0.26458333,0,0,0.26458333,0,244.08334)"
         d="m 115.38281,150.40039 c -1.40444,0 -2.70146,0.2655 -3.89258,0.79883 -1.17333,0.51555 -2.19529,1.21853 -3.0664,2.10742 -0.85334,0.87111 -1.52,1.88351 -2,3.03906 -0.48,1.15556 -0.72071,2.35712 -0.72071,3.60157 0,1.22666 0.23114,2.41671 0.69336,3.57226 0.46223,1.15556 1.11171,2.18708 1.94727,3.09375 0.83556,0.88889 1.83839,1.60905 3.01172,2.16016 1.17333,0.55111 2.47992,0.82617 3.91992,0.82617 1.40445,0 2.69385,-0.2655 3.86719,-0.79883 1.19111,-0.53333 2.21307,-1.23631 3.0664,-2.10742 0.85334,-0.88889 1.52,-1.90324 2,-3.04102 0.48,-1.15555 0.72071,-2.35516 0.72071,-3.59961 0,-1.20888 -0.23114,-2.39132 -0.69336,-3.54687 -0.44445,-1.15556 -1.08437,-2.18513 -1.91992,-3.0918 -0.83556,-0.90666 -1.84034,-1.63639 -3.01368,-2.1875 -1.17333,-0.55111 -2.47992,-0.82617 -3.91992,-0.82617 z m -74.056638,0.10547 0,18.93359 13.49414,0 0,-4.5332 -8.294921,0 0,-2.98633 6.880859,0 0,-4.21289 -6.880859,0 0,-2.66797 8.054687,0 0,-4.5332 -13.253906,0 z m 14.017578,0 6.320312,9.60156 -6.107421,9.33203 5.626953,0 3.226562,-5.70703 3.226563,5.70703 5.599609,0 -6.105469,-9.33203 6.320313,-9.60156 -5.601563,0 -3.439453,5.97461 -3.439453,-5.97461 -5.626953,0 z m 19.419922,0 0,18.93359 5.199219,0 0,-5.8125 3.09375,0 c 0.924444,0 1.768758,-0.17764 2.533203,-0.5332 0.782222,-0.37333 1.441276,-0.86235 1.974609,-1.4668 0.551111,-0.62222 0.977075,-1.3252 1.279297,-2.10742 0.302222,-0.8 0.453125,-1.61757 0.453125,-2.45312 0,-0.8 -0.160469,-1.59083 -0.480469,-2.37305 -0.32,-0.8 -0.763142,-1.50298 -1.332031,-2.10742 -0.551111,-0.62222 -1.217778,-1.11886 -2,-1.49219 -0.782222,-0.39111 -1.636102,-0.58789 -2.560547,-0.58789 l -8.160156,0 z m 16.615234,0 0,18.93359 13.785154,0 0,-4.5332 -8.585935,0 0,-14.40039 -5.199219,0 z m 35.781254,0 0,18.93359 5.19922,0 0,-5.8125 1.94726,0 3.33203,5.8125 5.86719,0 -4,-6.95898 c 0.85333,-0.60445 1.52,-1.37809 2,-2.32031 0.48,-0.96 0.7207,-1.99153 0.7207,-3.09375 0,-0.8 -0.16047,-1.59083 -0.48047,-2.37305 -0.32,-0.8 -0.76509,-1.50298 -1.33398,-2.10742 -0.55111,-0.62222 -1.21778,-1.11886 -2,-1.49219 -0.78222,-0.39111 -1.63415,-0.58789 -2.55859,-0.58789 l -8.69336,0 z m 18.01953,0 0,18.93359 13.49414,0 0,-4.5332 -8.29297,0 0,-2.98633 6.87891,0 0,-4.21289 -6.87891,0 0,-2.66797 8.05273,0 0,-4.5332 -13.2539,0 z m -29.87696,4.50781 c 0.72889,0 1.35925,0.14134 1.89258,0.42578 0.55111,0.26667 1.00578,0.63153 1.36133,1.09375 0.37333,0.44445 0.64839,0.96978 0.82617,1.57422 0.17778,0.58667 0.26758,1.19985 0.26758,1.83985 0,0.62222 -0.0898,1.23539 -0.26758,1.83984 -0.16,0.60444 -0.41788,1.14695 -0.77343,1.62695 -0.33778,0.46222 -0.78288,0.84426 -1.33399,1.14649 -0.55111,0.28444 -1.19865,0.42578 -1.94531,0.42578 -0.74667,0 -1.39616,-0.14134 -1.94727,-0.42578 -0.53333,-0.28445 -0.97843,-0.65887 -1.33398,-1.1211 -0.35556,-0.46222 -0.62105,-0.9856 -0.79883,-1.57226 -0.17778,-0.60445 -0.26758,-1.22719 -0.26758,-1.86719 0,-0.62222 0.0802,-1.22583 0.24024,-1.8125 0.17777,-0.60444 0.44522,-1.13934 0.80078,-1.60156 0.35555,-0.48 0.7987,-0.86204 1.33203,-1.14649 0.55111,-0.28444 1.2006,-0.42578 1.94726,-0.42578 z m -35.339839,0.0254 2.613281,0 c 0.32,0 0.640937,0.14329 0.960937,0.42774 0.32,0.28444 0.480469,0.81738 0.480469,1.59961 0,0.76444 -0.14329,1.29738 -0.427734,1.59961 -0.266667,0.28444 -0.558907,0.42773 -0.878906,0.42773 l -2.748047,0 0,-4.05469 z m 52.396489,0 3.14648,0 c 0.32,0 0.64094,0.17765 0.96094,0.53321 0.32,0.33777 0.47851,0.83636 0.47851,1.49414 0,0.64 -0.14133,1.13858 -0.42578,1.49414 -0.26667,0.35555 -0.56086,0.5332 -0.88086,0.5332 l -3.27929,0 0,-4.05469 z"
         style="opacity:1;fill:url(#linearGradient4819);fill-opacity:1;stroke:none;stroke-width:3.64697337;stroke-miterlimit:4;stroke-dasharray:none;stroke-opacity:1"
         inkscape:connector-curvature="0" />
    </g>
  </g>
</svg>
