<?xml version="1.0" encoding="UTF-8" standalone="no"?>
<!-- Created with Inkscape (http://www.inkscape.org/) -->

<svg
   xmlns:dc="http://purl.org/dc/elements/1.1/"
   xmlns:cc="http://creativecommons.org/ns#"
   xmlns:rdf="http://www.w3.org/1999/02/22-rdf-syntax-ns#"
   xmlns:svg="http://www.w3.org/2000/svg"
   xmlns="http://www.w3.org/2000/svg"
   xmlns:sodipodi="http://sodipodi.sourceforge.net/DTD/sodipodi-0.dtd"
   xmlns:inkscape="http://www.inkscape.org/namespaces/inkscape"
   width="900"
   height="400"
   viewBox="0 0 900.00001 400.00001"
   id="svg2"
   version="1.1"
   inkscape:version="0.91 r13725"
   sodipodi:docname="h.svg"
   inkscape:export-filename="/home/ionicabizau/Documents/Resources/match/h.png"
   inkscape:export-xdpi="90"
   inkscape:export-ydpi="90">
  <defs
     id="defs4" />
  <sodipodi:namedview
     id="base"
     pagecolor="#ffffff"
     bordercolor="#666666"
     borderopacity="1.0"
     inkscape:pageopacity="0.0"
     inkscape:pageshadow="2"
     inkscape:zoom="1.1242998"
     inkscape:cx="527.45959"
     inkscape:cy="226.64185"
     inkscape:document-units="px"
     inkscape:current-layer="layer1"
     showgrid="false"
     units="px"
     inkscape:window-width="1920"
     inkscape:window-height="1060"
     inkscape:window-x="0"
     inkscape:window-y="0"
     inkscape:window-maximized="1" />
  <metadata
     id="metadata7">
    <rdf:RDF>
      <cc:Work
         rdf:about="">
        <dc:format>image/svg+xml</dc:format>
        <dc:type
           rdf:resource="http://purl.org/dc/dcmitype/StillImage" />
        <dc:title></dc:title>
      </cc:Work>
    </rdf:RDF>
  </metadata>
  <g
     inkscape:label="Layer 1"
     inkscape:groupmode="layer"
     id="layer1"
     transform="translate(0,-652.36216)">
    <g
       id="g5632"
       style="opacity:0.66">
      <rect
         ry="28.93082"
         rx="28.93082"
         y="674.62628"
         x="65.658928"
         height="103.9523"
         width="103.9523"
         id="rect4136"
         style="opacity:1;fill:#2ecc71;fill-opacity:1;stroke:none;stroke-width:2.5;stroke-miterlimit:4;stroke-dasharray:7.5, 2.50000000000000000;stroke-dashoffset:0;stroke-opacity:1" />
      <rect
         style="opacity:1;fill:#2ecc71;fill-opacity:1;stroke:none;stroke-width:2.5;stroke-miterlimit:4;stroke-dasharray:7.5, 2.50000000000000000;stroke-dashoffset:0;stroke-opacity:1"
         id="rect4146"
         width="103.9523"
         height="103.9523"
         x="730.38879"
         y="674.62628"
         rx="28.93082"
         ry="28.93082" />
      <rect
         ry="28.93082"
         rx="28.93082"
         y="800.38599"
         x="730.38879"
         height="103.9523"
         width="103.9523"
         id="rect4160"
         style="opacity:1;fill:#2ecc71;fill-opacity:1;stroke:none;stroke-width:2.5;stroke-miterlimit:4;stroke-dasharray:7.5, 2.50000000000000000;stroke-dashoffset:0;stroke-opacity:1" />
      <rect
         ry="28.93082"
         rx="28.93082"
         y="926.14569"
         x="65.658928"
         height="103.9523"
         width="103.9523"
         id="rect4162"
         style="opacity:1;fill:#2ecc71;fill-opacity:1;stroke:none;stroke-width:2.5;stroke-miterlimit:4;stroke-dasharray:7.5, 2.50000000000000000;stroke-dashoffset:0;stroke-opacity:1" />
      <rect
         style="opacity:1;fill:#2ecc71;fill-opacity:1;stroke:none;stroke-width:2.5;stroke-miterlimit:4;stroke-dasharray:7.5, 2.50000000000000000;stroke-dashoffset:0;stroke-opacity:1"
         id="rect4164"
         width="103.9523"
         height="103.9523"
         x="198.60489"
         y="926.14569"
         rx="28.93082"
         ry="28.93082" />
      <rect
         ry="28.93082"
         rx="28.93082"
         y="926.14569"
         x="331.55084"
         height="103.9523"
         width="103.9523"
         id="rect4166"
         style="opacity:1;fill:#2ecc71;fill-opacity:1;stroke:none;stroke-width:2.5;stroke-miterlimit:4;stroke-dasharray:7.5, 2.50000000000000000;stroke-dashoffset:0;stroke-opacity:1" />
      <rect
         ry="28.93082"
         rx="28.93082"
         y="926.14569"
         x="597.44281"
         height="103.9523"
         width="103.9523"
         id="rect4170"
         style="opacity:1;fill:#2ecc71;fill-opacity:1;stroke:none;stroke-width:2.5;stroke-miterlimit:4;stroke-dasharray:7.5, 2.50000000000000000;stroke-dashoffset:0;stroke-opacity:1" />
      <rect
         style="opacity:1;fill:#2ecc71;fill-opacity:1;stroke:none;stroke-width:2.5;stroke-miterlimit:4;stroke-dasharray:7.5, 2.50000000000000000;stroke-dashoffset:0;stroke-opacity:1"
         id="rect4172"
         width="103.9523"
         height="103.9523"
         x="730.38879"
         y="926.14569"
         rx="28.93082"
         ry="28.93082" />
      <path
         style="fill:#ecf0f1;fill-opacity:1"
         id="path4973"
         d="m 133.83881,943.09168 c -11.90547,0 -21.55445,9.64898 -21.55445,21.55444 0,1.65027 0.18523,3.25001 0.53886,4.79082 l -32.946311,32.93786 0,5.3886 5.38861,5.3886 10.77722,0 5.388611,-5.3886 0,-5.3886 5.38862,0 0,-5.38858 5.38861,0 0,-5.38861 10.77722,0 5.96116,-5.96115 c 1.57448,0.36204 3.20791,0.55569 4.89185,0.55569 11.90546,0 21.55444,-9.64898 21.55444,-21.55445 0,-11.90546 -9.6574,-21.54602 -21.55444,-21.54602 z m -21.63023,37.7287 -26.943061,26.94302 0,-5.3886 26.943061,-26.94303 0,5.38861 z m 26.94306,-16.16584 c -2.97216,0 -5.38861,-2.41646 -5.38861,-5.38861 0,-2.97216 2.41645,-5.38861 5.38861,-5.38861 2.97216,0 5.38861,2.41645 5.38861,5.38861 0,2.97215 -2.41645,5.38861 -5.38861,5.38861 z"
         inkscape:connector-curvature="0" />
      <path
         inkscape:connector-curvature="0"
         d="m 798.56867,817.33198 c -11.90547,0 -21.55445,9.64898 -21.55445,21.55444 0,1.65027 0.18523,3.25001 0.53886,4.79082 l -32.94631,32.93786 0,5.3886 5.38861,5.3886 10.77722,0 5.38861,-5.3886 0,-5.3886 5.38862,0 0,-5.38858 5.38861,0 0,-5.38861 10.77722,0 5.96116,-5.96115 c 1.57448,0.36204 3.20791,0.55569 4.89185,0.55569 11.90546,0 21.55444,-9.64898 21.55444,-21.55445 0,-11.90546 -9.6574,-21.54602 -21.55444,-21.54602 z m -21.63023,37.7287 -26.94306,26.94302 0,-5.3886 26.94306,-26.94303 0,5.38861 z m 26.94306,-16.16584 c -2.97216,0 -5.38861,-2.41646 -5.38861,-5.38861 0,-2.97216 2.41645,-5.38861 5.38861,-5.38861 2.97216,0 5.38861,2.41645 5.38861,5.38861 0,2.97215 -2.41645,5.38861 -5.38861,5.38861 z"
         id="path5536"
         style="fill:#ecf0f1;fill-opacity:1" />
    </g>
    <text
       xml:space="preserve"
       style="font-style:normal;font-weight:normal;font-size:40px;line-height:125%;font-family:sans-serif;letter-spacing:0px;word-spacing:0px;fill:#2c3e50;fill-opacity:1;stroke:none;stroke-width:1px;stroke-linecap:butt;stroke-linejoin:miter;stroke-opacity:1;"
       x="281.06375"
       y="773.20215"
       id="text5560"
       sodipodi:linespacing="125%"><tspan
         sodipodi:role="line"
         id="tspan5562"
         x="281.06375"
         y="773.20215"
         style="font-style:normal;font-variant:normal;font-weight:900;font-stretch:normal;font-size:80px;font-family:Raleway;-inkscape-font-specification:'Raleway Heavy';fill:#2c3e50;fill-opacity:1;">match.js</tspan></text>
    <text
       xml:space="preserve"
       style="font-style:normal;font-weight:normal;font-size:40px;line-height:125%;font-family:sans-serif;letter-spacing:0px;word-spacing:0px;fill:#2c3e50;fill-opacity:1;stroke:none;stroke-width:1px;stroke-linecap:butt;stroke-linejoin:miter;stroke-opacity:1"
       x="449.80905"
       y="837.50214"
       id="text5564"
       sodipodi:linespacing="125%"><tspan
         sodipodi:role="line"
         id="tspan5566"
         x="449.80905"
         y="837.50214"
         style="font-style:normal;font-variant:normal;font-weight:normal;font-stretch:normal;font-family:Raleway;-inkscape-font-specification:Raleway;text-align:center;text-anchor:middle">Simplest way to create</tspan><tspan
         sodipodi:role="line"
         x="449.80905"
         y="887.50214"
         id="tspan5568"
         style="font-style:normal;font-variant:normal;font-weight:normal;font-stretch:normal;font-family:Raleway;-inkscape-font-specification:Raleway;text-align:center;text-anchor:middle">match memory games.</tspan></text>
  </g>
</svg>
