<?xml version="1.0" encoding="UTF-8" standalone="no"?>
<!-- Created with Inkscape (http://www.inkscape.org/) -->

<svg
   xmlns:dc="http://purl.org/dc/elements/1.1/"
   xmlns:cc="http://creativecommons.org/ns#"
   xmlns:rdf="http://www.w3.org/1999/02/22-rdf-syntax-ns#"
   xmlns:svg="http://www.w3.org/2000/svg"
   xmlns="http://www.w3.org/2000/svg"
   xmlns:xlink="http://www.w3.org/1999/xlink"
   xmlns:sodipodi="http://sodipodi.sourceforge.net/DTD/sodipodi-0.dtd"
   xmlns:inkscape="http://www.inkscape.org/namespaces/inkscape"
   width="900"
   height="400"
   viewBox="0 0 900.00001 400.00001"
   id="svg2"
   version="1.1"
   inkscape:version="0.91 r13725"
   sodipodi:docname="h.svg"
   inkscape:export-filename="/home/ionicabizau/Documents/Resources/err/h.png"
   inkscape:export-xdpi="90"
   inkscape:export-ydpi="90">
  <defs
     id="defs4">
    <linearGradient
       id="linearGradient8796"
       inkscape:collect="always">
      <stop
         id="stop8798"
         offset="0"
         style="stop-color:#d35400;stop-opacity:1" />
      <stop
         id="stop8800"
         offset="1"
         style="stop-color:#e67e22;stop-opacity:1" />
    </linearGradient>
    <linearGradient
       id="linearGradient8790"
       inkscape:collect="always">
      <stop
         id="stop8792"
         offset="0"
         style="stop-color:#d35400;stop-opacity:1" />
      <stop
         id="stop8794"
         offset="1"
         style="stop-color:#e67e22;stop-opacity:1" />
    </linearGradient>
    <linearGradient
       inkscape:collect="always"
       id="linearGradient6633">
      <stop
         style="stop-color:#d35400;stop-opacity:1"
         offset="0"
         id="stop6635" />
      <stop
         style="stop-color:#e67e22;stop-opacity:1"
         offset="1"
         id="stop6637" />
    </linearGradient>
    <linearGradient
       inkscape:collect="always"
       xlink:href="#linearGradient6633"
       id="linearGradient6639"
       x1="284.83881"
       y1="714.14996"
       x2="284.83881"
       y2="929.33514"
       gradientUnits="userSpaceOnUse" />
    <linearGradient
       inkscape:collect="always"
       xlink:href="#linearGradient8790"
       id="linearGradient6659"
       gradientUnits="userSpaceOnUse"
       x1="392.61325"
       y1="720.38489"
       x2="184.19838"
       y2="928.79974"
       gradientTransform="matrix(0.70414202,0,0,0.70414202,87.73705,173.42508)" />
    <linearGradient
       inkscape:collect="always"
       xlink:href="#linearGradient8796"
       id="linearGradient6667"
       gradientUnits="userSpaceOnUse"
       x1="180.62718"
       y1="716.82208"
       x2="393.24042"
       y2="927.55377"
       gradientTransform="matrix(0.70414202,0,0,0.70414202,407.73705,173.42508)" />
  </defs>
  <sodipodi:namedview
     id="base"
     pagecolor="#ffffff"
     bordercolor="#666666"
     borderopacity="1.0"
     inkscape:pageopacity="0.0"
     inkscape:pageshadow="2"
     inkscape:zoom="1.5944444"
     inkscape:cx="449.88088"
     inkscape:cy="199.6265"
     inkscape:document-units="px"
     inkscape:current-layer="layer1"
     showgrid="false"
     units="px"
     inkscape:window-width="1920"
     inkscape:window-height="1056"
     inkscape:window-x="0"
     inkscape:window-y="24"
     inkscape:window-maximized="1" />
  <metadata
     id="metadata7">
    <rdf:RDF>
      <cc:Work
         rdf:about="">
        <dc:format>image/svg+xml</dc:format>
        <dc:type
           rdf:resource="http://purl.org/dc/dcmitype/StillImage" />
        <dc:title></dc:title>
      </cc:Work>
    </rdf:RDF>
  </metadata>
  <g
     inkscape:label="Layer 1"
     inkscape:groupmode="layer"
     id="layer1"
     transform="translate(0,-652.36214)">
    <g
       id="g8825"
       transform="translate(0,6.433746)">
      <text
         sodipodi:linespacing="125%"
         id="text6645"
         y="871.14667"
         x="396.00446"
         style="font-style:normal;font-weight:normal;font-size:74.50793457px;line-height:125%;font-family:sans-serif;letter-spacing:0px;word-spacing:0px;fill:#e67e22;fill-opacity:1;stroke:none;stroke-width:1px;stroke-linecap:butt;stroke-linejoin:miter;stroke-opacity:1"
         xml:space="preserve"><tspan
           style="font-style:normal;font-variant:normal;font-weight:900;font-stretch:normal;font-family:Raleway;-inkscape-font-specification:'Raleway Heavy';fill:#e67e22"
           y="871.14667"
           x="396.00446"
           id="tspan6647"
           sodipodi:role="line">err</tspan></text>
      <text
         sodipodi:linespacing="125%"
         id="text6649"
         y="865.8866"
         x="163.61253"
         style="font-style:normal;font-weight:normal;font-size:21.71224785px;line-height:125%;font-family:sans-serif;letter-spacing:0px;word-spacing:0px;opacity:0.27800024;fill:#000000;fill-opacity:1;stroke:none;stroke-width:1px;stroke-linecap:butt;stroke-linejoin:miter;stroke-opacity:1"
         xml:space="preserve"><tspan
           style="font-style:normal;font-variant:normal;font-weight:900;font-stretch:normal;font-size:50.88808441px;font-family:Raleway;-inkscape-font-specification:'Raleway Heavy';fill:#bdc3c7"
           y="865.8866"
           x="163.61253"
           id="tspan6651"
           sodipodi:role="line">require(&quot;           &quot;)</tspan></text>
    </g>
    <g
       id="g8814"
       transform="matrix(0.96590914,0,0,0.96590914,15.340907,5.6486962)">
      <g
         transform="matrix(0.52071011,0,0,0.52071011,300.42739,324.24058)"
         id="g6641">
        <rect
           rx="65.226479"
           style="opacity:1;fill:url(#linearGradient6639);fill-opacity:1;stroke:none;stroke-width:1.00157475;stroke-miterlimit:4;stroke-dasharray:none;stroke-opacity:1"
           id="rect6631"
           width="211.98607"
           height="211.98607"
           x="181.25435"
           y="716.19489"
           ry="65.226479" />
        <path
           inkscape:connector-curvature="0"
           d="M 366.37656,873.39729 296.22109,750.70203 c -1.8435,-3.17492 -5.22326,-5.12083 -8.91026,-5.12083 -3.687,0 -7.06675,1.94591 -8.91026,5.12083 l -70.15546,122.69526 c -1.84351,3.17492 -1.84351,7.06676 0,10.24168 1.94591,3.17492 5.32567,5.12083 8.91025,5.12083 l 140.31094,0 c 3.687,0 7.06676,-1.94591 8.80784,-5.12083 1.74108,-3.17492 1.8435,-7.06676 0.10242,-10.24168 z m -68.82405,-5.12084 -20.48335,0 0,-20.48334 20.48335,0 0,20.48334 z m 0,-30.72502 -20.48335,0 0,-40.9667 20.48335,0 0,40.9667 z"
           id="path6066"
           style="fill:#ecf0f1" />
      </g>
      <g
         transform="matrix(0.73949586,0,0,0.73949586,117.22686,195.99345)"
         id="g8810">
        <rect
           ry="45.928703"
           y="677.72797"
           x="215.36586"
           height="149.2683"
           width="149.2683"
           id="rect6655"
           style="opacity:1;fill:url(#linearGradient6659);fill-opacity:1;stroke:none;stroke-width:1.00157475;stroke-miterlimit:4;stroke-dasharray:none;stroke-opacity:1"
           rx="45.928703" />
        <path
           inkscape:connector-curvature="0"
           d="m 300.70903,752.36225 27.13435,27.13406 -10.70903,10.70902 -27.13434,-27.13434 -27.13434,27.13434 -10.70903,-10.70902 27.13435,-27.13406 -27.13435,-27.13434 10.70903,-10.70902 27.13434,27.13434 27.13434,-27.13434 10.70903,10.70902 -27.13435,27.13434 z"
           id="path6714"
           style="fill:#ecf0f1" />
      </g>
      <g
         transform="matrix(0.73949586,0,0,0.73949586,117.22686,195.99345)"
         id="g8806">
        <rect
           rx="45.928703"
           style="opacity:1;fill:url(#linearGradient6667);fill-opacity:1;stroke:none;stroke-width:1.00157475;stroke-miterlimit:4;stroke-dasharray:none;stroke-opacity:1"
           id="rect6663"
           width="149.2683"
           height="149.2683"
           x="535.36584"
           y="677.72797"
           ry="45.928703" />
        <path
           inkscape:connector-curvature="0"
           d="m 609.99999,713.97719 c 21.14538,0 38.38492,17.23954 38.38492,38.38492 0,21.14538 -17.23954,38.38492 -38.38492,38.38492 -21.14538,0 -38.38492,-17.23954 -38.38492,-38.38492 0,-21.14538 17.23954,-38.38492 38.38492,-38.38492 m 0,-8.75445 c -25.994,0 -47.13937,21.14537 -47.13937,47.13937 0,25.994 21.14537,47.13937 47.13937,47.13937 25.994,0 47.13937,-21.14537 47.13937,-47.13937 0,-25.994 -21.14537,-47.13937 -47.13937,-47.13937 z m 6.7342,20.20259 -13.4684,0 0,33.67098 13.4684,0 0,-33.67098 z m 0,40.40517 -13.4684,0 0,13.46839 13.4684,0 0,-13.46839 z"
           id="path8227"
           style="fill:#ecf0f1" />
      </g>
    </g>
    <text
       xml:space="preserve"
       style="font-style:normal;font-weight:normal;font-size:26.66666603px;line-height:125%;font-family:sans-serif;letter-spacing:0px;word-spacing:0px;fill:#000000;fill-opacity:1;stroke:none;stroke-width:1px;stroke-linecap:butt;stroke-linejoin:miter;stroke-opacity:1"
       x="155.37021"
       y="960.5921"
       id="text8802"
       sodipodi:linespacing="125%"><tspan
         sodipodi:role="line"
         id="tspan8804"
         x="155.37021"
         y="960.5921"
         style="font-style:normal;font-variant:normal;font-weight:100;font-stretch:normal;font-family:Raleway;-inkscape-font-specification:'Raleway Thin';fill:#2c3e50">A tiny library to create custom errors in JavaScript..</tspan></text>
  </g>
</svg>
