<?xml version="1.0" encoding="UTF-8" standalone="no"?>
<!-- Created with Inkscape (http://www.inkscape.org/) -->

<svg
   xmlns:dc="http://purl.org/dc/elements/1.1/"
   xmlns:cc="http://creativecommons.org/ns#"
   xmlns:rdf="http://www.w3.org/1999/02/22-rdf-syntax-ns#"
   xmlns:svg="http://www.w3.org/2000/svg"
   xmlns="http://www.w3.org/2000/svg"
   xmlns:sodipodi="http://sodipodi.sourceforge.net/DTD/sodipodi-0.dtd"
   xmlns:inkscape="http://www.inkscape.org/namespaces/inkscape"
   width="900"
   height="400"
   viewBox="0 0 900.00001 400.00001"
   id="svg2"
   version="1.1"
   inkscape:version="0.91 r13725"
   sodipodi:docname="h.svg"
   inkscape:export-filename="/home/ionicabizau/Documents/Resources/rucksack/h.png"
   inkscape:export-xdpi="90"
   inkscape:export-ydpi="90">
  <defs
     id="defs4" />
  <sodipodi:namedview
     id="base"
     pagecolor="#ffffff"
     bordercolor="#666666"
     borderopacity="1.0"
     inkscape:pageopacity="0.0"
     inkscape:pageshadow="2"
     inkscape:zoom="1.4"
     inkscape:cx="429.50927"
     inkscape:cy="243.09585"
     inkscape:document-units="px"
     inkscape:current-layer="layer1"
     showgrid="false"
     units="px"
     inkscape:window-width="1920"
     inkscape:window-height="1060"
     inkscape:window-x="0"
     inkscape:window-y="0"
     inkscape:window-maximized="1" />
  <metadata
     id="metadata7">
    <rdf:RDF>
      <cc:Work
         rdf:about="">
        <dc:format>image/svg+xml</dc:format>
        <dc:type
           rdf:resource="http://purl.org/dc/dcmitype/StillImage" />
        <dc:title />
      </cc:Work>
    </rdf:RDF>
  </metadata>
  <g
     inkscape:label="Layer 1"
     inkscape:groupmode="layer"
     id="layer1"
     transform="translate(0,-652.36216)">
    <g
       id="g8294"
       transform="matrix(1.119629,0,0,1.119629,-53.833049,-125.8758)">
      <g
         transform="matrix(0.73380031,0,0,0.73380031,134.51828,226.81994)"
         id="g8243">
        <g
           id="g5891"
           transform="translate(-20,0)">
          <rect
             y="818.07648"
             x="540"
             height="102.85714"
             width="27.857143"
             id="rect5889"
             style="opacity:1;fill:#2c3e50;fill-opacity:1;stroke:none;stroke-width:1.10000002;stroke-miterlimit:4;stroke-dasharray:none;stroke-dashoffset:0;stroke-opacity:1"
             rx="4.3992767"
             ry="4.3992767" />
          <rect
             ry="4.3992767"
             rx="4.3992767"
             style="opacity:1;fill:#34495e;fill-opacity:1;stroke:none;stroke-width:1.10000002;stroke-miterlimit:4;stroke-dasharray:none;stroke-dashoffset:0;stroke-opacity:1"
             id="rect4224"
             width="27.857143"
             height="102.85714"
             x="540"
             y="816.07648" />
        </g>
        <g
           id="g5895"
           transform="translate(-228,0)">
          <rect
             ry="4.3992767"
             rx="4.3992767"
             style="opacity:1;fill:#2c3e50;fill-opacity:1;stroke:none;stroke-width:1.10000002;stroke-miterlimit:4;stroke-dasharray:none;stroke-dashoffset:0;stroke-opacity:1"
             id="rect5897"
             width="27.857143"
             height="102.85714"
             x="540"
             y="818.07648" />
          <rect
             y="816.07648"
             x="540"
             height="102.85714"
             width="27.857143"
             id="rect5899"
             style="opacity:1;fill:#34495e;fill-opacity:1;stroke:none;stroke-width:1.10000002;stroke-miterlimit:4;stroke-dasharray:none;stroke-dashoffset:0;stroke-opacity:1"
             rx="4.3992767"
             ry="4.3992767" />
        </g>
        <g
           id="g8203"
           transform="translate(-20.071411,0)">
          <g
             id="g8189">
            <g
               id="g8185">
              <rect
                 style="opacity:1;fill:#2c3e50;fill-opacity:1;stroke:none;stroke-width:1.10000002;stroke-miterlimit:4;stroke-dasharray:none;stroke-dashoffset:0;stroke-opacity:1"
                 id="rect4142"
                 width="207.05357"
                 height="89.285713"
                 x="346.46429"
                 y="888.68359"
                 ry="13.892454"
                 rx="13.892454" />
              <rect
                 rx="13.892454"
                 ry="13.892454"
                 y="884.68359"
                 x="346.46429"
                 height="89.285713"
                 width="207.05357"
                 id="rect4140"
                 style="opacity:1;fill:#34495e;fill-opacity:1;stroke:none;stroke-width:1.10000002;stroke-miterlimit:4;stroke-dasharray:none;stroke-dashoffset:0;stroke-opacity:1" />
            </g>
            <rect
               style="opacity:1;fill:#2c3e50;fill-opacity:1;stroke:none;stroke-width:1.10000002;stroke-miterlimit:4;stroke-dasharray:none;stroke-dashoffset:0;stroke-opacity:1"
               id="rect4138"
               width="207.08127"
               height="151.40904"
               x="346.45938"
               y="790.77325" />
          </g>
          <g
             transform="translate(-1.5261992e-5,0)"
             id="g8177">
            <g
               id="g4194"
               style="fill:#e74c3c">
              <rect
                 rx="20.144058"
                 y="762.77325"
                 x="346.45938"
                 height="113.13709"
                 width="207.08127"
                 id="rect4178"
                 style="opacity:1;fill:#e74c3c;fill-opacity:1;stroke:none;stroke-width:1.10000002;stroke-miterlimit:4;stroke-dasharray:none;stroke-dashoffset:0;stroke-opacity:1"
                 ry="20.144058" />
              <rect
                 ry="0"
                 style="opacity:1;fill:#e74c3c;fill-opacity:1;stroke:none;stroke-width:1.10000002;stroke-miterlimit:4;stroke-dasharray:none;stroke-dashoffset:0;stroke-opacity:1"
                 id="rect4144"
                 width="207.08127"
                 height="144.62334"
                 x="346.45938"
                 y="793.77325" />
            </g>
            <g
               id="g4206"
               transform="matrix(1.0454545,0,0,1,-25.160937,0)">
              <rect
                 ry="20.144058"
                 style="opacity:1;fill:#c0392b;fill-opacity:1;stroke:none;stroke-width:1.10000002;stroke-miterlimit:4;stroke-dasharray:none;stroke-dashoffset:0;stroke-opacity:1"
                 id="rect4200"
                 width="98.994949"
                 height="113.13709"
                 x="454.54572"
                 y="762.77325"
                 rx="19.268227" />
              <rect
                 y="793.77325"
                 x="453.53555"
                 height="144.62334"
                 width="100.0051"
                 id="rect4202"
                 style="opacity:1;fill:#c0392b;fill-opacity:1;stroke:none;stroke-width:1.10000002;stroke-miterlimit:4;stroke-dasharray:none;stroke-dashoffset:0;stroke-opacity:1"
                 ry="0" />
            </g>
          </g>
          <g
             transform="translate(-0.35714722,0)"
             id="g8165">
            <rect
               ry="7.8723841"
               rx="7.8723841"
               style="opacity:1;fill:#2c3e50;fill-opacity:1;stroke:none;stroke-width:1.10000002;stroke-miterlimit:4;stroke-dasharray:none;stroke-dashoffset:0;stroke-opacity:1"
               id="rect4232"
               width="32.5"
               height="120"
               x="-759.46924"
               y="390.35715"
               transform="matrix(0,-1,1,0,0,0)" />
            <rect
               transform="matrix(0,-1,1,0,0,0)"
               y="409.77658"
               x="-755.79071"
               height="83.661079"
               width="15.714286"
               id="rect4234"
               style="opacity:1;fill:#ffffff;fill-opacity:1;stroke:none;stroke-width:1.10000002;stroke-miterlimit:4;stroke-dasharray:none;stroke-dashoffset:0;stroke-opacity:1"
               rx="4.3992767"
               ry="4.3992767" />
          </g>
          <g
             transform="translate(39.999992,0)"
             id="g8199">
            <rect
               y="787.86218"
               x="423.21429"
               height="99.285713"
               width="13.571428"
               id="rect4154"
               style="opacity:1;fill:#2c3e50;fill-opacity:1;stroke:none;stroke-width:1.10000002;stroke-miterlimit:4;stroke-dasharray:none;stroke-dashoffset:0;stroke-opacity:1"
               rx="0.81862068"
               ry="0.81862068" />
            <rect
               style="opacity:1;fill:#1abc9c;fill-opacity:1;stroke:none;stroke-width:1.10000002;stroke-miterlimit:4;stroke-dasharray:none;stroke-dashoffset:0;stroke-opacity:1"
               id="rect4172"
               width="26.011429"
               height="12.626906"
               x="416.99429"
               y="866.19208"
               rx="0.57303441"
               ry="0.57303441" />
          </g>
          <g
             transform="translate(-40.000008,0)"
             id="g8195">
            <rect
               ry="0.81862068"
               rx="0.81862068"
               style="opacity:1;fill:#2c3e50;fill-opacity:1;stroke:none;stroke-width:1.10000002;stroke-miterlimit:4;stroke-dasharray:none;stroke-dashoffset:0;stroke-opacity:1"
               id="rect4216"
               width="13.571428"
               height="99.285713"
               x="463.21429"
               y="787.86218" />
            <rect
               ry="0.57303441"
               rx="0.57303441"
               y="866.19208"
               x="456.99429"
               height="12.626906"
               width="26.011429"
               id="rect4236"
               style="opacity:1;fill:#1abc9c;fill-opacity:1;stroke:none;stroke-width:1.10000002;stroke-miterlimit:4;stroke-dasharray:none;stroke-dashoffset:0;stroke-opacity:1" />
          </g>
          <g
             transform="translate(0.00446701,0)"
             id="g8169">
            <g
               style="fill:#16a085"
               transform="translate(0,-26)"
               id="g5883">
              <rect
                 style="opacity:1;fill:#16a085;fill-opacity:1;stroke:none;stroke-width:1.10000002;stroke-miterlimit:4;stroke-dasharray:none;stroke-dashoffset:0;stroke-opacity:1"
                 id="rect5885"
                 width="169.19643"
                 height="72.960945"
                 x="365.39285"
                 y="776.84601"
                 ry="2.455862"
                 rx="2.455862" />
              <rect
                 rx="12.96629"
                 ry="12.96629"
                 y="819.91742"
                 x="365.39285"
                 height="47.246658"
                 width="169.19643"
                 id="rect5887"
                 style="opacity:1;fill:#16a085;fill-opacity:1;stroke:none;stroke-width:1.10000002;stroke-miterlimit:4;stroke-dasharray:none;stroke-dashoffset:0;stroke-opacity:1" />
            </g>
            <g
               id="g4182"
               transform="translate(0.00893402,-28)"
               style="fill:#1abc9c">
              <rect
                 rx="2.455862"
                 ry="2.455862"
                 y="776.84601"
                 x="365.39285"
                 height="72.960945"
                 width="169.19643"
                 id="rect4148"
                 style="opacity:1;fill:#1abc9c;fill-opacity:1;stroke:none;stroke-width:1.10000002;stroke-miterlimit:4;stroke-dasharray:none;stroke-dashoffset:0;stroke-opacity:1" />
              <rect
                 style="opacity:1;fill:#1abc9c;fill-opacity:1;stroke:none;stroke-width:1.10000002;stroke-miterlimit:4;stroke-dasharray:none;stroke-dashoffset:0;stroke-opacity:1"
                 id="rect4180"
                 width="169.19643"
                 height="47.246658"
                 x="365.39285"
                 y="819.91742"
                 ry="12.96629"
                 rx="12.96629" />
            </g>
          </g>
          <g
             transform="translate(2.020297,0)"
             id="g8159">
            <circle
               r="11.428572"
               cy="862.40198"
               cx="325.79739"
               id="circle5876"
               style="opacity:1;fill:#2c3e50;fill-opacity:1;stroke:none;stroke-width:1.10000002;stroke-miterlimit:4;stroke-dasharray:none;stroke-dashoffset:0;stroke-opacity:1"
               transform="matrix(0.98535768,-0.17049996,0.17049996,0.98535768,0,0)" />
            <circle
               style="opacity:1;fill:#34495e;fill-opacity:1;stroke:none;stroke-width:1.10000002;stroke-miterlimit:4;stroke-dasharray:none;stroke-dashoffset:0;stroke-opacity:1"
               id="path5859"
               cx="325.79739"
               cy="861.38422"
               r="11.428572"
               transform="matrix(0.98535768,-0.17049996,0.17049996,0.98535768,0,0)" />
            <path
               style="fill:#bdc3c7"
               id="path8149"
               d="m 469.34775,788.79053 -1.10386,1.56579 3.65352,2.57565 -2.57566,3.65351 1.56579,1.10385 3.23457,-5.14231 -4.77436,-3.75649 z m -4.4494,0.76989 -3.23457,5.14231 4.77436,3.7565 1.10385,-1.5658 -3.65351,-2.57564 2.57566,-3.65351 -1.56579,-1.10386 z"
               inkscape:connector-curvature="0" />
            <path
               inkscape:connector-curvature="0"
               d="m 469.34775,788.38877 -1.10386,1.56579 3.65352,2.57565 -2.57566,3.65351 1.56579,1.10385 3.23457,-5.14231 -4.77436,-3.75649 z m -4.4494,0.76989 -3.23457,5.14231 4.77436,3.7565 1.10385,-1.5658 -3.65351,-2.57564 2.57566,-3.65351 -1.56579,-1.10386 z"
               id="path5311"
               style="fill:#ecf0f1" />
          </g>
          <g
             transform="translate(-9.9796936,-1.3901491e-5)"
             id="g8153">
            <circle
               style="opacity:1;fill:#2c3e50;fill-opacity:1;stroke:none;stroke-width:1.10000002;stroke-miterlimit:4;stroke-dasharray:none;stroke-dashoffset:0;stroke-opacity:1"
               id="circle5903"
               cx="298.20737"
               cy="857.62799"
               r="11.428572"
               transform="matrix(0.98535768,-0.17049996,0.17049996,0.98535768,0,0)" />
            <circle
               r="11.428572"
               cy="856.61023"
               cx="298.20737"
               id="circle5905"
               style="opacity:1;fill:#34495e;fill-opacity:1;stroke:none;stroke-width:1.10000002;stroke-miterlimit:4;stroke-dasharray:none;stroke-dashoffset:0;stroke-opacity:1"
               transform="matrix(0.98535768,-0.17049996,0.17049996,0.98535768,0,0)" />
            <path
               style="fill:#bdc3c7"
               id="path8151"
               d="m 443.04377,798.59448 c 1.16719,-0.25355 2.04196,-1.35229 2.04196,-2.5964 0,-0.79025 -0.36005,-1.48921 -0.91787,-1.96589 0.0321,-0.20622 0.0524,-0.41583 0.0524,-0.6305 0,-1.4178 -0.67446,-2.67585 -1.73093,-3.46187 l 0.86546,-0.86547 0,-0.86546 0.86547,-0.86547 -0.86547,-0.86546 -0.86546,0.86546 -0.86547,0 -3.46186,3.46187 -1.73093,0.86546 0,1.73094 0.86546,0.86546 1.73094,0 0.86546,-1.73093 1.2982,-1.2982 c 0.75052,0.45175 1.2982,1.22298 1.2982,2.16367 -1.43427,0 -2.5964,1.16213 -2.5964,2.59639 l -5.1928,0 0,0.86547 2.5964,0 c 0.25863,0.1927 0.5688,0.29919 0.86547,0.43273 l 0,1.2982 -1.73093,0 -1.73094,1.73093 10.3856,0 -1.73094,-1.73093 -0.31102,0 z m -1.41991,-2.5964 c 0,-0.47837 0.3871,-0.86546 0.86547,-0.86546 0.47837,0 0.86546,0.38709 0.86546,0.86546 0,0.47752 -0.38709,0.86547 -0.86546,0.86547 -0.47837,0 -0.86547,-0.38795 -0.86547,-0.86547 z"
               inkscape:connector-curvature="0" />
            <path
               inkscape:connector-curvature="0"
               d="m 443.04377,798.41592 c 1.16719,-0.25355 2.04196,-1.35229 2.04196,-2.5964 0,-0.79025 -0.36005,-1.48921 -0.91787,-1.96589 0.0321,-0.20622 0.0524,-0.41583 0.0524,-0.6305 0,-1.4178 -0.67446,-2.67585 -1.73093,-3.46187 l 0.86546,-0.86547 0,-0.86546 0.86547,-0.86547 -0.86547,-0.86546 -0.86546,0.86546 -0.86547,0 -3.46186,3.46187 -1.73093,0.86546 0,1.73094 0.86546,0.86546 1.73094,0 0.86546,-1.73093 1.2982,-1.2982 c 0.75052,0.45175 1.2982,1.22298 1.2982,2.16367 -1.43427,0 -2.5964,1.16213 -2.5964,2.59639 l -5.1928,0 0,0.86547 2.5964,0 c 0.25863,0.1927 0.5688,0.29919 0.86547,0.43273 l 0,1.2982 -1.73093,0 -1.73094,1.73093 10.3856,0 -1.73094,-1.73093 -0.31102,0 z m -1.41991,-2.5964 c 0,-0.47837 0.3871,-0.86546 0.86547,-0.86546 0.47837,0 0.86546,0.38709 0.86546,0.86546 0,0.47752 -0.38709,0.86547 -0.86546,0.86547 -0.47837,0 -0.86547,-0.38795 -0.86547,-0.86547 z"
               id="path7583"
               style="fill:#ecf0f1" />
          </g>
        </g>
      </g>
      <text
         sodipodi:linespacing="125%"
         id="text8290"
         y="986.76215"
         x="362.47781"
         style="font-style:normal;font-weight:normal;font-size:40px;line-height:125%;font-family:sans-serif;letter-spacing:0px;word-spacing:0px;fill:#2c3e50;fill-opacity:1;stroke:none;stroke-width:1px;stroke-linecap:butt;stroke-linejoin:miter;stroke-opacity:1"
         xml:space="preserve"><tspan
           style="font-style:normal;font-variant:normal;font-weight:100;font-stretch:normal;font-family:Raleway;-inkscape-font-specification:'Raleway Thin';fill:#2c3e50"
           y="986.76215"
           x="362.47781"
           id="tspan8292"
           sodipodi:role="line">Rucksack</tspan></text>
    </g>
  </g>
</svg>
