<?xml version="1.0" encoding="UTF-8" standalone="no"?>
<!-- Created with Inkscape (http://www.inkscape.org/) -->

<svg
   xmlns:dc="http://purl.org/dc/elements/1.1/"
   xmlns:cc="http://creativecommons.org/ns#"
   xmlns:rdf="http://www.w3.org/1999/02/22-rdf-syntax-ns#"
   xmlns:svg="http://www.w3.org/2000/svg"
   xmlns="http://www.w3.org/2000/svg"
   xmlns:xlink="http://www.w3.org/1999/xlink"
   xmlns:sodipodi="http://sodipodi.sourceforge.net/DTD/sodipodi-0.dtd"
   xmlns:inkscape="http://www.inkscape.org/namespaces/inkscape"
   width="900"
   height="400"
   viewBox="0 0 238.12499 105.83334"
   id="svg4638"
   version="1.1"
   inkscape:version="0.91+devel r"
   sodipodi:docname="h.svg"
   inkscape:export-filename="/home/ionicabizau/Documents/Resources/ruut.js/h.png"
   inkscape:export-xdpi="96"
   inkscape:export-ydpi="96">
  <defs
     id="defs4640">
    <linearGradient
       inkscape:collect="always"
       id="linearGradient5199">
      <stop
         style="stop-color:#3498db;stop-opacity:1"
         offset="0"
         id="stop5201" />
      <stop
         style="stop-color:#2980b9;stop-opacity:1"
         offset="1"
         id="stop5203" />
    </linearGradient>
    <linearGradient
       inkscape:collect="always"
       xlink:href="#linearGradient5199"
       id="linearGradient5205"
       x1="90.714287"
       y1="194.56842"
       x2="147.41072"
       y2="250.88687"
       gradientUnits="userSpaceOnUse"
       gradientTransform="translate(-2.7656554e-7,-3.066174)" />
  </defs>
  <sodipodi:namedview
     id="base"
     pagecolor="#ffffff"
     bordercolor="#666666"
     borderopacity="1.0"
     inkscape:pageopacity="0.0"
     inkscape:pageshadow="2"
     inkscape:zoom="1.4"
     inkscape:cx="476.63651"
     inkscape:cy="256.43244"
     inkscape:document-units="mm"
     inkscape:current-layer="layer1"
     showgrid="false"
     units="px"
     inkscape:window-width="1920"
     inkscape:window-height="1056"
     inkscape:window-x="0"
     inkscape:window-y="24"
     inkscape:window-maximized="1" />
  <metadata
     id="metadata4643">
    <rdf:RDF>
      <cc:Work
         rdf:about="">
        <dc:format>image/svg+xml</dc:format>
        <dc:type
           rdf:resource="http://purl.org/dc/dcmitype/StillImage" />
        <dc:title></dc:title>
      </cc:Work>
    </rdf:RDF>
  </metadata>
  <g
     inkscape:label="Layer 1"
     inkscape:groupmode="layer"
     id="layer1"
     transform="translate(0,-191.16664)">
    <g
       id="g5211"
       transform="translate(2.7656554e-7,3.066174)">
      <path
         style="fill:url(#linearGradient5205);fill-opacity:1;stroke-width:0.26458332"
         inkscape:connector-curvature="0"
         id="path4621"
         d="m 119.0625,199.93568 c -15.61451,0 -28.27262,12.65811 -28.27262,28.27262 0,15.61451 12.65811,28.27262 28.27262,28.27262 1.91083,0 3.77727,-0.1901 5.58178,-0.55146 -0.72736,-0.34789 -0.80673,-2.95788 -0.0875,-4.44594 0.80069,-1.6566 3.3132,-5.85332 0.8283,-7.26143 -2.4849,-1.40811 -1.79465,-2.04314 -3.3132,-3.67213 -1.51854,-1.62899 -0.8975,-1.87387 -0.99396,-2.29163 -0.33132,-1.43571 1.46333,-3.58929 1.54616,-3.81017 0.0828,-0.22088 0.0828,-1.04918 0.0552,-1.29767 -0.0276,-0.24849 -1.13193,-0.91113 -1.40803,-0.93874 -0.2761,-0.0276 -0.41415,0.44176 -0.80069,0.46937 -0.38654,0.0276 -2.07075,-1.02157 -2.42968,-1.29767 -0.35893,-0.2761 -0.52459,-0.93874 -1.02157,-1.43572 -0.49698,-0.49698 -0.5522,-0.11044 -1.32528,-0.41415 -0.77308,-0.30371 -3.25798,-1.21484 -5.16307,-1.98792 -1.90508,-0.77308 -2.07074,-1.85679 -2.09835,-2.62294 -0.0276,-0.76616 -1.15962,-1.87748 -1.69054,-2.67817 -0.53078,-0.80069 -0.6287,-1.90509 -0.82197,-1.6566 -0.19327,0.24849 0.99396,3.14754 0.80069,3.23037 -0.19327,0.0828 -0.60742,-0.80069 -1.15962,-1.51855 -0.5522,-0.71786 0.57981,-0.33132 -1.18723,-3.81018 -1.76704,-3.47886 0.5522,-5.25282 0.66264,-7.06815 0.11044,-1.81534 1.49094,0.66263 0.77308,-0.49699 -0.71786,-1.15962 0.0552,-3.58929 -0.49698,-4.47281 -0.5522,-0.88352 -3.69974,0.99396 -3.69974,0.99396 0.0828,-0.85591 2.761,-2.31924 4.6937,-3.67213 1.9327,-1.35289 3.113,-0.30371 4.66608,0.19327 1.55308,0.49698 1.6566,0.33132 1.13201,-0.16566 -0.52458,-0.49698 0.22088,-0.74547 1.43572,-0.5522 1.21484,0.19327 1.54616,1.6566 3.39603,1.51855 1.84987,-0.13805 0.19327,0.35893 0.44176,0.8283 0.24849,0.46937 -0.2761,0.41415 -1.49094,1.24245 -1.21484,0.8283 0.0276,0.8283 2.18119,2.40207 2.15358,1.57377 1.49094,-1.04918 1.27006,-2.2088 -0.22088,-1.15962 1.57377,-0.24849 1.57377,-0.24849 1.32528,0.88352 1.08039,0.0486 2.04674,0.3523 0.96635,0.30371 3.58569,2.51914 3.58569,2.51914 -3.28558,1.79465 -1.21483,1.98791 -0.66264,2.40206 0.55221,0.41415 -1.13201,1.21484 -1.13201,1.21484 -0.69025,-0.69025 -0.80068,0.0276 -1.24244,0.2761 -0.44176,0.24849 -0.0276,0.88352 -0.0276,0.88352 -2.28471,0.35893 -1.76704,2.761 -1.73943,3.34081 0.0276,0.57981 -1.46333,1.46333 -1.84987,2.29163 -0.38654,0.8283 0.99396,2.62295 0.2761,2.73339 -0.71786,0.11044 -1.43572,-2.70578 -5.30111,-1.6566 -1.16536,0.31637 -3.75496,1.6566 -2.37446,4.38998 1.3805,2.73339 3.67213,-0.77307 4.4452,-0.38653 0.77309,0.38653 -0.22087,2.12596 -0.0552,2.15357 0.16566,0.0276 2.18119,0.0759 2.29162,2.42968 0.11044,2.35377 3.06471,2.15358 3.69974,2.2088 0.63503,0.0552 2.761,-1.73943 3.06471,-1.82226 0.30371,-0.0828 1.51855,-1.1044 4.16911,0.41415 2.65055,1.51855 4.00344,1.29767 4.91457,1.9327 0.91113,0.63503 0.2761,1.90509 1.13201,2.31924 0.85591,0.41415 4.27955,-0.13805 5.13546,1.27006 0.85591,1.40811 -3.53408,8.47626 -4.91458,9.24934 -1.3805,0.77308 -2.01553,2.54012 -3.39603,3.67213 -1.38049,1.13201 -3.31319,2.53319 -5.13545,3.61691 -1.61301,0.95913 -1.90325,2.67743 -2.62177,3.21983 12.65309,-2.81084 22.11441,-14.10001 22.11441,-27.59945 0,-15.61451 -12.65811,-28.27262 -28.27262,-28.27262 z m 6.62639,26.53319 c -0.38653,0.11044 -1.18723,0.8283 -3.14753,-0.33132 -1.96031,-1.15961 -3.3132,-0.93873 -3.47886,-1.132 0,0 -0.16566,-0.46937 0.69025,-0.5522 1.75754,-0.17016 3.97584,1.62899 4.47282,1.6566 0.49697,0.0276 0.74546,-0.49698 1.62898,-0.21227 0.88352,0.28442 0.22088,0.46075 -0.16566,0.57119 z m -9.24934,-23.71697 c -0.19253,-0.14003 0.15947,-0.30128 0.36931,-0.57981 0.12112,-0.16095 0.0313,-0.42814 0.18289,-0.57981 0.41415,-0.41415 2.45729,-0.99396 2.05779,0.13805 -0.39935,1.13201 -2.30628,1.24245 -2.60999,1.02157 z m 4.94219,3.5893 c -0.69025,-0.0276 -2.31504,-0.19931 -2.01553,-0.49698 1.16654,-1.15962 -0.44176,-1.49094 -1.43572,-1.57377 -0.99396,-0.0828 -1.40811,-0.63503 -0.91113,-0.69025 0.49698,-0.0552 2.4849,0.0276 2.81622,0.30371 0.33132,0.2761 2.12597,0.99396 2.23641,1.51855 0.11044,0.52459 0,0.96635 -0.69025,0.93874 z m 5.99136,-0.19327 c -0.5522,0.44176 -3.33087,-1.58511 -3.86539,-2.04314 -2.31924,-1.98792 -3.56169,-1.32528 -4.04873,-1.6566 -0.48719,-0.33132 -0.31365,-0.77308 0.43182,-1.43572 0.74547,-0.66264 2.84383,0.22088 4.05867,0.35893 1.21483,0.13805 2.62294,1.07679 2.65055,2.19268 0.0276,1.11581 1.32528,2.14209 0.77308,2.58385 z" />
      <text
         sodipodi:linespacing="125%"
         id="text5195"
         y="277.34879"
         x="82.681763"
         style="font-style:normal;font-weight:normal;font-size:7.05555534px;line-height:125%;font-family:sans-serif;letter-spacing:0px;word-spacing:0px;fill:#2980b9;fill-opacity:1;stroke:none;stroke-width:0.26458332px;stroke-linecap:butt;stroke-linejoin:miter;stroke-opacity:1"
         xml:space="preserve"><tspan
           style="font-style:normal;font-variant:normal;font-weight:300;font-stretch:normal;font-size:25.39999962px;font-family:Ubuntu;-inkscape-font-specification:'Ubuntu Light';fill:#2980b9;stroke-width:0.26458332px"
           y="277.34879"
           x="82.681763"
           id="tspan5197"
           sodipodi:role="line">ruut.js</tspan></text>
      <text
         sodipodi:linespacing="125%"
         id="text5207"
         y="290.57437"
         x="-4.6146979"
         style="font-style:normal;font-weight:normal;font-size:7.05555534px;line-height:125%;font-family:sans-serif;letter-spacing:0px;word-spacing:0px;fill:#000000;fill-opacity:1;stroke:none;stroke-width:0.26458332px;stroke-linecap:butt;stroke-linejoin:miter;stroke-opacity:1"
         xml:space="preserve"><tspan
           style="stroke-width:0.26458332px"
           y="290.57437"
           x="-4.6146979"
           id="tspan5209"
           sodipodi:role="line" /></text>
    </g>
  </g>
</svg>
