<?xml version="1.0" encoding="UTF-8" standalone="no"?>
<!-- Created with Inkscape (http://www.inkscape.org/) -->

<svg
   xmlns:dc="http://purl.org/dc/elements/1.1/"
   xmlns:cc="http://creativecommons.org/ns#"
   xmlns:rdf="http://www.w3.org/1999/02/22-rdf-syntax-ns#"
   xmlns:svg="http://www.w3.org/2000/svg"
   xmlns="http://www.w3.org/2000/svg"
   xmlns:sodipodi="http://sodipodi.sourceforge.net/DTD/sodipodi-0.dtd"
   xmlns:inkscape="http://www.inkscape.org/namespaces/inkscape"
   width="900"
   height="400"
   viewBox="0 0 900.00001 400.00001"
   id="svg2"
   version="1.1"
   inkscape:version="0.91 r13725"
   sodipodi:docname="h.svg"
   inkscape:export-filename="/home/ionicabizau/Documents/Resources/electronify/h.png"
   inkscape:export-xdpi="90"
   inkscape:export-ydpi="90">
  <defs
     id="defs4" />
  <sodipodi:namedview
     id="base"
     pagecolor="#ffffff"
     bordercolor="#666666"
     borderopacity="1.0"
     inkscape:pageopacity="0.0"
     inkscape:pageshadow="2"
     inkscape:zoom="0.98994949"
     inkscape:cx="366.19982"
     inkscape:cy="302.86931"
     inkscape:document-units="px"
     inkscape:current-layer="layer1"
     showgrid="false"
     units="px"
     inkscape:window-width="1920"
     inkscape:window-height="1056"
     inkscape:window-x="0"
     inkscape:window-y="24"
     inkscape:window-maximized="1" />
  <metadata
     id="metadata7">
    <rdf:RDF>
      <cc:Work
         rdf:about="">
        <dc:format>image/svg+xml</dc:format>
        <dc:type
           rdf:resource="http://purl.org/dc/dcmitype/StillImage" />
        <dc:title></dc:title>
      </cc:Work>
    </rdf:RDF>
  </metadata>
  <g
     inkscape:label="Layer 1"
     inkscape:groupmode="layer"
     id="layer1"
     transform="translate(0,-652.36216)">
    <g
       id="g5514"
       transform="matrix(0.95833557,0,0,0.95833557,17.095008,-41.792076)">
      <path
         style="fill:#2c3e50"
         id="path4943"
         d="m 541.05692,852.35838 c 0,-3.60898 -1.68599,-7.12396 -5.00996,-10.44793 -7.09996,-7.09996 -21.25787,-12.87992 -39.26376,-16.5619 5.81396,-17.43389 7.88895,-32.58579 5.28897,-42.28473 -1.217,-4.54097 -3.41798,-7.75795 -6.54296,-9.56294 -3.12598,-1.80399 -7.01396,-2.10299 -11.55393,-0.88599 -9.69894,2.59898 -21.78386,11.97092 -33.97479,25.72283 -12.19092,-13.75091 -24.27584,-23.12385 -33.97577,-25.72283 -4.54098,-1.217 -8.42796,-0.918 -11.55294,0.88599 -3.12497,1.80499 -5.32695,5.02197 -6.54396,9.56294 -2.59497,9.68394 -0.53198,24.80484 5.26197,42.20573 -26.69083,5.41897 -44.24671,15.4159 -44.24671,27.08783 0,3.60898 1.68598,7.12495 5.00996,10.44893 7.09995,7.09996 21.25886,12.87892 39.26375,16.5609 -5.81396,17.43388 -7.88795,32.58579 -5.28997,42.28473 1.217,4.54097 3.41798,7.75795 6.54396,9.56194 10.10894,5.83596 27.54183,-4.37398 45.57971,-24.77685 12.17393,13.71992 24.23785,23.06786 33.92279,25.66284 4.54097,1.21699 8.42895,0.91899 11.55393,-0.88599 10.10793,-5.83597 9.98293,-26.03884 1.33199,-51.86167 17.96888,-3.68298 32.0968,-9.45594 39.18676,-16.5459 3.31998,-3.30998 5.00996,-6.82995 5.00996,-10.43993 z m -56.56964,-77.83251 c 4.01697,-1.07599 7.39895,-0.84499 10.05493,0.688 2.654,1.53299 4.54697,4.34597 5.62297,8.36195 2.52499,9.42794 0.44899,24.26184 -5.30696,41.39273 -8.34495,-1.61299 -17.46089,-2.78598 -27.05883,-3.43697 -5.36196,-7.98595 -10.93694,-15.29491 -16.5059,-21.71387 11.96992,-13.55091 23.77986,-22.76585 33.20979,-25.29284 z m -8.97995,92.56241 c -2.85498,4.94497 -5.80696,9.68494 -8.80894,14.20291 -5.40996,0.341 -10.98993,0.521 -16.69389,0.521 -5.68397,0 -11.26493,-0.184 -16.69689,-0.529 -3.01599,-4.53197 -5.96497,-9.27394 -8.80694,-14.19491 -2.84199,-4.92196 -5.47297,-9.84793 -7.89095,-14.7249 2.41798,-4.87697 5.04896,-9.80294 7.89095,-14.72391 2.84098,-4.92097 5.79095,-9.66294 8.80694,-14.19591 5.43297,-0.34499 11.01393,-0.52799 16.69689,-0.52799 5.68196,0 11.26393,0.184 16.6959,0.52799 3.01598,4.53297 5.96496,9.27494 8.80693,14.19591 2.854,4.94297 5.47997,9.86494 7.89295,14.72191 -2.42998,4.87997 -5.05996,9.79994 -7.89995,14.7299 z m 8.97995,-12.49992 c 3.90397,8.06395 7.16995,15.9129 9.75793,23.32686 -7.70695,1.46399 -16.13689,2.55698 -25.06184,3.20597 2.72799,-4.16497 5.41397,-8.51294 8.02995,-13.04591 2.59999,-4.50997 5.01997,-9.01994 7.26996,-13.48992 z m -19.16988,28.74982 c -5.02497,7.40395 -10.18293,14.14891 -15.3039,20.09187 -5.15396,-5.97096 -10.31993,-12.72992 -15.3229,-20.09187 4.99897,0.29 10.11394,0.445 15.31189,0.445 5.18998,0.01 10.30994,-0.15 15.30991,-0.44 z m -34.48978,-2.22999 c -8.86894,-0.64999 -17.29989,-1.74398 -25.04284,-3.22097 2.59199,-7.44496 5.86097,-15.29291 9.73194,-23.29886 2.24899,4.47498 4.67097,8.98195 7.26996,13.48192 2.59898,4.49997 5.28996,8.85994 8.03995,13.03991 z m -15.30991,-30.9798 c -3.87097,-8.00595 -7.14095,-15.8539 -9.73194,-23.29785 7.74295,-1.47799 16.17291,-2.56998 25.04185,-3.22098 -2.75099,4.18498 -5.44197,8.53695 -8.03994,13.03692 -2.59999,4.49997 -5.01997,9.00994 -7.26996,13.47991 z m 19.18989,-28.76981 c 4.99397,-7.34796 10.15194,-14.09591 15.2989,-20.05788 5.14997,5.96697 10.31194,12.72192 15.3109,20.07688 -4.99896,-0.29 -10.11394,-0.445 -15.3109,-0.445 -5.22996,0 -10.33993,0.14 -15.2999,0.42 z m 42.50973,15.2899 c -2.59799,-4.49997 -5.28896,-8.85294 -8.03995,-13.03692 8.86895,0.651 17.29989,1.74399 25.04185,3.22098 -2.58999,7.43895 -5.85597,15.2819 -9.72494,23.28285 -2.24999,-4.42997 -4.66997,-8.92994 -7.27996,-13.45991 z m -77.37951,-53.07166 c 1.07599,-4.01598 2.96798,-6.82996 5.62297,-8.36195 2.65497,-1.53299 6.03695,-1.76499 10.05393,-0.688 9.42694,2.52599 21.23587,11.74193 33.19379,25.29184 -5.56396,6.41396 -11.13493,13.71592 -16.49189,21.69387 -9.70694,0.63899 -18.81889,1.79198 -27.09883,3.37897 -5.72997,-17.08989 -7.78995,-31.89779 -5.26997,-41.31173 z m -34.48978,77.8315 c -2.93998,-2.93898 -4.43097,-5.98396 -4.43097,-9.05094 0,-3.06498 1.49099,-6.11096 4.43097,-9.05094 6.90096,-6.90096 20.78686,-12.51992 38.49976,-16.0999 2.77498,8.03195 6.31796,16.51389 10.55193,25.15084 -4.23397,8.63694 -7.77695,17.11889 -10.55293,25.15084 -17.70989,-3.57998 -31.5898,-9.19994 -38.49977,-16.0999 z m 40.10975,68.09957 c -2.65499,-1.53299 -4.54698,-4.34798 -5.62297,-8.36295 -2.52598,-9.42794 -0.44901,-24.26185 5.30697,-41.39274 8.34393,1.61299 17.46089,2.78599 27.05883,3.43798 5.36795,7.99395 10.94893,15.3109 16.52289,21.73586 -17.32989,19.66988 -34.03978,29.89981 -43.26972,24.56985 z m 89.07942,0 c -2.65598,1.53199 -6.03796,1.76398 -10.05493,0.68799 -9.41394,-2.52198 -21.20287,-11.71492 -33.14279,-25.23384 5.51396,-6.37696 11.06793,-13.68591 16.4749,-21.77286 9.60194,-0.65199 18.72088,-1.82599 27.06583,-3.44098 8.37995,24.83984 8.87993,44.41972 -0.35001,49.74969 z m 1.7,-51.98967 c -2.76698,-7.97295 -6.32097,-16.4459 -10.62694,-25.18184 4.22997,-8.63095 7.77096,-17.10589 10.54393,-25.13284 17.7129,3.57998 31.59781,9.19894 38.49876,16.0999 2.93998,2.93998 4.43097,5.98496 4.43097,9.05094 0,10.64993 -17.16989,19.98987 -42.83972,25.15984 z"
         inkscape:connector-curvature="0" />
      <circle
         r="8.4668989"
         cy="918.72455"
         cx="398.04181"
         id="path5506"
         style="opacity:1;fill:#2ecc71;fill-opacity:1;stroke:none;stroke-width:1.00157475;stroke-miterlimit:4;stroke-dasharray:none;stroke-opacity:1" />
      <circle
         style="opacity:1;fill:#e67e22;fill-opacity:1;stroke:none;stroke-width:1.00157475;stroke-miterlimit:4;stroke-dasharray:none;stroke-opacity:1"
         id="circle5508"
         cx="536.04181"
         cy="860.72455"
         r="8.4668989" />
      <circle
         r="8.4668989"
         cy="774.72455"
         cx="422.04181"
         id="circle5510"
         style="opacity:1;fill:#3498db;fill-opacity:1;stroke:none;stroke-width:1.00157475;stroke-miterlimit:4;stroke-dasharray:none;stroke-opacity:1" />
      <circle
         style="opacity:1;fill:#f1c40f;fill-opacity:1;stroke:none;stroke-width:1.00157475;stroke-miterlimit:4;stroke-dasharray:none;stroke-opacity:1"
         id="circle5512"
         cx="450"
         cy="852.36218"
         r="13.484322" />
    </g>
    <g
       id="g4881">
      <g
         transform="translate(0,40)"
         id="g4859">
        <text
           xml:space="preserve"
           style="font-style:normal;font-weight:normal;font-size:26.66666603px;line-height:125%;font-family:sans-serif;letter-spacing:0px;word-spacing:0px;fill:#000000;fill-opacity:1;stroke:none;stroke-width:1px;stroke-linecap:butt;stroke-linejoin:miter;stroke-opacity:1"
           x="294.96402"
           y="892.58398"
           id="text5521"
           sodipodi:linespacing="125%"><tspan
             sodipodi:role="line"
             id="tspan5523"
             x="294.96402"
             y="892.58398"
             style="font-style:normal;font-variant:normal;font-weight:900;font-stretch:normal;font-size:56.25px;font-family:Raleway;-inkscape-font-specification:'Raleway Heavy';fill:#2c3e50">Electronify</tspan></text>
        <text
           xml:space="preserve"
           style="font-style:normal;font-weight:normal;font-size:26.66666603px;line-height:125%;font-family:sans-serif;letter-spacing:0px;word-spacing:0px;opacity:0.18000004;fill:#000000;fill-opacity:1;stroke:none;stroke-width:1px;stroke-linecap:butt;stroke-linejoin:miter;stroke-opacity:1"
           x="40.767143"
           y="892.07458"
           id="text5525"
           sodipodi:linespacing="125%"><tspan
             sodipodi:role="line"
             id="tspan5527"
             x="40.767143"
             y="892.07458"
             style="font-style:normal;font-variant:normal;font-weight:900;font-stretch:normal;font-size:56.25px;font-family:Raleway;-inkscape-font-specification:'Raleway Heavy';fill:#2c3e50">require(&quot;                         &quot;)</tspan></text>
      </g>
      <text
         sodipodi:linespacing="125%"
         id="text5535"
         y="989.36157"
         x="42.857765"
         style="font-style:normal;font-weight:normal;font-size:30.09281731px;line-height:125%;font-family:sans-serif;letter-spacing:0px;word-spacing:0px;fill:#000000;fill-opacity:1;stroke:none;stroke-width:1px;stroke-linecap:butt;stroke-linejoin:miter;stroke-opacity:1"
         xml:space="preserve"><tspan
           style="font-style:normal;font-variant:normal;font-weight:100;font-stretch:normal;font-size:33.85441971px;font-family:Raleway;-inkscape-font-specification:'Raleway Thin';fill:#2c3e50"
           y="989.36157"
           x="42.857765"
           id="tspan5537"
           sodipodi:role="line">The simplest way to build Electron apps.</tspan></text>
    </g>
    <path
       inkscape:connector-curvature="0"
       d="m 299.70969,800.85645 -14.58476,-32.8157 0,-17.28564 4.32141,0 0,-4.32141 -38.89269,0 0,4.32141 4.32141,0 0,17.28564 -14.58474,32.8157 c -1.28292,2.83593 0.81026,6.07699 3.91627,6.07699 l 51.58682,0 c 3.10601,0 5.1992,-3.24106 3.91628,-6.07699 z m -45.91498,-19.85147 5.40176,-12.96423 0,-17.28564 21.60705,0 0,17.28564 5.40176,12.96423 -32.41057,0 z m 18.36599,-8.64282 4.32142,0 0,4.32141 -4.32142,0 0,-4.32141 z m -4.32141,-4.32141 -4.32141,0 0,-4.32141 4.32141,0 0,4.32141 z m 0,-12.96423 4.32141,0 0,4.32141 -4.32141,0 0,-4.32141 z m 0,-12.96423 -4.32141,0 0,-4.32141 4.32141,0 0,4.32141 z"
       id="path6898"
       style="fill:#2980b9" />
    <path
       inkscape:connector-curvature="0"
       d="m 659.2528,753.74674 -7.3132,0 c 0.99726,-1.7452 1.7452,-3.5735 1.91141,-4.82007 0.33242,-3.57349 -0.58173,-6.48215 -2.74245,-8.55977 -1.91141,-1.99451 -4.32144,-2.57624 -7.2301,-2.57624 -0.24931,0 -0.41552,0 -0.58173,0 -2.82556,0.0831 -5.90043,1.32967 -8.14425,3.07487 -2.24382,1.74519 -3.90591,3.82281 -5.15248,6.39905 -1.24657,-2.57624 -2.90866,-4.65386 -5.15248,-6.39905 -2.24383,-1.7452 -5.3187,-3.07487 -8.14425,-3.07487 -0.0831,0 -0.16621,0 -0.16621,0 -2.99177,0 -5.65111,0.49863 -7.64562,2.57624 -2.16072,2.07762 -3.07487,4.98628 -2.74245,8.55977 0.16621,1.24657 0.91415,3.07487 1.9114,4.82007 l -7.3132,0 c -2.90866,0 -5.31869,2.41003 -5.31869,5.31869 l 0,15.95608 5.31869,0 0,26.59346 c 0,2.90866 2.41003,5.31869 5.31869,5.31869 l 47.86823,0 c 2.90866,0 5.31869,-2.41003 5.31869,-5.31869 l 0,-26.59346 5.3187,0 0,-15.95608 c 0,-2.90866 -2.41004,-5.31869 -5.3187,-5.31869 z m -25.42999,-4.65386 c 0.91415,-1.9114 2.24382,-3.5735 3.98902,-4.90317 1.57898,-1.24657 3.82281,-2.07761 5.568,-2.16072 l 0.49863,0 c 2.41003,0 3.49039,0.58173 4.23833,1.32968 0.74794,0.74794 1.7452,2.07761 1.57899,5.06937 -0.24931,0.99726 -1.32967,3.24108 -2.65935,5.3187 l -15.37434,0 2.16072,-4.65386 z m -21.93961,-5.73421 c 0.66484,-0.66484 1.66209,-1.32968 4.82007,-1.32968 1.66209,0 3.82281,0.91415 5.4849,2.16072 1.7452,1.32967 3.07487,2.90866 3.98902,4.90317 l 2.24382,4.65386 -15.45745,0 c -1.32967,-2.07762 -2.41003,-4.32144 -2.65934,-5.3187 -0.16621,-2.99176 0.83104,-4.32143 1.57898,-5.06937 z m 15.45745,58.2563 -21.27477,0 0,-26.59346 21.27477,0 0,26.59346 z m 0,-31.91215 -26.59346,0 0,-10.63739 26.59346,0 0,10.63739 z m 26.59346,31.91215 -21.27477,0 0,-26.59346 21.27477,0 0,26.59346 z m 5.31869,-31.91215 -26.59346,0 0,-10.63739 26.59346,0 0,10.63739 z"
       id="path7522"
       style="fill:#2980b9" />
  </g>
</svg>
