<?xml version="1.0" encoding="UTF-8" standalone="no"?>
<!-- Created with Inkscape (http://www.inkscape.org/) -->

<svg
   xmlns:dc="http://purl.org/dc/elements/1.1/"
   xmlns:cc="http://creativecommons.org/ns#"
   xmlns:rdf="http://www.w3.org/1999/02/22-rdf-syntax-ns#"
   xmlns:svg="http://www.w3.org/2000/svg"
   xmlns="http://www.w3.org/2000/svg"
   xmlns:sodipodi="http://sodipodi.sourceforge.net/DTD/sodipodi-0.dtd"
   xmlns:inkscape="http://www.inkscape.org/namespaces/inkscape"
   width="900"
   height="400"
   viewBox="0 0 238.12501 105.83333"
   id="svg2"
   version="1.1"
   inkscape:version="0.91+devel r"
   sodipodi:docname="h.svg"
   inkscape:export-filename="/home/ionicabizau/Documents/Resources/gpm/h.png"
   inkscape:export-xdpi="96"
   inkscape:export-ydpi="96">
  <defs
     id="defs4" />
  <sodipodi:namedview
     id="base"
     pagecolor="#ffffff"
     bordercolor="#666666"
     borderopacity="1.0"
     inkscape:pageopacity="0.0"
     inkscape:pageshadow="2"
     inkscape:zoom="1.4142136"
     inkscape:cx="447.55324"
     inkscape:cy="161.94416"
     inkscape:document-units="mm"
     inkscape:current-layer="layer1"
     showgrid="false"
     units="px"
     inkscape:window-width="1920"
     inkscape:window-height="1056"
     inkscape:window-x="0"
     inkscape:window-y="24"
     inkscape:window-maximized="1" />
  <metadata
     id="metadata7">
    <rdf:RDF>
      <cc:Work
         rdf:about="">
        <dc:format>image/svg+xml</dc:format>
        <dc:type
           rdf:resource="http://purl.org/dc/dcmitype/StillImage" />
        <dc:title></dc:title>
      </cc:Work>
    </rdf:RDF>
  </metadata>
  <g
     inkscape:label="Layer 1"
     inkscape:groupmode="layer"
     id="layer1"
     transform="translate(0,-191.16668)">
    <g
       id="g5520"
       transform="translate(-8.4304813e-7,-9.8707065)">
      <g
         transform="translate(-3.7041668)"
         id="g5475">
        <g
           style="stroke-width:0.69591653"
           id="g5371"
           transform="matrix(1.4369539,0,0,1.4369539,-83.177722,-83.164755)">
          <path
             id="path5368"
             d="m 124.8787,214.49495 36.14846,0 0,12.14588 -18.07423,0 0,1.95202 -8.02496,0 0,-1.95202 -10.04927,0 z m 2.04631,10.08493 3.9931,2e-5 0,-6.06818 2.00754,0 0,6.06818 1.98949,0 0,-8.025 -7.99013,0 z m 9.97908,-8.06062 0.0241,10.12157 3.97633,0 0,-2.01944 4.02543,0 0,-8.10213 z m 3.95223,1.95202 2.09661,0 0,4.12093 -2.09661,0 z m 6.09704,-1.95202 0,8.02496 4.00028,0 0,-6.02479 2.00022,0 0,6.02483 1.99804,0 0,-6.00068 2.00239,0 0,6.00064 2.00075,0 0,-8.02496 z m 0,0"
             inkscape:connector-curvature="0"
             style="fill:#cd3632;fill-rule:evenodd;stroke:none;stroke-width:0.18412793" />
          <rect
             style="opacity:1;fill:#ffffff;fill-opacity:1;stroke:none;stroke-width:0.17745872;stroke-miterlimit:4;stroke-dasharray:none;stroke-opacity:1"
             id="rect5344"
             width="14.470411"
             height="14.470411"
             x="120.45747"
             y="214.05051"
             rx="0"
             ry="0" />
        </g>
        <g
           id="g5472">
          <path
             inkscape:connector-curvature="0"
             id="path4231"
             d="m 104.29318,225.05587 c -1.51456,0 -2.78585,0.50059 -3.81358,1.50128 -1.027919,1.0007 -1.541716,2.2528 -1.541716,3.75653 0,0.87627 0.256917,1.77131 0.770768,2.68544 0.514048,0.91415 1.160448,1.50101 1.939348,1.76066 l 0,0.0651 c -0.68154,0.30291 -1.02209,1.04385 -1.02209,2.22304 0,0.91955 0.36237,1.60097 1.0872,2.04453 l 0,0.0651 c -1.969098,0.6491 -2.953736,1.86616 -2.953736,3.65117 0,0.80054 0.1759,1.49025 0.527507,2.06903 0.351567,0.57877 0.824889,1.02215 1.419889,1.33046 0.595,0.30833 1.22255,0.53019 1.88246,0.66541 0.6599,0.13522 1.36318,0.20267 2.10963,0.20267 3.92701,0 5.89032,-1.64425 5.89032,-4.93298 0,-0.61665 -0.12171,-1.14929 -0.36508,-1.59825 -0.24341,-0.44895 -0.55718,-0.79513 -0.94124,-1.03855 -0.38404,-0.24339 -0.80857,-0.44641 -1.27375,-0.60869 -0.46519,-0.16226 -0.93039,-0.30015 -1.39557,-0.41373 -0.46519,-0.11352 -0.88972,-0.23263 -1.27376,-0.35704 -0.38406,-0.12444 -0.69783,-0.29766 -0.94124,-0.51944 -0.24341,-0.22178 -0.36509,-0.50016 -0.36509,-0.83553 0,-0.42191 0.10548,-0.73568 0.31645,-0.94122 0.21094,-0.20554 0.53263,-0.3517 0.96538,-0.43824 1.34145,-0.24883 2.4071,-0.85718 3.19682,-1.82541 0.78973,-0.96825 1.18485,-2.13935 1.18485,-3.51327 0,-0.44355 -0.0867,-0.89783 -0.25971,-1.36302 0.46518,-0.1082 0.89236,-0.22721 1.2818,-0.35702 l 0,-3.27804 c -1.29818,0.50847 -2.47722,0.76272 -3.5374,0.76272 -0.88711,-0.50847 -1.84991,-0.76272 -2.88846,-0.76272 z m 0.1299,2.9371 c 0.63829,0 1.11968,0.22188 1.44423,0.66541 0.32455,0.44356 0.48655,0.9954 0.48655,1.6553 0,1.48211 -0.64341,2.22304 -1.93078,2.22304 -1.34145,0 -2.01232,-0.73037 -2.01232,-2.19084 0,-1.56865 0.67087,-2.35291 2.01232,-2.35291 z m 0.21072,12.9494 c 1.78501,0 2.67775,0.54091 2.67775,1.62274 0,1.1359 -0.81702,1.70395 -2.45058,1.70395 -1.86074,0 -2.79078,-0.54621 -2.79078,-1.63884 0,-1.12511 0.85432,-1.68785 2.56361,-1.68785 z"
             style="fill:#cd3632;fill-opacity:1;stroke-width:0.26458329" />
        </g>
      </g>
      <g
         transform="translate(-2.7375784)"
         id="g5490">
        <g
           id="g5482">
          <g
             transform="translate(-6.3339816,18.834275)"
             id="g5395">
            <path
               style="fill:#bdc3c7;stroke-width:0.26458329"
               id="path5342"
               d="m 111.49085,243.86933 q 0,-0.57879 -0.95502,-0.57879 -0.91448,0 -0.91448,0.60194 0,0.58458 0.99552,0.58458 0.87398,0 0.87398,-0.60773 z m -0.34149,-4.36989 q 0,-0.35306 -0.17364,-0.59037 -0.17364,-0.23731 -0.51512,-0.23731 -0.71771,0 -0.71771,0.83925 0,0.78138 0.71771,0.78138 0.68876,0 0.68876,-0.79295 z m 1.55695,-1.87529 0,1.16916 q -0.20837,0.0695 -0.45725,0.12734 0.0926,0.24888 0.0926,0.48618 0,0.73507 -0.42252,1.25309 -0.42252,0.51802 -1.14022,0.65115 -0.23152,0.0463 -0.34438,0.15627 -0.11287,0.10997 -0.11287,0.3357 0,0.17942 0.13023,0.29807 0.13023,0.11866 0.3357,0.18522 0.20548,0.0665 0.45436,0.12734 0.24888,0.0607 0.49776,0.14758 0.24888,0.0868 0.45435,0.21705 0.20547,0.13023 0.3357,0.37044 0.13023,0.24019 0.13023,0.57011 0,1.75953 -2.10102,1.75953 -0.39937,0 -0.75244,-0.0724 -0.35306,-0.0724 -0.67139,-0.2373 -0.31834,-0.16495 -0.50645,-0.47461 -0.1881,-0.30966 -0.1881,-0.73796 0,-0.95501 1.0534,-1.30229 l 0,-0.0231 q -0.38779,-0.23731 -0.38779,-0.72928 0,-0.63088 0.36464,-0.79295 l 0,-0.0232 q -0.41674,-0.1389 -0.69166,-0.62799 -0.27493,-0.48908 -0.27493,-0.9579 0,-0.80452 0.54985,-1.33991 0.54986,-0.53538 1.36017,-0.53538 0.55564,0 1.03025,0.27203 0.56722,0 1.26177,-0.27203 z m 1.84057,5.09917 -1.28492,0 q 0.0231,-0.26046 0.0231,-0.77558 l 0,-3.52486 q 0,-0.54406 -0.0231,-0.74085 l 1.28492,0 q -0.0232,0.191 -0.0232,0.7177 l 0,3.54801 q 0,0.51512 0.0232,0.77558 z m 3.47855,-1.28492 0,1.13443 q -0.41095,0.22573 -1.00711,0.22573 -0.35885,0 -0.6193,-0.11575 -0.26047,-0.11577 -0.40517,-0.2894 -0.14469,-0.17364 -0.22862,-0.45146 -0.0839,-0.27782 -0.10707,-0.53249 -0.0232,-0.25467 -0.0232,-0.59616 l 0,-2.03157 0.0115,0 0,-0.0232 q -0.0405,0 -0.10998,-0.006 -0.0695,-0.006 -0.10418,-0.006 -0.12154,0 -0.34149,0.0347 l 0,-1.09972 0.55565,0 0,-0.43988 q 0,-0.31254 -0.0347,-0.51512 l 1.31386,0 q -0.0347,0.2373 -0.0347,0.955 l 0.98974,0 0,1.09972 q -0.0868,0 -0.25178,-0.0115 -0.16496,-0.0115 -0.24598,-0.0115 l -0.49198,0 0,2.11259 q 0,0.75822 0.50355,0.75822 0.35307,0 0.63089,-0.191 z m -3.33385,-5.48118 q 0,0.33571 -0.22574,0.58747 -0.22572,0.25179 -0.55564,0.25179 -0.3357,0 -0.56722,-0.25179 -0.23151,-0.25176 -0.23151,-0.58747 0,-0.34148 0.22862,-0.59615 0.22863,-0.25467 0.57011,-0.25467 0.3357,0 0.55854,0.25755 0.22284,0.25757 0.22284,0.59327 z"
               inkscape:connector-curvature="0" />
            <g
               style="fill:#bdc3c7;fill-rule:evenodd;stroke:none;stroke-width:8.78809357"
               id="Page 1"
               transform="matrix(0.03010702,0,0,0.03010702,132.77401,237.35696)">
              <path
                 style="fill:#bdc3c7;stroke-width:8.78809357"
                 inkscape:connector-curvature="0"
                 d="m 0,0 500,0 0,168 -250,0 0,27 -111,0 0,-27 -139,0 z m 28.304251,139.49316 55.231987,3.3e-4 10e-7,-83.934198 27.768011,0 0,83.934198 27.51823,0 0,-111.000546 -110.518229,0 z M 166.33333,28 l 0.33334,140 55,0 0,-27.93269 55.67917,0 0,-112.06731 z M 221,55 l 29,0 0,57 -29,0 z m 84.33333,-27 0,111 55.33132,0 0,-83.333992 27.66668,0 0,83.334542 27.63656,0 0,-83.00055 27.69677,0 0,83 27.67404,0 0,-111 z m 0,0"
                 id="Rectangle 1" />
            </g>
            <text
               xml:space="preserve"
               style="font-style:normal;font-weight:normal;font-size:5.73816061px;line-height:125%;font-family:sans-serif;letter-spacing:0px;word-spacing:0px;fill:#000000;fill-opacity:1;stroke:none;stroke-width:0.26458332px;stroke-linecap:butt;stroke-linejoin:miter;stroke-opacity:1"
               x="121.50448"
               y="247.86925"
               id="text5375"
               sodipodi:linespacing="125%"><tspan
                 sodipodi:role="line"
                 id="tspan5377"
                 x="121.50448"
                 y="247.86925"
                 style="font-style:normal;font-variant:normal;font-weight:normal;font-stretch:normal;font-size:18.36211395px;font-family:Raleway;-inkscape-font-specification:Raleway;fill:#bdc3c7;stroke-width:0.26458332px">+</tspan></text>
          </g>
        </g>
        <text
           xml:space="preserve"
           style="font-style:normal;font-weight:normal;font-size:7.05555534px;line-height:125%;font-family:sans-serif;letter-spacing:0px;word-spacing:0px;fill:#bdc3c7;fill-opacity:1;stroke:none;stroke-width:0.26458332px;stroke-linecap:butt;stroke-linejoin:miter;stroke-opacity:1"
           x="-255.74194"
           y="126.98445"
           id="text5386"
           sodipodi:linespacing="125%"
           transform="rotate(-90)"><tspan
             sodipodi:role="line"
             id="tspan5388"
             x="-255.74194"
             y="126.98445"
             style="font-style:normal;font-variant:normal;font-weight:normal;font-stretch:normal;font-size:22.57777786px;font-family:Raleway;-inkscape-font-specification:Raleway;fill:#bdc3c7;stroke-width:0.26458332px">}</tspan></text>
      </g>
      <text
         sodipodi:linespacing="125%"
         id="text5451"
         y="281.91876"
         x="21.674784"
         style="font-style:normal;font-weight:normal;font-size:7.05555534px;line-height:125%;font-family:sans-serif;letter-spacing:0px;word-spacing:0px;fill:#000000;fill-opacity:1;stroke:none;stroke-width:0.26458332px;stroke-linecap:butt;stroke-linejoin:miter;stroke-opacity:1"
         xml:space="preserve"><tspan
           style="font-style:normal;font-variant:normal;font-weight:100;font-stretch:normal;font-family:Raleway;-inkscape-font-specification:'Raleway Thin';fill:#2c3e50;stroke-width:0.26458332px"
           y="281.91876"
           x="21.674784"
           id="tspan5453"
           sodipodi:role="line">Install NPM packages and dependencies from git repositories.</tspan></text>
    </g>
  </g>
</svg>
