<?xml version="1.0" encoding="UTF-8" standalone="no"?>
<!-- Created with Inkscape (http://www.inkscape.org/) -->

<svg
   xmlns:dc="http://purl.org/dc/elements/1.1/"
   xmlns:cc="http://creativecommons.org/ns#"
   xmlns:rdf="http://www.w3.org/1999/02/22-rdf-syntax-ns#"
   xmlns:svg="http://www.w3.org/2000/svg"
   xmlns="http://www.w3.org/2000/svg"
   xmlns:xlink="http://www.w3.org/1999/xlink"
   xmlns:sodipodi="http://sodipodi.sourceforge.net/DTD/sodipodi-0.dtd"
   xmlns:inkscape="http://www.inkscape.org/namespaces/inkscape"
   width="900"
   height="400"
   viewBox="0 0 238.12501 105.83333"
   id="svg2"
   version="1.1"
   inkscape:version="0.91+devel r"
   sodipodi:docname="h.svg"
   inkscape:export-filename="/home/ionicabizau/Documents/repository-downloader/downloads/github/IonicaBizau/Resources/npmreserve/h.png"
   inkscape:export-xdpi="96"
   inkscape:export-ydpi="96">
  <defs
     id="defs4">
    <linearGradient
       id="linearGradient4270"
       inkscape:collect="always">
      <stop
         id="stop4272"
         offset="0"
         style="stop-color:#ecf0f1;stop-opacity:1" />
      <stop
         id="stop4274"
         offset="1"
         style="stop-color:#bdc3c7;stop-opacity:1" />
    </linearGradient>
    <linearGradient
       inkscape:collect="always"
       id="linearGradient4786">
      <stop
         style="stop-color:#bdc3c7;stop-opacity:1"
         offset="0"
         id="stop4788" />
      <stop
         style="stop-color:#95a5a6;stop-opacity:1"
         offset="1"
         id="stop4790" />
    </linearGradient>
    <linearGradient
       inkscape:collect="always"
       xlink:href="#linearGradient4786"
       id="linearGradient4792"
       x1="89.422501"
       y1="214.61072"
       x2="150.37709"
       y2="275.56531"
       gradientUnits="userSpaceOnUse" />
    <linearGradient
       inkscape:collect="always"
       xlink:href="#linearGradient4270"
       id="linearGradient4268"
       gradientUnits="userSpaceOnUse"
       x1="83.422737"
       y1="198.42767"
       x2="154.95592"
       y2="269.25037" />
  </defs>
  <sodipodi:namedview
     id="base"
     pagecolor="#ffffff"
     bordercolor="#666666"
     borderopacity="1.0"
     inkscape:pageopacity="0.0"
     inkscape:pageshadow="2"
     inkscape:zoom="1.1172287"
     inkscape:cx="501.58205"
     inkscape:cy="178.96249"
     inkscape:document-units="mm"
     inkscape:current-layer="layer1"
     showgrid="false"
     width="900mm"
     units="px"
     inkscape:window-width="1920"
     inkscape:window-height="1056"
     inkscape:window-x="0"
     inkscape:window-y="24"
     inkscape:window-maximized="1" />
  <metadata
     id="metadata7">
    <rdf:RDF>
      <cc:Work
         rdf:about="">
        <dc:format>image/svg+xml</dc:format>
        <dc:type
           rdf:resource="http://purl.org/dc/dcmitype/StillImage" />
        <dc:title />
      </cc:Work>
    </rdf:RDF>
  </metadata>
  <g
     inkscape:label="Layer 1"
     inkscape:groupmode="layer"
     id="layer1"
     transform="translate(0,-191.16667)">
    <rect
       style="opacity:1;fill:url(#linearGradient4268);fill-opacity:1;fill-rule:nonzero;stroke:none;stroke-width:0.61133415;stroke-linecap:butt;stroke-linejoin:miter;stroke-miterlimit:4;stroke-dasharray:none;stroke-opacity:1"
       id="rect4784"
       width="70.959915"
       height="70.959915"
       x="83.582542"
       y="198.02005"
       rx="7.6840835"
       ry="7.6840835" />
    <g
       style="fill:#e74c3c;fill-rule:evenodd;stroke:none;stroke-width:1"
       id="Page 1"
       transform="matrix(0.11214591,0,0,0.11214591,91.806342,218.08126)">
      <path
         style="fill:#e74c3c"
         inkscape:connector-curvature="0"
         d="m 0,0 500,0 0,168 -250,0 0,27 -111,0 0,-27 -139,0 z m 28.304251,139.49316 55.231987,3.3e-4 10e-7,-83.934198 27.768011,0 0,83.934198 27.51823,0 0,-111.000546 -110.518229,0 z M 166.33333,28 l 0.33334,140 55,0 0,-27.93269 55.67917,0 0,-112.06731 z M 221,55 l 29,0 0,57 -29,0 z m 84.33333,-27 0,111 55.33132,0 0,-83.333992 27.66668,0 0,83.334542 27.63656,0 0,-83.00055 27.69677,0 0,83 27.67404,0 0,-111 z m 0,0"
         id="Rectangle 1" />
    </g>
    <text
       xml:space="preserve"
       style="font-style:normal;font-weight:normal;font-size:6.16473818px;line-height:125%;font-family:sans-serif;letter-spacing:0px;word-spacing:0px;fill:#2c3e50;fill-opacity:1;stroke:none;stroke-width:0.23117769px;stroke-linecap:butt;stroke-linejoin:miter;stroke-opacity:1"
       x="43.555763"
       y="272.46796"
       id="text4794"
       sodipodi:linespacing="125%"
       transform="rotate(-6.44423)"><tspan
         sodipodi:role="line"
         id="tspan4796"
         x="43.555763"
         y="272.46796"
         style="font-style:normal;font-variant:normal;font-weight:normal;font-stretch:normal;font-size:14.79537201px;font-family:'Mickey\'s College';-inkscape-font-specification:'Mickey\'s College';stroke-width:0.23117769px">RESERVED</tspan></text>
    <text
       xml:space="preserve"
       style="font-style:normal;font-weight:normal;font-size:7.05555534px;line-height:125%;font-family:sans-serif;letter-spacing:0px;word-spacing:0px;fill:#2c3e50;fill-opacity:1;stroke:none;stroke-width:0.26458332px;stroke-linecap:butt;stroke-linejoin:miter;stroke-opacity:1"
       x="68.424782"
       y="288.82138"
       id="text4296"
       sodipodi:linespacing="125%"><tspan
         sodipodi:role="line"
         id="tspan4298"
         x="68.424782"
         y="288.82138"
         style="font-style:normal;font-variant:normal;font-weight:normal;font-stretch:normal;font-family:Inconsolata;-inkscape-font-specification:Inconsolata;fill:#2c3e50;stroke-width:0.26458332px">Reserve package names on NPM.</tspan></text>
    <text
       xml:space="preserve"
       style="font-style:normal;font-weight:normal;font-size:9.72344208px;line-height:125%;font-family:sans-serif;letter-spacing:0px;word-spacing:0px;opacity:0.27300002;fill:#bdc3c7;fill-opacity:1;stroke:none;stroke-width:0.36462906px;stroke-linecap:butt;stroke-linejoin:miter;stroke-opacity:1"
       x="50.883865"
       y="280.16708"
       id="text4284"
       sodipodi:linespacing="125%"><tspan
         sodipodi:role="line"
         id="tspan4286"
         x="50.883865"
         y="280.16708"
         style="font-style:normal;font-variant:normal;font-weight:normal;font-stretch:normal;font-family:Inconsolata;-inkscape-font-specification:Inconsolata;fill:#bdc3c7;stroke-width:0.36462906px">require(&quot;          &quot;)</tspan></text>
    <text
       sodipodi:linespacing="125%"
       id="text4300"
       y="280.16727"
       x="94.670807"
       style="font-style:normal;font-weight:normal;font-size:9.72344208px;line-height:125%;font-family:sans-serif;letter-spacing:0px;word-spacing:0px;fill:#bdc3c7;fill-opacity:1;stroke:none;stroke-width:0.36462906px;stroke-linecap:butt;stroke-linejoin:miter;stroke-opacity:1"
       xml:space="preserve"><tspan
         style="font-style:normal;font-variant:normal;font-weight:bold;font-stretch:normal;font-family:Inconsolata;-inkscape-font-specification:'Inconsolata Bold';fill:#bdc3c7;stroke-width:0.36462906px"
         y="280.16727"
         x="94.670807"
         id="tspan4302"
         sodipodi:role="line"><tspan
           id="tspan4304"
           style="fill:#d35400">npmreserve</tspan></tspan></text>
    <g
       transform="matrix(0.2851425,0,0,0.2851425,69.378161,201.90838)"
       id="g5182"
       style="fill:#e74c3c">
      <path
         inkscape:connector-curvature="0"
         d="m 80.302,18.915 0,0 0.042,-0.042 -0.008,-0.008 c 0.523,-0.57 0.518,-1.451 -0.033,-2.003 l 0,0 -2.053,-2.053 0,0 0,0 c -0.552,-0.551 -1.433,-0.556 -2.003,-0.033 l -0.009,-0.009 -8.842,8.843 c -0.567,0.566 -0.567,1.486 0,2.053 l 0,0 2.053,2.054 0.001,0 c 0.567,0.567 1.486,0.567 2.053,0 l 8.799,-8.802 0,0 z"
         id="path5184"
         style="fill:#e74c3c" />
      <path
         inkscape:connector-curvature="0"
         d="m 48.548,19.274 0,10e-4 2.903,0 0,-10e-4 c 0.782,0 1.415,-0.619 1.446,-1.393 l 0.006,0 0,-12.503 c 0,-0.802 -0.65,-1.452 -1.452,-1.452 l 0,-0.002 -2.903,0 0,10e-4 c -0.802,0 -1.452,0.65 -1.452,1.452 l 0,12.504 0.006,0 c 0.032,0.774 0.664,1.393 1.446,1.393 z"
         id="path5186"
         style="fill:#e74c3c" />
      <path
         inkscape:connector-curvature="0"
         d="m 91.613,39.997 c 0,-0.783 -0.619,-1.415 -1.393,-1.446 l 0,-0.006 -12.504,0 c -0.802,0 -1.452,0.649 -1.452,1.452 l 0,0 0,2.903 0,0 c 0,0.803 0.65,1.453 1.452,1.453 l 12.504,0 0,-0.006 c 0.774,-0.032 1.393,-0.665 1.393,-1.447 l 0,0 0,-2.903 0,0 z"
         id="path5188"
         style="fill:#e74c3c" />
      <path
         inkscape:connector-curvature="0"
         d="m 50,24.201 c -11.756,0 -21.285,9.529 -21.285,21.285 0,4.608 1.479,8.862 3.968,12.346 l -0.008,0 c 3.174,4.952 5.157,11.512 5.303,18.739 0.255,0.419 0.711,0.703 1.237,0.703 0.056,0 0.109,-0.01 0.163,-0.017 l 0,0.017 21.172,0 0,-0.017 c 0.054,0.006 0.107,0.017 0.162,0.017 0.575,0 1.067,-0.337 1.303,-0.822 0.175,-7.584 2.371,-14.429 5.843,-19.439 2.154,-3.324 3.427,-7.27 3.427,-11.526 C 71.285,33.73 61.756,24.201 50,24.201 Z"
         id="path5190"
         style="fill:#e74c3c" />
      <path
         inkscape:connector-curvature="0"
         d="m 60.712,89.788 c -0.056,0 -0.108,0.01 -0.162,0.017 l 0,-0.017 -21.172,0 0,0.017 c -0.054,-0.006 -0.107,-0.017 -0.163,-0.017 -0.801,0 -1.452,0.649 -1.452,1.452 l 0,3.384 c 0,0.802 0.65,1.452 1.452,1.452 0.056,0 0.109,-0.01 0.163,-0.017 l 0,0.017 21.172,0 0,-0.016 c 0.054,0.006 0.107,0.016 0.162,0.016 0.802,0 1.452,-0.65 1.452,-1.452 l 0,-3.384 c 0,-0.803 -0.65,-1.452 -1.452,-1.452 z"
         id="path5192"
         style="fill:#e74c3c" />
      <path
         inkscape:connector-curvature="0"
         d="m 60.712,80.348 c -0.056,0 -0.108,0.01 -0.162,0.017 l 0,-0.017 -21.172,0 0,0.017 c -0.054,-0.006 -0.107,-0.017 -0.163,-0.017 -0.784,0 -1.42,0.624 -1.447,1.403 -0.002,0.019 -0.003,0.038 -0.005,0.057 l 0,3.376 c 0,0.802 0.65,1.452 1.452,1.452 0.056,0 0.109,-0.01 0.163,-0.017 l 0,0.017 21.172,0 0,-0.016 c 0.054,0.006 0.107,0.017 0.162,0.017 0.802,0 1.452,-0.65 1.452,-1.452 l 0,-3.385 c 0,-0.803 -0.65,-1.452 -1.452,-1.452 z"
         id="path5194"
         style="fill:#e74c3c" />
      <path
         inkscape:connector-curvature="0"
         d="m 22.344,39.685 0,-0.006 -12.505,0 c -0.802,0 -1.452,0.65 -1.452,1.451 l 0,2.904 c 0,0.801 0.65,1.451 1.452,1.451 l 12.505,0 0,-0.005 c 0.773,-0.032 1.393,-0.665 1.393,-1.445 l 0,0 0,-2.905 0,0 c -10e-4,-0.78 -0.62,-1.413 -1.393,-1.445 z"
         id="path5196"
         style="fill:#e74c3c" />
      <path
         inkscape:connector-curvature="0"
         d="m 20.199,18.415 8.842,8.843 0.009,-0.009 c 0.569,0.523 1.45,0.519 2.002,-0.033 l 0.001,0 2.053,-2.054 0,0 c 0.552,-0.552 0.556,-1.434 0.033,-2.003 l 0.009,-0.009 -8.843,-8.842 c -0.566,-0.566 -1.486,-0.566 -2.053,0 l 0,0 0,0 -2.053,2.053 0,0 c -0.567,0.568 -0.567,1.487 0,2.054 z"
         id="path5198"
         style="fill:#e74c3c" />
    </g>
  </g>
</svg>
