<?xml version="1.0" encoding="UTF-8" standalone="no"?>
<!-- Created with Inkscape (http://www.inkscape.org/) -->

<svg
   xmlns:dc="http://purl.org/dc/elements/1.1/"
   xmlns:cc="http://creativecommons.org/ns#"
   xmlns:rdf="http://www.w3.org/1999/02/22-rdf-syntax-ns#"
   xmlns:svg="http://www.w3.org/2000/svg"
   xmlns="http://www.w3.org/2000/svg"
   xmlns:xlink="http://www.w3.org/1999/xlink"
   xmlns:sodipodi="http://sodipodi.sourceforge.net/DTD/sodipodi-0.dtd"
   xmlns:inkscape="http://www.inkscape.org/namespaces/inkscape"
   width="297mm"
   height="100mm"
   viewBox="0 0 297 100"
   id="svg2"
   version="1.1"
   inkscape:version="0.91+devel r"
   sodipodi:docname="h.svg"
   inkscape:export-filename="/home/ionicabizau/Documents/resources/pi-number/h.png"
   inkscape:export-xdpi="90"
   inkscape:export-ydpi="90">
  <defs
     id="defs4">
    <inkscape:path-effect
       effect="spiro"
       id="path-effect4229"
       is_visible="true" />
    <inkscape:path-effect
       effect="powerstroke"
       id="path-effect4225"
       is_visible="true"
       offset_points="0.11599487,-2.3355007 | 4.8677776,-4.7355566 | 7,-0.013824174"
       sort_points="true"
       interpolator_type="CubicBezierFit"
       interpolator_beta="0.2"
       start_linecap_type="butt"
       linejoin_type="extrp_arc"
       miter_limit="4"
       end_linecap_type="butt" />
    <inkscape:path-effect
       effect="spiro"
       id="path-effect4223"
       is_visible="true" />
    <inkscape:path-effect
       effect="spiro"
       id="path-effect4219"
       is_visible="true" />
    <linearGradient
       inkscape:collect="always"
       id="linearGradient8075">
      <stop
         style="stop-color:#9b59b6;stop-opacity:1"
         offset="0"
         id="stop8077" />
      <stop
         style="stop-color:#8e44ad;stop-opacity:1"
         offset="1"
         id="stop8079" />
    </linearGradient>
    <linearGradient
       inkscape:collect="always"
       xlink:href="#linearGradient8075"
       id="linearGradient4246"
       gradientUnits="userSpaceOnUse"
       gradientTransform="matrix(1.0745317,0,0,1.0745317,113.36826,-13.323276)"
       x1="5.1026788"
       y1="208.93155"
       x2="59.153271"
       y2="262.98215" />
  </defs>
  <sodipodi:namedview
     id="base"
     pagecolor="#ffffff"
     bordercolor="#666666"
     borderopacity="1.0"
     inkscape:pageopacity="0.0"
     inkscape:pageshadow="2"
     inkscape:zoom="1.4"
     inkscape:cx="421.84135"
     inkscape:cy="204.70908"
     inkscape:document-units="mm"
     inkscape:current-layer="layer1"
     showgrid="false"
     height="209mm"
     inkscape:window-width="1920"
     inkscape:window-height="1056"
     inkscape:window-x="0"
     inkscape:window-y="24"
     inkscape:window-maximized="1" />
  <metadata
     id="metadata7">
    <rdf:RDF>
      <cc:Work
         rdf:about="">
        <dc:format>image/svg+xml</dc:format>
        <dc:type
           rdf:resource="http://purl.org/dc/dcmitype/StillImage" />
        <dc:title />
      </cc:Work>
    </rdf:RDF>
  </metadata>
  <g
     inkscape:label="Layer 1"
     inkscape:groupmode="layer"
     id="layer1"
     transform="translate(0,-197)">
    <text
       xml:space="preserve"
       style="font-style:normal;font-weight:normal;font-size:8.85799503px;line-height:125%;font-family:sans-serif;letter-spacing:0px;word-spacing:0px;fill:#8e44ad;fill-opacity:1;stroke:none;stroke-width:0.33217481px;stroke-linecap:butt;stroke-linejoin:miter;stroke-opacity:1"
       x="128.51758"
       y="285.79425"
       id="text13072"
       sodipodi:linespacing="125%"><tspan
         sodipodi:role="line"
         x="128.51758"
         y="285.79425"
         style="font-style:normal;font-variant:normal;font-weight:bold;font-stretch:normal;font-size:10.50857639px;font-family:'Ubuntu Mono';-inkscape-font-specification:'Ubuntu Mono Bold';text-align:center;text-anchor:middle;fill:#8e44ad;stroke-width:0.33217481px"
         id="tspan13104"><tspan
   style="font-style:normal;font-variant:normal;font-weight:bold;font-stretch:normal;font-family:'Ubuntu Mono';-inkscape-font-specification:'Ubuntu Mono Bold';fill:#bdc3c7"
   id="tspan4205">require(&quot;</tspan>pi-number<tspan
   style="font-style:normal;font-variant:normal;font-weight:bold;font-stretch:normal;font-family:'Ubuntu Mono';-inkscape-font-specification:'Ubuntu Mono Bold';fill:#bdc3c7"
   id="tspan4211">&quot;)</tspan></tspan></text>
    <rect
       rx="3.2478817"
       y="217.96046"
       x="119.46046"
       height="58.079075"
       width="58.079075"
       id="rect4201"
       style="fill:url(#linearGradient4246);fill-opacity:1;fill-rule:nonzero;stroke:none;stroke-width:2.14906335;stroke-miterlimit:4;stroke-dasharray:none;stroke-opacity:1"
       ry="3.2478817" />
    <g
       id="g4231"
       style="fill:#ffffff;stroke:none"
       transform="matrix(0.74122163,0,0,0.74122163,77.990797,106.64163)">
      <path
         sodipodi:nodetypes="cscc"
         inkscape:connector-curvature="0"
         inkscape:original-d="m 101.65755,167.24621 c -0.71243,11.76707 0.48052,14.82896 -0.23859,26.6027 -0.71911,11.77374 -0.15571,7.79058 -0.23859,11.69088 -0.0828,3.90029 11.61469,-2.86642 17.41701,-4.29461"
         inkscape:path-effect="#path-effect4219;#path-effect4225"
         id="path4217"
         d="m 103.96029,166.85642 c 1.51828,9.05817 1.55294,18.39014 0.0378,27.47681 -0.19826,2.10424 -0.35417,3.90642 -0.20755,5.64049 0.1489,1.72849 0.58098,3.05229 1.24238,3.97993 0.67186,0.96424 1.6248,1.64862 2.56988,2.00727 0.81407,0.30894 1.71979,0.44081 2.61368,0.40987 0.13533,-0.005 0.26908,-0.006 0.40554,-0.005 1.01608,0.007 2.5227,0.0796 4.12597,-0.59534 1.61699,-0.68074 3.28212,-2.24582 3.83562,-4.52403 l 0.0275,-0.003 c 0.92655,2.05678 1.4497,4.82468 0.55837,7.67015 -0.87509,2.79363 -3.06686,5.4343 -6.31502,6.50566 -0.41426,0.13664 -0.83756,0.24452 -1.2667,0.32239 -2.80181,0.5084 -5.74289,0.0274 -8.25937,-1.35063 -2.89848,-1.58721 -5.027902,-4.2542 -6.000612,-7.26554 -0.86307,-2.7439 -0.665866,-5.46423 -0.21519,-7.69293 0.435076,-2.14255 1.225457,-4.34832 1.727205,-6.06841 1.773227,-8.42266 1.974057,-17.19806 0.514984,-25.72859 l 4.605483,-0.77958 z"
         style="fill:#ffffff;fill-rule:evenodd;stroke:none;stroke-width:0.33402494px;stroke-linecap:butt;stroke-linejoin:miter;stroke-opacity:1" />
      <path
         inkscape:connector-curvature="0"
         inkscape:original-d="m 91.281249,173.02381 c 2.611689,0.34912 0.06564,19.46313 0.09449,29.19866 0.02885,9.73553 -0.564316,6.92692 -0.850445,10.39435 -0.286128,3.46742 -4.911045,-4.60136 -7.370537,-6.89807 -2.45949,-2.29671 1.514551,-10.77497 2.267857,-16.15848 0.753309,-5.38352 -0.816303,-11.15295 -1.22842,-16.72545 -0.412121,-5.5725 -0.501325,-0.56961 -0.755955,-0.85044 -0.254629,-0.28084 5.231318,0.69031 7.843007,1.03943 z"
         inkscape:path-effect="#path-effect4223"
         id="path4221"
         d="m 91.281249,173.02381 c 1.396053,4.69832 0.822398,9.7291 0.189291,14.58939 -0.633108,4.86028 -1.306627,9.8601 -0.0948,14.60927 0.467447,1.83193 1.213189,3.61272 1.342923,5.49889 0.06487,0.94309 -0.03081,1.9086 -0.384011,2.78546 -0.353201,0.87685 -0.977778,1.66045 -1.809357,2.11 -0.879632,0.47553 -1.94996,0.5501 -2.913057,0.28116 -0.963097,-0.26894 -1.818914,-0.86478 -2.473665,-1.62054 -1.309502,-1.51154 -1.794719,-3.56777 -1.983815,-5.55869 -0.517169,-5.44507 0.851303,-10.87552 2.267857,-16.15848 0.75902,-2.83072 1.540663,-5.69459 1.573248,-8.62512 0.01629,-1.46527 -0.158282,-2.9398 -0.607432,-4.33463 -0.44915,-1.39483 -1.178734,-2.70928 -2.194236,-3.7657 -0.263295,-0.2739 -0.547377,-0.53288 -0.755955,-0.85044 -0.315729,-0.4807 -0.438129,-1.0803 -0.35801,-1.64981 0.08012,-0.5695 0.358092,-1.1058 0.76147,-1.51572 0.403379,-0.40993 0.928378,-0.69429 1.487114,-0.83055 0.558735,-0.13626 1.149676,-0.12656 1.709418,0.005 1.119484,0.26414 2.086921,1.0077 2.780532,1.92526 0.693611,0.91756 1.134868,2.00217 1.462486,3.10475 z"
         style="fill:#ffffff;fill-opacity:1;fill-rule:evenodd;stroke:none;stroke-width:0.26458332px;stroke-linecap:butt;stroke-linejoin:miter;stroke-opacity:1" />
      <path
         sodipodi:nodetypes="cscsssscc"
         inkscape:connector-curvature="0"
         inkscape:original-d="m 73.440774,165.61546 c -5.88825,1.13658 -0.343832,7.17891 -2.267856,10.67783 -1.924028,3.49893 2.01852,-0.12863 3.023809,-0.18898 1.005293,-0.0603 10.648977,-4.28638 15.969493,-6.4256 5.32052,-2.13922 13.8618,0.9423 20.78871,1.41741 6.92692,0.47512 8.25513,-0.0656 12.37872,-0.0945 4.1236,-0.0289 -4.91104,-5.35731 -7.37053,-8.032 -2.45949,-2.67468 -14.86444,1.13129 -27.875768,2.07887 z"
         inkscape:path-effect="#path-effect4229"
         id="path4227"
         d="m 73.440774,165.61546 c -1.433044,-0.3967 -3.02604,-0.17573 -4.297,0.59605 -1.270959,0.77178 -2.201705,2.08334 -2.510624,3.53783 -0.308919,1.4545 0.0084,3.03113 0.855966,4.25286 0.847559,1.22173 2.213229,2.07109 3.683802,2.29109 1.004137,0.15022 2.029863,0.0182 3.023809,-0.18898 5.628499,-1.1733 10.492285,-4.67723 15.969493,-6.4256 6.766296,-2.15986 14.30797,-1.4891 20.78871,1.41741 2.10481,0.94397 4.15714,2.12927 6.44051,2.45715 1.14169,0.16393 2.33181,0.10097 3.4084,-0.31289 1.07659,-0.41387 2.03082,-1.19889 2.52981,-2.23876 0.46102,-0.96074 0.51111,-2.09531 0.21569,-3.11917 -0.29541,-1.02386 -0.92154,-1.9373 -1.71519,-2.6484 -1.58731,-1.42221 -3.75486,-2.01137 -5.87103,-2.26443 -4.63425,-0.55418 -9.31034,0.23527 -13.93376,0.87357 -4.623413,0.6383 -9.278233,1.02476 -13.942008,1.2053 l -14.646578,0.56697 z"
         style="fill:#ffffff;fill-opacity:1;fill-rule:evenodd;stroke:none;stroke-width:0.26458332px;stroke-linecap:butt;stroke-linejoin:miter;stroke-opacity:1" />
    </g>
  </g>
</svg>
