<?xml version="1.0" encoding="UTF-8" standalone="no"?>
<!-- Created with Inkscape (http://www.inkscape.org/) -->

<svg
   xmlns:dc="http://purl.org/dc/elements/1.1/"
   xmlns:cc="http://creativecommons.org/ns#"
   xmlns:rdf="http://www.w3.org/1999/02/22-rdf-syntax-ns#"
   xmlns:svg="http://www.w3.org/2000/svg"
   xmlns="http://www.w3.org/2000/svg"
   xmlns:sodipodi="http://sodipodi.sourceforge.net/DTD/sodipodi-0.dtd"
   xmlns:inkscape="http://www.inkscape.org/namespaces/inkscape"
   width="210mm"
   height="297mm"
   viewBox="0 0 210 297"
   id="svg2"
   version="1.1"
   inkscape:version="0.91+devel r"
   sodipodi:docname="draw.svg"
   inkscape:export-filename="/home/ionicabizau/Desktop/draw.png"
   inkscape:export-xdpi="96.760002"
   inkscape:export-ydpi="96.760002">
  <defs
     id="defs4">
    <inkscape:path-effect
       effect="spiro"
       id="path-effect4876"
       is_visible="true" />
    <inkscape:path-effect
       effect="spiro"
       id="path-effect4880"
       is_visible="true" />
    <inkscape:path-effect
       effect="spiro"
       id="path-effect4860"
       is_visible="true" />
    <inkscape:path-effect
       effect="spiro"
       id="path-effect4856"
       is_visible="true" />
    <inkscape:path-effect
       effect="spiro"
       id="path-effect4852"
       is_visible="true" />
    <inkscape:path-effect
       effect="spiro"
       id="path-effect4848"
       is_visible="true" />
  </defs>
  <sodipodi:namedview
     id="base"
     pagecolor="#ffffff"
     bordercolor="#666666"
     borderopacity="1.0"
     inkscape:pageopacity="0.0"
     inkscape:pageshadow="2"
     inkscape:zoom="0.81869388"
     inkscape:cx="240.79123"
     inkscape:cy="543.14509"
     inkscape:document-units="mm"
     inkscape:current-layer="layer1"
     showgrid="false"
     inkscape:window-width="1920"
     inkscape:window-height="1056"
     inkscape:window-x="0"
     inkscape:window-y="24"
     inkscape:window-maximized="1" />
  <metadata
     id="metadata7">
    <rdf:RDF>
      <cc:Work
         rdf:about="">
        <dc:format>image/svg+xml</dc:format>
        <dc:type
           rdf:resource="http://purl.org/dc/dcmitype/StillImage" />
        <dc:title />
      </cc:Work>
    </rdf:RDF>
  </metadata>
  <g
     inkscape:label="Layer 1"
     inkscape:groupmode="layer"
     id="layer1">
    <rect
       style="fill:#fef200;fill-opacity:1;fill-rule:nonzero;stroke:none;stroke-width:2;stroke-miterlimit:4;stroke-dasharray:none;stroke-opacity:0"
       id="rect4141"
       width="212.65071"
       height="297.96954"
       x="-0.32317737"
       y="0" />
    <ellipse
       style="opacity:1;fill:#000000;fill-opacity:1;fill-rule:nonzero;stroke:none;stroke-width:1.36422825;stroke-miterlimit:4;stroke-dasharray:none;stroke-opacity:1"
       id="path5268"
       cx="110.10816"
       cy="293.57483"
       rx="34.867691"
       ry="35.084938" />
    <g
       id="g4192"
       transform="matrix(1.1800152,-0.07835614,0.06625674,0.99780261,-26.371001,-23.290014)"
       style="stroke-width:0.91955668">
      <rect
         y="69.847427"
         x="-3.1625514"
         height="6.53403"
         width="215.90706"
         id="rect4143"
         style="fill:#0094da;fill-opacity:1;fill-rule:nonzero;stroke:none;stroke-width:1.83911335;stroke-miterlimit:4;stroke-dasharray:none;stroke-opacity:0" />
      <rect
         style="fill:#071923;fill-opacity:1;fill-rule:nonzero;stroke:none;stroke-width:1.83911312;stroke-miterlimit:4;stroke-dasharray:none;stroke-opacity:0"
         id="rect4145"
         width="215.90706"
         height="80.396973"
         x="-3.1625514"
         y="76.359688" />
    </g>
    <text
       xml:space="preserve"
       style="font-style:normal;font-weight:normal;font-size:7.05555534px;line-height:125%;font-family:sans-serif;letter-spacing:0px;word-spacing:0px;fill:#fef200;fill-opacity:1;stroke:none;stroke-width:0.26458332px;stroke-linecap:butt;stroke-linejoin:miter;stroke-opacity:1"
       x="93.276344"
       y="102.1718"
       id="text4206"
       sodipodi:linespacing="125%"
       transform="rotate(-3.7990147)"><tspan
         sodipodi:role="line"
         id="tspan4208"
         x="93.276344"
         y="102.1718"
         style="font-style:normal;font-variant:normal;font-weight:normal;font-stretch:normal;font-family:Dummies;-inkscape-font-specification:Dummies;fill:#fef200;fill-opacity:1;stroke-width:0.26458332px">FOR</tspan></text>
    <text
       xml:space="preserve"
       style="font-style:normal;font-weight:normal;font-size:24.17528725px;line-height:125%;font-family:sans-serif;letter-spacing:0px;word-spacing:0px;fill:#fef200;fill-opacity:1;stroke:none;stroke-width:0.26458329px;stroke-linecap:butt;stroke-linejoin:miter;stroke-opacity:1"
       x="26.393858"
       y="125.895"
       id="text4210"
       sodipodi:linespacing="125%"
       transform="rotate(-3.7990147)"><tspan
         sodipodi:role="line"
         id="tspan4212"
         x="26.393858"
         y="125.895"
         style="font-style:normal;font-variant:normal;font-weight:normal;font-stretch:normal;font-size:25.39999962px;font-family:Dummies;-inkscape-font-specification:Dummies;fill:#fef200;fill-opacity:1;stroke-width:0.26458329px">DUMMIES</tspan></text>
    <path
       style="fill:#ffffff;fill-rule:evenodd;stroke:none;stroke-width:0.26458332px;stroke-linecap:butt;stroke-linejoin:miter;stroke-opacity:1;fill-opacity:1"
       d="m 87.180726,221.0168 23.080614,46.61826 11.65456,-50.8459 1.37113,0.5713 1.59964,4.11338 1.37113,2.85651 1.82817,-0.68556 2.51373,-4.57042 4.9132,-13.02569 0,-8.22676 -2.17095,-7.88397 -2.74225,-0.34278 -1.48539,1.71391 -5.14172,7.08414 -49.703295,0.79983 -0.914085,-1.94243 -1.713908,-0.91408 -1.713904,0.11426 -1.256866,1.25686 -0.685562,2.17095 0,4.57042 2.97077,9.8264 5.255983,9.25509 5.4845,5.82729 1.485387,-1.02835 1.256863,-4.22763 0.685565,-3.19929 z"
       id="path5380"
       inkscape:connector-curvature="0" />
    <path
       style="fill:#000000;fill-opacity:1;fill-rule:evenodd;stroke:#000000;stroke-width:1.28843784;stroke-linecap:butt;stroke-linejoin:miter;stroke-miterlimit:4;stroke-dasharray:none;stroke-opacity:1"
       d="m 128.39728,190.72158 10.21538,-29.91649 -9.25529,5.1461 -1.38254,-4.87726 -4.57004,5.29971 -3.87878,-5.26131 -6.68224,5.56854 -2.84187,-3.57156 -3.87878,4.0324 -5.56853,-6.18299 -9.370509,7.4119 -5.338107,-3.34112 -3.110712,3.80197 -4.070786,-4.80047 -4.454832,7.41192 -6.182998,-4.49323 -0.537656,6.10619 -8.832852,-2.91868 16.359983,26.26813 z"
       id="path4838"
       inkscape:connector-curvature="0" />
    <path
       style="fill:none;fill-rule:evenodd;stroke:#000000;stroke-width:1.28843784;stroke-linecap:butt;stroke-linejoin:miter;stroke-miterlimit:4;stroke-dasharray:none;stroke-opacity:1"
       d="m 74.862511,196.25172 35.408219,72.35259 18.04974,-78.18995"
       id="path4840"
       inkscape:connector-curvature="0" />
    <path
       style="fill:none;fill-rule:evenodd;stroke:#000000;stroke-width:1.28843784;stroke-linecap:butt;stroke-linejoin:miter;stroke-miterlimit:4;stroke-dasharray:none;stroke-opacity:1"
       d="m 101.59149,220.67648 4.1476,9.75454 2.38103,-10.06177"
       id="path4842"
       inkscape:connector-curvature="0" />
    <path
       style="fill:#ffffff;fill-opacity:1;fill-rule:evenodd;stroke:#000000;stroke-width:1.28843784;stroke-linecap:butt;stroke-linejoin:miter;stroke-miterlimit:4;stroke-dasharray:none;stroke-opacity:1"
       d="m 75.891734,196.34194 -3.429892,-4.91259 -0.561361,-9.76862 27.976363,3.05087 28.115896,-7.16385 0.81938,8.46805 -1.87675,5.18434 z"
       id="path4844"
       inkscape:connector-curvature="0" />
    <ellipse
       style="opacity:1;fill:#ffffff;fill-opacity:1;fill-rule:nonzero;stroke:none;stroke-width:1.99291015;stroke-miterlimit:4;stroke-dasharray:none;stroke-opacity:1"
       id="ellipse5272"
       cx="102.11195"
       cy="193.12321"
       rx="6.3864417"
       ry="6.1309566" />
    <path
       style="fill:none;fill-rule:evenodd;stroke:#000000;stroke-width:1.28843784;stroke-linecap:butt;stroke-linejoin:miter;stroke-miterlimit:4;stroke-dasharray:none;stroke-opacity:1"
       d="m 75.860997,191.33605 c 1.716461,-2.03735 4.136662,-3.4702 6.748424,-3.99532 2.611761,-0.52512 5.397681,-0.139 7.768183,1.07663 0.234595,0.1203 0.465187,0.24842 0.691266,0.38405"
       id="path4846"
       inkscape:path-effect="#path-effect4848"
       inkscape:original-d="m 75.860997,191.33605 c 4.84266,-0.97669 9.681538,-1.94958 14.516607,-2.91869 4.835083,-0.9691 0.46464,0.25223 0.691266,0.38405"
       inkscape:connector-curvature="0" />
    <path
       style="fill:none;fill-rule:evenodd;stroke:#000000;stroke-width:1.28843784;stroke-linecap:butt;stroke-linejoin:miter;stroke-miterlimit:4;stroke-dasharray:none;stroke-opacity:1"
       d="m 113.80387,183.57849 c 1.88419,-0.85672 4.02956,-1.12829 6.06779,-0.76807 2.26548,0.40038 4.38492,1.58397 5.91416,3.30272"
       id="path4850"
       inkscape:path-effect="#path-effect4852"
       inkscape:original-d="m 113.80387,183.57849 c 2.02638,-0.25981 4.04898,-0.51584 6.06779,-0.76807 2.0188,-0.25224 3.94657,2.19803 5.91416,3.30272"
       inkscape:connector-curvature="0" />
    <path
       style="fill:none;fill-rule:evenodd;stroke:#000000;stroke-width:1.28843784;stroke-linecap:butt;stroke-linejoin:miter;stroke-miterlimit:4;stroke-dasharray:none;stroke-opacity:1"
       d="m 74.708887,199.78485 c 0.0021,-0.70429 -0.226187,-1.4074 -0.641516,-1.97621 -0.415329,-0.5688 -1.015555,-1.00029 -1.687032,-1.21278 -0.671477,-0.2125 -1.410667,-0.20486 -2.077612,0.0215 -0.666946,0.22631 -1.258133,0.67011 -1.661627,1.24737 -0.507181,0.7256 -0.706746,1.63084 -0.715922,2.51608 -0.0092,0.88523 0.159664,1.76163 0.33189,2.63 1.064319,5.36633 2.313051,10.77978 4.915676,15.59192 1.894311,3.50249 4.45693,6.59308 7.066288,9.60093 0.226267,0.26082 0.45542,0.52346 0.733043,0.72876 0.277623,0.20531 0.611468,0.35143 0.956723,0.34654 0.227278,-0.003 0.451471,-0.0721 0.648902,-0.18476 0.197432,-0.11263 0.368725,-0.26804 0.511733,-0.44472 0.286016,-0.35335 0.456929,-0.78441 0.60593,-1.2139 0.598659,-1.72561 0.911418,-3.55004 0.921689,-5.37652"
       id="path4854"
       inkscape:path-effect="#path-effect4856"
       inkscape:original-d="m 74.708887,199.78485 c -1.122721,-0.69504 -4.93749,-1.2327 -6.067787,-1.92017 -1.130297,-0.68749 0.208609,4.01579 -0.384032,5.14608 -0.592641,1.13031 3.383315,9.0339 4.915676,15.59192 1.532362,6.55802 4.714644,6.39682 7.066288,9.60093 2.351628,3.2041 1.130297,0.71307 1.689766,1.0753 0.559456,0.36222 1.181501,-1.2327 1.766565,-1.84338 0.585064,-0.61067 0.61825,-3.58814 0.921689,-5.37652"
       inkscape:connector-curvature="0"
       sodipodi:nodetypes="cssssssc" />
    <path
       style="fill:none;fill-rule:evenodd;stroke:#000000;stroke-width:1.28843784;stroke-linecap:butt;stroke-linejoin:miter;stroke-miterlimit:4;stroke-dasharray:none;stroke-opacity:1"
       d="m 128.5509,192.25774 c 0.24993,-1.12528 1.08105,-2.10481 2.15061,-2.53465 0.34253,-0.13766 0.70832,-0.22186 1.07742,-0.22834 0.3691,-0.006 0.74155,0.0662 1.07318,0.22834 0.52826,0.25835 0.92837,0.73081 1.19935,1.25269 0.27099,0.52189 0.42484,1.09544 0.56723,1.66599 1.0639,4.26285 1.59787,8.72866 0.84488,13.05726 -0.9925,5.7054 -4.12785,10.77779 -6.14459,16.20636 -0.19689,0.52999 -0.38687,1.07099 -0.70967,1.53516 -0.16139,0.23209 -0.35579,0.4432 -0.58612,0.6071 -0.23034,0.16389 -0.49763,0.27954 -0.77801,0.31559 -0.29569,0.038 -0.59982,-0.0135 -0.8746,-0.12918 -0.27478,-0.11566 -0.52089,-0.29392 -0.73096,-0.50546 -0.42015,-0.42308 -0.69223,-0.96879 -0.92909,-1.51598 -0.58409,-1.34937 -0.99803,-2.77229 -1.22891,-4.22441"
       id="path4858"
       inkscape:path-effect="#path-effect4860"
       inkscape:original-d="m 128.5509,192.25774 c 0.74627,-0.82308 1.43754,-1.69355 2.15061,-2.53465 0.71308,-0.84109 1.43752,-0.004 2.1506,0 0.7131,0.004 1.18152,1.94199 1.76658,2.91868 0.58506,0.97669 0.56705,8.70105 0.84488,13.05726 0.27784,4.35621 -4.0926,10.80045 -6.14459,16.20636 -2.052,5.40592 -1.37875,1.63478 -2.0738,2.45785 -0.69506,0.82306 -1.68598,-1.43754 -2.53465,-2.15062 -0.84868,-0.71308 -0.81549,-2.82005 -1.22891,-4.22441"
       inkscape:connector-curvature="0" />
    <ellipse
       ry="14.524423"
       rx="15.129677"
       cy="203.7339"
       cx="118.02795"
       id="ellipse4872"
       style="opacity:1;fill:#ffffff;fill-opacity:1;fill-rule:nonzero;stroke:#000000;stroke-width:1.99291015;stroke-miterlimit:4;stroke-dasharray:none;stroke-opacity:1" />
    <ellipse
       style="opacity:1;fill:#ffffff;fill-opacity:1;fill-rule:nonzero;stroke:#000000;stroke-width:1.99291015;stroke-miterlimit:4;stroke-dasharray:none;stroke-opacity:1"
       id="path4862"
       cx="87.711761"
       cy="206.76553"
       rx="15.129677"
       ry="14.524423" />
    <ellipse
       ry="3.9425948"
       rx="3.9870405"
       cy="200.18175"
       cx="86.550034"
       id="ellipse4868"
       style="opacity:1;fill:#000000;fill-opacity:1;fill-rule:nonzero;stroke:none;stroke-width:1.99291015;stroke-miterlimit:4;stroke-dasharray:none;stroke-opacity:1" />
    <ellipse
       style="opacity:1;fill:#000000;fill-opacity:1;fill-rule:nonzero;stroke:none;stroke-width:1.99291015;stroke-miterlimit:4;stroke-dasharray:none;stroke-opacity:1"
       id="ellipse4870"
       cx="118.16479"
       cy="196.82672"
       rx="3.9870405"
       ry="3.9425948" />
    <g
       transform="matrix(0.37895231,0,0,0.37895231,42.219356,156.92631)"
       id="g5264">
      <path
         inkscape:connector-curvature="0"
         inkscape:original-d="m 157.0798,222.14124 c 3.18537,1.88171 6.22563,3.77342 9.32344,5.67514 3.09782,1.90171 10.95492,-7.17149 16.41738,-10.74223"
         inkscape:path-effect="#path-effect4876"
         id="path4874"
         d="m 157.0798,222.14124 c 2.2243,2.99393 5.64236,5.07449 9.32344,5.67514 3.5428,0.57809 7.29174,-0.21638 10.29551,-2.18182 3.00378,-1.96543 5.23296,-5.08256 6.12187,-8.56041"
         style="fill:none;fill-rule:evenodd;stroke:#000000;stroke-width:3.5999999;stroke-linecap:butt;stroke-linejoin:miter;stroke-miterlimit:4;stroke-dasharray:none;stroke-opacity:1" />
      <path
         inkscape:connector-curvature="0"
         inkscape:original-d="m 180.23963,213.1869 c 2.07065,2.77049 4.12912,5.71172 6.1754,8.58524"
         inkscape:path-effect="#path-effect4880"
         id="path4878"
         d="m 180.23963,213.1869 6.1754,8.58524"
         style="fill:none;fill-rule:evenodd;stroke:#000000;stroke-width:3.5999999;stroke-linecap:butt;stroke-linejoin:miter;stroke-miterlimit:4;stroke-dasharray:none;stroke-opacity:1" />
    </g>
  </g>
</svg>
