<?xml version="1.0" encoding="UTF-8" standalone="no"?>
<!-- Created with Inkscape (http://www.inkscape.org/) -->

<svg
   xmlns:dc="http://purl.org/dc/elements/1.1/"
   xmlns:cc="http://creativecommons.org/ns#"
   xmlns:rdf="http://www.w3.org/1999/02/22-rdf-syntax-ns#"
   xmlns:svg="http://www.w3.org/2000/svg"
   xmlns="http://www.w3.org/2000/svg"
   xmlns:xlink="http://www.w3.org/1999/xlink"
   xmlns:sodipodi="http://sodipodi.sourceforge.net/DTD/sodipodi-0.dtd"
   xmlns:inkscape="http://www.inkscape.org/namespaces/inkscape"
   width="900"
   height="400"
   viewBox="0 0 900.00001 400.00001"
   id="svg2"
   version="1.1"
   inkscape:version="0.91 r13725"
   sodipodi:docname="h.svg"
   inkscape:export-filename="/home/ionicabizau/Documents/Resources/messager/h.png"
   inkscape:export-xdpi="90"
   inkscape:export-ydpi="90">
  <defs
     id="defs4">
    <linearGradient
       inkscape:collect="always"
       id="linearGradient9723">
      <stop
         style="stop-color:#2ecc71;stop-opacity:1"
         offset="0"
         id="stop9725" />
      <stop
         style="stop-color:#3498db;stop-opacity:1"
         offset="1"
         id="stop9727" />
    </linearGradient>
    <linearGradient
       inkscape:collect="always"
       id="linearGradient9649">
      <stop
         style="stop-color:#2ecc71;stop-opacity:1"
         offset="0"
         id="stop9651" />
      <stop
         style="stop-color:#3498db;stop-opacity:1"
         offset="1"
         id="stop9653" />
    </linearGradient>
    <linearGradient
       inkscape:collect="always"
       xlink:href="#linearGradient9649"
       id="linearGradient9655"
       x1="62.090591"
       y1="597.03113"
       x2="235.19164"
       y2="771.38654"
       gradientUnits="userSpaceOnUse" />
    <linearGradient
       inkscape:collect="always"
       xlink:href="#linearGradient9649"
       id="linearGradient9672"
       gradientUnits="userSpaceOnUse"
       x1="62.090591"
       y1="597.03113"
       x2="235.19164"
       y2="771.38654"
       gradientTransform="translate(-3.3538086e-4,-2.8443359e-4)" />
    <linearGradient
       inkscape:collect="always"
       xlink:href="#linearGradient9649"
       id="linearGradient9676"
       gradientUnits="userSpaceOnUse"
       gradientTransform="translate(399.99966,-2.8886718e-4)"
       x1="62.090591"
       y1="597.03113"
       x2="235.19164"
       y2="771.38654" />
    <linearGradient
       inkscape:collect="always"
       xlink:href="#linearGradient9649"
       id="linearGradient9680"
       gradientUnits="userSpaceOnUse"
       gradientTransform="translate(200.00063,-3.4443359e-4)"
       x1="62.090591"
       y1="597.03113"
       x2="235.19164"
       y2="771.38654" />
    <linearGradient
       inkscape:collect="always"
       xlink:href="#linearGradient9649"
       id="linearGradient9695"
       gradientUnits="userSpaceOnUse"
       x1="62.090591"
       y1="597.03113"
       x2="235.19164"
       y2="771.38654" />
    <linearGradient
       inkscape:collect="always"
       xlink:href="#linearGradient9649"
       id="linearGradient9703"
       gradientUnits="userSpaceOnUse"
       x1="62.090591"
       y1="597.03113"
       x2="235.19164"
       y2="771.38654" />
    <linearGradient
       inkscape:collect="always"
       xlink:href="#linearGradient9723"
       id="linearGradient9758"
       x1="188.78049"
       y1="795.2193"
       x2="708.71082"
       y2="941.35168"
       gradientUnits="userSpaceOnUse" />
    <linearGradient
       inkscape:collect="always"
       xlink:href="#linearGradient9723"
       id="linearGradient9760"
       gradientUnits="userSpaceOnUse"
       x1="188.78049"
       y1="795.2193"
       x2="708.71082"
       y2="941.35168" />
    <linearGradient
       inkscape:collect="always"
       xlink:href="#linearGradient9723"
       id="linearGradient9762"
       gradientUnits="userSpaceOnUse"
       x1="188.78049"
       y1="795.2193"
       x2="708.71082"
       y2="941.35168" />
  </defs>
  <sodipodi:namedview
     id="base"
     pagecolor="#ffffff"
     bordercolor="#666666"
     borderopacity="1.0"
     inkscape:pageopacity="0.0"
     inkscape:pageshadow="2"
     inkscape:zoom="1.5944444"
     inkscape:cx="450"
     inkscape:cy="200"
     inkscape:document-units="px"
     inkscape:current-layer="layer1"
     showgrid="false"
     units="px"
     inkscape:window-width="1920"
     inkscape:window-height="1056"
     inkscape:window-x="0"
     inkscape:window-y="24"
     inkscape:window-maximized="1" />
  <metadata
     id="metadata7">
    <rdf:RDF>
      <cc:Work
         rdf:about="">
        <dc:format>image/svg+xml</dc:format>
        <dc:type
           rdf:resource="http://purl.org/dc/dcmitype/StillImage" />
        <dc:title></dc:title>
      </cc:Work>
    </rdf:RDF>
  </metadata>
  <g
     inkscape:label="Layer 1"
     inkscape:groupmode="layer"
     id="layer1"
     transform="translate(0,-652.36216)">
    <g
       id="g9764"
       transform="translate(-3.6525726e-6,-2.474116)">
      <g
         transform="translate(0,40)"
         style="fill:url(#linearGradient9758);fill-opacity:1"
         id="g9752">
        <text
           xml:space="preserve"
           style="font-style:normal;font-weight:normal;font-size:39.88411331px;line-height:125%;font-family:sans-serif;letter-spacing:0px;word-spacing:0px;fill:url(#linearGradient9760);fill-opacity:1;stroke:none;stroke-width:1px;stroke-linecap:butt;stroke-linejoin:miter;stroke-opacity:1"
           x="181.98811"
           y="873.58905"
           id="text4136"
           sodipodi:linespacing="125%"><tspan
             sodipodi:role="line"
             id="tspan4138"
             x="181.98811"
             y="873.58905"
             style="font-style:normal;font-variant:normal;font-weight:900;font-stretch:normal;font-size:112.17406464px;font-family:Raleway;-inkscape-font-specification:'Raleway Heavy';fill:url(#linearGradient9760);fill-opacity:1">Messager</tspan></text>
        <text
           xml:space="preserve"
           style="font-style:normal;font-weight:normal;font-size:26.26592636px;line-height:125%;font-family:sans-serif;letter-spacing:0px;word-spacing:0px;fill:url(#linearGradient9762);fill-opacity:1;stroke:none;stroke-width:1px;stroke-linecap:butt;stroke-linejoin:miter;stroke-opacity:1"
           x="186.49284"
           y="938.23145"
           id="text4140"
           sodipodi:linespacing="125%"><tspan
             sodipodi:role="line"
             id="tspan4142"
             x="186.49284"
             y="938.23145"
             style="font-style:normal;font-variant:normal;font-weight:normal;font-stretch:normal;font-family:Raleway;-inkscape-font-specification:Raleway;fill:url(#linearGradient9762);fill-opacity:1">Inter-process communication made simple.</tspan></text>
      </g>
      <g
         transform="translate(0,10)"
         id="g9731">
        <g
           id="g9711"
           transform="matrix(0.6334134,0,0,0.6334134,228.90119,296.79623)">
          <g
             transform="translate(200,0)"
             id="g9689">
            <circle
               r="85.923347"
               cy="684.34821"
               cx="149.05923"
               id="circle9691"
               style="opacity:1;fill:url(#linearGradient9695);fill-opacity:1;stroke:none;stroke-width:1.00157475;stroke-miterlimit:4;stroke-dasharray:none;stroke-opacity:1" />
            <circle
               style="opacity:1;fill:#ffffff;fill-opacity:1;stroke:none;stroke-width:1.00157475;stroke-miterlimit:4;stroke-dasharray:none;stroke-opacity:1"
               id="circle9693"
               cx="149.05923"
               cy="684.34821"
               r="80.905922" />
          </g>
          <path
             inkscape:connector-curvature="0"
             id="circle9678"
             d="m 312.78969,640.93406 c -0.97639,0 -1.95989,0.384 -2.70508,1.1524 -5.52614,5.6735 -8.30455,13.1319 -8.29882,20.5703 -0.006,7.4298 2.77255,14.9025 8.29296,20.5703 1.4964,1.5368 3.91768,1.5368 5.41407,0 1.49057,-1.534 1.49057,-4.0239 0,-5.5547 -4.04131,-4.1597 -6.05078,-9.5675 -6.05078,-15.0156 0,-5.4481 2.00947,-10.8616 6.05078,-15.0156 1.49057,-1.5399 1.49043,-4.0295 0.006,-5.5547 -0.75102,-0.7684 -1.72687,-1.1524 -2.70899,-1.1524 z m 72.54688,0.057 c -0.97853,0 -1.9558,0.3839 -2.70117,1.1523 -1.49641,1.5339 -1.49641,4.0237 0,5.5547 4.03834,4.1539 6.04882,9.5675 6.04882,15.0156 0,5.4424 -2.01634,10.8558 -6.05468,15.0098 -1.49049,1.5368 -1.49063,4.0314 0.006,5.5566 0.74529,0.7684 1.7209,1.1524 2.70312,1.1524 0.97638,0 1.9599,-0.384 2.70508,-1.1524 5.52337,-5.6677 8.30063,-13.1424 8.28906,-20.5722 0.012,-7.424 -2.76577,-14.8969 -8.28906,-20.5645 -0.7482,-0.7684 -1.72851,-1.1523 -2.70703,-1.1523 z m -57.9043,8.0215 c -0.9591,0 -1.92447,0.374 -2.6582,1.1308 -3.35381,3.4492 -5.0527,7.993 -5.04688,12.5137 -0.006,4.5122 1.69315,9.0567 5.04688,12.5 1.46745,1.508 3.84505,1.508 5.3125,0 1.46744,-1.5079 1.46744,-3.9531 0,-5.461 -1.89775,-1.9528 -2.83411,-4.4767 -2.83985,-7.039 0.006,-2.5681 0.942,-5.0893 2.83985,-7.0449 1.46744,-1.5109 1.46744,-3.9551 0,-5.4629 -0.73373,-0.7569 -1.68938,-1.1367 -2.6543,-1.1367 z m 43.25977,0.072 c -0.96121,0 -1.92253,0.3769 -2.65625,1.1309 -1.46745,1.5079 -1.46745,3.9511 0,5.459 1.89497,1.9528 2.8301,4.4854 2.83593,7.039 -0.006,2.5682 -0.94096,5.097 -2.83593,7.0469 -1.46745,1.5107 -1.46745,3.955 0,5.4629 0.7279,0.7568 1.68764,1.1289 2.6582,1.1289 0.95336,0 1.91667,-0.3721 2.65039,-1.1289 3.35678,-3.4433 5.05648,-7.9948 5.04492,-12.5098 0.0116,-4.5122 -1.6825,-9.0547 -5.04492,-12.498 -0.73081,-0.754 -1.69113,-1.1309 -2.65234,-1.1309 z m -21.53711,3.9863 c -5.30651,0 -9.61328,4.3087 -9.61328,9.6153 9e-5,5.3066 4.30677,9.6133 9.61328,9.6133 5.30373,0 9.61328,-4.3067 9.61328,-9.6133 0,-5.3066 -4.30955,-9.6153 -9.61328,-9.6153 z m -7.10547,25.1094 -18.60156,49.5821 8.80468,0 5.07032,-5.9161 23.66406,0 4.99219,5.9161 8.81054,0 -18.59765,-49.5704 c -2.19543,1.1815 -4.59871,1.7852 -7.01368,1.7852 -2.44967,0.01 -4.90471,-0.5981 -7.1289,-1.7969 z m 7.07031,4.6309 5.95117,21.2871 -11.83203,0 5.88086,-21.2871 z m -5.88086,27.2031 11.83203,0 5.91602,5.916 -23.66406,0 5.91601,-5.916 z"
             style="opacity:1;fill:url(#linearGradient9680);fill-opacity:1;stroke:none;stroke-width:1.00157475;stroke-miterlimit:4;stroke-dasharray:none;stroke-opacity:1" />
        </g>
        <g
           id="g9705"
           transform="matrix(0.6334134,0,0,0.6334134,148.8396,296.79623)">
          <g
             id="g9685">
            <circle
               style="opacity:1;fill:url(#linearGradient9655);fill-opacity:1;stroke:none;stroke-width:1.00157475;stroke-miterlimit:4;stroke-dasharray:none;stroke-opacity:1"
               id="path9645"
               cx="149.05923"
               cy="684.34821"
               r="85.923347" />
            <circle
               r="80.905922"
               cy="684.34821"
               cx="149.05923"
               id="circle9647"
               style="opacity:1;fill:#ffffff;fill-opacity:1;stroke:none;stroke-width:1.00157475;stroke-miterlimit:4;stroke-dasharray:none;stroke-opacity:1" />
          </g>
          <path
             inkscape:connector-curvature="0"
             id="circle9670"
             d="m 131.69302,640.93415 0,34.73046 -26.04883,0 43.41406,52.09766 43.41602,-52.09766 -26.04883,0 0,-34.73046 -34.73242,0 z"
             style="opacity:1;fill:url(#linearGradient9672);fill-opacity:1;stroke:none;stroke-width:1.00157475;stroke-miterlimit:4;stroke-dasharray:none;stroke-opacity:1" />
        </g>
        <g
           id="g9717"
           transform="matrix(0.63341442,0,0,0.63341442,308.96214,296.79553)">
          <g
             id="g9697"
             transform="translate(400,0)">
            <circle
               style="opacity:1;fill:url(#linearGradient9703);fill-opacity:1;stroke:none;stroke-width:1.00157475;stroke-miterlimit:4;stroke-dasharray:none;stroke-opacity:1"
               id="circle9699"
               cx="149.05923"
               cy="684.34821"
               r="85.923347" />
            <circle
               r="80.905922"
               cy="684.34821"
               cx="149.05923"
               id="circle9701"
               style="opacity:1;fill:#ffffff;fill-opacity:1;stroke:none;stroke-width:1.00157475;stroke-miterlimit:4;stroke-dasharray:none;stroke-opacity:1" />
          </g>
          <path
             inkscape:connector-curvature="0"
             id="circle9674"
             d="m 549.05825,640.93415 -43.41406,52.09765 26.04883,0 0,34.73047 34.73242,0 0,-34.73047 26.04883,0 -43.41602,-52.09765 z"
             style="opacity:1;fill:url(#linearGradient9676);fill-opacity:1;stroke:none;stroke-width:1.00157475;stroke-miterlimit:4;stroke-dasharray:none;stroke-opacity:1" />
        </g>
      </g>
    </g>
  </g>
</svg>
