<?xml version="1.0" encoding="UTF-8" standalone="no"?>
<!-- Created with Inkscape (http://www.inkscape.org/) -->

<svg
   xmlns:dc="http://purl.org/dc/elements/1.1/"
   xmlns:cc="http://creativecommons.org/ns#"
   xmlns:rdf="http://www.w3.org/1999/02/22-rdf-syntax-ns#"
   xmlns:svg="http://www.w3.org/2000/svg"
   xmlns="http://www.w3.org/2000/svg"
   xmlns:sodipodi="http://sodipodi.sourceforge.net/DTD/sodipodi-0.dtd"
   xmlns:inkscape="http://www.inkscape.org/namespaces/inkscape"
   width="900"
   height="400"
   viewBox="0 0 900.00002 399.99998"
   id="svg2"
   version="1.1"
   inkscape:version="0.91 r13725"
   sodipodi:docname="h.svg">
  <defs
     id="defs4" />
  <sodipodi:namedview
     id="base"
     pagecolor="#ffffff"
     bordercolor="#666666"
     borderopacity="1.0"
     inkscape:pageopacity="0.0"
     inkscape:pageshadow="2"
     inkscape:zoom="0.35"
     inkscape:cx="349.28571"
     inkscape:cy="520"
     inkscape:document-units="px"
     inkscape:current-layer="layer1"
     showgrid="false"
     width="900mm"
     units="px"
     inkscape:window-width="960"
     inkscape:window-height="1028"
     inkscape:window-x="960"
     inkscape:window-y="24"
     inkscape:window-maximized="0" />
  <metadata
     id="metadata7">
    <rdf:RDF>
      <cc:Work
         rdf:about="">
        <dc:format>image/svg+xml</dc:format>
        <dc:type
           rdf:resource="http://purl.org/dc/dcmitype/StillImage" />
        <dc:title></dc:title>
      </cc:Work>
    </rdf:RDF>
  </metadata>
  <g
     inkscape:label="Layer 1"
     inkscape:groupmode="layer"
     id="layer1"
     transform="translate(0,-652.36229)">
    <path
       inkscape:connector-curvature="0"
       d="m 234.09143,186.00513 -1.38,0 c 0.19,-0.33 0.33,-0.67 0.36,-0.91 0.06,-0.67 -0.11,-1.22 -0.52,-1.61 -0.36,-0.38 -0.81,-0.48 -1.36,-0.48 -0.05,0 -0.08,0 -0.11,0 -0.53,0.02 -1.11,0.25 -1.53,0.58 -0.42,0.33 -0.73,0.72 -0.97,1.2 -0.23,-0.48 -0.55,-0.88 -0.97,-1.2 -0.42,-0.32 -1,-0.58 -1.53,-0.58 -0.02,0 -0.03,0 -0.03,0 -0.56,0 -1.06,0.09 -1.44,0.48 -0.41,0.39 -0.58,0.94 -0.52,1.61 0.03,0.23 0.17,0.58 0.36,0.91 l -1.38,0 c -0.55,0 -1,0.45 -1,1 l 0,3 1,0 0,5 c 0,0.55 0.45,1 1,1 l 9,0 c 0.55,0 1,-0.45 1,-1 l 0,-5 1,0 0,-3 c 0,-0.55 -0.45,-1 -1,-1 z m -4.78,-0.88 c 0.17,-0.36 0.42,-0.67 0.75,-0.92 0.3,-0.23 0.72,-0.39 1.05,-0.41 l 0.09,0 c 0.45,0 0.66,0.11 0.8,0.25 0.14,0.14 0.33,0.39 0.3,0.95 -0.05,0.19 -0.25,0.61 -0.5,1 l -2.9,0 0.41,-0.88 z m -4.13,-1.08 c 0.13,-0.13 0.31,-0.25 0.91,-0.25 0.31,0 0.72,0.17 1.03,0.41 0.33,0.25 0.58,0.55 0.75,0.92 l 0.42,0.88 -2.9,0 c -0.25,-0.39 -0.45,-0.81 -0.5,-1 -0.03,-0.56 0.16,-0.81 0.3,-0.95 z m 2.91,10.95 -4,0 0,-4.99 4,0 0,5 z m 0,-6 -5,0 0,-1.99 5,0 0,2 z m 5,6 -4,0 0,-4.99 4,0 0,5 z m 1,-6 -5,0 0,-1.99 5,0 0,2 z"
       id="path4256" />
  </g>
</svg>
