<?xml version="1.0" encoding="UTF-8" standalone="no"?>
<!-- Created with Inkscape (http://www.inkscape.org/) -->

<svg
   xmlns:dc="http://purl.org/dc/elements/1.1/"
   xmlns:cc="http://creativecommons.org/ns#"
   xmlns:rdf="http://www.w3.org/1999/02/22-rdf-syntax-ns#"
   xmlns:svg="http://www.w3.org/2000/svg"
   xmlns="http://www.w3.org/2000/svg"
   xmlns:sodipodi="http://sodipodi.sourceforge.net/DTD/sodipodi-0.dtd"
   xmlns:inkscape="http://www.inkscape.org/namespaces/inkscape"
   width="900"
   height="400"
   viewBox="0 0 238.12499 105.83334"
   id="svg2"
   version="1.1"
   inkscape:version="0.91+devel r"
   inkscape:export-filename="/home/ionicabizau/g10110.png"
   inkscape:export-xdpi="96"
   inkscape:export-ydpi="96"
   sodipodi:docname="h.svg">
  <defs
     id="defs4" />
  <sodipodi:namedview
     id="base"
     pagecolor="#ffffff"
     bordercolor="#666666"
     borderopacity="1.0"
     inkscape:pageopacity="0.0"
     inkscape:pageshadow="2"
     inkscape:zoom="1.4"
     inkscape:cx="386.51659"
     inkscape:cy="130.04177"
     inkscape:document-units="mm"
     inkscape:current-layer="layer1"
     showgrid="false"
     units="px"
     inkscape:window-width="1920"
     inkscape:window-height="1056"
     inkscape:window-x="0"
     inkscape:window-y="24"
     inkscape:window-maximized="1" />
  <metadata
     id="metadata7">
    <rdf:RDF>
      <cc:Work
         rdf:about="">
        <dc:format>image/svg+xml</dc:format>
        <dc:type
           rdf:resource="http://purl.org/dc/dcmitype/StillImage" />
        <dc:title></dc:title>
      </cc:Work>
    </rdf:RDF>
  </metadata>
  <g
     inkscape:label="Layer 1"
     inkscape:groupmode="layer"
     id="layer1"
     transform="translate(0,-191.16665)">
    <g
       id="g10110"
       transform="translate(0,9.0212139)">
      <g
         style="stroke-width:1.98013997"
         transform="matrix(0.50501481,0,0,0.50501481,29.001653,94.359286)"
         id="g10088">
        <path
           d="m 208.7616,257.8282 6.87244,0 0,-6.87244 -6.87244,0 0,6.87244 z m 3.43622,-27.48978 c -5.15433,0 -10.30866,5.15434 -10.30866,10.30867 l 6.87244,0 c 0,-1.71811 1.71811,-3.43622 3.43622,-3.43622 1.71811,0 3.43622,1.71811 3.43622,3.43622 0,3.43622 -6.87244,3.43622 -6.87244,6.87245 l 6.87244,0 c 3.43624,-1.18121 6.87246,-3.43623 6.87246,-8.59056 0,-5.15433 -5.15433,-8.59056 -10.30868,-8.59056 z m 0,-13.74488 c -15.19454,0 -27.48979,12.29523 -27.48979,27.48977 0,15.19455 12.29525,27.48978 27.48979,27.48978 15.19456,0 27.48979,-12.29523 27.48979,-27.48978 0,-15.19454 -12.29523,-27.48977 -27.48979,-27.48977 z m 0,48.10711 c -11.38248,0 -20.61734,-9.23485 -20.61734,-20.61734 0,-11.38248 9.23486,-20.61733 20.61734,-20.61733 11.3825,0 20.61735,9.23485 20.61735,20.61733 0,11.38249 -9.23485,20.61734 -20.61735,20.61734 z"
           id="path9516"
           inkscape:connector-curvature="0"
           style="fill:#c0392b;stroke-width:0.52391201" />
        <path
           d="m 148.69778,216.59332 -31.71923,8.45846 0,38.06307 31.71923,8.45847 31.71924,-8.45847 0,-38.06307 -31.71924,-8.45846 z m -27.49827,43.41133 -0.0248,-28.60902 25.40831,6.77555 5e-5,28.60236 -25.38357,-6.76889 z m -0.0248,-32.83826 10.58987,-2.82394 27.50626,7.33502 0,0.009 -10.57307,2.81952 -27.52306,-7.33951 z m 55.0213,32.83826 -25.38357,6.76889 8e-5,-28.60236 8.45832,-2.25557 0,10.30874 8.45846,-2.25569 0,-10.30862 8.49151,-2.26441 -0.0248,28.60902 z m -8.46671,-30.57383 0,-0.009 -27.50758,-7.33533 8.47605,-2.26025 27.52304,7.33943 -8.49151,2.26443 z"
           id="path8899"
           inkscape:connector-curvature="0"
           style="fill:#f39c12;stroke-width:0.52391201" />
      </g>
      <g
         id="g10104">
        <text
           xml:space="preserve"
           style="font-style:normal;font-weight:normal;font-size:7.05555534px;line-height:125%;font-family:sans-serif;letter-spacing:0px;word-spacing:0px;opacity:0.16600001;fill:#2c3e50;fill-opacity:1;stroke:none;stroke-width:0.26458332px;stroke-linecap:butt;stroke-linejoin:miter;stroke-opacity:1"
           x="62.290489"
           y="249.48291"
           id="text10096"
           sodipodi:linespacing="125%"><tspan
             sodipodi:role="line"
             id="tspan10098"
             x="62.290489"
             y="249.48291"
             style="font-style:normal;font-variant:normal;font-weight:100;font-stretch:normal;font-size:12.69999981px;font-family:Raleway;-inkscape-font-specification:'Raleway Thin';fill:#2c3e50;stroke-width:0.26458332px">require(&quot;       &quot;)</tspan></text>
        <text
           xml:space="preserve"
           style="font-style:normal;font-weight:normal;font-size:7.05555534px;line-height:125%;font-family:sans-serif;letter-spacing:0px;word-spacing:0px;fill:#2c3e50;fill-opacity:1;stroke:none;stroke-width:0.26458332px;stroke-linecap:butt;stroke-linejoin:miter;stroke-opacity:1"
           x="108.37334"
           y="248.8952"
           id="text10092"
           sodipodi:linespacing="125%"><tspan
             sodipodi:role="line"
             id="tspan10094"
             x="108.37334"
             y="248.8952"
             style="font-style:normal;font-variant:normal;font-weight:normal;font-stretch:normal;font-size:14.11111069px;font-family:'Ubuntu Mono';-inkscape-font-specification:'Ubuntu Mono';fill:#2c3e50;stroke-width:0.26458332px">idy</tspan></text>
      </g>
      <text
         sodipodi:linespacing="125%"
         id="text10100"
         y="264.49402"
         x="35.717564"
         style="font-style:normal;font-weight:normal;font-size:7.05555534px;line-height:125%;font-family:sans-serif;letter-spacing:0px;word-spacing:0px;fill:#2c3e50;fill-opacity:1;stroke:none;stroke-width:0.26458332px;stroke-linecap:butt;stroke-linejoin:miter;stroke-opacity:1"
         xml:space="preserve"><tspan
           style="font-style:normal;font-variant:normal;font-weight:100;font-stretch:normal;font-size:8.46666622px;font-family:Raleway;-inkscape-font-specification:'Raleway Thin';fill:#2c3e50;stroke-width:0.26458332px"
           y="264.49402"
           x="35.717564"
           id="tspan10102"
           sodipodi:role="line">Generate random and potentially unique ids.</tspan></text>
    </g>
  </g>
</svg>
