<?xml version="1.0" encoding="UTF-8" standalone="no"?>
<!-- Created with Inkscape (http://www.inkscape.org/) -->

<svg
   xmlns:dc="http://purl.org/dc/elements/1.1/"
   xmlns:cc="http://creativecommons.org/ns#"
   xmlns:rdf="http://www.w3.org/1999/02/22-rdf-syntax-ns#"
   xmlns:svg="http://www.w3.org/2000/svg"
   xmlns="http://www.w3.org/2000/svg"
   xmlns:xlink="http://www.w3.org/1999/xlink"
   xmlns:sodipodi="http://sodipodi.sourceforge.net/DTD/sodipodi-0.dtd"
   xmlns:inkscape="http://www.inkscape.org/namespaces/inkscape"
   width="900mm"
   height="400mm"
   viewBox="0 0 900 400"
   id="svg2"
   version="1.1"
   inkscape:version="0.91+devel r"
   sodipodi:docname="h.svg"
   inkscape:export-filename="/home/ionicabizau/Documents/repository-downloader/downloads/github/IonicaBizau/Resources/octo-pakia/h.png"
   inkscape:export-xdpi="49.759998"
   inkscape:export-ydpi="49.759998">
  <defs
     id="defs4">
    <linearGradient
       inkscape:collect="always"
       id="linearGradient3338">
      <stop
         style="stop-color:#87dff7;stop-opacity:1"
         offset="0"
         id="stop3340" />
      <stop
         style="stop-color:#0bc5f4;stop-opacity:1"
         offset="1"
         id="stop3342" />
    </linearGradient>
    <linearGradient
       inkscape:collect="always"
       xlink:href="#linearGradient3338"
       id="linearGradient3344"
       x1="418.98734"
       y1="-76.417717"
       x2="418.98734"
       y2="230.54431"
       gradientUnits="userSpaceOnUse"
       gradientTransform="translate(11.072627,4.5440102e-5)" />
    <linearGradient
       inkscape:collect="always"
       xlink:href="#linearGradient3338"
       id="linearGradient4235"
       gradientUnits="userSpaceOnUse"
       x1="418.98734"
       y1="-76.417717"
       x2="418.98734"
       y2="230.54431"
       gradientTransform="matrix(3.7795276,0,0,3.7795276,41.8493,389.29151)" />
  </defs>
  <sodipodi:namedview
     id="base"
     pagecolor="#ffffff"
     bordercolor="#666666"
     borderopacity="1.0"
     inkscape:pageopacity="0.0"
     inkscape:pageshadow="2"
     inkscape:zoom="0.2956001"
     inkscape:cx="1425.1281"
     inkscape:cy="636.83438"
     inkscape:document-units="mm"
     inkscape:current-layer="layer1"
     showgrid="false"
     inkscape:window-width="1920"
     inkscape:window-height="1056"
     inkscape:window-x="0"
     inkscape:window-y="24"
     inkscape:window-maximized="1" />
  <metadata
     id="metadata7">
    <rdf:RDF>
      <cc:Work
         rdf:about="">
        <dc:format>image/svg+xml</dc:format>
        <dc:type
           rdf:resource="http://purl.org/dc/dcmitype/StillImage" />
        <dc:title></dc:title>
      </cc:Work>
    </rdf:RDF>
  </metadata>
  <g
     inkscape:label="Layer 1"
     inkscape:groupmode="layer"
     id="layer1"
     transform="translate(0,103)">
    <g
       id="g4239"
       transform="translate(-11.072627,-4.5440102e-5)">
      <path
         inkscape:connector-curvature="0"
         id="rect3336"
         d="m 110.09664,-13.066988 c -2.92258,0.02735 -4.33152,0.473355 -4.33152,0.473355 -11.617059,29.162105 -4.43952,50.717251 -2.25671,56.066861 -13.675788,14.783329 -22.010541,33.651629 -22.010541,56.794462 0,87.10558 56.422341,106.80072 135.160751,106.80072 78.77122,0 135.77258,-19.69514 135.77258,-106.80072 0,-23.142833 -8.33422,-42.011133 -22.01003,-56.794462 2.18284,-5.34961 9.35951,-26.920904 -2.26549,-56.066345 0,0 -17.8263,-5.63925 -58.17525,21.9350957 -16.90026,-4.646877 -35.0573,-5.3412759 -53.01588,-5.3412759 -17.9668,0 -36.09922,0.6945312 -53.04896,5.3578124 C 134.92067,-10.472524 117.56546,-13.136894 110.09664,-13.066988 Z M 266.59252,88.406918 c 13.77108,0.01288 25.54231,2.103908 34.36122,10.165789 10.93046,9.995953 17.31367,22.043103 17.31367,35.007683 -5.3e-4,54.20677 -45.37657,56.81927 -101.30286,56.81927 -55.93451,0 -101.27755,-2.61263 -101.27755,-56.80273 0,-12.94818 6.36686,-25.0284 17.28939,-35.007687 18.1901,-16.66055 49.02213,-7.854817 83.98867,-7.854817 18.04231,0 34.96792,-2.341219 49.62746,-2.327508 z m -92.18455,17.177252 c -11.23659,0 -20.34811,13.51053 -20.34811,30.21262 0,16.70208 9.11178,30.24466 20.34811,30.24466 11.21171,0 20.32331,-13.54311 20.32331,-30.24466 0,-16.70156 -9.1116,-30.21262 -20.32331,-30.21262 z m 85.12142,0 c -11.21172,0 -20.33984,13.51028 -20.33984,30.2121 0,16.70182 9.12812,30.24518 20.33984,30.24518 11.21172,0 20.32331,-13.54362 20.32331,-30.24518 0.0167,-16.70182 -9.09519,-30.2121 -20.32331,-30.2121 z"
         style="opacity:1;fill:url(#linearGradient3344);fill-opacity:1;fill-rule:nonzero;stroke:none;stroke-width:0.66723067;stroke-miterlimit:4;stroke-dasharray:none;stroke-opacity:0.30970154" />
      <path
         id="rect4233"
         transform="matrix(0.26458333,0,0,0.26458333,0,-103)"
         d="m 2706.9062,498.23828 c -16.8888,0 -31.5555,6.22352 -44,18.66797 -12,12 -18,26.44314 -18,43.33203 0,16.88889 6,31.55556 18,44 12.4445,12 27.1112,18 44,18 16.8889,0 31.3321,-6 43.3321,-18 12.4444,-12.44444 18.6679,-27.11111 18.6679,-44 1e-4,-16.88889 -6.2235,-31.33203 -18.6679,-43.33203 -12,-12.44445 -26.4432,-18.66797 -43.3321,-18.66797 z m -320.4374,22.66797 -142.668,22 34,465.33205 66,-6 11.334,-127.33205 24,-22.66797 83.334,156.00002 126.666,-8.66603 -144.666,-216 103.332,-108 -44.666,-34.66602 -142,168 25.334,-288 z m -741.3243,27.33203 c -63.5555,0 -126.4438,10 -188.666,30 l 38,429.33402 66.666,-6.6661 16,-149.33393 c 66.6667,-15.11112 121.1118,-39.77778 163.334,-74 42.2222,-34.66667 63.334,-77.55491 63.334,-128.66602 0,-21.77778 -4,-44.66797 -12,-68.66797 -34.2222,-21.33333 -83.1124,-32 -146.668,-32 z m -12,43.33399 c 28,16.88889 42,42.44379 42,76.66601 0,25.33334 -8.4431,50.66667 -25.332,76 -16.4444,25.33334 -39.1111,46 -68,62 l 22,-210 c 11.5556,-3.11111 21.332,-4.66601 29.332,-4.66601 z m 1151.7617,64.66601 -142.6679,22 34,330.00002 66,-6 42.6679,-346.00002 z m -787.1562,0.66797 c -48.8889,0 -92.4457,7.77647 -130.668,23.33203 l 29.334,96.66797 c 23.5556,-14.66667 47.1105,-22 70.666,-22 23.5556,0 42.8889,5.33333 58,16 15.1111,10.22222 23.5562,24.22222 25.334,42 l 1.334,14.66602 c -23.1111,-3.11112 -45.3346,-4.66602 -66.668,-4.66602 -57.7778,0 -97.5542,6.44314 -119.332,19.33203 -21.3333,12.88889 -32,33.55555 -32,62 0,21.77778 4.4431,42.88954 13.332,63.33399 9.3334,20 21.5569,35.11173 36.668,45.33393 3.5556,0.4445 9.1105,0.6661 16.666,0.6661 34.6667,0 65.3333,-8.8883 92,-26.66605 26.6667,-18.22222 47.5549,-43.33398 62.666,-75.33398 l 5.334,0 10,96.66603 66,-6 18.666,-184.00002 c 0.8889,-6.22222 1.334,-14.66536 1.334,-25.33203 0,-46.66667 -14.2216,-80.89019 -42.666,-102.66797 -28.4444,-22.22222 -67.1111,-33.33203 -116,-33.33203 z m 1020.832,0 c -48.8889,0 -92.4438,7.77647 -130.666,23.33203 l 29.334,96.66797 c 23.5556,-14.66667 47.1105,-22 70.666,-22 23.5556,0 42.8889,5.33333 58,16 15.1111,10.22222 23.5562,24.22222 25.334,42 l 1.332,14.66602 c -23.1111,-3.11112 -45.3326,-4.66602 -66.666,-4.66602 -57.7778,0 -97.5562,6.44314 -119.334,19.33203 -21.3333,12.88889 -32,33.55555 -32,62 0,21.77778 4.4451,42.88954 13.334,63.33399 9.3333,20 21.5549,35.11173 36.666,45.33393 3.5556,0.4445 9.1124,0.6661 16.668,0.6661 34.6667,0 65.3333,-8.8883 92,-26.66605 26.6667,-18.22222 47.5549,-43.33398 62.666,-75.33398 l 5.334,0 10,96.66603 66,-6 18.666,-184.00002 c 0.8889,-6.22222 1.334,-14.66536 1.334,-25.33203 0,-46.66667 -14.2235,-80.89019 -42.668,-102.66797 -28.4444,-22.22222 -67.1111,-33.33203 -116,-33.33203 z m -999.5,198 35.334,0.66602 c -16,47.11111 -50.6666,74.88953 -104,83.33398 -3.1111,-3.11111 -5.9993,-9.11111 -8.666,-18 -2.6667,-8.88889 -4,-18.22222 -4,-28 0,-9.77778 3.1098,-20.88954 9.332,-33.33398 18.6667,-3.11112 42.6667,-4.66602 72,-4.66602 z m 1020.834,0 35.334,0.66602 c -16,47.11111 -50.6667,74.88953 -104,83.33398 -3.1111,-3.11111 -6.0013,-9.11111 -8.668,-18 -2.6666,-8.88889 -4,-18.22222 -4,-28 0,-9.77778 3.1118,-20.88954 9.334,-33.33398 18.6667,-3.11112 42.6667,-4.66602 72,-4.66602 z"
         style="opacity:1;fill:url(#linearGradient4235);fill-opacity:1;fill-rule:nonzero;stroke:none;stroke-width:2.52094483;stroke-miterlimit:4;stroke-dasharray:none;stroke-opacity:0.30970154"
         inkscape:connector-curvature="0" />
    </g>
  </g>
</svg>
