<?xml version="1.0" encoding="UTF-8" standalone="no"?>
<!-- Created with Inkscape (http://www.inkscape.org/) -->

<svg
   xmlns:dc="http://purl.org/dc/elements/1.1/"
   xmlns:cc="http://creativecommons.org/ns#"
   xmlns:rdf="http://www.w3.org/1999/02/22-rdf-syntax-ns#"
   xmlns:svg="http://www.w3.org/2000/svg"
   xmlns="http://www.w3.org/2000/svg"
   xmlns:sodipodi="http://sodipodi.sourceforge.net/DTD/sodipodi-0.dtd"
   xmlns:inkscape="http://www.inkscape.org/namespaces/inkscape"
   width="900"
   height="400"
   viewBox="0 0 900.00002 400.00001"
   id="svg2"
   version="1.1"
   inkscape:version="0.91 r13725"
   sodipodi:docname="h.svg"
   inkscape:export-filename="/home/ionicabizau/Documents/Resources/phantom-jquery/h.png"
   inkscape:export-xdpi="90"
   inkscape:export-ydpi="90">
  <defs
     id="defs4" />
  <sodipodi:namedview
     id="base"
     pagecolor="#ffffff"
     bordercolor="#666666"
     borderopacity="1.0"
     inkscape:pageopacity="0.0"
     inkscape:pageshadow="2"
     inkscape:zoom="1.4"
     inkscape:cx="436.25839"
     inkscape:cy="199.41025"
     inkscape:document-units="px"
     inkscape:current-layer="g5991"
     showgrid="false"
     units="px"
     inkscape:window-width="1920"
     inkscape:window-height="1060"
     inkscape:window-x="0"
     inkscape:window-y="0"
     inkscape:window-maximized="1" />
  <metadata
     id="metadata7">
    <rdf:RDF>
      <cc:Work
         rdf:about="">
        <dc:format>image/svg+xml</dc:format>
        <dc:type
           rdf:resource="http://purl.org/dc/dcmitype/StillImage" />
        <dc:title></dc:title>
      </cc:Work>
    </rdf:RDF>
  </metadata>
  <g
     inkscape:label="Layer 1"
     inkscape:groupmode="layer"
     id="layer1"
     transform="translate(0,-652.36216)">
    <g
       transform="translate(725.73286,-790.22095)"
       id="g5991">
      <g
         id="g5813"
         transform="matrix(1.3260088,0,0,1.3260088,89.891349,-490.82234)">
        <g
           transform="translate(17.99229,0)"
           id="g5791">
          <g
             id="g5786">
            <path
               style="fill:#2c3e50"
               inkscape:connector-curvature="0"
               id="path4058"
               d="m -210.76634,1670.3961 -0.15044,-0.1506 0.60828,-2.4636 c 0.33455,-1.3551 0.71413,-2.5993 0.84354,-2.7653 l 0.23526,-0.3017 1.30854,0 1.30852,0 0.57083,-0.5708 c 0.31399,-0.3138 0.78511,-0.9926 1.04698,-1.508 l 0.47614,-0.9372 1.60371,-7.3697 c 0.88202,-4.0531 1.68946,-7.6908 1.79428,-8.0833 l 0.19059,-0.7139 3.18,-0.068 3.18001,-0.067 0,0.4126 c 0,0.2269 -0.819,4.1879 -1.82002,8.8025 l -1.82004,8.3894 -0.59894,1.7613 -0.59894,1.7614 -0.83146,1.2525 -0.83147,1.2524 -1.15317,0.6779 -1.15318,0.6778 -3.6194,0.081 -3.6194,0.08 -0.15042,-0.1506 z m 78.56996,-8.9688 c -3.61071,-0.7111 -4.11381,-0.9079 -5.38929,-2.1079 -1.02468,-0.9643 -1.36263,-1.6252 -1.72174,-3.3676 l -0.28931,-1.4037 0.27218,-2.0951 0.27218,-2.0951 0.59543,-2.2631 0.59544,-2.2633 0.72101,-1.5108 0.72101,-1.5106 1.11403,-1.2392 1.11402,-1.2389 1.01684,-0.596 c 0.55927,-0.3278 1.65966,-0.8328 2.44526,-1.1223 l 1.42849,-0.5263 3.49875,-0.018 3.49875,-0.018 1.30533,0.4544 1.30532,0.4544 1.03518,1.0352 1.03517,1.0352 0.40639,1.3979 0.40638,1.3979 -0.14489,2.1797 -0.1449,2.1796 -0.4361,1.8097 -0.43609,1.8098 -7.21274,0.063 -7.21274,0.064 -0.32194,0.2672 -0.32193,0.2673 0,0.5622 c 0,0.3094 0.12976,0.8471 0.28828,1.1951 l 0.28826,0.6327 0.73723,0.4041 0.73723,0.4042 5.85136,0.079 5.85137,0.079 -0.009,0.5239 c -0.005,0.2883 -0.21089,1.4878 -0.45703,2.6656 l -0.44753,2.1417 -0.32717,0.2073 -0.32717,0.2072 -5.4291,-0.025 c -2.98601,-0.013 -5.64627,-0.067 -5.91169,-0.1194 z m 8.80721,-15.3077 0,-0.981 -0.24843,-0.4643 -0.24847,-0.4643 -0.70474,-0.3643 -0.70475,-0.3645 -1.56469,0 -1.56469,0 -0.67926,0.2567 c -1.16018,0.4383 -2.73025,2.2265 -2.73025,3.1095 l 0,0.2532 4.22264,0 4.22264,0 0,-0.9809 z m -60.80594,15.0506 c -0.33177,-0.056 -1.14614,-0.2683 -1.80969,-0.4728 l -1.20647,-0.3718 -1.24298,-0.8344 -1.24298,-0.8344 -0.63853,-0.9214 c -0.35121,-0.5068 -0.86398,-1.5054 -1.13948,-2.219 l -0.50096,-1.2977 -0.11859,-2.1716 -0.1186,-2.1716 0.40542,-2.1716 0.40543,-2.1716 0.72265,-2.1716 0.72264,-2.1717 0.86994,-1.5685 0.86994,-1.5683 1.85938,-1.8682 1.85938,-1.8681 1.53924,-0.7177 c 0.84657,-0.3947 2.2407,-0.8962 3.09796,-1.1146 l 1.55883,-0.397 3.02582,0.1103 3.02581,0.1102 1.38484,0.5363 1.38483,0.5365 1.14876,0.7878 1.14874,0.7881 0.89432,1.1765 0.89433,1.1766 0.55344,1.4574 0.55343,1.4576 -0.013,2.5335 -0.013,2.5337 -0.66271,2.1716 c -0.3645,1.1944 -1.09157,3.3472 -1.61574,4.7844 -0.52418,1.437 -0.95303,2.7672 -0.95303,2.9558 l 0,0.3433 1.40753,0 c 0.77415,0 1.46635,0.058 1.53818,0.1305 l 0.13063,0.1307 -0.67519,2.5166 c -0.37136,1.3843 -0.7442,2.6285 -0.82853,2.765 l -0.15335,0.2481 -8.73265,-0.032 c -4.80294,-0.018 -9.0041,-0.078 -9.33588,-0.134 z m 10.59471,-7.4942 c 0.26451,-0.8959 0.92731,-3.2032 1.47296,-5.1275 l 0.99203,-3.4988 -0.0753,-2.0703 -0.0753,-2.0703 -0.69587,-0.9118 -0.69587,-0.9118 -0.99319,-0.451 -0.99318,-0.451 -1.93035,0 -1.93035,0 -1.20646,0.563 -1.20647,0.563 -0.93182,1.0335 -0.93183,1.0337 -0.71269,1.5229 -0.71268,1.523 -0.46362,2.2469 -0.46362,2.2467 0.003,1.0858 c 0.001,0.5973 0.10134,1.5118 0.22211,2.0324 l 0.21952,0.9466 0.4524,0.6218 0.4524,0.6219 1.06249,0.5429 1.0625,0.5429 3.79941,0 3.79941,0 0.48092,-1.6287 z m 16.91274,7.4942 c -0.33178,-0.056 -1.099,-0.26 -1.70494,-0.4543 l -1.10169,-0.3534 -0.87864,-0.9001 -0.87865,-0.9003 -0.39246,-1.0858 -0.39247,-1.0858 -0.009,-2.0926 -0.009,-2.0927 1.39624,-6.7147 1.39624,-6.7147 0.23044,-0.3015 0.23042,-0.3017 2.73121,0 2.73119,0 0.13112,0.2121 0.13112,0.2122 -1.32334,6.5919 -1.32336,6.5918 0,1.2525 0,1.2525 0.42227,0.5212 0.42226,0.5212 0.96517,0.2237 0.96519,0.2236 1.84048,0.013 1.84049,0.013 0.24944,-0.3017 0.24946,-0.3016 1.71302,-7.9627 c 0.94215,-4.3794 1.81809,-8.2069 1.94655,-8.5056 l 0.23354,-0.5429 2.77995,0 2.77994,0 0,0.5615 c 0,0.3088 -1.04107,5.4388 -2.31348,11.4 l -2.31347,10.8383 -0.28043,0.1784 -0.28043,0.1785 -5.79104,-0.029 c -3.18508,-0.016 -6.0625,-0.075 -6.39427,-0.1301 z m 40.39493,-0.1658 -0.12755,-0.3326 2.33262,-10.9479 2.33265,-10.948 0.26185,-0.3219 0.26184,-0.3218 7.49409,0.087 7.49409,0.087 0.86434,0.3865 0.86434,0.3864 0.51946,0.6604 0.51945,0.6604 0.24704,0.8769 c 0.13587,0.4824 0.31426,1.2841 0.39642,1.7817 l 0.14937,0.905 -6.87807,0 -6.87807,0 -0.24592,0.3017 -0.24593,0.3015 -1.59331,7.6526 c -0.87633,4.2089 -1.59331,7.8115 -1.59331,8.0059 0,0.1944 -0.17062,0.5238 -0.37917,0.7325 l -0.37916,0.3791 -2.64458,0 -2.64457,0 -0.12755,-0.3326 z m 18.83343,0.075 -0.15867,-0.2568 0.64362,-2.5944 0.64364,-2.5944 -1.43157,-4.9833 -1.43158,-4.9835 0.12807,-0.1284 c 0.0705,-0.07 1.57201,-0.1285 3.33685,-0.1285 l 3.20872,0 0.22277,0.4223 c 0.12249,0.2322 0.35246,1.0525 0.51099,1.823 l 0.28822,1.401 0.21013,-0.074 c 0.11561,-0.04 2.28143,-3.1142 4.81309,-6.8301 2.53164,-3.7158 4.7834,-6.8918 5.00393,-7.0578 l 0.40102,-0.3016 3.599133,0 3.59913,0 -0.12574,0.3278 c -0.0692,0.1802 -3.58345,4.9307 -7.809703,10.5565 l -7.68399,10.2289 -0.57578,2.2923 c -0.31667,1.2608 -0.67239,2.4825 -0.79045,2.7146 l -0.21467,0.4223 -3.11414,0 -3.11412,0 -0.15868,-0.2568 z m -102.79823,-18.3624 c 0.0872,-0.5681 0.34428,-1.7928 0.57139,-2.7218 l 0.41293,-1.689 3.19713,-0.068 3.19714,-0.067 -0.006,0.3086 c -0.004,0.1698 -0.25032,1.3945 -0.54826,2.7215 l -0.54175,2.413 -3.22032,0.067 -3.2203,0.067 0.15846,-1.0326 z" />
            <g
               style="fill:#2980b9"
               id="g4224"
               transform="matrix(0.835639,0,0,0.835639,294.7503,410.94994)">
              <path
                 style="fill:#2980b9"
                 inkscape:connector-curvature="0"
                 id="path4228"
                 d="m -527.71,1437.5 c -15.827,-2.0743 -33.984,-12.945 -44.194,-26.46 -9.7566,-12.915 -14.265,-25.579 -14.291,-40.145 -0.0235,-12.938 3.7723,-22.53 13.397,-33.855 l 2.5495,-3 -2.1278,6 c -1.6229,4.5764 -2.131,8.3726 -2.1414,16 -0.0174,12.763 3.145,23.098 10.374,33.907 12.982,19.41 33.423,31.213 55.934,32.298 17.219,0.8297 29.931,-3.2405 40.687,-13.026 l 5.6916,-5.1785 -2.3388,4.1884 c -12.485,22.358 -35.475,32.95 -63.54,29.272 z m 16.482,-39.936 c -6.1875,-1.5773 -12.314,-4.6494 -18.715,-9.3846 -7.1286,-5.2734 -11.189,-10.371 -15.643,-19.64 -2.9149,-6.0657 -3.1236,-7.235 -3.1236,-17.5 0,-10.56 0.13164,-11.24 3.2951,-17 1.8123,-3.3 4.3971,-7.35 5.744,-9 l 2.4489,-3 -2.0953,5.5 c -1.7069,4.4806 -2.0202,7.1052 -1.6903,14.16 0.35422,7.5748 0.88418,9.6301 4.2274,16.395 11.873,24.024 41.063,35.89 63.015,25.618 3.4967,-1.6363 8.1791,-4.7966 10.405,-7.0229 4.5941,-4.5942 4.3941,-3.0499 -0.59254,4.5734 -3.9508,6.0399 -11.076,11.621 -18.539,14.52 -5.8626,2.2781 -22.695,3.3212 -28.738,1.7808 z m 12.018,-36.593 c -6.8213,-3.1615 -12.367,-8.4008 -15.805,-14.931 -3.5267,-6.7 -3.7168,-16.951 -0.4299,-23.182 2.839,-5.3821 4.4112,-6.4204 3.1703,-2.0937 -2.4027,8.3776 0.85107,17.787 8.9523,25.888 6.7148,6.7148 14.123,9.888 23.084,9.888 6.983,0 10.494,-1.1709 14.432,-4.8136 3.1494,-2.9127 2.7324,-1.6211 -1.1852,3.6712 -5.9473,8.0343 -21.213,10.675 -32.22,5.5738 z" />
            </g>
          </g>
          <g
             id="g5771">
            <text
               sodipodi:linespacing="125%"
               id="text5715"
               y="1665.6962"
               x="-516.01849"
               style="font-style:normal;font-weight:normal;font-size:40px;line-height:125%;font-family:sans-serif;letter-spacing:0px;word-spacing:0px;fill:#000000;fill-opacity:1;stroke:none;stroke-width:1px;stroke-linecap:butt;stroke-linejoin:miter;stroke-opacity:1"
               xml:space="preserve"><tspan
                 style="font-style:normal;font-variant:normal;font-weight:900;font-stretch:normal;font-family:Raleway;-inkscape-font-specification:'Raleway Heavy';fill:#2c3e50"
                 y="1665.6962"
                 x="-516.01849"
                 id="tspan5717"
                 sodipodi:role="line">PhantomJS</tspan></text>
            <g
               transform="matrix(0.30285264,0,0,0.30285264,-245.35795,1097.7383)"
               id="g5703">
              <path
                 id="path5078"
                 d="m -372.74278,1520.2749 c 0,88.17 35.79133,110.8996 35.79133,151.792 0,22.6807 -35.39849,-27.9785 -55.25867,-16.5122 -18.4201,10.6349 -41.11056,20.6811 -64.14393,4.841 -13.71686,-9.4331 5.41029,-24.7881 -21.10972,-24.7881 -21.15381,0 -53.39312,15.2204 -73.56347,18.4994 -18.33713,2.9809 -37.91155,-16.4889 -70.26316,-5.3919 -20.11903,6.9011 -91.30262,56.1049 -91.30262,33.4242 0,-28.8853 33.27324,-60.3523 33.27324,-161.8644 0,-98.3416 68.67325,-178.155 153.2885,-178.155 84.61525,0 153.2885,79.8134 153.2885,178.155 z"
                 inkscape:connector-curvature="0"
                 style="fill:#dbdbe3;fill-opacity:0.62744996" />
              <path
                 id="path5080"
                 d="m -372.74278,1520.2749 c 0,88.17 35.79133,110.8996 35.79133,151.792 0,22.6807 -48.88377,6.1343 -68.74395,17.6006 -18.4201,10.6349 -10.87428,26.6548 -37.39519,36.9329 -19.05426,7.3845 -44.45977,-26.282 -70.97978,-26.282 -21.15381,0 -60.19689,28.3764 -78.53403,19.3573 -18.33714,-9.0191 -16.59785,-39.0661 -44.94946,-41.9691 -21.15906,-2.1666 -75.03916,27.1134 -75.03916,4.4327 0,-28.8853 33.27324,-60.3523 33.27324,-161.8644 0,-98.3416 68.67325,-178.155 153.2885,-178.155 84.61525,0 153.2885,79.8134 153.2885,178.155 z"
                 inkscape:connector-curvature="0"
                 style="fill:#2c3e50;fill-opacity:0.62744996;stroke:#2c3e50;stroke-width:4.00000238;stroke-linecap:round;stroke-linejoin:round;stroke-opacity:1" />
              <path
                 id="path5082"
                 d="m -576.56347,1430.0861 c -20.56311,0 -37.25136,19.1743 -37.25136,42.8013 0,23.627 16.68825,42.8014 37.25136,42.8014 15.88829,0 29.45986,-11.4606 34.81114,-27.5644 5.35129,16.1038 18.92284,27.5644 34.81115,27.5644 20.56311,0 37.25136,-19.1744 37.25135,-42.8014 -1e-5,-23.6269 -16.68825,-42.8013 -37.25135,-42.8013 -15.88517,0 -29.45768,11.4273 -34.81115,27.5261 -5.35347,-16.0988 -18.92597,-27.5261 -34.81114,-27.5261 z"
                 inkscape:connector-curvature="0"
                 style="fill:#ffffff;stroke:#2c3e50;stroke-width:4;stroke-linecap:round;stroke-linejoin:round;stroke-opacity:1" />
              <path
                 id="path5084"
                 d="m -499.65008,1480.2478 a 16.12902,16.194934 0 0 1 -32.25804,0 16.12902,16.194934 0 1 1 32.25804,0 z"
                 inkscape:connector-curvature="0"
                 style="fill:#2c3e50" />
              <path
                 id="path5086"
                 d="m -550.83615,1480.2478 a 16.12902,16.194934 0 0 1 -32.25804,0 16.12902,16.194934 0 1 1 32.25804,0 z"
                 inkscape:connector-curvature="0"
                 style="fill:#2c3e50" />
              <path
                 id="path5088"
                 d="m -426.00176,1402.7671 c 5.90247,-2.0799 35.59798,37.2046 41.01219,78.4889 3.68243,28.0791 2.12132,71.4178 6.36396,96.1665 4.24264,24.7487 40.91549,88.9905 26.16295,88.3884 -34.64823,-1.4143 -56.75187,-57.1495 -48.84062,-136.865 8.92192,-89.8993 -38.62511,-121.2712 -24.69848,-126.1788 z"
                 inkscape:connector-curvature="0"
                 style="fill-opacity:0.11764999;fill-rule:evenodd" />
              <path
                 id="path5090"
                 d="m -411.85964,1682.0743 c -8.01862,7.8555 -22.62741,45.2548 -30.40558,28.2843 -7.77817,-16.9706 -1.28672,-47.1909 -7.07107,-91.9239 -4.39963,-34.0243 -20.58719,-74.6255 -8.67766,-68.4386 11.86798,6.1653 20.49294,24.7506 31.30508,57.1249 9.45277,28.304 24.45606,65.542 14.84923,74.9533 z"
                 inkscape:connector-curvature="0"
                 style="fill-opacity:0.11764999;fill-rule:evenodd" />
              <path
                 id="path5092"
                 d="m -527.12413,1691.4591 c -7.67097,8.1953 -26.4434,17.9539 -35.94112,16.1066 -12.51127,-2.4335 -14.438,-44.3884 -9.41422,-71.6604 4.94975,-26.8701 14.48653,-66.042 22.45585,-71.9178 9.69199,-7.146 0.70204,26.7731 9.7929,73.4031 6.9562,35.6806 20.5921,46.0713 13.10659,54.0685 z"
                 inkscape:connector-curvature="0"
                 style="fill-opacity:0.11764999;fill-rule:evenodd" />
              <path
                 id="path5094"
                 d="m -629.64851,1668.6393 c -11.10768,-1.6205 -21.61497,1.1402 -30.40559,3.5355 -12.29736,3.3509 -0.78114,-15.1544 15.55634,-47.3761 12.35575,-24.3688 15.25511,-49.4839 22.42032,-56.3173 8.53514,-8.1399 -2.38746,23.6976 -4.41421,54.6249 -1.87971,28.6835 5.03576,46.7282 -3.15686,45.533 z"
                 inkscape:connector-curvature="0"
                 style="fill-opacity:0.11764999;fill-rule:evenodd" />
              <path
                 id="path5096"
                 d="m -652.98304,1450.1433 c 27.33667,-73.67 79.9533,-89.1385 93.3381,-88.3884 20.32686,1.1392 14.72378,30.6238 -24.74874,41.0122 -40.23103,10.5881 -82.97199,86.1361 -68.58936,47.3762 z"
                 inkscape:connector-curvature="0"
                 style="fill:#ffffff;fill-opacity:0.62744996;fill-rule:evenodd" />
            </g>
          </g>
          <text
             sodipodi:linespacing="125%"
             id="text5723"
             y="1591.7236"
             x="-296.59256"
             style="font-style:normal;font-weight:normal;font-size:82.31692505px;line-height:125%;font-family:sans-serif;letter-spacing:0px;word-spacing:0px;fill:#000000;fill-opacity:1;stroke:none;stroke-width:1px;stroke-linecap:butt;stroke-linejoin:miter;stroke-opacity:1"
             xml:space="preserve"><tspan
               style="font-style:normal;font-variant:normal;font-weight:800;font-stretch:normal;font-family:'Open Sans';-inkscape-font-specification:'Open Sans Ultra-Bold';fill:#2c3e50"
               y="1591.7236"
               x="-296.59256"
               id="tspan5725"
               sodipodi:role="line">+</tspan></text>
        </g>
        <text
           xml:space="preserve"
           style="font-style:normal;font-weight:normal;font-size:19.42223549px;line-height:125%;font-family:sans-serif;letter-spacing:0px;word-spacing:0px;fill:#000000;fill-opacity:1;stroke:none;stroke-width:1px;stroke-linecap:butt;stroke-linejoin:miter;stroke-opacity:1"
           x="-499.48688"
           y="1709.8564"
           id="text5767"
           sodipodi:linespacing="125%"><tspan
             sodipodi:role="line"
             id="tspan5769"
             x="-499.48688"
             y="1709.8564"
             style="font-style:normal;font-variant:normal;font-weight:300;font-stretch:normal;font-family:Raleway;-inkscape-font-specification:'Raleway Light';fill:#2c3e50">Access DOM elements using jQuery in PhantomJS.</tspan></text>
      </g>
    </g>
  </g>
</svg>
