<?xml version="1.0" encoding="UTF-8" standalone="no"?>
<!-- Created with Inkscape (http://www.inkscape.org/) -->

<svg
   xmlns:dc="http://purl.org/dc/elements/1.1/"
   xmlns:cc="http://creativecommons.org/ns#"
   xmlns:rdf="http://www.w3.org/1999/02/22-rdf-syntax-ns#"
   xmlns:svg="http://www.w3.org/2000/svg"
   xmlns="http://www.w3.org/2000/svg"
   xmlns:sodipodi="http://sodipodi.sourceforge.net/DTD/sodipodi-0.dtd"
   xmlns:inkscape="http://www.inkscape.org/namespaces/inkscape"
   width="900"
   height="400"
   viewBox="0 0 238.12501 105.83334"
   id="svg2"
   version="1.1"
   inkscape:version="0.91+devel r"
   sodipodi:docname="h.svg"
   inkscape:export-filename="/home/ionicabizau/Documents/Resources/image-to-ascii/h.png"
   inkscape:export-xdpi="96"
   inkscape:export-ydpi="96">
  <defs
     id="defs4" />
  <sodipodi:namedview
     id="base"
     pagecolor="#ffffff"
     bordercolor="#666666"
     borderopacity="1.0"
     inkscape:pageopacity="0.0"
     inkscape:pageshadow="2"
     inkscape:zoom="0.98994949"
     inkscape:cx="570.25294"
     inkscape:cy="111.28474"
     inkscape:document-units="mm"
     inkscape:current-layer="layer1"
     showgrid="false"
     units="px"
     inkscape:window-width="1920"
     inkscape:window-height="1056"
     inkscape:window-x="0"
     inkscape:window-y="24"
     inkscape:window-maximized="1" />
  <metadata
     id="metadata7">
    <rdf:RDF>
      <cc:Work
         rdf:about="">
        <dc:format>image/svg+xml</dc:format>
        <dc:type
           rdf:resource="http://purl.org/dc/dcmitype/StillImage" />
        <dc:title></dc:title>
      </cc:Work>
    </rdf:RDF>
  </metadata>
  <g
     inkscape:label="Layer 1"
     inkscape:groupmode="layer"
     id="layer1"
     transform="translate(0,-191.16665)">
    <g
       id="g7562"
       transform="matrix(0.65774476,0,0,0.65774476,40.016646,69.543543)"
       style="stroke-width:1.52034652">
      <path
         style="fill:#f1c40f;stroke-width:0.40225834"
         inkscape:connector-curvature="0"
         id="path4342"
         d="m 130.91923,244.08331 -17.69848,-13.27386 0,8.84925 -8.84925,0 0,8.84923 8.84925,0 0,8.84925 17.69848,-13.27387 z" />
      <path
         inkscape:connector-curvature="0"
         d="m 64.189901,236.83571 q 0,1.8119 -1.268317,3.08023 -1.26833,1.26833 -3.08023,1.26833 -1.8119,0 -3.080227,-1.26833 -1.26833,-1.26833 -1.26833,-3.08023 0,-1.81189 1.26833,-3.08022 1.268327,-1.26833 3.080227,-1.26833 1.8119,0 3.08023,1.26833 1.268317,1.26833 1.268317,3.08022 z m 23.192268,8.69712 0,10.14663 -31.889372,0 0,-4.34856 7.247597,-7.24759 3.623777,3.62379 11.596144,-11.59614 z m 2.174277,-15.94471 -36.237919,0 q -0.29444,0 -0.5096,0.21517 -0.21516,0.21516 -0.21516,0.50959 l 0,27.54086 q 0,0.29443 0.21516,0.50959 0.21516,0.21517 0.5096,0.21517 l 36.237919,0 q 0.29444,0 0.5096,-0.21517 0.21516,-0.21516 0.21516,-0.50959 l 0,-27.54086 q 0,-0.29443 -0.21516,-0.50959 -0.21516,-0.21517 -0.5096,-0.21517 z m 3.6238,0.72476 0,27.54086 q 0,1.49482 -1.06449,2.55931 -1.06449,1.06449 -2.55931,1.06449 l -36.237919,0 q -1.49482,0 -2.55931,-1.06449 -1.06449,-1.06449 -1.06449,-2.55931 l 0,-27.54086 q 0,-1.49481 1.06449,-2.5593 1.06449,-1.06449 2.55931,-1.06449 l 36.237919,0 q 1.49482,0 2.55931,1.06449 1.06449,1.06449 1.06449,2.5593 z"
         id="path5885"
         style="fill:#2c3e50;stroke-width:0.40225834" />
      <path
         style="fill:#2c3e50;stroke-width:0.40225834"
         inkscape:connector-curvature="0"
         id="path6379"
         d="m 181.24723,226.68932 -34.78799,0 c -1.60124,0 -2.899,1.29776 -2.899,2.899 l 0,28.99 c 0,1.60124 1.29776,2.899 2.899,2.899 l 34.78799,0 c 1.60125,0 2.899,-1.29776 2.899,-2.899 l 0,-28.99 c 0,-1.60124 -1.29775,-2.899 -2.899,-2.899 z m -31.88899,20.293 5.798,-5.798 -5.798,-5.798 2.899,-2.899 8.69699,8.697 -8.69699,8.697 -2.899,-2.899 z m 23.192,2.899 -11.59601,0 0,-2.899 11.59601,0 0,2.899 z" />
      <path
         style="fill:#bdc3c7;fill-opacity:0.26903555;stroke-width:0.40225834"
         inkscape:connector-curvature="0"
         id="path6996"
         d="m 119.0625,200.56679 c -6.27229,0 -13.58996,4.18153 -16.72611,12.54458 3.13615,6.27229 9.40844,10.45382 16.72611,10.45382 7.31767,0 13.58996,-4.18153 16.72611,-10.45382 -3.13615,-8.36305 -10.45382,-12.54458 -16.72611,-12.54458 z m 0,20.90763 c -6.27229,0 -11.49919,-4.18152 -12.54458,-8.36305 1.04539,-4.18153 6.27229,-8.36305 12.54458,-8.36305 6.27229,0 11.4992,4.18152 12.54458,8.36305 -1.04538,4.18153 -6.27229,8.36305 -12.54458,8.36305 z m 0,-14.63534 c -0.65336,0 -1.24139,0.13068 -1.82942,0.29401 1.07805,0.49003 1.82942,1.56808 1.82942,2.84214 0,1.73141 -1.40473,3.13614 -3.13614,3.13614 -1.27406,0 -2.35211,-0.75137 -2.84214,-1.82941 -0.16333,0.58802 -0.29401,1.17605 -0.29401,1.82941 0,3.46283 2.80947,6.27229 6.27229,6.27229 3.46283,0 6.27229,-2.80946 6.27229,-6.27229 0,-3.46282 -2.80946,-6.27229 -6.27229,-6.27229 z" />
    </g>
    <text
       xml:space="preserve"
       style="font-style:normal;font-weight:normal;font-size:7.05555534px;line-height:125%;font-family:sans-serif;letter-spacing:0px;word-spacing:0px;fill:#000000;fill-opacity:1;stroke:none;stroke-width:0.26458332px;stroke-linecap:butt;stroke-linejoin:miter;stroke-opacity:1"
       x="7.8189931"
       y="254.81972"
       id="text7568"
       sodipodi:linespacing="125%"><tspan
         sodipodi:role="line"
         id="tspan7570"
         x="7.8189931"
         y="254.81972"
         style="font-style:normal;font-variant:normal;font-weight:normal;font-stretch:normal;font-size:11.28888893px;font-family:Monaco;-inkscape-font-specification:Monaco;stroke-width:0.26458332px"><tspan
           style="fill:#bdc3c7;fill-opacity:0.59898478"
           id="tspan7572">require(&quot;</tspan><tspan
           style="fill:#2c3e50"
           id="tspan7600">image-to-ascii</tspan><tspan
           style="fill:#bdc3c7;fill-opacity:0.6"
           id="tspan7598">&quot;)</tspan></tspan></text>
    <text
       xml:space="preserve"
       style="font-style:normal;font-weight:normal;font-size:7.05555534px;line-height:125%;font-family:sans-serif;letter-spacing:0px;word-spacing:0px;fill:#2c3e50;fill-opacity:1;stroke:none;stroke-width:0.26458332px;stroke-linecap:butt;stroke-linejoin:miter;stroke-opacity:1;"
       x="30.959423"
       y="271.94119"
       id="text7602"
       sodipodi:linespacing="125%"><tspan
         sodipodi:role="line"
         id="tspan7604"
         x="30.959423"
         y="271.94119"
         style="font-style:normal;font-variant:normal;font-weight:800;font-stretch:normal;font-size:12.69999981px;font-family:Raleway;-inkscape-font-specification:'Raleway Ultra-Bold';fill:#2c3e50;stroke-width:0.26458332px;">Asciify images using Node.js.</tspan></text>
  </g>
</svg>
