<?xml version="1.0" encoding="UTF-8" standalone="no"?>
<!-- Created with Inkscape (http://www.inkscape.org/) -->

<svg
   xmlns:dc="http://purl.org/dc/elements/1.1/"
   xmlns:cc="http://creativecommons.org/ns#"
   xmlns:rdf="http://www.w3.org/1999/02/22-rdf-syntax-ns#"
   xmlns:svg="http://www.w3.org/2000/svg"
   xmlns="http://www.w3.org/2000/svg"
   xmlns:xlink="http://www.w3.org/1999/xlink"
   xmlns:sodipodi="http://sodipodi.sourceforge.net/DTD/sodipodi-0.dtd"
   xmlns:inkscape="http://www.inkscape.org/namespaces/inkscape"
   width="900"
   height="400"
   viewBox="0 0 238.12501 105.83333"
   id="svg2"
   version="1.1"
   inkscape:version="0.91+devel+osxmenu r12922"
   sodipodi:docname="mdify.svg"
   inkscape:export-filename="/Users/ionicabizau/g7186.png"
   inkscape:export-xdpi="96"
   inkscape:export-ydpi="96">
  <defs
     id="defs4">
    <linearGradient
       inkscape:collect="always"
       id="linearGradient5809">
      <stop
         style="stop-color:#2ecc71;stop-opacity:1"
         offset="0"
         id="stop5811" />
      <stop
         style="stop-color:#1abc9c;stop-opacity:1"
         offset="1"
         id="stop5813" />
    </linearGradient>
    <linearGradient
       inkscape:collect="always"
       xlink:href="#linearGradient5809"
       id="linearGradient5815"
       x1="24.054256"
       y1="157.21809"
       x2="94.078873"
       y2="227.24271"
       gradientUnits="userSpaceOnUse"
       gradientTransform="matrix(0.98473391,0,0,0.98473391,60.897657,41.029231)" />
  </defs>
  <sodipodi:namedview
     id="base"
     pagecolor="#ffffff"
     bordercolor="#666666"
     borderopacity="1.0"
     inkscape:pageopacity="0.0"
     inkscape:pageshadow="2"
     inkscape:zoom="0.98994949"
     inkscape:cx="424.04185"
     inkscape:cy="177.04855"
     inkscape:document-units="mm"
     inkscape:current-layer="layer1"
     showgrid="false"
     units="px"
     inkscape:window-width="1440"
     inkscape:window-height="851"
     inkscape:window-x="0"
     inkscape:window-y="23"
     inkscape:window-maximized="0" />
  <metadata
     id="metadata7">
    <rdf:RDF>
      <cc:Work
         rdf:about="">
        <dc:format>image/svg+xml</dc:format>
        <dc:type
           rdf:resource="http://purl.org/dc/dcmitype/StillImage" />
        <dc:title></dc:title>
      </cc:Work>
    </rdf:RDF>
  </metadata>
  <g
     inkscape:label="Layer 1"
     inkscape:groupmode="layer"
     id="layer1"
     transform="translate(0,-191.16673)">
    <g
       id="g7186"
       transform="translate(1.5e-6,4.5340227)">
      <path
         inkscape:connector-curvature="0"
         id="rect5807"
         d="m 108.27177,195.84704 c -13.122617,0 -23.687203,10.56459 -23.687203,23.68721 l 0,21.58145 c 0,13.12262 10.564586,23.68721 23.687203,23.68721 l 21.58145,0 c 13.12263,0 23.68721,-10.56459 23.68721,-23.68721 l 0,-21.58145 c 0,-13.12262 -10.56458,-23.68721 -23.68721,-23.68721 l -21.58145,0 z m -1.04033,7.9509 17.74639,0 8.28186,8.28146 0,22.47905 c 0,1.30138 -1.06514,2.36613 -2.36653,2.36613 l -23.66172,0 c -1.30139,0 -2.36613,-1.06475 -2.36613,-2.36613 l 0,-28.39438 c 0,-1.30138 1.06474,-2.36613 2.36613,-2.36613 z m 0,2.36613 0,28.39438 23.66172,0 0,-21.29598 -7.0984,-7.0984 -16.56332,0 z m 2.36613,4.73227 9.46493,0 0,2.36613 -9.46493,0 0,-2.36613 z m 0,7.09879 16.56333,0 0,2.36613 -16.56333,0 0,-2.36613 z m 0,4.73226 16.56333,0 0,2.36613 -16.56333,0 0,-2.36613 z m 0,4.73227 16.56333,0 0,2.36613 -16.56333,0 0,-2.36613 z m -2.69003,11.63499 24.32756,0 c 1.11866,0 2.0443,0.9235 2.0242,2.04223 l 0,13.6729 c 0,1.11872 -0.90579,2.04223 -2.04224,2.04223 l -24.30952,0 c -1.11865,0 -2.04223,-0.92343 -2.04223,-2.05987 l 0,-13.65526 c 0,-1.11873 0.92358,-2.04223 2.04223,-2.04223 z m 1.50932,3.55155 0,10.65426 3.55155,0 0,-5.32713 2.66337,3.4096 2.66377,-3.4096 0,5.32713 3.55155,0 0,-10.65426 -3.55155,0 -2.66377,3.55155 -2.66337,-3.55155 -3.55155,0 z m 15.9814,0 0,5.32713 -2.66337,0 4.4213,6.21492 4.45738,-6.21492 -2.66376,0 0,-5.32713 -3.55155,0 z"
         style="opacity:1;fill:url(#linearGradient5815);fill-opacity:1;stroke:none;stroke-width:0.26054418;stroke-opacity:1" />
      <text
         sodipodi:linespacing="125%"
         id="text7182"
         y="280.05109"
         x="98.687813"
         style="font-style:normal;font-variant:normal;font-weight:800;font-stretch:normal;font-size:13.32291222px;line-height:125%;font-family:'Open Sans';-inkscape-font-specification:'Open Sans Ultra-Bold';letter-spacing:0px;word-spacing:0px;fill:#1abc9c;fill-opacity:1;stroke:none;stroke-width:0.33307281px;stroke-linecap:butt;stroke-linejoin:miter;stroke-opacity:1"
         xml:space="preserve"><tspan
           style="font-style:normal;font-variant:normal;font-weight:800;font-stretch:normal;font-family:'Open Sans';-inkscape-font-specification:'Open Sans Ultra-Bold';fill:#1abc9c;fill-opacity:1;stroke-width:0.33307281px"
           y="280.05109"
           x="98.687813"
           id="tspan7184"
           sodipodi:role="line">mdify</tspan></text>
    </g>
  </g>
</svg>
