<?xml version="1.0" encoding="UTF-8" standalone="no"?>
<!-- Created with Inkscape (http://www.inkscape.org/) -->

<svg
   xmlns:dc="http://purl.org/dc/elements/1.1/"
   xmlns:cc="http://creativecommons.org/ns#"
   xmlns:rdf="http://www.w3.org/1999/02/22-rdf-syntax-ns#"
   xmlns:svg="http://www.w3.org/2000/svg"
   xmlns="http://www.w3.org/2000/svg"
   xmlns:xlink="http://www.w3.org/1999/xlink"
   xmlns:sodipodi="http://sodipodi.sourceforge.net/DTD/sodipodi-0.dtd"
   xmlns:inkscape="http://www.inkscape.org/namespaces/inkscape"
   width="900"
   height="400"
   viewBox="0 0 238.12501 105.83333"
   id="svg2"
   version="1.1"
   inkscape:version="0.91+devel r"
   sodipodi:docname="h.svg"
   inkscape:export-filename="/home/ionicabizau/Documents/repository-downloader/downloads/github/IonicaBizau/Resources/tenth/h.png"
   inkscape:export-xdpi="96"
   inkscape:export-ydpi="96">
  <defs
     id="defs4">
    <linearGradient
       inkscape:collect="always"
       id="linearGradient5122">
      <stop
         style="stop-color:#f9d423;stop-opacity:1"
         offset="0"
         id="stop5124" />
      <stop
         style="stop-color:#ff4e50;stop-opacity:1"
         offset="1"
         id="stop5126" />
    </linearGradient>
    <linearGradient
       inkscape:collect="always"
       xlink:href="#linearGradient5122"
       id="linearGradient5128"
       x1="21.099684"
       y1="193.00871"
       x2="212.67142"
       y2="297.66983"
       gradientUnits="userSpaceOnUse" />
    <linearGradient
       inkscape:collect="always"
       xlink:href="#linearGradient5122"
       id="linearGradient5145"
       gradientUnits="userSpaceOnUse"
       x1="21.099684"
       y1="193.00871"
       x2="212.67142"
       y2="297.66983" />
    <linearGradient
       inkscape:collect="always"
       xlink:href="#linearGradient5122"
       id="linearGradient5147"
       gradientUnits="userSpaceOnUse"
       x1="21.099684"
       y1="193.00871"
       x2="212.67142"
       y2="297.66983" />
  </defs>
  <sodipodi:namedview
     id="base"
     pagecolor="#ffffff"
     bordercolor="#666666"
     borderopacity="1.0"
     inkscape:pageopacity="0.0"
     inkscape:pageshadow="2"
     inkscape:zoom="2.2344574"
     inkscape:cx="400.79888"
     inkscape:cy="181.68955"
     inkscape:document-units="mm"
     inkscape:current-layer="layer1"
     showgrid="false"
     units="px"
     inkscape:window-width="1920"
     inkscape:window-height="1056"
     inkscape:window-x="0"
     inkscape:window-y="24"
     inkscape:window-maximized="1" />
  <metadata
     id="metadata7">
    <rdf:RDF>
      <cc:Work
         rdf:about="">
        <dc:format>image/svg+xml</dc:format>
        <dc:type
           rdf:resource="http://purl.org/dc/dcmitype/StillImage" />
        <dc:title></dc:title>
      </cc:Work>
    </rdf:RDF>
  </metadata>
  <g
     inkscape:label="Layer 1"
     inkscape:groupmode="layer"
     id="layer1"
     transform="translate(0,-191.16667)">
    <path
       inkscape:connector-curvature="0"
       style="opacity:1;fill:url(#linearGradient5147);fill-opacity:1;fill-rule:nonzero;stroke:none;stroke-width:2.84116006;stroke-linecap:butt;stroke-linejoin:miter;stroke-miterlimit:4;stroke-dasharray:none;stroke-opacity:1"
       d="m 106.1837,276.99435 0,0.9002 0.81855,0 0,-0.9002 -0.81855,0 z m 24.97832,0 0,2.27635 c -0.13391,-0.2331 -0.31954,-0.4238 -0.55759,-0.57258 -0.23805,-0.15374 -0.51335,-0.23099 -0.82579,-0.23099 -0.25293,0 -0.48644,0.0547 -0.6997,0.16381 -0.20829,0.10415 -0.39165,0.248 -0.55035,0.4315 -0.15374,0.1835 -0.27505,0.39674 -0.36432,0.63975 -0.0843,0.23806 -0.12661,0.4936 -0.12661,0.76637 0,0.28268 0.0446,0.54784 0.13384,0.79581 0.0942,0.24301 0.2234,0.45626 0.38706,0.63976 0.16366,0.1835 0.35715,0.32962 0.58033,0.43873 0.22317,0.10415 0.46579,0.15658 0.72863,0.15658 0.30253,0 0.57782,-0.0694 0.82579,-0.20826 0.24798,-0.13886 0.44426,-0.33008 0.58808,-0.57309 l 0.0145,0.29042 c 0.01,0.13391 0.0669,0.24281 0.17105,0.32711 0.10415,0.0843 0.23838,0.12661 0.40204,0.12661 0.0347,0 0.0765,-0.003 0.1261,-0.008 0.0546,-0.005 0.12446,-0.0146 0.20877,-0.0295 l 0,-0.69918 c -0.0843,-0.005 -0.14408,-0.0275 -0.1788,-0.0672 -0.0298,-0.0397 -0.0444,-0.10679 -0.0444,-0.20102 l 0,-4.46329 -0.81856,0 z m 19.32234,0 0,5.43067 0.81803,0 0,-1.18287 0.64751,-0.6103 1.2423,1.79317 0.87023,0 -1.59215,-2.25412 1.5105,-1.62936 -0.89297,0 -1.78542,1.89704 0,-3.44423 -0.81803,0 z m -63.490704,0.11162 c -0.366995,0 -0.706614,0.0745 -1.019058,0.22324 -0.307483,0.14383 -0.575437,0.33959 -0.803569,0.58756 -0.223173,0.24797 -0.399187,0.5334 -0.528132,0.85576 -0.128945,0.32237 -0.19327,0.65919 -0.19327,1.01131 0,0.33724 0.05926,0.66724 0.178284,0.98961 0.123984,0.32236 0.297725,0.61006 0.520898,0.86299 0.223174,0.24797 0.488334,0.44881 0.795817,0.60255 0.312441,0.14878 0.657129,0.22324 1.034044,0.22324 0.362038,0 0.697106,-0.0722 1.004591,-0.21601 0.312442,-0.14878 0.582669,-0.34455 0.810803,-0.58756 0.228132,-0.24797 0.404148,-0.53288 0.528132,-0.85524 0.128945,-0.32236 0.19327,-0.65971 0.19327,-1.01182 0,-0.33229 -0.06205,-0.65722 -0.186034,-0.97462 -0.119025,-0.32236 -0.289975,-0.61007 -0.513148,-0.863 -0.218213,-0.25293 -0.483373,-0.45604 -0.795817,-0.60978 -0.307483,-0.1587 -0.649896,-0.23823 -1.026811,-0.23823 z m 49.888424,0.14883 0,1.27951 -0.51314,0 0,0.63252 0.51314,0 0,2.43241 c 0,0.1587 0.0248,0.29521 0.0744,0.40927 0.0496,0.10911 0.11671,0.19825 0.20102,0.26769 0.0893,0.0694 0.19082,0.12135 0.30489,0.15606 0.11407,0.0347 0.23537,0.0522 0.36432,0.0522 0.20829,0 0.40458,-0.0299 0.58808,-0.0894 0.18349,-0.0645 0.32683,-0.12145 0.43098,-0.17105 l -0.17105,-0.64699 c -0.0496,0.0248 -0.12633,0.057 -0.23048,0.0966 -0.10414,0.0397 -0.21304,0.0594 -0.32711,0.0594 -0.11407,0 -0.21107,-0.0299 -0.29042,-0.0894 -0.0744,-0.0645 -0.11617,-0.16603 -0.12609,-0.30489 l 0,-2.17196 0.84801,0 0,-0.63252 -0.84801,0 0,-1.27951 -0.81856,0 z m -49.895657,0.60978 c 0.252928,0 0.480859,0.0547 0.684196,0.16381 0.208293,0.10415 0.38431,0.24573 0.528132,0.42427 0.148784,0.17358 0.262747,0.37669 0.342099,0.60978 0.07935,0.22813 0.119372,0.46847 0.119372,0.7214 0,0.23805 -0.03723,0.47157 -0.11162,0.6997 -0.07439,0.22814 -0.183806,0.43352 -0.327631,0.61702 -0.143822,0.1835 -0.319836,0.33242 -0.528132,0.44648 -0.203335,0.10911 -0.438608,0.16382 -0.706416,0.16382 -0.25789,0 -0.491406,-0.0524 -0.699699,-0.15658 -0.208296,-0.10911 -0.386585,-0.25245 -0.535368,-0.43098 -0.143823,-0.17854 -0.255514,-0.38445 -0.334865,-0.61754 -0.07935,-0.23309 -0.118854,-0.47395 -0.118854,-0.72192 0,-0.23805 0.03723,-0.47105 0.11162,-0.69918 0.07935,-0.23309 0.190524,-0.43899 0.334346,-0.61753 0.143825,-0.17854 0.320355,-0.32239 0.528651,-0.4315 0.208296,-0.11407 0.44636,-0.17105 0.714169,-0.17105 z m 7.443472,0.60255 c -0.267808,0 -0.513215,0.0547 -0.736388,0.16381 -0.218215,0.10415 -0.406641,0.248 -0.565341,0.4315 -0.158702,0.17854 -0.282802,0.39178 -0.37207,0.63975 -0.08927,0.24301 -0.133842,0.50362 -0.133842,0.78135 0,0.26285 0.04178,0.51281 0.12609,0.75086 0.08927,0.23805 0.211095,0.44902 0.364836,0.63252 0.1587,0.1835 0.347126,0.32963 0.565341,0.43873 0.218212,0.10415 0.458555,0.15658 0.721402,0.15658 0.267809,0 0.523351,-0.0648 0.76636,-0.19378 0.243012,-0.12895 0.434229,-0.31231 0.573093,-0.55036 l 0,0.59531 c 0,0.19838 -0.03495,0.36933 -0.104386,0.51315 -0.06447,0.14382 -0.153617,0.26286 -0.267684,0.35709 -0.114067,0.0942 -0.248301,0.16362 -0.402042,0.20825 -0.148783,0.0446 -0.307322,0.0672 -0.475941,0.0672 -0.267808,0 -0.520557,-0.0547 -0.75861,-0.16381 -0.233093,-0.10911 -0.42431,-0.26765 -0.573091,-0.47594 l -0.460954,0.4315 c 0.193416,0.26284 0.431482,0.46595 0.714169,0.60978 0.287644,0.14878 0.647017,0.22324 1.078486,0.22324 0.292606,0 0.565624,-0.0395 0.818555,-0.11886 0.252931,-0.0794 0.470725,-0.1961 0.654225,-0.34985 0.188457,-0.14878 0.3351,-0.33214 0.439248,-0.55035 0.104147,-0.21822 0.156064,-0.46869 0.156064,-0.75138 l 0,-3.77909 -0.721405,0 0,0.73639 c -0.153741,-0.23806 -0.350025,-0.43155 -0.588076,-0.58033 -0.233093,-0.14878 -0.505595,-0.22324 -0.818039,-0.22324 z m 4.618839,0 c -0.540575,0 -1.061278,0.16867 -1.562179,0.50591 l 0.253217,0.5209 c 0.213254,-0.14383 0.418639,-0.25272 0.617016,-0.32711 0.203335,-0.0793 0.409236,-0.11938 0.617532,-0.11938 0.307483,0 0.543274,0.0818 0.706935,0.24547 0.163661,0.1587 0.245462,0.38208 0.245462,0.66972 l 0,0.26769 c -0.143822,-0.0546 -0.305152,-0.0968 -0.48369,-0.12661 -0.178541,-0.0347 -0.359622,-0.0517 -0.543121,-0.0517 -0.243012,0 -0.465873,0.0294 -0.66921,0.0889 -0.198374,0.0595 -0.372116,0.14411 -0.520896,0.25321 -0.143825,0.10911 -0.255514,0.23776 -0.334865,0.38654 -0.07935,0.14878 -0.118856,0.31518 -0.118856,0.49868 0,0.17358 0.03216,0.33491 0.09664,0.48369 0.06943,0.14878 0.161367,0.27743 0.275434,0.38654 0.119026,0.10911 0.25781,0.19598 0.416513,0.26045 0.16366,0.0595 0.339674,0.0894 0.528132,0.0894 0.292605,0 0.565108,-0.0598 0.818039,-0.1788 0.257889,-0.12399 0.473927,-0.3 0.647503,-0.52813 l 0.0222,0.24546 c 0.0199,0.12398 0.0718,0.22554 0.15607,0.30489 0.0893,0.0794 0.21337,0.11937 0.37207,0.11937 0.0545,0 0.10926,-0.003 0.16381,-0.008 0.0595,-0.005 0.12891,-0.0146 0.20826,-0.0295 l 0,-0.69918 c -0.14383,-0.005 -0.21601,-0.0946 -0.21601,-0.2682 l 0,-1.4056 c 0,-0.51081 -0.1484,-0.90287 -0.44597,-1.17564 -0.29756,-0.27276 -0.714429,-0.40927 -1.250046,-0.40927 z m 5.017266,0 c -0.3422,0 -0.65472,0.0772 -0.93741,0.23099 -0.28269,0.14878 -0.49821,0.35417 -0.64699,0.61702 l 0,-0.78083 -0.74362,0 0,3.89071 0.81803,0 0,-2.31355 c 0.0446,-0.1339 0.10669,-0.25573 0.18604,-0.36484 0.0843,-0.11406 0.17852,-0.21055 0.28267,-0.2899 0.10415,-0.0843 0.21584,-0.14863 0.33486,-0.19327 0.11903,-0.0446 0.23806,-0.0672 0.35709,-0.0672 0.22813,0 0.39908,0.0846 0.51314,0.25322 0.11903,0.16366 0.1788,0.42882 0.1788,0.79581 l 0,2.17971 0.81804,0 0,-2.37298 c 0,-0.21325 -0.0175,-0.41409 -0.0522,-0.60254 -0.0347,-0.19342 -0.0968,-0.36209 -0.18604,-0.50592 -0.0843,-0.14878 -0.20055,-0.26553 -0.34933,-0.34985 -0.14878,-0.0843 -0.34,-0.1266 -0.57309,-0.1266 z m 9.24956,0 c -0.30748,0 -0.58505,0.0547 -0.83302,0.16381 -0.24797,0.10415 -0.46122,0.25028 -0.63975,0.43873 -0.17358,0.1835 -0.31009,0.39954 -0.40928,0.64751 -0.0942,0.24301 -0.14108,0.50083 -0.14108,0.7736 0,0.27276 0.0469,0.53058 0.14108,0.77359 0.0992,0.24301 0.2357,0.45626 0.40928,0.63976 0.17853,0.1835 0.39178,0.32962 0.63975,0.43873 0.24797,0.10415 0.52326,0.15658 0.82579,0.15658 0.41163,0 0.771,-0.0919 1.07849,-0.27544 0.31244,-0.18845 0.53582,-0.42879 0.66972,-0.7214 l -0.69918,-0.20102 c -0.0397,0.0893 -0.0944,0.17107 -0.16381,0.24546 -0.0694,0.0744 -0.14896,0.13872 -0.23823,0.19327 -0.0893,0.0496 -0.18855,0.0896 -0.29766,0.11937 -0.10414,0.0248 -0.21077,0.0372 -0.31988,0.0372 -0.14878,0 -0.29263,-0.0276 -0.43149,-0.0822 -0.13391,-0.0546 -0.25522,-0.13129 -0.36432,-0.23048 -0.10415,-0.10415 -0.19102,-0.22546 -0.26045,-0.36432 -0.0645,-0.13886 -0.10398,-0.29512 -0.11886,-0.4687 l 3.11712,0 c 0.005,-0.0347 0.01,-0.077 0.0145,-0.12661 0.005,-0.0546 0.008,-0.11154 0.008,-0.17105 0,-0.26285 -0.0474,-0.51332 -0.1416,-0.75138 -0.0893,-0.24301 -0.22071,-0.45398 -0.39429,-0.63252 -0.17358,-0.18349 -0.38403,-0.32962 -0.632,-0.43873 -0.24301,-0.1091 -0.51603,-0.16381 -0.81855,-0.16381 z m 7.8326,0 c -0.54058,0 -1.06128,0.16867 -1.56218,0.50591 l 0.25322,0.5209 c 0.21325,-0.14383 0.41864,-0.25272 0.61701,-0.32711 0.20334,-0.0793 0.40924,-0.11938 0.61754,-0.11938 0.30748,0 0.54327,0.0818 0.70693,0.24547 0.16366,0.1587 0.24546,0.38208 0.24546,0.66972 l 0,0.26769 c -0.14382,-0.0546 -0.30515,-0.0968 -0.48369,-0.12661 -0.17854,-0.0347 -0.35962,-0.0517 -0.54312,-0.0517 -0.24301,0 -0.46587,0.0294 -0.66921,0.0889 -0.19837,0.0595 -0.37211,0.14411 -0.52089,0.25321 -0.14383,0.10911 -0.25552,0.23776 -0.33487,0.38654 -0.0794,0.14878 -0.11886,0.31518 -0.11886,0.49868 0,0.17358 0.0322,0.33491 0.0966,0.48369 0.0694,0.14878 0.16137,0.27743 0.27544,0.38654 0.11902,0.10911 0.25781,0.19598 0.41651,0.26045 0.16366,0.0595 0.33967,0.0894 0.52813,0.0894 0.29261,0 0.56511,-0.0598 0.81804,-0.1788 0.25789,-0.12399 0.47393,-0.3 0.64751,-0.52813 l 0.0222,0.24546 c 0.0198,0.12398 0.0718,0.22554 0.15606,0.30489 0.0893,0.0794 0.21337,0.11937 0.37207,0.11937 0.0546,0 0.10926,-0.003 0.16382,-0.008 0.0595,-0.005 0.1289,-0.0146 0.20826,-0.0295 l 0,-0.69918 c -0.14383,-0.005 -0.21601,-0.0946 -0.21601,-0.2682 l 0,-1.4056 c 0,-0.51081 -0.14841,-0.90287 -0.44597,-1.17564 -0.29757,-0.27276 -0.71444,-0.40927 -1.25005,-0.40927 z m 5.01726,0 c -0.34219,0 -0.65472,0.0772 -0.93741,0.23099 -0.28268,0.14878 -0.4982,0.35417 -0.64698,0.61702 l 0,-0.78083 -0.74414,0 0,3.89071 0.81855,0 0,-2.31355 c 0.0446,-0.1339 0.10668,-0.25573 0.18604,-0.36484 0.0843,-0.11406 0.17852,-0.21055 0.28267,-0.2899 0.10414,-0.0843 0.21583,-0.14863 0.33486,-0.19327 0.11902,-0.0446 0.23806,-0.0672 0.35708,-0.0672 0.22814,0 0.39908,0.0846 0.51315,0.25322 0.11903,0.16366 0.17828,0.42882 0.17828,0.79581 l 0,2.17971 0.81856,0 0,-2.37298 c 0,-0.21325 -0.0175,-0.41409 -0.0522,-0.60254 -0.0347,-0.19342 -0.0968,-0.36209 -0.18604,-0.50592 -0.0843,-0.14878 -0.20055,-0.26553 -0.34933,-0.34985 -0.14879,-0.0843 -0.34,-0.1266 -0.5731,-0.1266 z m 17.47439,0 c -0.54058,0 -1.06128,0.16867 -1.56218,0.50591 l 0.25322,0.5209 c 0.21325,-0.14383 0.41864,-0.25272 0.61701,-0.32711 0.20334,-0.0793 0.40924,-0.11938 0.61754,-0.11938 0.30748,0 0.54327,0.0818 0.70693,0.24547 0.16366,0.1587 0.24546,0.38208 0.24546,0.66972 l 0,0.26769 c -0.14382,-0.0546 -0.30515,-0.0968 -0.48369,-0.12661 -0.17854,-0.0347 -0.35962,-0.0517 -0.54312,-0.0517 -0.24301,0 -0.46587,0.0294 -0.66921,0.0889 -0.19837,0.0595 -0.37211,0.14411 -0.52089,0.25321 -0.14383,0.10911 -0.25552,0.23776 -0.33487,0.38654 -0.0794,0.14878 -0.11886,0.31518 -0.11886,0.49868 0,0.17358 0.0322,0.33491 0.0966,0.48369 0.0694,0.14878 0.16137,0.27743 0.27543,0.38654 0.11903,0.10911 0.25782,0.19598 0.41652,0.26045 0.16366,0.0595 0.33967,0.0894 0.52813,0.0894 0.29261,0 0.56511,-0.0598 0.81804,-0.1788 0.25789,-0.12399 0.47392,-0.3 0.6475,-0.52813 l 0.0222,0.24546 c 0.0198,0.12398 0.0718,0.22554 0.15606,0.30489 0.0893,0.0794 0.21337,0.11937 0.37207,0.11937 0.0546,0 0.10926,-0.003 0.16382,-0.008 0.0595,-0.005 0.1289,-0.0146 0.20825,-0.0295 l 0,-0.69918 c -0.14382,-0.005 -0.216,-0.0946 -0.216,-0.2682 l 0,-1.4056 c 0,-0.51081 -0.14841,-0.90287 -0.44597,-1.17564 -0.29757,-0.27276 -0.71444,-0.40927 -1.25006,-0.40927 z m 4.45193,0 c -0.30749,0 -0.58506,0.0547 -0.83303,0.16381 -0.24797,0.10415 -0.46121,0.248 -0.63975,0.4315 -0.17358,0.1835 -0.3073,0.39674 -0.40153,0.63975 -0.0942,0.24301 -0.14159,0.50083 -0.14159,0.7736 0,0.27277 0.0474,0.53059 0.14159,0.7736 0.0992,0.24301 0.23518,0.45905 0.40876,0.6475 0.17854,0.1835 0.39179,0.32963 0.63976,0.43873 0.24797,0.10911 0.52326,0.16382 0.82579,0.16382 0.41163,0 0.76872,-0.0919 1.07125,-0.27544 0.30252,-0.18845 0.51856,-0.42879 0.6475,-0.7214 l -0.80357,-0.23823 c -0.0298,0.0744 -0.0771,0.14379 -0.14159,0.20826 -0.0595,0.0645 -0.13118,0.12145 -0.21549,0.17105 -0.0794,0.0496 -0.16849,0.0896 -0.26768,0.11937 -0.0992,0.0248 -0.19847,0.0372 -0.29766,0.0372 -0.1587,0 -0.3099,-0.0327 -0.45372,-0.0971 -0.13886,-0.0694 -0.26296,-0.16365 -0.37207,-0.28267 -0.10415,-0.11903 -0.18822,-0.25782 -0.2527,-0.41652 -0.0595,-0.16366 -0.0894,-0.33967 -0.0894,-0.52813 0,-0.19342 0.0299,-0.36943 0.0894,-0.52813 0.0595,-0.1587 0.14132,-0.29521 0.24547,-0.40928 0.10414,-0.11903 0.22545,-0.21045 0.36432,-0.27492 0.14382,-0.0645 0.29781,-0.0966 0.46147,-0.0966 0.19341,0 0.36943,0.0468 0.52813,0.14107 0.1587,0.0893 0.28508,0.21565 0.37931,0.37931 l 0.79581,-0.2527 c -0.14382,-0.2926 -0.36213,-0.5256 -0.65474,-0.69918 -0.28765,-0.17854 -0.63233,-0.2682 -1.03404,-0.2682 z m -55.838971,0.03 c -0.247973,0.0149 -0.480971,0.10402 -0.699183,0.26768 -0.213257,0.1587 -0.386995,0.37195 -0.520898,0.63976 l 0,-0.87023 -0.758611,0 0,3.89071 0.818039,0 0,-2.38073 c 0.104148,-0.25293 0.277886,-0.44642 0.520898,-0.58032 0.24797,-0.13887 0.530606,-0.21333 0.848008,-0.22325 l 0,-0.73639 c -0.02479,-0.005 -0.05468,-0.007 -0.0894,-0.007 l -0.118853,0 z m 49.138601,0 c -0.24797,0.0149 -0.48097,0.10402 -0.69918,0.26768 -0.21326,0.1587 -0.38648,0.37195 -0.52039,0.63976 l 0,-0.87023 -0.75912,0 0,3.89071 0.81855,0 0,-2.38073 c 0.10415,-0.25293 0.27737,-0.44642 0.52039,-0.58032 0.24797,-0.13887 0.53112,-0.21333 0.84852,-0.22325 l 0,-0.73639 c -0.0248,-0.005 -0.0547,-0.007 -0.0894,-0.007 l -0.11937,0 z m -35.20767,0.0372 0,3.89071 0.81855,0 0,-3.89071 -0.81855,0 z m 1.60094,0 0,0.58032 2.25412,0 -2.33577,2.79673 0,0.51366 3.22099,0 0,-0.58032 -2.34353,0 2.32131,-2.79725 0,-0.51314 -3.11712,0 z m 5.52369,0.53536 c 0.15374,0 0.29987,0.0276 0.43873,0.0822 0.13886,0.0546 0.26069,0.13129 0.36484,0.23048 0.10415,0.0942 0.18822,0.21098 0.2527,0.34985 0.0694,0.13886 0.11172,0.29005 0.1266,0.45372 l -2.35076,0 c 0.0149,-0.16367 0.0544,-0.31486 0.11886,-0.45372 0.0645,-0.13887 0.14855,-0.25562 0.2527,-0.34985 0.10414,-0.0992 0.22317,-0.17593 0.35708,-0.23048 0.13886,-0.0546 0.28551,-0.0822 0.43925,-0.0822 z m -18.700151,0.0972 c 0.114068,0 0.228547,0.022 0.342615,0.0667 0.114067,0.0397 0.220689,0.0967 0.319876,0.17105 0.104147,0.0744 0.195569,0.16354 0.27492,0.26768 0.07935,0.0992 0.144193,0.21088 0.193786,0.33486 l 0,1.01906 c -0.02976,0.10415 -0.0794,0.20343 -0.148828,0.29766 -0.06943,0.0893 -0.154027,0.17107 -0.253214,0.24546 -0.09423,0.0694 -0.198059,0.12642 -0.312126,0.17105 -0.114068,0.0397 -0.233098,0.0599 -0.357085,0.0599 -0.17358,0 -0.334909,-0.035 -0.48369,-0.10439 -0.143825,-0.0694 -0.270198,-0.16137 -0.379306,-0.27543 -0.109107,-0.11903 -0.195977,-0.25502 -0.260448,-0.40876 -0.05951,-0.15871 -0.0894,-0.32738 -0.0894,-0.50592 0,-0.16862 0.02709,-0.33222 0.08165,-0.49092 0.05456,-0.15871 0.131805,-0.30028 0.230995,-0.42427 0.09919,-0.12894 0.21822,-0.2305 0.357084,-0.30489 0.143822,-0.0794 0.304636,-0.11885 0.483174,-0.11885 z m 35.400941,0 c 0.11902,0 0.23526,0.0197 0.34933,0.0594 0.11903,0.0397 0.23072,0.0967 0.33486,0.17105 0.10415,0.0744 0.19609,0.16354 0.27544,0.26769 0.0843,0.10414 0.14863,0.21811 0.19327,0.34209 l 0,1.01906 c -0.0298,0.10911 -0.0817,0.21118 -0.15606,0.30541 -0.0694,0.0942 -0.15403,0.17603 -0.25322,0.24546 -0.0992,0.0694 -0.20808,0.12363 -0.32711,0.1633 -0.11903,0.0397 -0.23806,0.0599 -0.35708,0.0599 -0.16366,0 -0.31765,-0.035 -0.46147,-0.10439 -0.13887,-0.0694 -0.26245,-0.16364 -0.37156,-0.28267 -0.1091,-0.11903 -0.19597,-0.25781 -0.26045,-0.41651 -0.0595,-0.1587 -0.0894,-0.32737 -0.0894,-0.50591 0,-0.16862 0.0271,-0.33223 0.0816,-0.49093 0.0595,-0.1587 0.13904,-0.30028 0.23823,-0.42426 0.0992,-0.12399 0.21595,-0.22327 0.34985,-0.29766 0.13886,-0.0744 0.29006,-0.1111 0.45372,-0.1111 z m -30.982605,1.35392 c 0.14878,0 0.299976,0.0147 0.453718,0.0444 0.158702,0.0298 0.30762,0.0721 0.446484,0.12661 l 0,0.51314 c 0,0.0992 -0.05191,0.19341 -0.156062,0.28267 -0.09919,0.12895 -0.23849,0.2305 -0.417028,0.3049 -0.17358,0.0694 -0.359214,0.10438 -0.557591,0.10438 -0.223173,0 -0.407046,-0.0648 -0.55087,-0.19378 -0.143823,-0.13391 -0.21549,-0.29751 -0.21549,-0.49093 0,-0.2083 0.09194,-0.37418 0.275436,-0.49816 0.188458,-0.12895 0.428797,-0.19327 0.721403,-0.19327 z m 22.099425,0 c 0.14878,0 0.29998,0.0147 0.45372,0.0444 0.1587,0.0298 0.30762,0.0721 0.44648,0.12661 l 0,0.51314 c 0,0.0992 -0.0519,0.19341 -0.15606,0.28267 -0.0992,0.12895 -0.23849,0.2305 -0.41703,0.3049 -0.17358,0.0694 -0.35921,0.10438 -0.55759,0.10438 -0.22317,0 -0.40704,-0.0648 -0.55087,-0.19378 -0.14382,-0.13391 -0.21549,-0.29751 -0.21549,-0.49093 0,-0.2083 0.0919,-0.37418 0.27544,-0.49816 0.18846,-0.12895 0.4288,-0.19327 0.7214,-0.19327 z m 22.49165,0 c 0.14878,0 0.29998,0.0147 0.45372,0.0444 0.1587,0.0298 0.30762,0.0721 0.44648,0.12661 l 0,0.51314 c 0,0.0992 -0.0519,0.19341 -0.15606,0.28267 -0.0992,0.12895 -0.23849,0.2305 -0.41703,0.3049 -0.17358,0.0694 -0.35921,0.10438 -0.55759,0.10438 -0.22317,0 -0.40653,-0.0648 -0.55035,-0.19378 -0.14382,-0.13391 -0.21601,-0.29751 -0.21601,-0.49093 0,-0.2083 0.0919,-0.37418 0.27544,-0.49816 0.18845,-0.12895 0.42879,-0.19327 0.7214,-0.19327 z m -56.511279,5.77226 0,5.43067 0.818554,0 0,-2.31355 c 0.03968,-0.13391 0.09893,-0.25521 0.178284,-0.36432 0.07935,-0.11407 0.169014,-0.21107 0.268201,-0.29042 0.104148,-0.0843 0.213045,-0.14864 0.327112,-0.19327 0.114067,-0.0446 0.228031,-0.0667 0.342098,-0.0667 0.238051,0 0.419135,0.0864 0.543118,0.25993 0.128945,0.16862 0.193271,0.4315 0.193271,0.78858 l 0,2.17971 0.818554,0 0,-2.37298 c 0,-0.21325 -0.01976,-0.41409 -0.05943,-0.60255 -0.03472,-0.19341 -0.09956,-0.36209 -0.193786,-0.50591 -0.09423,-0.14382 -0.220604,-0.25779 -0.379304,-0.3421 -0.153741,-0.0893 -0.351785,-0.13384 -0.594796,-0.13384 -0.302525,0 -0.582885,0.0745 -0.840775,0.22324 -0.252931,0.14879 -0.453766,0.35696 -0.602549,0.62477 l 0,-2.3213 -0.818554,0 z m 24.903909,0 0,5.43067 0.81804,0 0,-2.31355 c 0.0397,-0.13391 0.0994,-0.25521 0.1788,-0.36432 0.0794,-0.11407 0.16849,-0.21107 0.26768,-0.29042 0.10415,-0.0843 0.21304,-0.14864 0.32711,-0.19327 0.11407,-0.0446 0.22855,-0.0667 0.34262,-0.0667 0.23805,0 0.41861,0.0864 0.5426,0.25993 0.12894,0.16862 0.19378,0.4315 0.19378,0.78858 l 0,2.17971 0.81804,0 0,-2.37298 c 0,-0.21325 -0.0198,-0.41409 -0.0594,-0.60255 -0.0347,-0.19341 -0.0991,-0.36209 -0.19327,-0.50591 -0.0942,-0.14382 -0.22061,-0.25779 -0.37931,-0.3421 -0.15374,-0.0893 -0.3523,-0.13384 -0.59531,-0.13384 -0.30253,0 -0.58289,0.0745 -0.84078,0.22324 -0.25293,0.14879 -0.45376,0.35696 -0.60254,0.62477 l 0,-2.3213 -0.81804,0 z m -27.434503,0.26045 0,1.2795 -0.513147,0 0,0.63252 0.513147,0 0,2.43241 c 0,0.1587 0.02482,0.29521 0.07441,0.40928 0.04959,0.10911 0.11671,0.19825 0.201022,0.26768 0.08927,0.0694 0.190823,0.12187 0.30489,0.15658 0.114067,0.0347 0.235373,0.0517 0.364318,0.0517 0.208296,0 0.40458,-0.0294 0.588079,-0.0889 0.183499,-0.0645 0.32735,-0.12146 0.431498,-0.17105 l -0.171566,-0.64751 c -0.04959,0.0248 -0.126328,0.057 -0.230476,0.0966 -0.104148,0.0397 -0.213045,0.0594 -0.327112,0.0594 -0.114068,0 -0.211072,-0.0294 -0.290423,-0.0889 -0.07439,-0.0645 -0.116171,-0.16654 -0.12609,-0.30541 l 0,-2.17196 0.848011,0 0,-0.63252 -0.848011,0 0,-1.2795 -0.818554,0 z m 13.440005,0 0,1.2795 -0.513662,0 0,0.63252 0.513662,0 0,2.43241 c 0,0.1587 0.02482,0.29521 0.07442,0.40928 0.04959,0.10911 0.116195,0.19825 0.200504,0.26768 0.08927,0.0694 0.191342,0.12187 0.305406,0.15658 0.114067,0.0347 0.235376,0.0517 0.364321,0.0517 0.208296,0 0.404061,-0.0294 0.58756,-0.0889 0.183499,-0.0645 0.32735,-0.12146 0.431498,-0.17105 l -0.171048,-0.64751 c -0.0496,0.0248 -0.12633,0.057 -0.230478,0.0966 -0.104148,0.0397 -0.213561,0.0594 -0.327628,0.0594 -0.114067,0 -0.210553,-0.0294 -0.289904,-0.0889 -0.07439,-0.0645 -0.116689,-0.16654 -0.126609,-0.30541 l 0,-2.17196 0.848011,0 0,-0.63252 -0.848011,0 0,-1.2795 -0.818038,0 z m 11.463898,0 0,1.2795 -0.51366,0 0,0.63252 0.51366,0 0,2.43241 c 0,0.1587 0.0248,0.29521 0.0744,0.40928 0.0496,0.10911 0.11619,0.19825 0.2005,0.26768 0.0893,0.0694 0.19083,0.12187 0.30489,0.15658 0.11407,0.0347 0.23589,0.0517 0.36484,0.0517 0.20829,0 0.40406,-0.0294 0.58756,-0.0889 0.1835,-0.0645 0.32735,-0.12146 0.4315,-0.17105 l -0.17105,-0.64751 c -0.0496,0.0248 -0.12633,0.057 -0.23048,0.0966 -0.10415,0.0397 -0.21356,0.0594 -0.32763,0.0594 -0.11406,0 -0.21055,-0.0294 -0.2899,-0.0889 -0.0744,-0.0645 -0.11669,-0.16654 -0.12661,-0.30541 l 0,-2.17196 0.84801,0 0,-0.63252 -0.84801,0 0,-1.2795 -0.81804,0 z m 37.58789,0 0,1.2795 -0.51366,0 0,0.63252 0.51366,0 0,2.43241 c 0,0.1587 0.0248,0.29521 0.0744,0.40928 0.0496,0.10911 0.1162,0.19825 0.20051,0.26768 0.0893,0.0694 0.19082,0.12187 0.30489,0.15658 0.11407,0.0347 0.23589,0.0517 0.36483,0.0517 0.2083,0 0.40407,-0.0294 0.58757,-0.0889 0.18349,-0.0645 0.32735,-0.12146 0.43149,-0.17105 l -0.17105,-0.64751 c -0.0496,0.0248 -0.12632,0.057 -0.23047,0.0966 -0.10415,0.0397 -0.21356,0.0594 -0.32763,0.0594 -0.11407,0 -0.21056,-0.0294 -0.28991,-0.0889 -0.0744,-0.0645 -0.11668,-0.16654 -0.1266,-0.30541 l 0,-2.17196 0.84801,0 0,-0.63252 -0.84801,0 0,-1.2795 -0.81804,0 z m -53.744523,1.21284 c -0.307486,0 -0.585055,0.0542 -0.833025,0.1633 -0.24797,0.10415 -0.461216,0.25079 -0.639754,0.43925 -0.17358,0.1835 -0.310089,0.39902 -0.409276,0.64699 -0.09423,0.24301 -0.141079,0.50082 -0.141079,0.77359 0,0.27277 0.04685,0.53111 0.141079,0.77412 0.09919,0.24301 0.235696,0.45625 0.409276,0.63975 0.178538,0.1835 0.391784,0.32963 0.639754,0.43873 0.24797,0.10415 0.523264,0.15607 0.825789,0.15607 0.41163,0 0.771003,-0.0914 1.078486,-0.27492 0.312444,-0.18846 0.535824,-0.42932 0.669729,-0.72192 l -0.699701,-0.20051 c -0.03967,0.0893 -0.09386,0.17107 -0.163295,0.24547 -0.06943,0.0744 -0.148961,0.13871 -0.238228,0.19327 -0.08927,0.0496 -0.18855,0.0891 -0.297657,0.11885 -0.104148,0.0248 -0.210772,0.0372 -0.319878,0.0372 -0.148783,0 -0.292635,-0.0271 -0.431499,-0.0817 -0.133903,-0.0546 -0.255211,-0.13129 -0.364318,-0.23048 -0.104148,-0.10414 -0.191018,-0.22597 -0.26045,-0.36483 -0.06447,-0.13886 -0.103976,-0.29513 -0.118854,-0.46871 l 3.11712,0 c 0.005,-0.0347 0.0095,-0.0765 0.01447,-0.12609 0.005,-0.0546 0.0078,-0.11205 0.0078,-0.17156 0,-0.26285 -0.04737,-0.51333 -0.141594,-0.75138 -0.08927,-0.24301 -0.220711,-0.45346 -0.39429,-0.632 -0.17358,-0.1835 -0.384033,-0.33014 -0.632003,-0.43925 -0.243012,-0.10911 -0.51603,-0.1633 -0.818554,-0.1633 z m 8.891963,0 c -0.30748,0 -0.58505,0.0542 -0.83302,0.1633 -0.24797,0.10415 -0.46122,0.25079 -0.63976,0.43925 -0.17358,0.1835 -0.31009,0.39902 -0.40928,0.64699 -0.0942,0.24301 -0.14107,0.50082 -0.14107,0.77359 0,0.27277 0.0468,0.53111 0.14107,0.77412 0.0992,0.24301 0.2357,0.45625 0.40928,0.63975 0.17854,0.1835 0.39179,0.32963 0.63976,0.43873 0.24797,0.10415 0.52326,0.15607 0.82579,0.15607 0.41163,0 0.771,-0.0914 1.07848,-0.27492 0.31244,-0.18846 0.53582,-0.42932 0.66973,-0.72192 l -0.69918,-0.20051 c -0.0397,0.0893 -0.0944,0.17107 -0.16382,0.24547 -0.0694,0.0744 -0.14896,0.13871 -0.23823,0.19327 -0.0893,0.0496 -0.18803,0.0891 -0.29714,0.11885 -0.10414,0.0248 -0.21128,0.0372 -0.32039,0.0372 -0.14878,0 -0.29212,-0.0271 -0.43098,-0.0817 -0.13391,-0.0546 -0.25573,-0.13129 -0.36484,-0.23048 -0.10414,-0.10414 -0.19102,-0.22597 -0.26044,-0.36483 -0.0645,-0.13886 -0.10398,-0.29513 -0.11886,-0.46871 l 3.11712,0 c 0.005,-0.0347 0.01,-0.0765 0.015,-0.12609 0.005,-0.0546 0.007,-0.11205 0.007,-0.17156 0,-0.26285 -0.0474,-0.51333 -0.14159,-0.75138 -0.0893,-0.24301 -0.22071,-0.45346 -0.39429,-0.632 -0.17358,-0.1835 -0.38404,-0.33014 -0.63201,-0.43925 -0.24301,-0.10911 -0.51603,-0.1633 -0.81855,-0.1633 z m 4.98936,0 c -0.3422,0 -0.65421,0.0767 -0.9369,0.23048 -0.28268,0.14878 -0.49872,0.35468 -0.6475,0.61753 l 0,-0.78135 -0.74362,0 0,3.89072 0.81803,0 0,-2.31355 c 0.0446,-0.13391 0.10669,-0.25521 0.18604,-0.36432 0.0843,-0.11407 0.17852,-0.21107 0.28267,-0.29042 0.10415,-0.0843 0.21584,-0.14864 0.33486,-0.19327 0.11903,-0.0446 0.23806,-0.0667 0.35709,-0.0667 0.22813,0 0.39908,0.0841 0.51314,0.25269 0.11903,0.16366 0.1788,0.42882 0.1788,0.79582 l 0,2.17971 0.81804,0 0,-2.37298 c 0,-0.21325 -0.0175,-0.41409 -0.0522,-0.60255 -0.0347,-0.19341 -0.0962,-0.36209 -0.18552,-0.50591 -0.0843,-0.14878 -0.20107,-0.26502 -0.34985,-0.34933 -0.14878,-0.0843 -0.34,-0.12661 -0.57309,-0.12661 z m 13.18059,0 c -0.29757,0 -0.56552,0.0694 -0.80357,0.20826 -0.23309,0.13886 -0.42431,0.32501 -0.57309,0.5581 l 0,-0.6997 -0.7214,0 0,5.47512 0.81855,0 0,-2.31355 c 0.13887,0.23805 0.32729,0.43154 0.56534,0.58032 0.23805,0.14879 0.51335,0.22325 0.82579,0.22325 0.25293,0 0.48314,-0.0519 0.69143,-0.15607 0.21326,-0.1091 0.39713,-0.25296 0.55087,-0.43149 0.15375,-0.1835 0.27278,-0.39675 0.35709,-0.63976 0.0843,-0.24797 0.12609,-0.51313 0.12609,-0.79582 0,-0.2678 -0.0468,-0.52335 -0.14108,-0.76636 -0.0893,-0.24301 -0.21564,-0.45625 -0.3793,-0.63975 -0.16367,-0.1835 -0.35716,-0.33014 -0.58033,-0.43925 -0.22317,-0.10911 -0.46858,-0.1633 -0.73639,-0.1633 z m 4.09071,0 c -0.54058,0 -1.06128,0.16867 -1.56218,0.50591 l 0.2527,0.52039 c 0.21325,-0.14383 0.41915,-0.25273 0.61753,-0.32712 0.20333,-0.0794 0.40924,-0.11885 0.61753,-0.11885 0.30749,0 0.54276,0.0818 0.70642,0.24546 0.16366,0.1587 0.24546,0.38157 0.24546,0.66921 l 0,0.2682 c -0.14382,-0.0546 -0.30463,-0.0968 -0.48317,-0.12661 -0.17854,-0.0347 -0.35962,-0.0522 -0.54312,-0.0522 -0.24301,0 -0.46639,0.0299 -0.66973,0.0894 -0.19837,0.0595 -0.3716,0.14359 -0.52038,0.2527 -0.14382,0.1091 -0.25551,0.23827 -0.33486,0.38705 -0.0794,0.14879 -0.11938,0.31467 -0.11938,0.49816 0,0.17358 0.0327,0.33491 0.0972,0.4837 0.0694,0.14878 0.16085,0.27795 0.27491,0.38705 0.11903,0.10911 0.25781,0.19546 0.41652,0.25994 0.16366,0.0595 0.33967,0.0894 0.52813,0.0894 0.2926,0 0.56562,-0.0593 0.81855,-0.17829 0.25789,-0.12398 0.47341,-0.3 0.64699,-0.52813 l 0.0227,0.24546 c 0.0199,0.12399 0.0717,0.22554 0.15607,0.30489 0.0893,0.0794 0.21336,0.11886 0.37207,0.11886 0.0546,0 0.10874,-0.002 0.16329,-0.007 0.0595,-0.005 0.12891,-0.0151 0.20826,-0.03 l 0,-0.69918 c -0.14382,-0.005 -0.21549,-0.0941 -0.21549,-0.26769 l 0,-1.40611 c 0,-0.51082 -0.14892,-0.90236 -0.44649,-1.17512 -0.29756,-0.27277 -0.71392,-0.40928 -1.24953,-0.40928 z m 8.86457,0 c -0.32236,0 -0.61006,0.0745 -0.863,0.22324 -0.24797,0.14383 -0.4488,0.352 -0.60254,0.62477 l 0,-0.78135 -0.74363,0 0,3.89072 0.81804,0 0,-2.31355 c 0.0843,-0.27277 0.22361,-0.49336 0.41703,-0.66198 0.19342,-0.16862 0.40666,-0.25269 0.63976,-0.25269 0.22317,0 0.39412,0.0841 0.51314,0.25269 0.11903,0.16366 0.17829,0.42882 0.17829,0.79582 l 0,2.17971 0.81855,0 0,-2.3058 c 0.0843,-0.27277 0.22082,-0.49387 0.40928,-0.66249 0.19341,-0.17358 0.40666,-0.25993 0.63975,-0.25993 0.22814,0 0.40136,0.0841 0.52038,0.25269 0.11903,0.16862 0.1788,0.43378 0.1788,0.79582 l 0,2.17971 0.81804,0 0,-2.37298 c 0,-0.21325 -0.017,-0.41409 -0.0517,-0.60255 -0.0347,-0.19341 -0.0968,-0.36209 -0.18604,-0.50591 -0.0893,-0.14382 -0.21109,-0.25779 -0.36484,-0.3421 -0.14878,-0.0893 -0.3372,-0.13384 -0.56533,-0.13384 -0.31741,0 -0.60005,0.0767 -0.84802,0.23048 -0.24797,0.14878 -0.45387,0.36709 -0.61753,0.65474 -0.0446,-0.25293 -0.16087,-0.4639 -0.34933,-0.63252 -0.1835,-0.16862 -0.43677,-0.2527 -0.75913,-0.2527 z m 6.46266,0 c -0.30749,0 -0.58506,0.0542 -0.83303,0.1633 -0.24797,0.10415 -0.46121,0.25079 -0.63975,0.43925 -0.17358,0.1835 -0.31009,0.39902 -0.40928,0.64699 -0.0942,0.24301 -0.14108,0.50082 -0.14108,0.77359 0,0.27277 0.0469,0.53111 0.14108,0.77412 0.0992,0.24301 0.2357,0.45625 0.40928,0.63975 0.17854,0.1835 0.39178,0.32963 0.63975,0.43873 0.24797,0.10415 0.52327,0.15607 0.82579,0.15607 0.41163,0 0.77101,-0.0914 1.07849,-0.27492 0.31244,-0.18846 0.53582,-0.42932 0.66972,-0.72192 l -0.69918,-0.20051 c -0.0397,0.0893 -0.0944,0.17107 -0.16381,0.24547 -0.0694,0.0744 -0.14896,0.13871 -0.23823,0.19327 -0.0893,0.0496 -0.18855,0.0891 -0.29766,0.11885 -0.10414,0.0248 -0.21077,0.0372 -0.31987,0.0372 -0.14879,0 -0.29212,-0.0271 -0.43098,-0.0817 -0.13391,-0.0546 -0.25573,-0.13129 -0.36484,-0.23048 -0.10415,-0.10414 -0.19102,-0.22597 -0.26045,-0.36483 -0.0645,-0.13886 -0.10398,-0.29513 -0.11886,-0.46871 l 3.11713,0 c 0.005,-0.0347 0.01,-0.0765 0.015,-0.12609 0.005,-0.0546 0.007,-0.11205 0.007,-0.17156 0,-0.26285 -0.0474,-0.51333 -0.1416,-0.75138 -0.0893,-0.24301 -0.22071,-0.45346 -0.39429,-0.632 -0.17358,-0.1835 -0.38403,-0.33014 -0.632,-0.43925 -0.24301,-0.10911 -0.51603,-0.1633 -0.81856,-0.1633 z m 4.98935,0 c -0.34219,0 -0.6542,0.0767 -0.93689,0.23048 -0.28268,0.14878 -0.49872,0.35468 -0.6475,0.61753 l 0,-0.78135 -0.74363,0 0,3.89072 0.81804,0 0,-2.31355 c 0.0446,-0.13391 0.10668,-0.25521 0.18604,-0.36432 0.0843,-0.11407 0.17852,-0.21107 0.28267,-0.29042 0.10414,-0.0843 0.21583,-0.14864 0.33486,-0.19327 0.11902,-0.0446 0.23806,-0.0667 0.35708,-0.0667 0.22814,0 0.39908,0.0841 0.51315,0.25269 0.11903,0.16366 0.1788,0.42882 0.1788,0.79582 l 0,2.17971 0.81804,0 0,-2.37298 c 0,-0.21325 -0.0175,-0.41409 -0.0522,-0.60255 -0.0347,-0.19341 -0.0962,-0.36209 -0.18552,-0.50591 -0.0843,-0.14878 -0.20107,-0.26502 -0.34985,-0.34933 -0.14879,-0.0843 -0.34,-0.12661 -0.5731,-0.12661 z m 6.15983,0 c -0.21325,0 -0.41181,0.0271 -0.59531,0.0817 -0.18349,0.0545 -0.34482,0.13636 -0.48369,0.24546 -0.1339,0.10415 -0.24053,0.23332 -0.31988,0.38706 -0.0744,0.15374 -0.11162,0.32976 -0.11162,0.52813 0,0.14878 0.0248,0.27516 0.0744,0.37931 0.0496,0.10415 0.12912,0.19608 0.23823,0.27543 0.1091,0.0793 0.25068,0.14875 0.42426,0.20826 0.17358,0.0595 0.38176,0.12156 0.62477,0.18603 0.33724,0.0893 0.58492,0.17108 0.74362,0.24547 0.1587,0.0744 0.23823,0.19342 0.23823,0.35708 0,0.17358 -0.0717,0.3073 -0.21549,0.40153 -0.13886,0.0942 -0.33008,0.14159 -0.57309,0.14159 -0.23805,0 -0.47105,-0.0423 -0.69919,-0.12661 -0.22813,-0.0893 -0.45885,-0.21843 -0.69194,-0.38705 l -0.32711,0.5209 c 0.22317,0.18845 0.48833,0.33458 0.79581,0.43873 0.31245,0.0992 0.62497,0.14883 0.93741,0.14883 0.48107,0 0.86019,-0.10663 1.13792,-0.31988 0.28269,-0.21822 0.42426,-0.51326 0.42426,-0.88522 0,-0.16366 -0.0299,-0.30244 -0.0894,-0.41651 -0.0595,-0.11902 -0.15093,-0.22058 -0.27492,-0.30489 -0.12398,-0.0893 -0.28304,-0.16652 -0.47645,-0.23099 -0.18846,-0.0645 -0.41411,-0.1288 -0.67696,-0.19327 -0.1587,-0.0397 -0.29242,-0.0741 -0.40153,-0.10387 -0.10415,-0.0347 -0.19102,-0.072 -0.26045,-0.11163 -0.0645,-0.0397 -0.11132,-0.087 -0.14107,-0.14159 -0.0298,-0.0546 -0.045,-0.12115 -0.045,-0.2005 0,-0.18846 0.0694,-0.32497 0.20826,-0.40928 0.14383,-0.0893 0.31984,-0.13384 0.52814,-0.13384 0.40667,0 0.79137,0.14385 1.15341,0.4315 l 0.34933,-0.49145 c -0.19837,-0.16862 -0.42403,-0.29727 -0.67696,-0.38654 -0.25293,-0.0893 -0.52543,-0.13384 -0.81804,-0.13384 z m -24.31324,0.0667 1.59939,3.89072 c -0.0694,0.19838 -0.13148,0.35971 -0.18604,0.48369 -0.0496,0.12895 -0.0992,0.22823 -0.14883,0.29766 -0.0496,0.0694 -0.0992,0.11628 -0.14882,0.14108 -0.0446,0.0297 -0.0994,0.0449 -0.16382,0.0449 -0.0446,0 -0.10389,-0.005 -0.17828,-0.015 -0.0694,-0.01 -0.14162,-0.0223 -0.21601,-0.0372 l 0,0.71417 c 0.0794,0.0248 0.15154,0.0395 0.21601,0.0444 0.0645,0.01 0.12652,0.015 0.18603,0.015 0.30749,0 0.55796,-0.0767 0.75138,-0.23048 0.19837,-0.14878 0.33716,-0.33493 0.41651,-0.5581 l 1.7632,-4.79093 -0.77359,0 -1.07126,3.16932 -1.20561,-3.16932 -0.84026,0 z m -33.323029,0.53589 c 0.153741,0 0.29987,0.0271 0.438734,0.0816 0.138862,0.0546 0.26017,0.13129 0.364318,0.23047 0.104148,0.0942 0.188744,0.21099 0.253215,0.34985 0.06943,0.13887 0.111728,0.29006 0.126608,0.45372 l -2.350762,0 c 0.01487,-0.16366 0.05438,-0.31485 0.118856,-0.45372 0.06447,-0.13886 0.14855,-0.25562 0.252698,-0.34985 0.104148,-0.0992 0.223179,-0.17592 0.357085,-0.23047 0.138864,-0.0546 0.285506,-0.0816 0.439248,-0.0816 z m 8.891969,0 c 0.15374,0 0.29986,0.0271 0.43873,0.0816 0.13886,0.0546 0.26069,0.13129 0.36483,0.23047 0.10415,0.0942 0.18823,0.21099 0.2527,0.34985 0.0694,0.13887 0.11173,0.29006 0.12661,0.45372 l -2.35076,0 c 0.0149,-0.16366 0.0544,-0.31485 0.11885,-0.45372 0.0645,-0.13886 0.14907,-0.25562 0.25322,-0.34985 0.10415,-0.0992 0.22318,-0.17592 0.35708,-0.23047 0.13887,-0.0546 0.28499,-0.0816 0.43874,-0.0816 z m 37.58788,0 c 0.15374,0 0.29987,0.0271 0.43873,0.0816 0.13887,0.0546 0.26069,0.13129 0.36484,0.23047 0.10415,0.0942 0.18822,0.21099 0.2527,0.34985 0.0694,0.13887 0.11173,0.29006 0.1266,0.45372 l -2.35076,0 c 0.0149,-0.16366 0.0544,-0.31485 0.11886,-0.45372 0.0645,-0.13886 0.14907,-0.25562 0.25322,-0.34985 0.10414,-0.0992 0.22317,-0.17592 0.35708,-0.23047 0.13886,-0.0546 0.28499,-0.0816 0.43873,-0.0816 z m -19.62671,0.0966 c 0.17358,0 0.33491,0.035 0.48369,0.10439 0.14879,0.0694 0.27516,0.16364 0.37931,0.28267 0.10911,0.11903 0.19318,0.25781 0.2527,0.41651 0.0645,0.1587 0.0971,0.32738 0.0971,0.50591 0,0.16862 -0.0276,0.33223 -0.0822,0.49093 -0.0546,0.1587 -0.13356,0.29976 -0.23771,0.42375 -0.0992,0.12398 -0.22101,0.22326 -0.36484,0.29765 -0.13886,0.0744 -0.29512,0.11163 -0.4687,0.11163 -0.11903,0 -0.23527,-0.0226 -0.34933,-0.0672 -0.11407,-0.0446 -0.22069,-0.1039 -0.31988,-0.17829 -0.0942,-0.0744 -0.1811,-0.16354 -0.26045,-0.26768 -0.0794,-0.10415 -0.14367,-0.21584 -0.19327,-0.33487 l 0,-1.01906 c 0.0298,-0.1091 0.0817,-0.20838 0.15606,-0.29765 0.0744,-0.0942 0.16126,-0.17603 0.26045,-0.24546 0.0992,-0.0694 0.20582,-0.12414 0.31988,-0.16382 0.11407,-0.0397 0.22296,-0.0594 0.32711,-0.0594 z m 4.2845,1.35393 c 0.14878,0 0.29997,0.0147 0.45371,0.0444 0.15871,0.0297 0.30711,0.072 0.44597,0.1266 l 0,0.51315 c 0,0.0992 -0.0519,0.1934 -0.15606,0.28267 -0.0992,0.12895 -0.23797,0.23102 -0.41651,0.30541 -0.17358,0.0694 -0.35973,0.10387 -0.55811,0.10387 -0.22317,0 -0.40653,-0.0643 -0.55035,-0.19327 -0.14383,-0.1339 -0.21549,-0.29751 -0.21549,-0.49093 0,-0.20829 0.0914,-0.37469 0.27491,-0.49867 0.18846,-0.12895 0.42932,-0.19327 0.72193,-0.19327 z m 28.79772,0.95239 0,0.95188 0.67696,0 0,-0.95188 -0.67696,0 z"
       id="rect5143" />
    <path
       inkscape:connector-curvature="0"
       style="opacity:1;fill:url(#linearGradient5145);fill-opacity:1;fill-rule:nonzero;stroke:none;stroke-width:2.84116006;stroke-linecap:butt;stroke-linejoin:miter;stroke-miterlimit:4;stroke-dasharray:none;stroke-opacity:1"
       d="m 140.64775,254.18489 0,18.51205 4.81779,0 0,-7.48068 c 0.11834,-0.28741 0.27085,-0.54984 0.45682,-0.78652 0.18596,-0.23668 0.38004,-0.43075 0.58291,-0.58291 0.21978,-0.16906 0.4312,-0.29581 0.63407,-0.38034 0.21978,-0.10143 0.40595,-0.15244 0.5581,-0.15244 0.43956,0 0.80297,0.15199 1.09038,0.4563 0.30431,0.2874 0.4563,0.76073 0.4563,1.42007 l 0,7.50652 4.81831,0 0,-8.77415 c 0,-0.49027 -0.0421,-1.01461 -0.12661,-1.57251 -0.0845,-0.5579 -0.2707,-1.07331 -0.5581,-1.54667 -0.2874,-0.49028 -0.70973,-0.89629 -1.26762,-1.2175 -0.5579,-0.32122 -1.30208,-0.48162 -2.23191,-0.48162 -0.94674,0 -1.80031,0.19458 -2.56108,0.58342 -0.76077,0.37193 -1.3782,0.921 -1.85157,1.64796 l 0,-7.15098 -4.81779,0 z m -56.58518,0.50694 0,4.31137 5.198647,0 0,13.69374 4.94492,0 0,-13.69374 5.173326,0 0,-4.31137 -15.316893,0 z m 46.75012,0.48215 0,4.18424 -1.64848,0 0,3.62613 1.64848,0 0,6.11177 c 0,0.72696 0.1015,1.33546 0.30437,1.82573 0.21978,0.49027 0.50694,0.88735 0.86196,1.19166 0.37194,0.30431 0.80319,0.52414 1.29346,0.65939 0.49028,0.13525 1.00569,0.20309 1.54668,0.20309 0.74387,0 1.49646,-0.0931 2.25723,-0.27905 0.77767,-0.20288 1.5045,-0.44796 2.18074,-0.73536 l -0.86196,-3.8039 c -0.30431,0.13525 -0.60881,0.24516 -0.91312,0.3297 -0.30431,0.0676 -0.57464,0.10128 -0.81132,0.10128 -0.32122,0 -0.57471,-0.0842 -0.76068,-0.25321 -0.18597,-0.18597 -0.27905,-0.49889 -0.27905,-0.93845 l 0,-4.41265 2.61173,0 0,-3.62613 -2.61173,0 0,-4.18424 -4.81831,0 z m -25.54831,3.93051 c -1.20033,0 -2.25691,0.19458 -3.16984,0.58342 -0.89602,0.37193 -1.65702,0.87893 -2.282544,1.52135 -0.608618,0.64243 -1.073533,1.39503 -1.394748,2.25723 -0.304308,0.86221 -0.456303,1.77469 -0.456303,2.73834 0,0.89602 0.160411,1.75011 0.481626,2.5616 0.321212,0.81149 0.78613,1.5299 1.394746,2.15542 0.625523,0.62552 1.394943,1.1241 2.307873,1.49604 0.91292,0.35502 1.95267,0.53278 3.11919,0.53278 1.63988,0 3.0178,-0.33817 4.13359,-1.01441 1.13271,-0.67624 1.96945,-1.54717 2.51045,-2.61224 l -4.08296,-1.16634 c -0.15215,0.42265 -0.46508,0.7524 -0.93844,0.98908 -0.45647,0.23669 -0.94663,0.35502 -1.47071,0.35502 -0.5579,0 -1.07331,-0.15199 -1.54668,-0.4563 -0.47337,-0.32122 -0.7358,-0.83714 -0.78652,-1.54719 l 9.35757,0 c 0.0338,-0.20287 0.0591,-0.43112 0.076,-0.68471 0.0338,-0.2705 0.0512,-0.53241 0.0512,-0.786 0,-0.91293 -0.16092,-1.78385 -0.48213,-2.61225 -0.30431,-0.8453 -0.76923,-1.58054 -1.39475,-2.20607 -0.60862,-0.64242 -1.36911,-1.14942 -2.28203,-1.52135 -0.91293,-0.38884 -1.96109,-0.58342 -3.14451,-0.58342 z m 18.24229,0 c -1.16651,0 -2.1805,0.19458 -3.0427,0.58342 -0.84531,0.37193 -1.50481,0.921 -1.97818,1.64796 l 0,-1.97765 -4.33617,0 0,13.33872 4.81779,0 0,-7.48068 c 0.21978,-0.5579 0.55795,-1.0144 1.01441,-1.36943 0.45647,-0.35503 0.88772,-0.53278 1.29346,-0.53278 0.38884,0 0.72701,0.15199 1.01441,0.4563 0.30431,0.2874 0.45631,0.76073 0.45631,1.42007 l 0,7.50652 4.81831,0 0,-8.77415 c 0,-0.45646 -0.0421,-0.96397 -0.12661,-1.52187 -0.0845,-0.55789 -0.2707,-1.08172 -0.55811,-1.57199 -0.27049,-0.49028 -0.67598,-0.89629 -1.21698,-1.2175 -0.52408,-0.33812 -1.24301,-0.50694 -2.15594,-0.50694 z m -18.31877,3.42356 c 0.60861,0 1.10771,0.18565 1.49655,0.55759 0.38883,0.37193 0.6255,0.87944 0.71003,1.52187 l -4.41265,0 c 0.0845,-0.64243 0.3212,-1.14994 0.71003,-1.52187 0.38884,-0.37194 0.88742,-0.55759 1.49604,-0.55759 z"
       id="rect5141" />
    <path
       inkscape:connector-curvature="0"
       style="opacity:1;fill:url(#linearGradient5128);fill-opacity:1;fill-rule:nonzero;stroke:none;stroke-width:2.84116006;stroke-linecap:butt;stroke-linejoin:miter;stroke-miterlimit:4;stroke-dasharray:none;stroke-opacity:1"
       d="m 86.395761,203.28929 c -0.631946,0 -1.178922,0.23066 -1.640728,0.69246 -0.461807,0.46182 -0.692463,1.0088 -0.692463,1.64073 l 0,42.00002 c 0,0.63193 0.230656,1.17892 0.692463,1.64072 0.461806,0.46181 1.008782,0.69247 1.640728,0.69247 l 65.333479,0 c 0.63195,0 1.17892,-0.23066 1.64073,-0.69247 0.4618,-0.4618 0.69246,-1.00879 0.69246,-1.64072 l 0,-42.00002 c 0,-0.63193 -0.23066,-1.17891 -0.69246,-1.64073 -0.46181,-0.4618 -1.00878,-0.69246 -1.64073,-0.69246 l -65.333479,0 z m 11.666988,4.66638 41.999501,0 c 0,2.57639 0.9118,4.77617 2.73472,6.59908 1.82291,1.82291 4.02269,2.7342 6.59908,2.7342 l 0,18.66656 c -2.57639,0 -4.77617,0.91181 -6.59908,2.73472 -1.82292,1.82291 -2.73472,4.02269 -2.73472,6.59908 l -41.999501,0 c 0,-2.57639 -0.91181,-4.77617 -2.734718,-6.59908 -1.822926,-1.82291 -4.022693,-2.73472 -6.599078,-2.73472 l 0,-18.66656 c 2.576385,0 4.776152,-0.91129 6.599078,-2.7342 1.822908,-1.82291 2.734718,-4.02269 2.734718,-6.59908 z m 20.999751,3.50004 c -1.82291,0 -3.49997,0.47421 -5.03122,1.42214 -1.53126,0.94791 -2.76478,2.17499 -3.70055,3.68195 -0.93575,1.50694 -1.65895,3.13549 -2.16937,4.88548 -0.51042,1.75001 -0.76533,3.47557 -0.76533,5.17695 0,1.70139 0.25491,3.42746 0.76533,5.17746 0.51042,1.75 1.23362,3.37803 2.16937,4.88498 0.93577,1.50694 2.16929,2.73454 3.70055,3.68246 1.53125,0.94792 3.20831,1.42213 5.03122,1.42213 1.82291,0 3.49997,-0.47421 5.03122,-1.42213 1.53126,-0.94792 2.76478,-2.17552 3.70055,-3.68246 0.93574,-1.50695 1.65895,-3.13498 2.16937,-4.88498 0.51043,-1.75 0.76533,-3.47607 0.76533,-5.17746 0,-1.70138 -0.2549,-3.42694 -0.76533,-5.17695 -0.51042,-1.74999 -1.23363,-3.37854 -2.16937,-4.88548 -0.93577,-1.50696 -2.16929,-2.73404 -3.70055,-3.68195 -1.53125,-0.94793 -3.20831,-1.42214 -5.03122,-1.42214 z m -1.82314,4.6669 4.15633,0 0,16.33337 4.6669,0 0,3.49953 -14.00018,0 0,-3.49953 4.6669,0 0,-10.50013 -0.0729,0 c -0.31598,0.48611 -0.98473,1.17861 -2.00557,2.07791 l -2.80706,-2.91662 5.39554,-4.99453 z"
       id="rect4141" />
    <text
       xml:space="preserve"
       style="font-style:normal;font-weight:normal;font-size:7.05555534px;line-height:125%;font-family:sans-serif;letter-spacing:0px;word-spacing:0px;opacity:0.31400003;fill:#f39c12;fill-opacity:1;stroke:none;stroke-width:0.26458332px;stroke-linecap:butt;stroke-linejoin:miter;stroke-opacity:1"
       x="84.065186"
       y="199.4532"
       id="text5157"
       sodipodi:linespacing="125%"><tspan
         sodipodi:role="line"
         id="tspan5159"
         x="84.065186"
         y="199.4532"
         style="font-style:normal;font-variant:normal;font-weight:normal;font-stretch:normal;font-family:Inconsolata;-inkscape-font-specification:Inconsolata;letter-spacing:0.9207499px;fill:#f39c12;stroke-width:0.26458332px">require(&quot;tenth&quot;)</tspan></text>
  </g>
</svg>
