<?xml version="1.0" encoding="UTF-8" standalone="no"?>
<!-- Created with Inkscape (http://www.inkscape.org/) -->

<svg
   xmlns:dc="http://purl.org/dc/elements/1.1/"
   xmlns:cc="http://creativecommons.org/ns#"
   xmlns:rdf="http://www.w3.org/1999/02/22-rdf-syntax-ns#"
   xmlns:svg="http://www.w3.org/2000/svg"
   xmlns="http://www.w3.org/2000/svg"
   xmlns:sodipodi="http://sodipodi.sourceforge.net/DTD/sodipodi-0.dtd"
   xmlns:inkscape="http://www.inkscape.org/namespaces/inkscape"
   width="297mm"
   height="210mm"
   viewBox="0 0 297 210"
   id="svg2"
   version="1.1"
   inkscape:version="0.91+devel r"
   sodipodi:docname="h.svg"
   inkscape:export-filename="/home/ionicabizau/Documents/resources/brightbox/h.png"
   inkscape:export-xdpi="90"
   inkscape:export-ydpi="90">
  <defs
     id="defs4" />
  <sodipodi:namedview
     id="base"
     pagecolor="#ffffff"
     bordercolor="#666666"
     borderopacity="1.0"
     inkscape:pageopacity="0.0"
     inkscape:pageshadow="2"
     inkscape:zoom="0.7"
     inkscape:cx="265.4536"
     inkscape:cy="481.21667"
     inkscape:document-units="mm"
     inkscape:current-layer="layer1"
     showgrid="false"
     inkscape:window-width="1920"
     inkscape:window-height="1056"
     inkscape:window-x="0"
     inkscape:window-y="24"
     inkscape:window-maximized="1" />
  <metadata
     id="metadata7">
    <rdf:RDF>
      <cc:Work
         rdf:about="">
        <dc:format>image/svg+xml</dc:format>
        <dc:type
           rdf:resource="http://purl.org/dc/dcmitype/StillImage" />
        <dc:title></dc:title>
      </cc:Work>
    </rdf:RDF>
  </metadata>
  <g
     inkscape:label="Layer 1"
     inkscape:groupmode="layer"
     id="layer1"
     transform="translate(0,-87)">
    <g
       id="g12844"
       transform="matrix(1.2500458,0,0,1.2500458,42.384154,-42.729775)"
       style="stroke-width:0.79997069">
      <text
         sodipodi:linespacing="125%"
         id="text8073"
         y="212.57578"
         x="18.497583"
         style="font-style:normal;font-weight:normal;font-size:8.73399162px;line-height:125%;font-family:sans-serif;letter-spacing:0px;word-spacing:0px;fill:#3498db;fill-opacity:1;stroke:none;stroke-width:0.21165891px;stroke-linecap:butt;stroke-linejoin:miter;stroke-opacity:1"
         xml:space="preserve"><tspan
           style="font-style:normal;font-variant:normal;font-weight:bold;font-stretch:normal;font-size:27.94877434px;font-family:Lora;-inkscape-font-specification:'Lora Bold';fill:#3498db;stroke-width:0.21165891px"
           y="212.57578"
           x="18.497583"
           id="tspan8075"
           sodipodi:role="line">Brightbox</tspan></text>
      <text
         sodipodi:linespacing="125%"
         id="text12698"
         y="177.9375"
         x="55.373508"
         style="font-style:normal;font-weight:normal;font-size:7.05555534px;line-height:125%;font-family:sans-serif;letter-spacing:0px;word-spacing:0px;fill:#000000;fill-opacity:1;stroke:none;stroke-width:0.21165891px;stroke-linecap:butt;stroke-linejoin:miter;stroke-opacity:1"
         xml:space="preserve"><tspan
           style="stroke-width:0.21165891px"
           y="177.9375"
           x="55.373508"
           id="tspan12700"
           sodipodi:role="line" /></text>
      <g
         style="stroke-width:0.78118449"
         transform="matrix(1.0240484,0,0,1.0240484,-0.47831205,-4.5494392)"
         id="g12821">
        <g
           style="stroke-width:0.78118449"
           id="g12784">
          <path
             inkscape:connector-curvature="0"
             id="path3066"
             d="m 35.095824,162.81767 -15.20626,8.77846 0,17.55694 0.03924,0.025 10.24095,-5.91414 -0.03924,-0.0214 0,-0.58142 -0.0071,0.004 0,-11.82471 4.890401,-2.82153 0.03924,0.025 0.0428,-0.025 4.97601,2.87147 0,12.40257 10.191012,5.8856 0.03924,-0.025 0,-17.55693 -15.20626,-8.77846 z m 4.965309,20.42482 -0.03924,0.0214 0.03924,0.0214 0,-0.0428 z"
             style="fill:#2ecc71;fill-opacity:1;stroke:none;stroke-width:0.20668839" />
          <path
             inkscape:connector-curvature="0"
             id="path2993"
             d="m 35.095824,156.19725 -15.20626,8.77847 0,17.55693 0.03924,0.025 10.201713,-5.89273 0,-0.0428 0,-0.34957 0,-5.38622 4.965309,-2.86789 4.965309,2.86789 0,5.02952 0,0.70627 0,0.0428 10.201713,5.89273 0.03924,-0.025 0,-17.55693 -15.20626,-8.77847 z"
             style="fill:#27ae60;fill-opacity:1;stroke:none;stroke-width:0.20668839" />
        </g>
        <g
           style="stroke-width:0.78118449"
           id="g12796">
          <g
             id="g12702"
             transform="matrix(0.08535635,0,0,0.08535635,27.906289,97.047069)"
             style="fill:#27ae60;stroke-width:2.42147613">
            <path
               inkscape:connector-curvature="0"
               id="path12704"
               transform="translate(0,652.36218)"
               d="m 450,104.1875 -133.21875,76.90625 0,153.8125 0.34375,0.21875 89.71875,-51.8125 -0.34375,-0.1875 0,-5.09375 -0.0625,0.0312 0,-103.59375 42.84375,-24.71875 0.34375,0.21875 0.375,-0.21875 43.59375,25.15625 0,108.65625 89.28125,51.5625 0.34375,-0.21875 0,-153.8125 L 450,104.1875 Z m 43.5,178.9375 -0.34375,0.1875 0.34375,0.1875 0,-0.375 z"
               style="fill:#27ae60;fill-opacity:1;stroke:none;stroke-width:2.42147613" />
            <path
               inkscape:connector-curvature="0"
               id="path12706"
               transform="translate(0,652.36218)"
               d="m 450,46.1875 -133.21875,76.90625 0,153.8125 0.34375,0.21875 89.375,-51.625 0,-0.375 0,-3.0625 0,-47.1875 43.5,-25.125 43.5,25.125 0,44.0625 0,6.1875 0,0.375 89.375,51.625 0.34375,-0.21875 0,-153.8125 L 450,46.1875 Z"
               style="fill:#27ae60;fill-opacity:1;stroke:none;stroke-width:2.42147613" />
          </g>
          <path
             inkscape:connector-curvature="0"
             id="path12710"
             d="m 66.316646,183.90313 -11.371066,-6.56444 0,-13.12888 0.02934,-0.0187 7.658066,4.42253 -0.02934,0.016 0,0.43479 -0.0053,-0.003 0,8.84239 3.656986,2.1099 0.02934,-0.0187 0.03201,0.0187 3.721004,-2.14724 0,-9.27451 7.620722,-4.40118 0.02934,0.0187 0,13.12887 -11.371067,6.56444 z m 3.713002,-15.27346 -0.02934,-0.016 0.02934,-0.016 0,0.032 z"
             style="fill:#2ecc71;fill-opacity:1;stroke:none;stroke-width:0.20668839" />
          <path
             inkscape:connector-curvature="0"
             id="path12712"
             d="m 66.316646,188.85379 -11.371066,-6.56443 0,-13.12888 0.02934,-0.0187 7.628724,4.40652 0,0.032 0,0.26141 0,4.02775 3.713001,2.14458 3.713002,-2.14458 0,-3.76102 0,-0.52814 0,-0.032 7.628724,-4.40652 0.02934,0.0187 0,13.12888 -11.371067,6.56443 z"
             style="fill:#27ae60;fill-opacity:1;stroke:none;stroke-width:0.20668839" />
        </g>
        <g
           style="stroke-width:0.78118449"
           id="g12816">
          <rect
             y="164.89732"
             x="85.065491"
             height="14.741072"
             width="6.4985518"
             id="rect12766"
             style="fill:#27ae60;fill-opacity:1;fill-rule:nonzero;stroke:none;stroke-width:0.39059225;stroke-miterlimit:4;stroke-dasharray:none;stroke-opacity:1" />
          <path
             style="fill:#2ecc71;fill-opacity:1;stroke:none;stroke-width:0.20668839"
             d="m 105.0646,172.68763 -8.577254,-14.85771 -17.154511,0 -0.0244,0.0383 5.778582,10.00621 0.02091,-0.0383 0.5681,0 -0.0035,-0.007 11.553678,0 2.756851,4.77831 -0.0244,0.0383 0.0244,0.0418 -2.805645,4.86196 -12.118292,0 -5.7507,9.95742 0.0244,0.0383 17.154511,0 8.57725,-14.85772 z m -19.956669,4.8515 -0.02091,-0.0383 -0.02091,0.0383 0.04182,0 z"
             id="path12750"
             inkscape:connector-curvature="0" />
          <path
             style="fill:#27ae60;fill-opacity:1;stroke:none;stroke-width:0.20668839"
             d="m 111.53327,172.68763 -8.57726,-14.85771 -17.15451,0 -0.0244,0.0383 5.757671,9.96787 0.04182,0 0.341557,0 5.262761,0 2.802159,4.8515 -2.802159,4.8515 -4.914234,0 -0.690084,0 -0.04182,0 -5.757671,9.96788 0.0244,0.0383 17.15451,0 8.57726,-14.85772 z"
             id="path12752"
             inkscape:connector-curvature="0" />
        </g>
        <g
           style="stroke-width:0.78118449"
           id="g12811">
          <rect
             y="170.56697"
             x="119.0625"
             height="3.5907736"
             width="21.922617"
             id="rect12780"
             style="fill:#2ecc71;fill-opacity:1;fill-rule:nonzero;stroke:none;stroke-width:0.39059225;stroke-miterlimit:4;stroke-dasharray:none;stroke-opacity:1" />
          <path
             style="fill:#2ecc71;fill-opacity:1;stroke:none;stroke-width:0.20668839"
             d="m 120.47585,172.68764 8.77846,15.20626 17.55694,0 0.025,-0.0392 -5.91414,-10.24095 -0.0214,0.0392 -0.58142,0 0.004,0.007 -11.82471,0 -2.82153,-4.89041 0.025,-0.0392 -0.025,-0.0428 2.87147,-4.97601 12.40257,0 5.8856,-10.19101 -0.025,-0.0392 -17.55693,0 -8.77846,15.20626 z m 20.42482,-4.96531 0.0214,0.0392 0.0214,-0.0392 -0.0428,0 z"
             id="path12776"
             inkscape:connector-curvature="0" />
          <path
             style="fill:#27ae60;fill-opacity:1;stroke:none;stroke-width:0.20668839"
             d="m 113.85543,172.68764 8.77847,15.20626 17.55693,0 0.025,-0.0392 -5.89273,-10.20171 -0.0428,0 -0.34957,0 -5.38622,0 -2.86789,-4.96531 2.86789,-4.96531 5.02952,0 0.70627,0 0.0428,0 5.89273,-10.20171 -0.025,-0.0392 -17.55693,0 -8.77847,15.20626 z"
             id="path12778"
             inkscape:connector-curvature="0" />
        </g>
      </g>
    </g>
  </g>
</svg>
