<?xml version="1.0" encoding="UTF-8" standalone="no"?>
<!-- Created with Inkscape (http://www.inkscape.org/) -->

<svg
   xmlns:dc="http://purl.org/dc/elements/1.1/"
   xmlns:cc="http://creativecommons.org/ns#"
   xmlns:rdf="http://www.w3.org/1999/02/22-rdf-syntax-ns#"
   xmlns:svg="http://www.w3.org/2000/svg"
   xmlns="http://www.w3.org/2000/svg"
   xmlns:xlink="http://www.w3.org/1999/xlink"
   xmlns:sodipodi="http://sodipodi.sourceforge.net/DTD/sodipodi-0.dtd"
   xmlns:inkscape="http://www.inkscape.org/namespaces/inkscape"
   width="297mm"
   height="140mm"
   viewBox="0 0 297 140"
   id="svg2"
   version="1.1"
   inkscape:version="0.91+devel r"
   sodipodi:docname="h.svg"
   inkscape:export-filename="/home/ionicabizau/Documents/resources/git-stats/h.png"
   inkscape:export-xdpi="90"
   inkscape:export-ydpi="90">
  <defs
     id="defs4">
    <linearGradient
       inkscape:collect="always"
       id="linearGradient17376">
      <stop
         style="stop-color:#2ecc71;stop-opacity:1"
         offset="0"
         id="stop17378" />
      <stop
         style="stop-color:#27ae60;stop-opacity:1"
         offset="1"
         id="stop17380" />
    </linearGradient>
    <linearGradient
       inkscape:collect="always"
       id="linearGradient8075">
      <stop
         style="stop-color:#2ecc71;stop-opacity:1"
         offset="0"
         id="stop8077" />
      <stop
         style="stop-color:#27ae60;stop-opacity:1"
         offset="1"
         id="stop8079" />
    </linearGradient>
    <linearGradient
       inkscape:collect="always"
       xlink:href="#linearGradient8075"
       id="linearGradient8081"
       x1="118.68452"
       y1="196.08035"
       x2="201.4613"
       y2="279.23511"
       gradientUnits="userSpaceOnUse"
       gradientTransform="translate(-85.8006,-19.654762)" />
    <linearGradient
       inkscape:collect="always"
       xlink:href="#linearGradient17376"
       id="linearGradient17382"
       x1="39.309525"
       y1="262.98215"
       x2="300.1131"
       y2="317.03275"
       gradientUnits="userSpaceOnUse"
       gradientTransform="matrix(1,0,0,1.1594203,35.680953,-122.34269)" />
  </defs>
  <sodipodi:namedview
     id="base"
     pagecolor="#ffffff"
     bordercolor="#666666"
     borderopacity="1.0"
     inkscape:pageopacity="0.0"
     inkscape:pageshadow="2"
     inkscape:zoom="0.7"
     inkscape:cx="518.28303"
     inkscape:cy="135.71006"
     inkscape:document-units="mm"
     inkscape:current-layer="layer1"
     showgrid="false"
     height="209mm"
     inkscape:window-width="1920"
     inkscape:window-height="1056"
     inkscape:window-x="0"
     inkscape:window-y="24"
     inkscape:window-maximized="1" />
  <metadata
     id="metadata7">
    <rdf:RDF>
      <cc:Work
         rdf:about="">
        <dc:format>image/svg+xml</dc:format>
        <dc:type
           rdf:resource="http://purl.org/dc/dcmitype/StillImage" />
        <dc:title></dc:title>
      </cc:Work>
    </rdf:RDF>
  </metadata>
  <g
     inkscape:label="Layer 1"
     inkscape:groupmode="layer"
     id="layer1"
     transform="translate(0,-157)">
    <g
       id="g17391"
       transform="translate(-6.6953336,8.9970245)">
      <rect
         rx="6.8988008"
         ry="6.8988008"
         y="176.80357"
         x="33.261917"
         height="82.398804"
         width="82.398804"
         id="rect8073"
         style="fill:url(#linearGradient8081);fill-opacity:1;fill-rule:nonzero;stroke:none;stroke-width:1;stroke-miterlimit:4;stroke-dasharray:none;stroke-opacity:1" />
      <path
         style="fill:#ecf0f1;stroke-width:0.26458332"
         id="path8273"
         d="m 63.386481,240.74127 q 0,-3.67934 -6.070894,-3.67934 -5.813347,0 -5.813347,3.82651 0,3.71612 6.328444,3.71612 5.555797,0 5.555797,-3.86329 z M 61.215674,212.9623 q 0,-2.2444 -1.1038,-3.75292 -1.1038,-1.50853 -3.274607,-1.50853 -4.562367,0 -4.562367,5.33503 0,4.9671 4.562367,4.9671 4.378407,0 4.378407,-5.04068 z m 9.897394,-11.92104 0,7.43225 q -1.32456,0.44152 -2.906667,0.80945 0.588697,1.58212 0.588697,3.09064 0,4.67275 -2.685917,7.96576 -2.68591,3.293 -7.248277,4.13925 -1.471737,0.29435 -2.189207,0.99342 -0.71747,0.69907 -0.71747,2.13402 0,1.14058 0.82785,1.89485 0.82785,0.75426 2.134017,1.17738 1.30616,0.42313 2.88828,0.80946 1.582107,0.38633 3.164217,0.93822 1.58211,0.55191 2.88827,1.37976 1.306167,0.82785 2.134017,2.35477 0.82785,1.52692 0.82785,3.62414 0,11.18518 -13.355971,11.18518 -2.53874,0 -4.78313,-0.45992 -2.244397,-0.45992 -4.268027,-1.50853 -2.023627,-1.04861 -3.219417,-3.01705 -1.19578,-1.96844 -1.19578,-4.69115 0,-6.07089 6.696377,-8.2785 l 0,-0.14718 q -2.46514,-1.50852 -2.46514,-4.63596 0,-4.01047 2.31797,-5.04068 l 0,-0.14717 q -2.64912,-0.88304 -4.396797,-3.99208 -1.74769,-3.10903 -1.74769,-6.08929 0,-5.11428 3.495367,-8.51766 3.49538,-3.40338 8.646437,-3.40338 3.532147,0 6.549204,1.72928 3.60575,0 8.020937,-1.72928 z m 11.700284,32.41492 -8.168117,0 q 0.14717,-1.65569 0.14717,-4.93031 l 0,-22.40713 q 0,-3.45858 -0.14717,-4.70955 l 8.168117,0 q -0.14718,1.21418 -0.14718,4.56238 l 0,22.5543 q 0,3.27462 0.14718,4.93031 z m 22.112778,-8.16812 0,7.2115 q -2.61233,1.43493 -6.402037,1.43493 -2.28119,0 -3.936887,-0.73586 -1.6557,-0.73587 -2.57553,-1.83967 -0.91983,-1.1038 -1.45334,-2.86988 -0.5335,-1.76607 -0.68067,-3.38499 -0.14717,-1.6189 -0.14717,-3.78971 l 0,-12.91446 0.0735,0 0,-0.14718 q -0.25755,0 -0.699067,-0.0368 -0.44152,-0.0368 -0.66227,-0.0368 -0.77267,0 -2.17082,0.22077 l 0,-6.99074 3.532157,0 0,-2.79629 q 0,-1.98684 -0.22076,-3.27461 l 8.352087,0 q -0.22076,1.50853 -0.22076,6.0709 l 6.291657,0 0,6.99074 q -0.5519,0 -1.60051,-0.0735 -1.04861,-0.0736 -1.56371,-0.0736 l -3.127437,0 0,13.42957 q 0,4.81992 3.201017,4.81992 2.24439,0 4.01047,-1.21418 z M 83.733182,190.44478 q 0,2.134 -1.43494,3.73452 -1.43494,1.60051 -3.532157,1.60051 -2.13402,0 -3.60575,-1.60051 -1.47173,-1.60052 -1.47173,-3.73452 0,-2.17082 1.45333,-3.78972 1.45335,-1.61891 3.62415,-1.61891 2.134017,0 3.550547,1.63731 1.41655,1.6373 1.41655,3.77132 z"
         inkscape:connector-curvature="0" />
      <path
         style="fill:#ecf0f1;stroke-width:0.26458332"
         id="path12872"
         d="m 101.04917,244.52645 -6.065317,-5.8383 -4.94114,6.96361 -2.471097,-15.49898 -7.004177,14.37367 -5.350237,0 0,4.4947 8.086737,0 2.021417,-4.04284 2.02143,12.12846 8.086734,-11.45501 3.59314,3.36939 7.63815,0 0,-4.4947 -5.61564,0 z"
         inkscape:connector-curvature="0" />
      <path
         inkscape:connector-curvature="0"
         id="rect17374"
         d="m 161.57869,191.43561 -3.03444,7.15047 -5.22758,3.6959 0,4.77697 4.11603,0 0,14.03066 c 0,4.00591 0.87122,6.98011 2.61379,8.92297 1.74257,1.92284 4.58648,2.88407 8.5323,2.88407 1.92283,0 3.59568,-0.15018 5.01778,-0.45062 1.44212,-0.28042 2.95434,-0.76077 4.53667,-1.44178 l 0,-8.56278 c -2.20325,0.78115 -4.09639,1.1715 -5.67872,1.1715 -2.12313,0 -3.1843,-1.10146 -3.1843,-3.3047 l 0,-13.24932 8.35194,0 0,-8.80309 -8.35194,0 0,-6.82025 -7.69153,0 z m 66.69826,0 -3.03444,7.15047 -5.22759,3.6959 0,4.77697 4.11603,0 0,14.03066 c 0,4.00591 0.87122,6.98011 2.61379,8.92297 1.74257,1.92284 4.587,2.88407 8.53282,2.88407 1.92283,0 3.59516,-0.15018 5.01726,-0.45062 1.44213,-0.28042 2.95434,-0.76077 4.53667,-1.44178 l 0,-8.56278 c -2.20324,0.78115 -4.09639,1.1715 -5.67872,1.1715 -2.12313,0 -3.1843,-1.10146 -3.1843,-3.3047 l 0,-13.24932 8.35194,0 0,-8.80309 -8.35194,0 0,-6.82025 -7.69152,0 z m -91.75512,6.21926 c -4.46659,0 -7.92166,0.88117 -10.36526,2.64376 -2.4436,1.7626 -3.66541,4.22662 -3.66541,7.39128 0,2.50369 0.62059,4.57633 1.86242,6.21875 1.24183,1.62239 3.42538,3.07495 6.54998,4.35684 3.42505,1.362 5.48774,2.28294 6.18878,2.76365 0.72106,0.46068 1.08158,0.99178 1.08158,1.59267 0,1.16171 -1.27152,1.74253 -3.81527,1.74253 -1.70251,0 -3.64537,-0.26058 -5.82858,-0.78135 -2.16319,-0.52077 -4.15628,-1.18164 -5.97897,-1.98282 l 0,9.40407 c 1.94287,0.72107 3.84595,1.21188 5.7087,1.47226 1.86275,0.28042 4.05572,0.42014 6.57944,0.42014 4.64685,0 8.21233,-0.93089 10.69599,-2.79363 2.48366,-1.86275 3.72535,-4.61718 3.72535,-8.26255 0,-1.82269 -0.28046,-3.36473 -0.84129,-4.62659 -0.54079,-1.28189 -1.40208,-2.39381 -2.58382,-3.3352 -1.16171,-0.94138 -2.93451,-1.90261 -5.31802,-2.88406 -3.20472,-1.26186 -5.14758,-2.09331 -5.82859,-2.4939 -0.66097,-0.42062 -0.99115,-0.92138 -0.99115,-1.50224 0,-0.94138 0.96123,-1.4118 2.88406,-1.4118 1.10163,0 2.52384,0.25012 4.26641,0.75086 1.74257,0.48071 3.39501,1.07199 4.95732,1.77302 l 3.18482,-7.57111 c -2.12313,-0.94139 -4.1764,-1.6525 -6.15932,-2.13321 -1.96289,-0.50074 -4.06587,-0.75137 -6.30917,-0.75137 z m 64.23483,0 c -6.04891,0 -11.05649,1.0214 -15.02233,3.06441 l 3.39514,7.75147 c 3.82564,-1.68248 6.97984,-2.52336 9.4635,-2.52336 2.76408,0 4.14652,1.40181 4.14652,4.20594 l 0,0.48059 -5.67872,0.18035 c -4.78706,0.22033 -8.44202,1.22184 -10.96574,3.00447 -2.52372,1.7626 -3.78582,4.45685 -3.78582,8.08219 0,3.48514 0.92146,6.18882 2.76417,8.11165 1.84272,1.92284 4.3664,2.88407 7.57112,2.88407 2.60384,0 4.7267,-0.36053 6.36912,-1.0816 1.64242,-0.72106 3.2551,-2.06269 4.83743,-4.02559 l 0.2403,0 2.25309,4.5067 8.14214,0 0,-22.32318 c 0,-3.88573 -1.20193,-6.91016 -3.60547,-9.07335 -2.38351,-2.16319 -5.75801,-3.24476 -10.12445,-3.24476 z m 63.63333,0 c -4.46658,0 -7.92166,0.88117 -10.36526,2.64376 -2.4436,1.7626 -3.66541,4.22662 -3.66541,7.39128 0,2.50369 0.62111,4.57633 1.86294,6.21875 1.24183,1.62239 3.42486,3.07495 6.54947,4.35684 3.42505,1.362 5.48825,2.28294 6.18928,2.76365 0.72107,0.46068 1.08159,0.99178 1.08159,1.59267 0,1.16171 -1.27204,1.74253 -3.81578,1.74253 -1.70251,0 -3.64537,-0.26058 -5.82859,-0.78135 -2.16319,-0.52077 -4.15576,-1.18164 -5.97845,-1.98282 l 0,9.40407 c 1.94287,0.72107 3.84544,1.21188 5.70818,1.47226 1.86275,0.28042 4.05624,0.42014 6.57996,0.42014 4.64685,0 8.21181,-0.93089 10.69547,-2.79363 2.48366,-1.86275 3.72536,-4.61718 3.72536,-8.26255 0,-1.82269 -0.27995,-3.36473 -0.84078,-4.62659 -0.5408,-1.28189 -1.40208,-2.39381 -2.58382,-3.3352 -1.16171,-0.94138 -2.93451,-1.90261 -5.31802,-2.88406 -3.20473,-1.26186 -5.14758,-2.09331 -5.82859,-2.4939 -0.66097,-0.42062 -0.99167,-0.92138 -0.99167,-1.50224 0,-0.94138 0.96175,-1.4118 2.88458,-1.4118 1.10162,0 2.52332,0.25012 4.26589,0.75086 1.74257,0.48071 3.39502,1.07199 4.95732,1.77302 l 3.18482,-7.57111 c -2.12313,-0.94139 -4.17587,-1.6525 -6.1588,-2.13321 -1.96289,-0.50074 -4.06638,-0.75137 -6.30969,-0.75137 z m -61.59055,19.4386 0,2.64377 c 0,1.44213 -0.51071,2.61422 -1.53221,3.51555 -1.00148,0.90133 -2.21334,1.35185 -3.63544,1.35185 -2.22327,0 -3.33468,-1.04128 -3.33468,-3.12435 0,-2.70399 1.9324,-4.1262 5.7981,-4.26641 l 2.70423,-0.12041 z"
         style="fill:url(#linearGradient17382);fill-opacity:1;fill-rule:nonzero;stroke:none;stroke-width:1;stroke-miterlimit:4;stroke-dasharray:none;stroke-opacity:1" />
    </g>
  </g>
</svg>
