<?xml version="1.0" encoding="UTF-8" standalone="no"?>
<!-- Created with Inkscape (http://www.inkscape.org/) -->

<svg
   xmlns:dc="http://purl.org/dc/elements/1.1/"
   xmlns:cc="http://creativecommons.org/ns#"
   xmlns:rdf="http://www.w3.org/1999/02/22-rdf-syntax-ns#"
   xmlns:svg="http://www.w3.org/2000/svg"
   xmlns="http://www.w3.org/2000/svg"
   xmlns:xlink="http://www.w3.org/1999/xlink"
   xmlns:sodipodi="http://sodipodi.sourceforge.net/DTD/sodipodi-0.dtd"
   xmlns:inkscape="http://www.inkscape.org/namespaces/inkscape"
   width="900"
   height="400"
   viewBox="0 0 238.12499 105.83334"
   id="svg2"
   version="1.1"
   inkscape:version="0.91+devel r"
   sodipodi:docname="h.svg"
   inkscape:export-filename="/home/ionicabizau/Documents/repository-downloader/downloads/github/IonicaBizau/Resources/gh.js/h.png"
   inkscape:export-xdpi="96"
   inkscape:export-ydpi="96">
  <defs
     id="defs4">
    <linearGradient
       inkscape:collect="always"
       id="linearGradient7768">
      <stop
         style="stop-color:#e74c3c;stop-opacity:1"
         offset="0"
         id="stop7770" />
      <stop
         style="stop-color:#c0392b;stop-opacity:1"
         offset="1"
         id="stop7772" />
    </linearGradient>
    <linearGradient
       inkscape:collect="always"
       id="linearGradient7756">
      <stop
         style="stop-color:#3498db;stop-opacity:1"
         offset="0"
         id="stop7758" />
      <stop
         style="stop-color:#2980b9;stop-opacity:1"
         offset="1"
         id="stop7760" />
    </linearGradient>
    <linearGradient
       id="linearGradient7749"
       inkscape:collect="always">
      <stop
         id="stop7751"
         offset="0"
         style="stop-color:#3498db;stop-opacity:1" />
      <stop
         id="stop7753"
         offset="1"
         style="stop-color:#2980b9;stop-opacity:1" />
    </linearGradient>
    <linearGradient
       inkscape:collect="always"
       id="linearGradient7734">
      <stop
         style="stop-color:#e74c3c;stop-opacity:1"
         offset="0"
         id="stop7736" />
      <stop
         style="stop-color:#c0392b;stop-opacity:1"
         offset="1"
         id="stop7738" />
    </linearGradient>
    <linearGradient
       inkscape:collect="always"
       xlink:href="#linearGradient7734"
       id="linearGradient7740"
       x1="63.468056"
       y1="253.66173"
       x2="87.860626"
       y2="282.08026"
       gradientUnits="userSpaceOnUse"
       gradientTransform="matrix(0.29542108,0.30235349,-0.30235349,0.29542108,179.98349,148.05662)" />
    <linearGradient
       inkscape:collect="always"
       xlink:href="#linearGradient7749"
       id="linearGradient7744"
       gradientUnits="userSpaceOnUse"
       x1="88.571083"
       y1="100.20165"
       x2="165.77477"
       y2="178.1158"
       gradientTransform="matrix(0.32247227,0,0,0.32247227,49.136397,199.35712)" />
    <linearGradient
       inkscape:collect="always"
       xlink:href="#linearGradient7756"
       id="linearGradient7762"
       x1="149.43411"
       y1="214.58624"
       x2="218.11223"
       y2="271.66013"
       gradientUnits="userSpaceOnUse"
       gradientTransform="matrix(0.38361356,0,0,0.38361356,90.112669,150.44965)" />
    <linearGradient
       inkscape:collect="always"
       xlink:href="#linearGradient7768"
       id="linearGradient7774"
       x1="104.91175"
       y1="252.95126"
       x2="163.8802"
       y2="275.44925"
       gradientUnits="userSpaceOnUse"
       gradientTransform="matrix(1.3647853,0,0,1.3647853,-66.048468,-106.97533)" />
  </defs>
  <sodipodi:namedview
     id="base"
     pagecolor="#ffffff"
     bordercolor="#666666"
     borderopacity="1.0"
     inkscape:pageopacity="0.0"
     inkscape:pageshadow="2"
     inkscape:zoom="1.58"
     inkscape:cx="429.3103"
     inkscape:cy="169.89254"
     inkscape:document-units="mm"
     inkscape:current-layer="layer1"
     showgrid="false"
     units="px"
     inkscape:window-width="1920"
     inkscape:window-height="1056"
     inkscape:window-x="0"
     inkscape:window-y="24"
     inkscape:window-maximized="1"
     showguides="false" />
  <metadata
     id="metadata7">
    <rdf:RDF>
      <cc:Work
         rdf:about="">
        <dc:format>image/svg+xml</dc:format>
        <dc:type
           rdf:resource="http://purl.org/dc/dcmitype/StillImage" />
        <dc:title></dc:title>
      </cc:Work>
    </rdf:RDF>
  </metadata>
  <g
     inkscape:label="Layer 1"
     inkscape:groupmode="layer"
     id="layer1"
     transform="translate(0,-191.16665)">
    <g
       id="g7794"
       transform="translate(0,-7.9808704)">
      <g
         transform="matrix(0.9183841,0,0,0.9183841,2.1590033,4.0460766)"
         id="g7776">
        <path
           d="m 171.38854,238.77936 c 0.2163,-0.53009 0.92745,-2.66763 -0.22447,-5.55565 0,0 -1.76641,-0.55876 -5.76459,2.17359 -1.67465,-0.46046 -3.47383,-0.52928 -5.25335,-0.52928 -1.78032,0 -3.57708,0.0688 -5.25662,0.5309 -3.99737,-2.73399 -5.76212,-2.17524 -5.76212,-2.17524 -1.15115,2.88967 -0.43997,5.02559 -0.22367,5.55568 -1.35513,1.46489 -2.18099,3.33455 -2.18099,5.62777 0,8.6313 5.5909,10.58288 13.3931,10.58288 7.80544,0 13.4537,-1.95158 13.4537,-10.58288 0,-2.29322 -0.82585,-4.16288 -2.18099,-5.62777 z m -11.24241,14.55894 c -5.54256,0 -10.03559,-0.25889 -10.03559,-5.6286 0,-1.28303 0.63085,-2.48005 1.71316,-3.4689 1.80246,-1.65089 4.85762,-0.77835 8.32245,-0.77835 3.46728,0 6.51835,-0.87254 8.32247,0.7767 1.08309,0.9905 1.71562,2.18424 1.71562,3.4689 -5e-5,5.37136 -4.49637,5.63025 -10.03811,5.63025 z m -4.21694,-8.40436 c -1.11343,0 -2.01628,1.33873 -2.01628,2.99374 0,1.65501 0.90288,2.99698 2.01628,2.99698 1.11097,0 2.01383,-1.34203 2.01383,-2.99698 0,-1.65496 -0.90286,-2.99374 -2.01383,-2.99374 z m 8.43469,0 c -1.11097,0 -2.01547,1.33873 -2.01547,2.99371 0,1.65498 0.9045,2.99698 2.01547,2.99698 1.11098,0 2.01383,-1.34202 2.01383,-2.99698 0.002,-1.65498 -0.90123,-2.99371 -2.01383,-2.99371 z"
           id="path4714"
           inkscape:connector-curvature="0"
           style="fill:url(#linearGradient7762);fill-opacity:1;stroke-width:0.02621758" />
        <path
           style="opacity:1;fill:url(#linearGradient7744);fill-opacity:1;stroke:none;stroke-width:0.35891163;stroke-miterlimit:4;stroke-dasharray:none;stroke-opacity:1"
           d="m 91.27282,233.82616 c -5.664849,0 -10.257157,4.5923 -10.257157,10.25715 0,5.66486 4.592308,10.25716 10.257157,10.25716 0.69324,0 1.37037,-0.0689 2.02504,-0.19997 -0.26388,-0.12622 -0.29275,-1.07323 -0.0318,-1.61309 0.29049,-0.60101 1.20212,-2.12343 0.30062,-2.63428 -0.90151,-0.51086 -0.65107,-0.74132 -1.20199,-1.33231 -0.55092,-0.59098 -0.32562,-0.67982 -0.36061,-0.83137 -0.1202,-0.52087 0.53087,-1.30217 0.56092,-1.3823 0.03,-0.0801 0.03,-0.38061 0.02,-0.47076 -0.0101,-0.0901 -0.41059,-0.3306 -0.51076,-0.34062 -0.10016,-0.01 -0.15039,0.16029 -0.29062,0.1703 -0.14024,0.0101 -0.75116,-0.37059 -0.88137,-0.47076 -0.13022,-0.10017 -0.19032,-0.34062 -0.37061,-0.52092 -0.18031,-0.1803 -0.2003,-0.0401 -0.48077,-0.15031 -0.28047,-0.11019 -1.182072,-0.44059 -1.873224,-0.72106 -0.691157,-0.28047 -0.751206,-0.67374 -0.761223,-0.95169 -0.01,-0.27796 -0.420792,-0.68104 -0.613409,-0.97153 -0.192567,-0.29049 -0.228003,-0.69123 -0.29812,-0.60108 -0.07012,0.0901 0.36057,1.14194 0.290459,1.17199 -0.07012,0.0301 -0.220439,-0.29048 -0.420773,-0.55091 -0.200339,-0.26044 0.210463,-0.12019 -0.430606,-1.3823 -0.641073,-1.26211 0.200233,-1.9057 0.240299,-2.56429 0.04011,-0.6586 0.540897,0.2404 0.280458,-0.18031 -0.260434,-0.4207 0.02005,-1.30222 -0.180306,-1.62276 -0.200334,-0.32053 -1.342135,0.36061 -1.342135,0.36061 0.03005,-0.31051 1.001583,-0.84132 1.702751,-1.33213 0.701169,-0.49083 1.129465,-0.11031 1.692918,0.07 0.563448,0.1803 0.600921,0.12031 0.410603,-0.06 -0.190317,-0.18031 0.08019,-0.27059 0.520926,-0.20047 0.44074,0.0701 0.560862,0.601 1.231992,0.55092 0.67111,-0.0501 0.0701,0.13033 0.1603,0.30062 0.0901,0.17028 -0.10018,0.15026 -0.54092,0.45077 -0.440732,0.3005 0.0101,0.30042 0.79139,0.87137 0.7813,0.57095 0.54089,-0.38068 0.46076,-0.80139 -0.0801,-0.4207 0.57092,-0.0901 0.57092,-0.0901 0.4808,0.32054 0.39197,0.0176 0.74256,0.12782 0.35058,0.11018 1.3008,0.91403 1.3008,0.91403 -1.19199,0.65109 -0.44063,0.72112 -0.24029,0.87137 0.20033,0.15025 -0.41077,0.44077 -0.41077,0.44077 -0.25043,-0.25042 -0.2905,0.01 -0.45078,0.10015 -0.16026,0.0901 -0.01,0.32062 -0.01,0.32062 -0.82888,0.13022 -0.64109,1.00164 -0.63107,1.21199 0.01,0.21035 -0.53083,0.53087 -0.67107,0.83138 -0.14023,0.3005 0.36059,0.95161 0.10015,0.99168 -0.26042,0.0401 -0.52087,-0.98171 -1.92321,-0.60108 -0.422782,0.11478 -1.362217,0.60111 -0.861378,1.59277 0.500836,0.99166 1.332128,-0.28055 1.612598,-0.14031 0.28047,0.14023 -0.0801,0.77137 -0.02,0.78138 0.0601,0.01 0.79131,0.0274 0.83138,0.88138 0.0401,0.85393 1.11191,0.78134 1.3423,0.80138 0.23038,0.0201 1.00166,-0.63102 1.11183,-0.66107 0.11019,-0.0301 0.55085,-0.40078 1.512453,0.15014 0.96161,0.55092 1.45252,0.47085 1.78307,0.70123 0.33055,0.23039 0.10009,0.69113 0.4106,0.84138 0.31052,0.15025 1.55271,-0.0501 1.86323,0.46076 0.31052,0.51086 -1.28223,3.07521 -1.78307,3.35568 -0.50084,0.28047 -0.73115,0.92144 -1.23198,1.33213 -0.50084,0.41069 -1.20212,0.91915 -1.863233,1.31231 -0.58519,0.34797 -0.69035,0.97138 -0.95103,1.16816 4.590483,-1.01976 8.02299,-5.11551 8.02299,-10.01303 0,-5.66485 -4.592297,-10.25715 -10.25716,-10.25715 z m 0.58275,0.30262 c 0.34887,-0.009 0.85961,0.18074 1.19016,0.2183 0.44073,0.0501 0.95167,0.39071 0.96169,0.79555 0.0101,0.40481 0.4808,0.7771 0.28046,0.93736 -0.20033,0.16027 -1.20853,-0.57506 -1.40246,-0.74123 -0.84141,-0.7212 -1.29209,-0.48087 -1.46878,-0.60107 -0.17676,-0.1202 -0.11381,-0.28035 0.15664,-0.52076 0.0676,-0.0601 0.166,-0.0852 0.28229,-0.0881 z m -0.78239,0.10915 c 0.15214,-0.001 0.25838,0.0596 0.19498,0.2393 -0.14489,0.41069 -0.83685,0.45074 -0.94703,0.37061 -0.0699,-0.0508 0.058,-0.10925 0.13415,-0.21031 0.0439,-0.0584 0.0113,-0.15528 0.0663,-0.2103 0.0845,-0.0845 0.35599,-0.18798 0.55158,-0.1893 z m -0.32278,0.9052 c 0.28454,0.005 0.71273,0.0404 0.80288,0.11548 0.1202,0.10017 0.77132,0.3606 0.81138,0.55092 0.0401,0.19032 -4e-5,0.35063 -0.25046,0.34062 -0.25042,-0.01 -0.83989,-0.0723 -0.73123,-0.18031 0.42321,-0.42071 -0.16032,-0.54103 -0.52092,-0.57108 -0.3606,-0.0301 -0.51075,-0.23027 -0.33045,-0.2503 0.0451,-0.005 0.12395,-0.007 0.2188,-0.005 z m 0.8942,7.57438 c 0.61446,0.0209 1.33225,0.59519 1.50128,0.60458 0.1803,0.0101 0.27054,-0.18028 0.59108,-0.077 0.32053,0.10319 0.0801,0.16707 -0.0602,0.20714 -0.14023,0.0401 -0.43064,0.30056 -1.14183,-0.12015 -0.71119,-0.4207 -1.20205,-0.34049 -1.26215,-0.41061 0,0 -0.0601,-0.17041 0.25047,-0.20047 0.0398,-0.004 0.0803,-0.005 0.12131,-0.004 z"
           id="rect7742"
           inkscape:connector-curvature="0" />
        <path
           style="opacity:1;fill:url(#linearGradient7740);fill-opacity:1;stroke:none;stroke-width:0.47048604;stroke-miterlimit:4;stroke-dasharray:none;stroke-opacity:1"
           d="m 139.67042,244.41806 c 0,0 -2.43968,-1.66776 -6.34151,-3.03853 -0.79685,0.97299 -1.22725,1.97394 -1.23613,2.94679 -0.0156,0.9771 0.39084,1.98624 1.16926,2.97933 3.93006,-1.27753 6.40838,-2.88759 6.40838,-2.88759 z m -8.42826,-3.69545 c -2.2244,-0.6198 -4.78385,-1.07515 -7.54949,-1.10664 -1.76818,-0.0199 -3.34024,0.11001 -4.72115,0.32617 l -4.11737,-2.90397 -8.23167,-0.0925 3.51093,3.82453 5.16773,0.0599 c -2.81318,0.94526 -4.16015,2.10221 -4.16015,2.10221 l -0.0257,2.31048 c 0,0 1.40215,1.18642 4.21527,2.20119 l -5.27504,-0.0641 -3.59867,3.74428 8.23101,0.0968 4.20357,-2.82233 c 1.38024,0.25924 2.94584,0.42977 4.69436,0.45067 2.76682,0.0315 5.33467,-0.36449 7.57344,-0.93185 -0.70658,-1.09483 -1.14472,-2.30372 -1.13139,-3.60884 0.017,-1.30881 0.48077,-2.50985 1.21433,-3.5861 z"
           id="rect7732"
           inkscape:connector-curvature="0" />
      </g>
      <g
         id="g7787">
        <text
           xml:space="preserve"
           style="font-style:normal;font-weight:normal;font-size:9.62931728px;line-height:125%;font-family:sans-serif;letter-spacing:0px;word-spacing:0px;fill:url(#linearGradient7774);fill-opacity:1;stroke:none;stroke-width:0.36109939px;stroke-linecap:butt;stroke-linejoin:miter;stroke-opacity:1"
           x="76.163887"
           y="262.81274"
           id="text7764"
           sodipodi:linespacing="125%"><tspan
             sodipodi:role="line"
             id="tspan7766"
             x="76.163887"
             y="262.81274"
             style="font-style:normal;font-variant:normal;font-weight:bold;font-stretch:normal;font-size:34.66554642px;font-family:'Ubuntu Mono';-inkscape-font-specification:'Ubuntu Mono Bold';fill:url(#linearGradient7774);fill-opacity:1;stroke-width:0.36109939px">gh.js</tspan></text>
        <text
           xml:space="preserve"
           style="font-style:normal;font-weight:normal;font-size:7.26681137px;line-height:125%;font-family:sans-serif;letter-spacing:0px;word-spacing:0px;fill:#2c3e50;fill-opacity:1;stroke:none;stroke-width:0.2725054px;stroke-linecap:butt;stroke-linejoin:miter;stroke-opacity:1"
           x="77.336472"
           y="276.75861"
           id="text7781"
           sodipodi:linespacing="125%"><tspan
             sodipodi:role="line"
             id="tspan7783"
             x="77.336472"
             y="276.75861"
             style="font-style:normal;font-variant:normal;font-weight:bold;font-stretch:normal;font-family:'Ubuntu Mono';-inkscape-font-specification:'Ubuntu Mono Bold';fill:#2c3e50;stroke-width:0.2725054px">Tiny GitHub API wrapper</tspan><tspan
             sodipodi:role="line"
             x="77.336472"
             y="285.84213"
             style="font-style:normal;font-variant:normal;font-weight:bold;font-stretch:normal;font-family:'Ubuntu Mono';-inkscape-font-specification:'Ubuntu Mono Bold';fill:#2c3e50;stroke-width:0.2725054px"
             id="tspan7785">for server  and client.</tspan></text>
      </g>
    </g>
  </g>
</svg>
