<?xml version="1.0" encoding="UTF-8" standalone="no"?>
<!-- Created with Inkscape (http://www.inkscape.org/) -->

<svg
   xmlns:dc="http://purl.org/dc/elements/1.1/"
   xmlns:cc="http://creativecommons.org/ns#"
   xmlns:rdf="http://www.w3.org/1999/02/22-rdf-syntax-ns#"
   xmlns:svg="http://www.w3.org/2000/svg"
   xmlns="http://www.w3.org/2000/svg"
   xmlns:sodipodi="http://sodipodi.sourceforge.net/DTD/sodipodi-0.dtd"
   xmlns:inkscape="http://www.inkscape.org/namespaces/inkscape"
   width="900"
   height="400"
   viewBox="0 0 900.00002 399.99998"
   id="svg2"
   version="1.1"
   inkscape:version="0.91 r13725"
   sodipodi:docname="h.svg"
   inkscape:export-filename="/home/ionicabizau/Documents/Resources/dist-it/h.png"
   inkscape:export-xdpi="90"
   inkscape:export-ydpi="90">
  <defs
     id="defs4" />
  <sodipodi:namedview
     id="base"
     pagecolor="#ffffff"
     bordercolor="#666666"
     borderopacity="1.0"
     inkscape:pageopacity="0.0"
     inkscape:pageshadow="2"
     inkscape:zoom="1.183929"
     inkscape:cx="415.68717"
     inkscape:cy="295.38584"
     inkscape:document-units="px"
     inkscape:current-layer="layer1"
     showgrid="false"
     units="px"
     inkscape:window-width="1920"
     inkscape:window-height="1060"
     inkscape:window-x="0"
     inkscape:window-y="0"
     inkscape:window-maximized="1" />
  <metadata
     id="metadata7">
    <rdf:RDF>
      <cc:Work
         rdf:about="">
        <dc:format>image/svg+xml</dc:format>
        <dc:type
           rdf:resource="http://purl.org/dc/dcmitype/StillImage" />
        <dc:title />
      </cc:Work>
    </rdf:RDF>
  </metadata>
  <g
     inkscape:label="Layer 1"
     inkscape:groupmode="layer"
     id="layer1"
     transform="translate(0,-652.36229)">
    <g
       id="g4172"
       transform="matrix(1.255626,0,0,1.255626,-115.0317,-214.91607)">
      <text
         xml:space="preserve"
         style="font-style:normal;font-weight:normal;font-size:50.97951889px;line-height:125%;font-family:sans-serif;letter-spacing:0px;word-spacing:0px;fill:#2c3e50;fill-opacity:1;stroke:none;stroke-width:1px;stroke-linecap:butt;stroke-linejoin:miter;stroke-opacity:1"
         x="323.91095"
         y="881.46136"
         id="text8131"
         sodipodi:linespacing="125%"><tspan
           sodipodi:role="line"
           id="tspan8133"
           x="323.91095"
           y="881.46136"
           style="font-style:normal;font-variant:normal;font-weight:normal;font-stretch:normal;font-size:89.21414948px;font-family:'Henny Penny';-inkscape-font-specification:'Henny Penny';fill:#2c3e50;fill-opacity:1">dist-it</tspan></text>
      <text
         sodipodi:linespacing="125%"
         id="text8135"
         y="926.0072"
         x="449.93121"
         style="font-style:normal;font-weight:normal;font-size:20.62384605px;line-height:125%;font-family:sans-serif;letter-spacing:0px;word-spacing:0px;fill:#2c3e50;fill-opacity:1;stroke:none;stroke-width:1px;stroke-linecap:butt;stroke-linejoin:miter;stroke-opacity:1"
         xml:space="preserve"><tspan
           id="tspan8139"
           style="font-style:normal;font-variant:normal;font-weight:normal;font-stretch:normal;font-family:Raleway;-inkscape-font-specification:Raleway;text-align:center;text-anchor:middle;fill:#2c3e50;fill-opacity:1"
           y="926.0072"
           x="449.93121"
           sodipodi:role="line">Generate minified bundles</tspan><tspan
           id="tspan8145"
           style="font-style:normal;font-variant:normal;font-weight:normal;font-stretch:normal;font-family:Raleway;-inkscape-font-specification:Raleway;text-align:center;text-anchor:middle;fill:#2c3e50;fill-opacity:1"
           y="951.78699"
           x="449.93121"
           sodipodi:role="line">from modular inputs using</tspan><tspan
           id="tspan4151"
           style="font-style:normal;font-variant:normal;font-weight:normal;font-stretch:normal;font-family:Raleway;-inkscape-font-specification:Raleway;text-align:center;text-anchor:middle;fill:#2c3e50;fill-opacity:1"
           y="977.56683"
           x="449.93121"
           sodipodi:role="line">Browserify.</tspan></text>
      <g
         transform="translate(1e-5,0)"
         id="g9702">
        <path
           inkscape:connector-curvature="0"
           d="m 540.71423,720.8281 -17.14288,0 -8.57146,8.57136 0,17.14296 34.28577,34.28568 25.71433,-25.71432 -34.28576,-34.28568 z m -21.42862,23.57154 0,-12.8571 6.4286,-6.4287 12.85717,0 30.00003,29.99994 -19.28575,19.2858 -30.00005,-29.99994 z m 25.71434,-6.42864 -12.85717,12.85716 17.14288,17.14278 12.85716,-12.85716 -17.14287,-17.14278 z m -6.42857,12.85716 6.42857,-6.42852 10.7143,10.71414 -6.42859,6.42864 -10.71428,-10.71426 z m -2.14289,-15 c 0,-3.54918 -2.87946,-6.4287 -6.42858,-6.4287 -3.5491,0 -6.42856,2.87952 -6.42856,6.4287 0,3.54912 2.87946,6.42846 6.42856,6.42846 3.54912,0 6.42858,-2.87934 6.42858,-6.42846 z m -6.42858,2.14284 c -1.18231,0 -2.14285,-0.96048 -2.14285,-2.14284 0,-1.1823 0.96054,-2.1429 2.14285,-2.1429 1.18233,0 2.14287,0.9606 2.14287,2.1429 0,1.18236 -0.96054,2.14284 -2.14287,2.14284 z"
           id="path4307"
           style="fill:#e67e22;fill-opacity:1" />
        <path
           inkscape:connector-curvature="0"
           d="m 359.61538,720.8281 -34.61539,9.23076 0,41.53848 34.61539,9.23076 34.61538,-9.23076 0,-41.53848 -34.61538,-9.23076 z m -30.00902,47.37504 -0.0271,-31.22118 27.72822,7.39422 7e-5,31.21392 -27.70125,-7.38696 z m -0.0271,-35.83656 11.55678,-3.08178 30.01774,8.00472 0,0.01 -11.53846,3.07699 -30.03606,-8.00965 z m 60.04507,35.83656 -27.70125,7.38696 7e-5,-31.21392 9.23063,-2.46156 0,11.25 9.23077,-2.46162 0,-11.24988 9.26683,-2.47116 -0.027,31.22118 z m -9.23978,-33.3654 0,-0.009 -30.01919,-8.00515 9.24996,-2.4666 30.03606,8.00959 -9.26683,2.47116 z"
           id="path7541"
           style="fill:#e67e22;fill-opacity:1" />
        <path
           inkscape:connector-curvature="0"
           d="m 480.68371,775.29103 -13.28906,-29.90043 0,-15.75 3.9375,0 0,-3.9375 -35.4375,0 0,3.9375 3.9375,0 0,15.75 -13.28906,29.90043 c -1.16895,2.58399 0.73829,5.53707 3.56836,5.53707 l 47.0039,0 c 2.83008,0 4.73731,-2.95308 3.56836,-5.53707 z m -41.83594,-18.08793 4.92188,-11.8125 0,-15.75 19.6875,0 0,15.75 4.92187,11.8125 -29.53125,0 z m 16.73438,-7.875 3.9375,0 0,3.9375 -3.9375,0 0,-3.9375 z m -3.9375,-3.9375 -3.9375,0 0,-3.9375 3.9375,0 0,3.9375 z m 0,-11.8125 3.9375,0 0,3.9375 -3.9375,0 0,-3.9375 z m 0,-11.8125 -3.9375,0 0,-3.9375 3.9375,0 0,3.9375 z"
           id="path9111"
           style="fill:#e67e22;fill-opacity:1" />
      </g>
    </g>
    <text
       xml:space="preserve"
       style="font-style:normal;font-weight:normal;font-size:40px;line-height:125%;font-family:sans-serif;letter-spacing:0px;word-spacing:0px;fill:#000000;fill-opacity:1;stroke:none;stroke-width:1px;stroke-linecap:butt;stroke-linejoin:miter;stroke-opacity:1"
       x="56.591232"
       y="866.54034"
       id="text9695"
       sodipodi:linespacing="125%"><tspan
         sodipodi:role="line"
         id="tspan9697"
         x="56.591232"
         y="866.54034" /></text>
  </g>
</svg>
