<?xml version="1.0" encoding="UTF-8" standalone="no"?>
<!-- Created with Inkscape (http://www.inkscape.org/) -->

<svg
   xmlns:dc="http://purl.org/dc/elements/1.1/"
   xmlns:cc="http://creativecommons.org/ns#"
   xmlns:rdf="http://www.w3.org/1999/02/22-rdf-syntax-ns#"
   xmlns:svg="http://www.w3.org/2000/svg"
   xmlns="http://www.w3.org/2000/svg"
   xmlns:xlink="http://www.w3.org/1999/xlink"
   xmlns:sodipodi="http://sodipodi.sourceforge.net/DTD/sodipodi-0.dtd"
   xmlns:inkscape="http://www.inkscape.org/namespaces/inkscape"
   width="900"
   height="400"
   viewBox="0 0 238.12501 105.83333"
   id="svg4361"
   version="1.1"
   inkscape:version="0.91+devel r"
   sodipodi:docname="h.svg"
   inkscape:export-filename="/home/ionicabizau/Documents/repository-downloader/downloads/github/IonicaBizau/Resources/jsonrequest/h.png"
   inkscape:export-xdpi="96"
   inkscape:export-ydpi="96">
  <defs
     id="defs4363">
    <linearGradient
       gradientUnits="userSpaceOnUse"
       y2="261.83386"
       x2="145.52083"
       y1="197.86497"
       x1="82.389244"
       id="linearGradient4149"
       xlink:href="#linearGradient4143"
       inkscape:collect="always"
       gradientTransform="translate(-1e-5,1e-5)" />
    <linearGradient
       id="linearGradient4143"
       inkscape:collect="always">
      <stop
         id="stop4145"
         offset="0"
         style="stop-color:#3498db;stop-opacity:1" />
      <stop
         id="stop4147"
         offset="1"
         style="stop-color:#27ae60;stop-opacity:1" />
    </linearGradient>
    <linearGradient
       gradientTransform="matrix(1.3929079,0,0,1.3929079,-78.648798,-79.549835)"
       y2="174.32668"
       x2="180.6945"
       y1="92.62339"
       x1="99.464859"
       gradientUnits="userSpaceOnUse"
       id="linearGradient8456-164-851-679"
       xlink:href="#linearGradient8395-369-627-852"
       inkscape:collect="always" />
    <linearGradient
       id="linearGradient8395-369-627-852"
       inkscape:collect="always">
      <stop
         id="stop8753"
         offset="0"
         style="stop-color:#47d1ff;stop-opacity:1" />
      <stop
         id="stop8755"
         offset="1"
         style="stop-color:#39b0fe;stop-opacity:1" />
    </linearGradient>
    <linearGradient
       inkscape:collect="always"
       xlink:href="#linearGradient8395-369-627-852"
       id="linearGradient4974"
       gradientUnits="userSpaceOnUse"
       gradientTransform="matrix(1.3929079,0,0,1.3929079,-78.648798,-79.549835)"
       x1="99.464859"
       y1="92.62339"
       x2="180.6945"
       y2="174.32668" />
    <linearGradient
       inkscape:collect="always"
       xlink:href="#linearGradient8395-369-627-852"
       id="linearGradient4976"
       gradientUnits="userSpaceOnUse"
       gradientTransform="matrix(1.3929079,0,0,1.3929079,-78.648798,-79.549835)"
       x1="99.464859"
       y1="92.62339"
       x2="180.6945"
       y2="174.32668" />
    <linearGradient
       inkscape:collect="always"
       xlink:href="#linearGradient8395-369-627-852"
       id="linearGradient4978"
       gradientUnits="userSpaceOnUse"
       gradientTransform="matrix(1.3929079,0,0,1.3929079,-78.648798,-79.549835)"
       x1="99.464859"
       y1="92.62339"
       x2="180.6945"
       y2="174.32668" />
  </defs>
  <sodipodi:namedview
     id="base"
     pagecolor="#ffffff"
     bordercolor="#666666"
     borderopacity="1.0"
     inkscape:pageopacity="0.0"
     inkscape:pageshadow="2"
     inkscape:zoom="1.4"
     inkscape:cx="486.68192"
     inkscape:cy="332.94686"
     inkscape:document-units="mm"
     inkscape:current-layer="layer1"
     showgrid="false"
     width="900mm"
     units="px"
     inkscape:window-width="1920"
     inkscape:window-height="1056"
     inkscape:window-x="0"
     inkscape:window-y="24"
     inkscape:window-maximized="1" />
  <metadata
     id="metadata4366">
    <rdf:RDF>
      <cc:Work
         rdf:about="">
        <dc:format>image/svg+xml</dc:format>
        <dc:type
           rdf:resource="http://purl.org/dc/dcmitype/StillImage" />
        <dc:title></dc:title>
      </cc:Work>
    </rdf:RDF>
  </metadata>
  <g
     inkscape:label="Layer 1"
     inkscape:groupmode="layer"
     id="layer1"
     transform="translate(0,-191.16667)">
    <path
       inkscape:connector-curvature="0"
       id="rect4141"
       d="m 119.06536,208.18282 c -13.08128,0 -23.685696,10.60442 -23.685696,23.6857 0,13.08127 10.604416,23.68569 23.685696,23.68569 1.60083,0 3.16433,-0.15903 4.6761,-0.46177 -0.60936,-0.29145 -0.67585,-2.47823 -0.0732,-3.72489 0.67078,-1.38784 2.77579,-4.90364 0.69403,-6.0833 -2.08175,-1.17967 -1.50363,-1.71176 -2.7758,-3.07646 -1.27219,-1.36471 -0.75186,-1.56976 -0.83266,-1.91975 -0.27756,-1.20279 1.22594,-3.00692 1.29533,-3.19197 0.0695,-0.18505 0.0696,-0.87893 0.0465,-1.0871 -0.0232,-0.20818 -0.94851,-0.76331 -1.17982,-0.78644 -0.23131,-0.0232 -0.3468,0.36994 -0.67062,0.39307 -0.32384,0.0231 -1.73487,-0.8558 -2.03557,-1.0871 -0.30069,-0.23131 -0.43941,-0.78627 -0.85575,-1.20262 -0.41635,-0.41635 -0.46285,-0.0927 -1.11052,-0.34716 -0.64766,-0.25443 -2.72926,-1.01764 -4.32527,-1.6653 -1.59602,-0.64767 -1.7349,-1.55544 -1.75802,-2.19731 -0.0232,-0.64185 -0.97154,-1.57301 -1.41632,-2.2438 -0.44466,-0.67079 -0.52665,-1.59593 -0.68856,-1.38775 -0.1619,0.20816 0.83284,2.63681 0.67092,2.70619 -0.16191,0.0694 -0.50896,-0.67083 -0.97158,-1.27223 -0.4626,-0.6014 0.48568,-0.27753 -0.99468,-3.19198 -1.48037,-2.91447 0.46257,-4.40075 0.5551,-5.92158 0.0925,-1.52082 1.24922,0.55531 0.64782,-0.41618 -0.6014,-0.97149 0.0461,-3.0069 -0.41647,-3.74707 -0.46262,-0.74018 -3.09957,0.83265 -3.09957,0.83265 0.0694,-0.71704 2.31308,-1.94306 3.93222,-3.07646 1.61915,-1.1334 2.60799,-0.25432 3.9091,0.16203 1.30111,0.41637 1.38797,0.27743 0.94848,-0.13893 -0.43947,-0.41634 0.18518,-0.62459 1.20291,-0.46267 1.01776,0.1619 1.29507,1.38787 2.84482,1.27222 1.54975,-0.11567 0.16209,0.3008 0.37027,0.69403 0.20817,0.39322 -0.23139,0.34698 -1.24912,1.04089 -1.01775,0.69392 0.0232,0.6937 1.82733,2.01215 1.80419,1.31845 1.24904,-0.87894 1.06399,-1.85043 -0.18504,-0.97148 1.31844,-0.20793 1.31844,-0.20793 1.11027,0.74019 0.90528,0.0404 1.71485,0.29488 0.80958,0.25443 3.00381,2.11066 3.00381,2.11066 -2.75257,1.50349 -1.01771,1.6652 -0.55511,2.01216 0.46263,0.34695 -0.94847,1.01779 -0.94847,1.01779 -0.57827,-0.57827 -0.67081,0.0231 -1.04089,0.23134 -0.37009,0.20817 -0.0231,0.74023 -0.0231,0.74023 -1.91406,0.3007 -1.4802,2.31316 -1.45707,2.79891 0.0232,0.48574 -1.22595,1.22584 -1.54978,1.91975 -0.32384,0.69393 0.83244,2.19749 0.23104,2.29001 -0.6014,0.0925 -1.20252,-2.26702 -4.4408,-1.38805 -0.9763,0.26504 -3.1459,1.38784 -1.98937,3.67777 1.15655,2.28993 3.07631,-0.64758 3.72398,-0.32376 0.64766,0.32383 -0.18495,1.78109 -0.0462,1.80423 0.13878,0.0232 1.82722,0.0637 1.91974,2.03557 0.0925,1.9719 2.56756,1.80418 3.09957,1.85044 0.53201,0.0464 2.31312,-1.45729 2.56757,-1.52668 0.25442,-0.0694 1.27209,-0.92532 3.49262,0.34685 2.22056,1.27219 3.35405,1.0874 4.11735,1.6194 0.76333,0.53201 0.23112,1.5959 0.94817,1.94285 0.71705,0.34698 3.58544,-0.11566 4.30249,1.064 0.71705,1.17967 -2.96082,7.10126 -4.11735,7.74891 -1.15654,0.64765 -1.68859,2.12779 -2.84511,3.07615 -1.15655,0.94836 -2.77556,2.12235 -4.30219,3.03025 -1.35132,0.80353 -1.59443,2.24297 -2.19639,2.69738 10.60031,-2.35483 18.52656,-11.81243 18.52656,-23.12178 0,-13.08128 -10.60442,-23.6857 -23.6857,-23.6857 z m 1.3455,0.69859 c 0.80559,-0.0206 1.98542,0.41729 2.74875,0.50403 1.01773,0.11565 2.19726,0.90219 2.2204,1.83706 0.0232,0.93478 1.11043,1.79467 0.64781,2.16476 -0.4626,0.37009 -2.79068,-1.32809 -3.23849,-1.71181 -1.94297,-1.66542 -2.98368,-1.11018 -3.39169,-1.38775 -0.40816,-0.27757 -0.26278,-0.64777 0.36175,-1.20292 0.15613,-0.13879 0.38293,-0.19651 0.65147,-0.20337 z m -1.80637,0.25201 c 0.3513,-0.003 0.59634,0.13777 0.44992,0.55267 -0.33456,0.94837 -1.9319,1.04111 -2.18635,0.85605 -0.1613,-0.11732 0.13338,-0.25244 0.30917,-0.48578 0.10147,-0.13484 0.0262,-0.35872 0.15321,-0.48579 0.19517,-0.19517 0.82239,-0.4341 1.27405,-0.43715 z m -0.74539,2.09029 c 0.65705,0.0108 1.6456,0.0931 1.85378,0.26661 0.27756,0.2313 1.78132,0.83275 1.87384,1.27223 0.0925,0.43949 -2.5e-4,0.80956 -0.57851,0.78644 -0.57825,-0.0231 -1.93933,-0.16679 -1.68841,-0.41617 0.97729,-0.97149 -0.37021,-1.24904 -1.20291,-1.31844 -0.83272,-0.0694 -1.1794,-0.53225 -0.76304,-0.57851 0.10409,-0.0116 0.28623,-0.0158 0.50525,-0.0121 z m 1.9237,17.49053 c 1.44803,-0.0411 3.20479,1.37385 3.60815,1.39626 0.41635,0.0232 0.62446,-0.41637 1.36465,-0.17784 0.74018,0.23826 0.18488,0.38597 -0.13893,0.47849 -0.32383,0.0925 -0.99461,0.69393 -2.63688,-0.27755 -1.64229,-0.97148 -2.77564,-0.78626 -2.91443,-0.94817 0,0 -0.13884,-0.3933 0.57821,-0.46269 0.046,-0.005 0.0925,-0.007 0.13923,-0.009 z"
       style="opacity:0.56699997;fill:url(#linearGradient4149);fill-opacity:1;stroke:none;stroke-width:0.86653358;stroke-miterlimit:4;stroke-dasharray:none;stroke-opacity:1" />
    <g
       transform="matrix(0.71792253,0,0,0.71792253,56.463735,57.110648)"
       id="g8481">
      <path
         inkscape:connector-curvature="0"
         style="opacity:1;fill:url(#linearGradient4974);fill-opacity:1;stroke:none;stroke-width:1.11299992;stroke-miterlimit:4;stroke-dasharray:none;stroke-opacity:1"
         d="m 59.337975,247.77154 c -0.830906,0 -1.479762,0.32468 -1.946651,0.97358 -0.466892,0.64099 -0.700217,1.59415 -0.700217,2.86029 0,1.08414 0.170289,1.943 0.510564,2.57607 0.348189,0.62516 0.842645,1.01686 1.48363,1.17512 0.08705,0.55394 0.364066,0.97741 0.830958,1.27021 0.474803,0.30071 1.175298,0.51418 2.101165,0.64079 l 0.308507,-1.04438 c -0.585592,-0.10287 -1.048788,-0.22152 -1.389063,-0.35605 -0.332362,-0.12662 -0.541853,-0.28896 -0.628901,-0.48679 0.672637,-0.13453 1.186955,-0.51828 1.543058,-1.15136 0.356102,-0.64098 0.534334,-1.51573 0.534334,-2.62361 0,-1.26614 -0.225899,-2.2193 -0.676961,-2.86029 -0.451064,-0.6489 -1.107863,-0.97358 -1.970423,-0.97358 z m -12.297439,0.0475 c -0.118703,0 -0.256696,0.004 -0.414962,0.0119 -0.158268,0.008 -0.324583,0.0198 -0.498679,0.0357 -0.174093,0.008 -0.348353,0.0278 -0.522449,0.0594 -0.166182,0.0237 -0.320579,0.0515 -0.46302,0.0832 l 0,7.24039 1.460375,0 0,-2.7063 0.759645,0 c 0.276969,0.45107 0.534128,0.89837 0.771528,1.34152 0.245316,0.43524 0.45878,0.88998 0.640789,1.36478 l 1.531173,0 c -0.09496,-0.24532 -0.209637,-0.50248 -0.344167,-0.77153 -0.126614,-0.27697 -0.261152,-0.55002 -0.403593,-0.81907 -0.142441,-0.27697 -0.288893,-0.5381 -0.439248,-0.78342 -0.150355,-0.25323 -0.292838,-0.48258 -0.427366,-0.68833 0.403585,-0.182 0.692521,-0.44711 0.866614,-0.7953 0.174096,-0.34818 0.260966,-0.73591 0.260966,-1.16323 0,-0.4115 -0.06701,-0.76745 -0.201538,-1.06816 -0.126614,-0.30862 -0.312791,-0.5618 -0.558104,-0.75964 -0.245317,-0.19783 -0.537708,-0.34429 -0.877983,-0.43925 -0.340275,-0.095 -0.720572,-0.14263 -1.139981,-0.14263 z m 4.142899,0.0832 0,7.34735 4.712374,0 0,-1.21078 -3.252515,0 0,-2.06498 2.599841,0 0,-1.21078 -2.599841,0 0,-1.65003 2.991549,0 0,-1.21078 -4.451408,0 z m 8.15454,1.13946 c 0.25323,0 0.455292,0.067 0.605647,0.20154 0.150355,0.13453 0.265033,0.31673 0.344167,0.54622 0.08705,0.22949 0.142656,0.50254 0.166397,0.81907 0.03165,0.30863 0.04754,0.64074 0.04754,0.99684 0,0.35611 -0.0159,0.68873 -0.04754,0.99736 -0.02373,0.30862 -0.07935,0.58167 -0.166397,0.81907 -0.07913,0.22949 -0.197784,0.41169 -0.356052,0.54622 -0.150355,0.13453 -0.348446,0.20154 -0.593762,0.20154 -0.253228,0 -0.454777,-0.067 -0.605131,-0.20154 -0.150355,-0.13453 -0.269002,-0.31673 -0.35605,-0.54622 -0.07913,-0.2374 -0.134744,-0.51045 -0.166399,-0.81907 -0.02373,-0.30863 -0.03565,-0.64125 -0.03565,-0.99736 0,-0.3561 0.01191,-0.68821 0.03565,-0.99684 0.03166,-0.30862 0.08726,-0.57769 0.166399,-0.80718 0.08705,-0.2374 0.205695,-0.42358 0.35605,-0.55811 0.150354,-0.13453 0.351903,-0.20154 0.605131,-0.20154 z m -12.297439,0.0476 c 0.387755,0 0.700524,0.0908 0.937927,0.27285 0.2374,0.18201 0.356049,0.46697 0.356049,0.85473 0,0.3561 -0.110704,0.63312 -0.332279,0.83095 -0.221575,0.18993 -0.581493,0.28474 -1.080037,0.28474 l -0.320395,0 0,-2.20762 c 0.07913,-0.0158 0.158062,-0.0238 0.237197,-0.0238 0.07913,-0.008 0.146142,-0.0119 0.201538,-0.0119 z"
         id="rect8441" />
      <path
         inkscape:connector-curvature="0"
         style="opacity:1;fill:url(#linearGradient4976);fill-opacity:1;stroke:none;stroke-width:1.11299992;stroke-miterlimit:4;stroke-dasharray:none;stroke-opacity:1"
         d="m 53.563134,257.0929 -11.844755,14.21412 7.10706,0 0,9.47591 9.475906,0 0,-9.47591 7.10706,0 -11.845271,-14.21412 z"
         id="rect8445" />
      <path
         inkscape:connector-curvature="0"
         style="opacity:1;fill:url(#linearGradient4978);fill-opacity:1;stroke:none;stroke-width:1.11299992;stroke-miterlimit:4;stroke-dasharray:none;stroke-opacity:1"
         d="m 82.334504,247.73588 c -0.783425,0 -1.400503,0.19412 -1.851567,0.58188 -0.443151,0.38775 -0.665075,0.92591 -0.665075,1.61437 0,0.34819 0.06355,0.64058 0.190169,0.87798 0.126614,0.22949 0.284986,0.42361 0.474906,0.58188 0.197834,0.15827 0.415272,0.28883 0.652674,0.39171 0.2374,0.10287 0.466754,0.19371 0.68833,0.27285 0.166182,0.0633 0.332496,0.1348 0.498676,0.21394 0.166182,0.0712 0.316608,0.15412 0.451135,0.24908 0.134528,0.087 0.245232,0.18981 0.33228,0.30851 0.08705,0.1187 0.130741,0.25323 0.130741,0.40359 0,0.1187 -0.01987,0.23735 -0.05943,0.35605 -0.03165,0.11079 -0.09521,0.21407 -0.190169,0.30902 -0.09496,0.0871 -0.225526,0.15803 -0.391705,0.21343 -0.158269,0.0475 -0.359818,0.0713 -0.605131,0.0713 -0.427323,0 -0.791731,-0.0556 -1.092441,-0.1664 -0.292796,-0.11078 -0.545981,-0.22943 -0.759643,-0.35605 l -0.427365,1.18701 c 0.182009,0.11079 0.455057,0.23341 0.81907,0.36794 0.364017,0.12661 0.851046,0.19017 1.460379,0.19017 0.910039,0 1.586698,-0.18618 2.029849,-0.55811 0.451064,-0.37984 0.676444,-0.91402 0.676444,-1.60249 0,-0.40358 -0.06753,-0.73569 -0.202054,-0.99683 -0.134528,-0.26906 -0.308272,-0.49047 -0.521933,-0.66456 -0.205748,-0.18201 -0.435618,-0.32449 -0.688846,-0.42737 -0.245316,-0.11078 -0.482613,-0.21009 -0.712102,-0.29713 -0.150355,-0.0554 -0.304752,-0.11447 -0.463021,-0.17777 -0.150354,-0.0633 -0.288864,-0.13481 -0.415478,-0.21394 -0.1187,-0.0871 -0.21749,-0.18187 -0.296624,-0.28474 -0.07913,-0.11079 -0.118337,-0.23738 -0.118337,-0.37982 0,-0.56185 0.387723,-0.84284 1.163235,-0.84284 0.316537,0 0.59304,0.0397 0.830442,0.11885 0.245314,0.0791 0.467241,0.17395 0.665075,0.28474 l 0.427363,-1.12758 c -0.229489,-0.12662 -0.51445,-0.24129 -0.854728,-0.34417 -0.332362,-0.10287 -0.724059,-0.15451 -1.175121,-0.15451 z m -12.428182,0.0832 c -0.1187,0 -0.25721,0.004 -0.415478,0.0119 -0.158269,0.008 -0.324067,0.0198 -0.49816,0.0357 -0.174096,0.008 -0.348356,0.0278 -0.522449,0.0594 -0.166182,0.0237 -0.32058,0.0515 -0.463021,0.0832 l 0,7.24039 1.459857,0 0,-2.7063 0.759645,0 c 0.276969,0.45107 0.534128,0.89837 0.771528,1.34152 0.245316,0.43524 0.459298,0.88998 0.641305,1.36478 l 1.531173,0 c -0.09496,-0.24532 -0.209638,-0.50248 -0.344165,-0.77153 -0.126614,-0.27697 -0.261152,-0.55002 -0.403593,-0.81907 -0.142441,-0.27697 -0.288896,-0.5381 -0.43925,-0.78342 -0.150355,-0.25323 -0.292836,-0.48258 -0.427363,-0.68833 0.403582,-0.182 0.692517,-0.44711 0.866613,-0.7953 0.174093,-0.34818 0.260967,-0.73591 0.260967,-1.16323 0,-0.4115 -0.06701,-0.76745 -0.201539,-1.06816 -0.126613,-0.30862 -0.31279,-0.5618 -0.558107,-0.75964 -0.245313,-0.19783 -0.538223,-0.34429 -0.878498,-0.43925 -0.340276,-0.095 -0.720056,-0.14263 -1.139465,-0.14263 z m 4.142898,0.0832 0,7.34735 4.712375,0 0,-1.21078 -3.252515,0 0,-2.06498 2.599841,0 0,-1.21078 -2.599841,0 0,-1.65003 2.991549,0 0,-1.21078 -4.451409,0 z m -4.142898,1.18701 c 0.387757,0 0.700526,0.0908 0.937926,0.27285 0.237403,0.18201 0.356053,0.46697 0.356053,0.85473 0,0.3561 -0.110704,0.63312 -0.33228,0.83095 -0.221575,0.18993 -0.581493,0.28474 -1.08004,0.28474 l -0.32091,0 0,-2.20762 c 0.07913,-0.0158 0.158578,-0.0238 0.237712,-0.0238 0.07913,-0.008 0.146145,-0.0119 0.201539,-0.0119 z"
         id="rect8439" />
      <path
         inkscape:connector-curvature="0"
         style="opacity:1;fill:url(#linearGradient8456-164-851-679);fill-opacity:1;stroke:none;stroke-width:1.11299992;stroke-miterlimit:4;stroke-dasharray:none;stroke-opacity:1"
         d="m 71.506741,257.0929 0,9.68985 -7.267773,0 12.112955,14.53554 12.112956,-14.53554 -7.267773,0 0,-9.68985 -9.690365,0 z"
         id="rect8347" />
    </g>
    <text
       sodipodi:linespacing="125%"
       id="text8855"
       y="268.4068"
       x="41.743858"
       style="font-style:normal;font-weight:normal;font-size:10.64375401px;line-height:125%;font-family:sans-serif;letter-spacing:0px;word-spacing:0px;fill:#2c3e50;fill-opacity:1;stroke:none;stroke-width:0.39914075px;stroke-linecap:butt;stroke-linejoin:miter;stroke-opacity:1"
       xml:space="preserve"><tspan
         style="font-style:normal;font-variant:normal;font-weight:normal;font-stretch:normal;font-family:'Ubuntu Mono';-inkscape-font-specification:'Ubuntu Mono';fill:#34495e;fill-opacity:0.18461537;stroke-width:0.39914075px"
         y="268.4068"
         x="41.743858"
         id="tspan8857"
         sodipodi:role="line">require(&quot;           &quot;)</tspan></text>
    <text
       xml:space="preserve"
       style="font-style:normal;font-weight:normal;font-size:10.64375401px;line-height:125%;font-family:sans-serif;letter-spacing:0px;word-spacing:0px;fill:#2c3e50;fill-opacity:1;stroke:none;stroke-width:0.39914075px;stroke-linecap:butt;stroke-linejoin:miter;stroke-opacity:1"
       x="89.68042"
       y="268.4068"
       id="text8851"
       sodipodi:linespacing="125%"><tspan
         sodipodi:role="line"
         id="tspan8853"
         x="89.68042"
         y="268.4068"
         style="font-style:normal;font-variant:normal;font-weight:bold;font-stretch:normal;font-family:'Ubuntu Mono';-inkscape-font-specification:'Ubuntu Mono Bold';fill:#2c3e50;stroke-width:0.39914075px">jsonrequest</tspan></text>
    <text
       xml:space="preserve"
       style="font-style:normal;font-weight:normal;font-size:7.05555534px;line-height:125%;font-family:sans-serif;letter-spacing:0px;word-spacing:0px;fill:#2980b9;fill-opacity:1;stroke:none;stroke-width:0.26458332px;stroke-linecap:butt;stroke-linejoin:miter;stroke-opacity:1"
       x="24.979866"
       y="278.36813"
       id="text8859"
       sodipodi:linespacing="125%"><tspan
         sodipodi:role="line"
         id="tspan8861"
         x="24.979866"
         y="278.36813"
         style="font-style:normal;font-variant:normal;font-weight:bold;font-stretch:normal;font-family:Raleway;-inkscape-font-specification:'Raleway Bold';fill:#2980b9;stroke-width:0.26458332px">A tiny library for requesting and getting JSON resources.</tspan></text>
    <text
       xml:space="preserve"
       style="font-style:normal;font-weight:normal;font-size:7.04246521px;line-height:125%;font-family:sans-serif;letter-spacing:0px;word-spacing:0px;fill:#bdc3c7;fill-opacity:0.53846154;stroke:none;stroke-width:0.26409245px;stroke-linecap:butt;stroke-linejoin:miter;stroke-opacity:1"
       x="62.006744"
       y="246.99443"
       id="text5000"
       sodipodi:linespacing="125%"><tspan
         sodipodi:role="line"
         id="tspan5002"
         x="62.006744"
         y="246.99443"
         style="font-style:normal;font-variant:normal;font-weight:normal;font-stretch:normal;font-size:50.70574951px;font-family:'Ubuntu Mono';-inkscape-font-specification:'Ubuntu Mono';fill:#bdc3c7;fill-opacity:0.53846154;stroke-width:0.26409245px">{  }</tspan></text>
  </g>
</svg>
